####
#
# OBJ File Generated by Meshlab
#
####
# Object wx200_5_wrist.obj
#
# Vertices: 574
# Faces: 1152
#
####
mtllib ./wx200_5_wrist.obj.mtl

vn -0.9278596 4.9805789 -2.2400525
v -12.0843143 -29.0000000 -10.8500004
vn 0.9278573 4.9805870 2.2400486
v 12.0843143 -29.0000000 34.8499985
vn 0.9278597 4.9805765 -2.2400503
v 12.0843143 -29.0000000 -10.8500004
vn 2.2400546 4.9805779 0.9278628
v 13.8500004 -29.0000000 33.0843163
vn 2.2400527 4.9805799 -0.9278597
v 13.8500004 -29.0000000 -9.0843143
vn -2.2400506 4.9805779 -0.9278595
v -13.8500004 -29.0000000 -9.0843143
vn -2.2400527 4.9805756 0.9278642
v -13.8500004 -29.0000000 33.0843163
vn -0.9278591 4.9805841 2.2400463
v -12.0843143 -29.0000000 34.8499985
vn 3.4359915 2.9526594 0.9604350
v 14.2500000 -37.1468315 28.9270515
vn 3.2882712 3.1233375 0.2386527
v 14.2500000 -37.0000000 28.0000000
vn 4.2337050 1.8184968 1.7536566
v 14.2500000 -29.3999996 33.2500000
vn 3.2986734 3.1222534 -0.2457284
v 14.2500000 -37.0000000 4.0000000
vn 4.2337041 1.8184996 -1.7536566
v 14.2500000 -29.3999996 -9.2500000
vn 3.4557495 2.9510477 -0.9588529
v 14.2500000 -37.1468315 3.0729489
vn 3.4557543 2.5103109 -1.8238463
v 14.2500000 -37.5729485 2.2366443
vn 3.4557505 1.8238472 -2.5103109
v 14.2500000 -38.2366447 1.5729491
vn 3.4557526 0.9588540 -2.9510467
v 14.2500000 -39.0729485 1.1468304
vn 3.2986722 0.2457265 -3.1222534
v 14.2500000 -40.0000000 1.0000000
vn 3.2872155 -0.2380828 -3.1234207
v 14.2500000 -52.0000000 1.0000000
vn 4.2337060 -1.8184934 -1.7536588
v 14.2500000 -62.5999985 -9.2500000
vn 3.4330714 -0.9597191 -2.9531946
v 14.2500000 -52.9270515 1.1468304
vn 3.4387505 -1.8276320 -2.5097513
v 14.2500000 -53.7633553 1.5729491
vn 3.4450095 -2.5117602 -1.8237545
v 14.2500000 -54.4270515 2.2366443
vn 3.4484360 -2.9521918 -0.9578104
v 14.2500000 -54.8531685 3.0729492
vn 3.2960424 -3.1225309 -0.2439586
v 14.2500000 -55.0000000 4.0000000
vn 4.2337084 -1.8184948 1.7536585
v 14.2500000 -62.5999985 33.2500000
vn 3.2986732 -3.1222534 0.2457283
v 14.2500000 -55.0000000 28.0000000
vn 3.4557500 -2.9510479 0.9588536
v 14.2500000 -54.8531685 28.9270515
vn 3.4557528 -2.5103116 1.8238461
v 14.2500000 -54.4270515 29.7633553
vn 3.4557512 -1.8238487 2.5103102
v 14.2500000 -53.7633553 30.4270515
vn 3.4557538 -0.9588529 2.9510469
v 14.2500000 -52.9270515 30.8531704
vn 3.2986717 -0.2457252 3.1222544
v 14.2500000 -52.0000000 31.0000000
vn 3.2937272 0.2424282 3.1227682
v 14.2500000 -40.0000000 31.0000000
vn 3.4436977 0.9579456 2.9526410
v 14.2500000 -39.0729485 30.8531704
vn 3.4425123 1.8251165 2.5110636
v 14.2500000 -38.2366447 30.4270515
vn 3.4406457 2.5104141 1.8263905
v 14.2500000 -37.5729485 29.7633553
vn -4.2337031 1.8184981 -1.7536569
v -14.2500000 -29.3999996 -9.2500000
vn -3.2986734 3.1222532 -0.2457284
v -14.2500000 -37.0000000 4.0000000
vn -4.2337017 1.8184953 1.7536566
v -14.2500000 -29.3999996 33.2500000
vn -3.2882712 3.1233377 0.2386527
v -14.2500000 -37.0000000 28.0000000
vn -3.4359915 2.9526594 0.9604349
v -14.2500000 -37.1468315 28.9270515
vn -4.2337055 -1.8184930 -1.7536582
v -14.2500000 -62.5999985 -9.2500000
vn -3.2872155 -0.2380828 -3.1234207
v -14.2500000 -52.0000000 1.0000000
vn -3.2986722 0.2457265 -3.1222534
v -14.2500000 -40.0000000 1.0000000
vn -3.4557526 0.9588539 -2.9510465
v -14.2500000 -39.0729485 1.1468304
vn -4.2337098 -1.8184944 1.7536585
v -14.2500000 -62.5999985 33.2500000
vn -3.2960424 -3.1225309 -0.2439586
v -14.2500000 -55.0000000 4.0000000
vn -3.4484360 -2.9521918 -0.9578104
v -14.2500000 -54.8531685 3.0729492
vn -3.4450095 -2.5117602 -1.8237545
v -14.2500000 -54.4270515 2.2366443
vn -3.2986717 -0.2457252 3.1222539
v -14.2500000 -52.0000000 31.0000000
vn -3.4557538 -0.9588530 2.9510474
v -14.2500000 -52.9270515 30.8531704
vn -3.4557512 -1.8238485 2.5103102
v -14.2500000 -53.7633553 30.4270515
vn -3.4406457 2.5104141 1.8263905
v -14.2500000 -37.5729485 29.7633553
vn -3.4425123 1.8251164 2.5110636
v -14.2500000 -38.2366447 30.4270515
vn -3.4436977 0.9579456 2.9526410
v -14.2500000 -39.0729485 30.8531704
vn -3.2937272 0.2424282 3.1227679
v -14.2500000 -40.0000000 31.0000000
vn -3.4557528 -2.5103116 1.8238462
v -14.2500000 -54.4270515 29.7633553
vn -3.4557500 -2.9510479 0.9588536
v -14.2500000 -54.8531685 28.9270515
vn -3.2986732 -3.1222539 0.2457283
v -14.2500000 -55.0000000 28.0000000
vn -3.4387505 -1.8276320 -2.5097513
v -14.2500000 -53.7633553 1.5729491
vn -3.4330714 -0.9597192 -2.9531946
v -14.2500000 -52.9270515 1.1468304
vn -3.4557505 1.8238473 -2.5103111
v -14.2500000 -38.2366447 1.5729491
vn -3.4557543 2.5103106 -1.8238461
v -14.2500000 -37.5729485 2.2366443
vn -3.4557495 2.9510479 -0.9588530
v -14.2500000 -37.1468315 3.0729489
vn 1.7536542 1.8184983 4.2336965
v 12.2500000 -29.3999996 35.2500000
vn -1.7536550 1.8185010 4.2336979
v -12.2500000 -29.3999996 35.2500000
vn 1.7536569 -1.8184977 4.2337027
v 12.2500000 -62.5999985 35.2500000
vn -1.7536561 -1.8184949 4.2337008
v -12.2500000 -62.5999985 35.2500000
vn -1.7536565 1.8184956 -4.2336988
v -12.2500000 -29.3999996 -11.2500000
vn 1.7536569 1.8184981 -4.2337017
v 12.2500000 -29.3999996 -11.2500000
vn -1.7536588 -1.8184948 -4.2337060
v -12.2500000 -62.5999985 -11.2500000
vn 1.7536583 -1.8184919 -4.2337031
v 12.2500000 -62.5999985 -11.2500000
vn 0.9278609 -4.9805770 2.2400508
v 12.0843143 -63.0000000 34.8499985
vn -0.9278592 -4.9805799 2.2400534
v -12.0843143 -63.0000000 34.8499985
vn 2.2400570 1.3026137 -0.9278613
v 13.8500004 -63.0000000 -9.0843143
vn 4.3943682 -2.3411472 2.2610686
v 13.8500004 -63.0000000 14.4283571
vn 2.2400575 -4.9805675 0.9278660
v 13.8500004 -63.0000000 33.0843163
vn -2.2400575 -4.9805684 0.9278644
v -13.8500004 -63.0000000 33.0843163
vn -4.3975244 -2.3261824 2.2598870
v -13.8500004 -63.0000000 14.4283571
vn -2.2400572 1.3026133 -0.9278616
v -13.8500004 -63.0000000 -9.0843143
vn -0.9278613 1.3026128 -2.2400544
v -12.0843143 -63.0000000 -10.8500004
vn 0.9278616 1.3026100 -2.2400572
v 12.0843143 -63.0000000 -10.8500004
vn -1.8918176 -3.2450144 2.5029392
v -12.0601263 -63.0000000 15.9547291
vn -1.5836666 -3.2450829 2.7084315
v -10.1034164 -63.0000000 17.2603874
vn -1.2535079 -3.2452812 2.8761268
v -8.0069399 -63.0000000 18.3272724
vn -0.9060168 -3.2456324 3.0036929
v -5.7996979 -63.0000000 19.1406250
vn -0.5461172 -3.2461748 3.0893857
v -3.5122249 -63.0000000 19.6891918
vn -0.1788919 -3.2469654 3.1320784
v -1.1761652 -63.0000000 19.9653854
vn 0.1904925 -3.2480712 3.1312697
v 1.1761652 -63.0000000 19.9653854
vn 0.5568694 -3.2495680 3.0870862
v 3.5122249 -63.0000000 19.6891918
vn 0.9151479 -3.2515414 3.0002682
v 5.7996979 -63.0000000 19.1406250
vn 1.2603841 -3.2540786 2.8721538
v 8.0069399 -63.0000000 18.3272724
vn 1.5878541 -3.2572746 2.7046435
v 10.1034164 -63.0000000 17.2603874
vn 1.8915576 -3.2592852 2.5014954
v 12.0601263 -63.0000000 15.9547291
vn -2.4381754 3.0353901 1.9739308
v -15.5418787 -63.0000000 12.5876932
vn -2.6652029 3.0354085 1.6546352
v -16.9908962 -63.0000000 10.5503302
vn -2.8506575 3.0354114 1.3095336
v -18.1744099 -63.0000000 8.3481045
vn -2.9916494 3.0353985 0.9440048
v -19.0739250 -63.0000000 6.0154305
vn -3.0859792 3.0353684 0.5637488
v -19.6753864 -63.0000000 3.5887570
vn -3.1321743 3.0353227 0.1746969
v -19.9693947 -63.0000000 1.1060051
vn -3.1295114 3.0352540 -0.2170887
v -19.9513588 -63.0000000 -1.3940297
vn -3.0780292 3.0351727 -0.6054958
v -19.6215553 -63.0000000 -3.8722811
vn -2.9785256 3.0350697 -0.9844669
v -18.9851418 -63.0000000 -6.2900229
vn -2.8325477 3.0349445 -1.3480905
v -18.0520611 -63.0000000 -8.6094761
vn -2.6423676 3.0347981 -1.6906908
v -16.8368950 -63.0000000 -10.7943945
vn -2.4109442 3.0346272 -2.0069232
v -15.3586321 -63.0000000 -12.8106375
vn -2.1418834 3.0344298 -2.2918468
v -13.6403704 -63.0000000 -14.6266985
vn -1.8393767 3.0342047 -2.5410104
v -11.7089615 -63.0000000 -16.2141991
vn -1.5081377 3.0339496 -2.7505198
v -9.5945845 -63.0000000 -17.5483322
vn -1.1533353 3.0336637 -2.9170935
v -7.3302808 -63.0000000 -18.6082497
vn -0.7805001 3.0333397 -3.0381241
v -4.9514327 -63.0000000 -19.3773918
vn -0.3954522 3.0329814 -3.1117103
v -2.4952116 -63.0000000 -19.8437366
vn -0.0042006 3.0325778 -3.1366909
v 0.0000000 -63.0000000 -20.0000000
vn 0.3871413 3.0321331 -3.1126633
v 2.4952116 -63.0000000 -19.8437366
vn 0.7724601 3.0316384 -3.0399904
v 4.9514327 -63.0000000 -19.3773918
vn 1.1457314 3.0310957 -2.9197955
v 7.3302808 -63.0000000 -18.6082497
vn 1.5011156 3.0304971 -2.7539434
v 9.5945845 -63.0000000 -17.5483322
vn 1.8330534 3.0298409 -2.5450137
v 11.7089615 -63.0000000 -16.2141991
vn 2.1363425 3.0291259 -2.2962637
v 13.6403704 -63.0000000 -14.6266985
vn 2.4062314 3.0283461 -2.0115719
v 15.3586321 -63.0000000 -12.8106375
vn 2.6384864 3.0274994 -1.6953833
v 16.8368950 -63.0000000 -10.7943945
vn 2.8294606 3.0265794 -1.3526373
v 18.0520611 -63.0000000 -8.6094761
vn 2.9761522 3.0255828 -0.9886922
v 18.9851418 -63.0000000 -6.2900229
vn 3.0762498 3.0245080 -0.6092426
v 19.6215553 -63.0000000 -3.8722811
vn 3.1281724 3.0233476 -0.2202251
v 19.9513588 -63.0000000 -1.3940297
vn 3.1310916 3.0221066 0.1722637
v 19.9693947 -63.0000000 1.1060051
vn 3.0849473 3.0207694 0.5620755
v 19.6753864 -63.0000000 3.5887570
vn 2.9904490 3.0193393 0.9430984
v 19.0739250 -63.0000000 6.0154305
vn 2.8492053 3.0180900 1.3090949
v 18.1744099 -63.0000000 8.3481045
vn 2.6640162 3.0183630 1.6537318
v 16.9908962 -63.0000000 10.5503302
vn 2.4365695 3.0198548 1.9737194
v 15.5418787 -63.0000000 12.5876932
vn -3.1130784 -3.0347769 -0.3875577
v -19.8484097 -65.0000000 -2.4577658
vn 3.1302383 -3.0234716 -0.1898556
v 19.9620667 -65.0000000 -1.2312181
vn -3.1371202 -3.0348358 -0.0016461
v -20.0000000 -65.0000000 -0.0000000
vn 3.1297855 -3.0222647 0.1957768
v 19.9620667 -65.0000000 1.2312181
vn -3.1135020 -3.0348842 0.3843006
v -19.8484097 -65.0000000 2.4577658
vn 3.0820103 -3.0209725 0.5783828
v 19.6594620 -65.0000000 3.6749904
vn -3.0425782 -3.0349150 0.7644192
v -19.3959389 -65.0000000 4.8782744
vn 2.9876528 -3.0195835 0.9521776
v 19.0588398 -65.0000000 6.0630536
vn -2.9254248 -3.0349326 1.1329299
v -18.6494446 -65.0000000 7.2248335
vn 2.8483005 -3.0183816 1.3112521
v 18.1693058 -65.0000000 8.3592072
vn -2.7638221 -3.0349395 1.4842286
v -17.6202431 -65.0000000 9.4618711
vn 2.6666512 -3.0186338 1.6496296
v 17.0043430 -65.0000000 10.5286436
vn -2.5602257 -3.0349290 1.8129753
v -16.3239384 -65.0000000 11.5554771
vn 2.4441659 -3.0200837 1.9644282
v 15.5816116 -65.0000000 12.5384760
vn -2.3177314 -3.0349066 2.1141734
v -14.7801781 -65.0000000 13.4739132
vn 2.1846926 -3.0214388 2.2495859
v 13.9226789 -65.0000000 14.3582382
vn -2.0408742 -3.0393193 2.3826385
v -13.0123663 -65.0000000 15.1880980
vn 1.8900141 -3.0229652 2.5023713
v 12.0526924 -65.0000000 15.9603443
vn -1.7332839 -3.0393007 2.6149275
v -11.0472994 -65.0000000 16.6720486
vn 1.5684795 -3.0253685 2.7156682
v 10.0000000 -65.0000000 17.3205090
vn -1.3994865 -3.0390928 2.8077393
v -8.9147673 -65.0000000 17.9032650
vn 1.2217147 -3.0288928 2.8885794
v 7.7957177 -65.0000000 18.4181099
vn -1.0444603 -3.0386693 2.9581676
v -6.6470962 -65.0000000 18.8630886
vn 0.8565903 -3.0317307 3.0172868
v 5.4732599 -65.0000000 19.2365131
vn -0.6735014 -3.0379999 3.0639176
v -4.2786617 -65.0000000 19.5369663
vn 0.4787151 -3.0339808 3.0999532
v 3.0678332 -65.0000000 19.7633095
vn -0.2921560 -3.0370333 3.1233356
v -1.8453672 -65.0000000 19.9146843
vn 0.0938555 -3.0357196 3.1354430
v 0.6159012 -65.0000000 19.9905148
vn 3.0833411 -3.0245910 -0.5726850
v 19.6594620 -65.0000000 -3.6749904
vn -3.0417452 -3.0346954 -0.7675639
v -19.3959389 -65.0000000 -4.8782744
vn 2.9897852 -3.0256259 -0.9469134
v 19.0588398 -65.0000000 -6.0630536
vn -2.9242113 -3.0345991 -1.1358933
v -18.6494446 -65.0000000 -7.2248335
vn 2.8509672 -3.0265839 -1.3068758
v 18.1693058 -65.0000000 -8.3592072
vn -2.7622695 -3.0344870 -1.4869478
v -17.6202431 -65.0000000 -9.4618711
vn 2.6689701 -3.0274684 -1.6471162
v 17.0043430 -65.0000000 -10.5286436
vn -2.5583873 -3.0343518 -1.8153963
v -16.3239384 -65.0000000 -11.5554771
vn 2.4465337 -3.0282817 -1.9624732
v 15.5816116 -65.0000000 -12.5384760
vn -2.3156691 -3.0341971 -2.1162548
v -14.7801781 -65.0000000 -13.4739132
vn 2.1870100 -3.0290289 -2.2481611
v 13.9226789 -65.0000000 -14.3582382
vn -2.0378118 -3.0340171 -2.3849549
v -13.0123663 -65.0000000 -15.1880980
vn 1.8943179 -3.0297122 -2.4998384
v 12.0526924 -65.0000000 -15.9603443
vn -1.7290409 -3.0338080 -2.6174252
v -11.0472994 -65.0000000 -16.6720486
vn 1.5728781 -3.0303323 -2.7136798
v 10.0000000 -65.0000000 -17.3205090
vn -1.3940548 -3.0335753 -2.8101432
v -8.9147673 -65.0000000 -17.9032650
vn 1.2275548 -3.0308995 -2.8864279
v 7.7957177 -65.0000000 -18.4181099
vn -1.0379479 -3.0333078 -2.9601915
v -6.6470962 -65.0000000 -18.8630886
vn 0.8635752 -3.0314109 -3.0154476
v 5.4732599 -65.0000000 -19.2365131
vn -0.6661284 -3.0330079 -3.0653067
v -4.2786617 -65.0000000 -19.5369663
vn 0.4864506 -3.0318778 -3.0987685
v 3.0678332 -65.0000000 -19.7633095
vn -0.2842474 -3.0326674 -3.1239040
v -1.8453672 -65.0000000 -19.9146843
vn 0.1019002 -3.0322943 -3.1351097
v 0.6159012 -65.0000000 -19.9905148
vn 2.9845138 -0.2457252 3.1222539
v 22.0000000 -52.0000000 31.0000000
vn 2.8274314 -0.9588529 2.9510474
v 22.0000000 -52.9270515 30.8531704
vn 2.8274338 -1.8238485 2.5103102
v 22.0000000 -53.7633553 30.4270515
vn 2.8274326 -2.5103116 1.8238462
v 22.0000000 -54.4270515 29.7633553
vn 2.8274353 -2.9510479 0.9588536
v 22.0000000 -54.8531685 28.9270515
vn 2.9845107 -3.1222539 0.2457283
v 22.0000000 -55.0000000 28.0000000
vn -2.9845107 -3.1222534 0.2457283
v -22.0000000 -55.0000000 28.0000000
vn -2.8274353 -2.9510479 0.9588536
v -22.0000000 -54.8531685 28.9270515
vn -2.8274326 -2.5103116 1.8238461
v -22.0000000 -54.4270515 29.7633553
vn -2.8274338 -1.8238487 2.5103102
v -22.0000000 -53.7633553 30.4270515
vn -2.8274314 -0.9588529 2.9510469
v -22.0000000 -52.9270515 30.8531704
vn -2.9845138 -0.2457252 3.1222544
v -22.0000000 -52.0000000 31.0000000
vn 3.0010996 -3.1261163 -0.2199568
v 22.0000000 -55.0000000 4.0000000
vn -3.0010993 -3.1261163 -0.2199568
v -22.0000000 -55.0000000 4.0000000
vn 2.8628628 -2.9892974 -0.8611256
v 22.0000000 -54.8823509 3.1681004
vn 2.8668206 -2.6333776 -1.6568402
v 22.0000000 -54.5386276 2.4014492
vn 2.8695548 -2.0705256 -2.3225703
v 22.0000000 -53.9957924 1.7601774
vn 3.0064266 -1.5465097 -2.7259569
v 22.0000000 -53.2964249 1.2945820
vn -0.0750531 -2.8598120 -5.5778174
v 19.0000000 -53.2964249 1.2945820
vn -3.2908223 -0.9181113 -2.9953215
v 19.0000000 -52.8805695 1.1321443
vn -3.2933161 -0.4657618 -3.0979965
v 19.0000000 -52.4452133 1.0332201
vn -3.2160704 -0.1168817 -3.1372380
v 19.0000000 -52.0000000 1.0000000
vn 3.0202267 0.1901755 3.1300380
v 22.0000000 -40.0000000 31.0000000
vn -3.0202270 0.1901755 3.1300380
v -22.0000000 -40.0000000 31.0000000
vn -3.2986734 0.2457265 -3.1222534
v 19.0000000 -40.0000000 1.0000000
vn -3.2415681 3.1337490 0.1567796
v 19.0000000 -37.0000000 28.0000000
vn -3.3383384 3.0645239 0.6179105
v 19.0000000 -37.0597725 28.5958786
vn -3.3409979 2.8773379 1.2217946
v 19.0000000 -37.2367134 29.1680107
vn -0.1421005 5.2082968 3.4978390
v 19.0000000 -37.5237694 29.6935997
vn 3.0609362 2.4415472 1.9728136
v 22.0000000 -37.5237694 29.6935997
vn 2.9043374 2.0769167 2.3268590
v 22.0000000 -38.0034256 30.2391281
vn 2.9060273 1.4550762 2.7588916
v 22.0000000 -38.6001434 30.6533756
vn 2.9021089 0.7473243 3.0279047
v 22.0000000 -39.2789345 30.9120541
vn -2.9021089 0.7473243 3.0279047
v -22.0000000 -39.2789345 30.9120541
vn -2.9060273 1.4550763 2.7588916
v -22.0000000 -38.6001434 30.6533756
vn -2.9043374 2.0769167 2.3268590
v -22.0000000 -38.0034256 30.2391281
vn -3.0609362 2.4415474 1.9728136
v -22.0000000 -37.5237694 29.6935997
vn 0.1421005 5.2082968 3.4978390
v -19.0000000 -37.5237694 29.6935997
vn 3.3409979 2.8773379 1.2217946
v -19.0000000 -37.2367134 29.1680107
vn 3.3383384 3.0645239 0.6179105
v -19.0000000 -37.0597725 28.5958786
vn 3.2415681 3.1337490 0.1567796
v -19.0000000 -37.0000000 28.0000000
vn -3.4557524 0.9588539 -2.9510465
v 19.0000000 -39.0729485 1.1468304
vn -3.4557500 1.8238474 -2.5103111
v 19.0000000 -38.2366447 1.5729491
vn -3.4557538 2.5103106 -1.8238461
v 19.0000000 -37.5729485 2.2366443
vn -3.4557490 2.9510479 -0.9588530
v 19.0000000 -37.1468315 3.0729489
vn -3.2986734 3.1222532 -0.2457284
v 19.0000000 -37.0000000 4.0000000
vn -3.1417789 -1.3581284 -2.8328593
v 19.0000000 -52.0532494 0.6987194
vn -3.1417761 -1.3586481 -2.8326104
v 19.0000000 -50.8101845 0.1026295
vn -3.1161489 -1.3226572 -2.8493133
v 19.0000000 -49.5672302 -0.4936877
vn -3.0905232 -1.2124141 -2.8971062
v 19.0000000 -44.3777733 -2.8228657
vn -3.0905228 -1.0629439 -2.9552193
v 19.0000000 -39.0761871 -4.8840995
vn -3.5342903 2.0189810 2.3275917
v 19.0000000 -30.7098274 2.5367250
vn -3.3379428 1.2748271 2.8547509
v 19.0000000 -30.0319061 2.1502211
vn -3.0905232 -0.9107021 -3.0056269
v 19.0000000 -33.6762886 -6.6720142
vn -3.0905232 -0.7560859 -3.0481970
v 19.0000000 -28.1921654 -8.1819477
vn -3.3379421 0.6933969 3.0486040
v 19.0000000 -20.5452843 -1.0126907
vn -3.0905235 -0.5994979 -3.0828192
v 19.0000000 -22.6381130 -9.4099636
vn -3.5342922 -0.2182199 3.0734909
v 19.0000000 -19.7710571 -1.1103443
vn -3.0905240 -0.4413469 -3.1094022
v 19.0000000 -17.0286140 -10.3528585
vn -3.5342922 -1.3777835 2.7560258
v 19.0000000 -19.0183945 -0.9042805
vn -3.0905232 -0.2820452 -3.1278782
v 19.0000000 -11.3782978 -11.0081758
vn -3.5342898 -2.3275907 2.0189834
v 19.0000000 -18.4018822 -0.4258708
vn -3.3740342 2.7892921 1.3988357
v 19.0000000 -4.4694476 -2.2414370
vn -3.3740349 3.0365069 0.7186915
v 19.0000000 -4.8655744 -1.1516023
vn -3.3379443 -2.8547494 1.2748282
v 19.0000000 -18.0153770 0.2520513
vn -3.3740342 3.1203995 -0.0001079
v 19.0000000 -5.0000000 0.0001729
vn -3.3379438 -3.0486040 0.6933945
v 19.0000000 -17.0665035 3.0980377
vn -3.3740344 3.0364571 -0.7189014
v 19.0000000 -4.8654947 1.1519388
vn -3.3740344 2.7891955 -1.3990287
v 19.0000000 -4.4692926 2.2417462
vn -3.5342884 -3.0734918 -0.2182196
v 19.0000000 -16.9688511 3.8722649
vn -3.3740342 2.3919132 -2.0039070
v 19.0000000 -3.8327038 3.2109785
vn -3.5342946 -2.7560258 -1.3777814
v 19.0000000 -17.1749134 4.6249275
vn -3.2148256 0.4748559 3.1033676
v 19.0000000 -7.1097569 12.0156736
vn -3.2148261 0.7006510 3.0603051
v 19.0000000 -10.6519661 12.6912270
vn -3.5342901 -2.0189815 -2.3275914
v 19.0000000 -17.6533241 5.2414403
vn -3.3379431 -1.2748275 -2.8547502
v 19.0000000 -18.3312454 5.6279445
vn -3.5342941 2.7560263 1.3777814
v 19.0000000 -31.1882381 3.1532378
vn -3.5342884 3.0734921 0.2182194
v 19.0000000 -31.3943005 3.9059007
vn -3.3379438 3.0486040 -0.6933945
v 19.0000000 -31.2966480 4.6801276
vn -3.3379428 2.8547499 -1.2748277
v 19.0000000 -30.3477745 7.5261140
vn -3.5342903 2.3275907 -2.0189824
v 19.0000000 -29.9612694 8.2040367
vn -3.2148280 1.9359432 2.4715385
v 19.0000000 -30.0308609 21.9276218
vn -3.5342927 1.3777826 -2.7560258
v 19.0000000 -29.3447571 8.6824465
vn -3.2148254 1.7499162 2.6065629
v 19.0000000 -27.1125202 19.8093910
vn -3.5342910 0.2182194 -3.0734911
v 19.0000000 -28.5920944 8.8885098
vn -3.2148261 1.5545082 2.7276144
v 19.0000000 -24.0470142 17.9103661
vn -3.3379419 -0.6933964 -3.0486040
v 19.0000000 -27.8178673 8.7908564
vn -3.2148266 1.3507659 2.8340445
v 19.0000000 -20.8507767 16.2407303
vn -3.2148263 1.1397830 2.9252813
v 19.0000000 -17.5409412 14.8094330
vn -3.2193346 2.2854519 2.1520710
v 19.0000000 -34.5050354 25.9422874
vn -3.2170796 2.1141200 2.3207860
v 19.0000000 -32.7863922 24.2537060
vn -3.2193308 2.4456844 1.9680769
v 19.0000000 -36.0873451 27.7592449
vn -3.2148263 0.9226902 3.0008364
v 19.0000000 -14.1352520 13.6241474
vn -3.2148268 0.2465151 3.1297936
v 19.0000000 -3.5276129 11.6011076
vn -3.3740342 1.2396805 -2.8635788
v 19.0000000 -1.9864137 4.5884814
vn -3.3740344 1.8659787 -2.5010026
v 19.0000000 -2.9899683 4.0075045
vn -3.3740335 0.5467046 -3.0721338
v 19.0000000 -0.8760173 4.9226613
vn -3.0303349 0.3057020 3.1218009
v 19.0000000 0.0752626 11.4497528
vn -2.8787351 3.0291166 0.7242606
v 19.0000000 3.3559783 8.8024130
vn -2.8787346 2.7368777 1.4864726
v 19.0000000 3.0322049 9.6468735
vn -2.8787348 2.2566221 2.1465685
v 19.0000000 2.5001268 10.3781977
vn -2.8787344 1.6213427 2.6592007
v 19.0000000 1.7962967 10.9461460
vn -2.8787353 0.8746819 2.9891524
v 19.0000000 0.9690658 11.3117018
vn -2.8502669 3.1055298 -0.1317468
v 19.0000000 3.4492052 7.9028296
vn -3.0979180 0.2564133 -3.1303596
v 19.0000000 0.2814968 4.9920697
vn -2.8218002 2.9156485 -1.0575483
v 19.0000000 3.2706091 6.9643788
vn -2.8218009 2.4353666 -1.9205214
v 19.0000000 2.8060477 6.1296520
vn -2.8218002 1.7081425 -2.5887570
v 19.0000000 2.1026268 5.4832888
vn -2.8218005 0.8077149 -2.9944968
v 19.0000000 1.2316719 5.0908298
vn -3.3740339 2.3920519 2.0037415
v 19.0000000 -3.8329258 -3.2107134
vn -3.3740344 1.8661522 2.5008736
v 19.0000000 -2.9902456 -4.0072975
vn -3.0905232 -0.1220075 -3.1381977
v 19.0000000 -5.7018952 -11.3742046
vn -3.3740344 1.2398788 2.8634930
v 19.0000000 -1.9867311 -4.5883441
vn -3.3740337 0.5469172 3.0720959
v 19.0000000 -0.8763577 -4.9226007
vn -3.0979228 0.2566241 3.1303425
v 19.0000000 0.2811515 -4.9920893
vn -2.8487992 3.1052952 0.1293353
v 19.0000000 3.4486556 -7.9029641
vn -2.8757915 3.0263541 -0.7331343
v 19.0000000 3.3530364 -8.8122730
vn -3.1290753 -0.0221937 -3.1414599
v 19.0000000 -0.0142087 -11.4499912
vn -2.8757911 2.7274940 -1.5023584
v 19.0000000 3.0219154 -9.6645327
vn -2.8757915 2.2370677 -2.1660643
v 19.0000000 2.4785495 -10.3998823
vn -2.8218071 0.8079015 2.9944482
v 19.0000000 1.2312998 -5.0909095
vn -2.8218074 1.7082868 2.5886641
v 19.0000000 2.1022129 -5.4834113
vn -2.8218074 2.4354610 1.9204047
v 19.0000000 2.8055851 -6.1297970
vn -2.8218074 2.9156942 1.0574279
v 19.0000000 3.2700992 -6.9645271
vn -2.8757911 1.5895185 -2.6776361
v 19.0000000 1.7611015 -10.9666758
vn -2.8758173 0.8303307 -3.0011425
v 19.0000000 0.9199620 -11.3251028
vn -3.1407874 -0.0012652 -3.1415992
v 19.0000000 -0.0047362 -11.4499989
vn -3.1407869 0.0012652 -3.1415992
v 19.0000000 0.0047362 -11.4499989
vn -3.0053790 0.2158221 -3.1268702
v 19.0000000 0.0142087 -11.4499912
vn 3.3379443 -2.8547497 1.2748282
v 22.0000000 -18.0153770 0.2520513
vn 3.3379438 -3.0486038 0.6933944
v 22.0000000 -17.0665035 3.0980377
vn 3.3379421 0.6933969 3.0486040
v 22.0000000 -20.5452843 -1.0126907
vn 3.5342922 -0.2182199 3.0734909
v 22.0000000 -19.7710571 -1.1103443
vn 3.5342922 -1.3777837 2.7560263
v 22.0000000 -19.0183945 -0.9042805
vn 3.5342901 -2.3275905 2.0189831
v 22.0000000 -18.4018822 -0.4258708
vn 3.3379431 1.2748271 2.8547504
v 22.0000000 -30.0319061 2.1502211
vn 3.3379474 3.0486038 -0.6933945
v 22.0000000 -31.2966480 4.6801276
vn 3.5342884 3.0734921 0.2182194
v 22.0000000 -31.3943005 3.9059007
vn 3.5342944 2.7560258 1.3777813
v 22.0000000 -31.1882381 3.1532378
vn 3.5342903 2.0189812 2.3275919
v 22.0000000 -30.7098274 2.5367250
vn 3.3379431 2.8547499 -1.2748277
v 22.0000000 -30.3477745 7.5261140
vn 3.3379419 -0.6933964 -3.0486040
v 22.0000000 -27.8178673 8.7908564
vn 3.5342910 0.2182194 -3.0734911
v 22.0000000 -28.5920944 8.8885098
vn 3.5342927 1.3777826 -2.7560260
v 22.0000000 -29.3447571 8.6824465
vn 3.5342908 2.3275909 -2.0189824
v 22.0000000 -29.9612694 8.2040367
vn 3.3379431 -1.2748275 -2.8547502
v 22.0000000 -18.3312454 5.6279445
vn 3.5342884 -3.0734916 -0.2182195
v 22.0000000 -16.9688511 3.8722649
vn 3.5342946 -2.7560258 -1.3777814
v 22.0000000 -17.1749134 4.6249275
vn 3.5342901 -2.0189815 -2.3275914
v 22.0000000 -17.6533241 5.2414403
vn 3.0303349 0.3057020 3.1218007
v 22.0000000 0.0752626 11.4497528
vn 2.8787353 0.8746820 2.9891527
v 22.0000000 0.9690658 11.3117018
vn 2.8787344 1.6213427 2.6592007
v 22.0000000 1.7962967 10.9461460
vn 2.8787348 2.2566223 2.1465685
v 22.0000000 2.5001268 10.3781977
vn 2.8787346 2.7368774 1.4864725
v 22.0000000 3.0322049 9.6468735
vn 2.8787351 3.0291166 0.7242606
v 22.0000000 3.3559783 8.8024130
vn 2.8502669 3.1055298 -0.1317468
v 22.0000000 3.4492052 7.9028296
vn 3.2170796 2.1141198 2.3207860
v 22.0000000 -32.7863922 24.2537060
vn 3.2148275 1.9359431 2.4715381
v 22.0000000 -30.0308609 21.9276218
vn 3.2148254 1.7499163 2.6065631
v 22.0000000 -27.1125202 19.8093910
vn 3.2148261 1.5545082 2.7276146
v 22.0000000 -24.0470142 17.9103661
vn 3.2148266 1.3507661 2.8340445
v 22.0000000 -20.8507767 16.2407303
vn 3.2148263 1.1397830 2.9252813
v 22.0000000 -17.5409412 14.8094330
vn 3.2148263 0.9226903 3.0008366
v 22.0000000 -14.1352520 13.6241474
vn 3.2148259 0.7006509 3.0603046
v 22.0000000 -10.6519661 12.6912270
vn 3.2148256 0.4748560 3.1033678
v 22.0000000 -7.1097569 12.0156736
vn 3.2148268 0.2465150 3.1297934
v 22.0000000 -3.5276129 11.6011076
vn 3.2193327 2.4456849 1.9680771
v 22.0000000 -36.0873451 27.7592449
vn 3.2193348 2.2854517 2.1520710
v 22.0000000 -34.5050354 25.9422874
vn 3.1161513 -1.3226572 -2.8493135
v 22.0000000 -49.5672302 -0.4936877
vn 3.1417761 -1.3586479 -2.8326101
v 22.0000000 -50.8101845 0.1026295
vn 3.1417761 -1.3581284 -2.8328593
v 22.0000000 -52.0532494 0.6987194
vn 3.1290755 -0.0221937 -3.1414528
v 22.0000000 -0.0142087 -11.4499912
vn 3.0905232 -0.1220075 -3.1381979
v 22.0000000 -5.7018952 -11.3742046
vn 3.0905232 -0.2820452 -3.1278782
v 22.0000000 -11.3782978 -11.0081758
vn 3.0905240 -0.4413469 -3.1094027
v 22.0000000 -17.0286140 -10.3528585
vn 3.0905235 -0.5994979 -3.0828187
v 22.0000000 -22.6381130 -9.4099636
vn 3.0905232 -0.7560859 -3.0481968
v 22.0000000 -28.1921654 -8.1819477
vn 3.0905232 -0.9107020 -3.0056267
v 22.0000000 -33.6762886 -6.6720142
vn 3.0905204 -1.0629439 -2.9552193
v 22.0000000 -39.0761871 -4.8840995
vn 3.0905221 -1.2124140 -2.8971062
v 22.0000000 -44.3777733 -2.8228657
vn 3.0053790 0.2158221 -3.1268768
v 22.0000000 0.0142087 -11.4499912
vn 3.1407869 0.0012652 -3.1415992
v 22.0000000 0.0047362 -11.4499989
vn 3.1407874 -0.0012652 -3.1415992
v 22.0000000 -0.0047362 -11.4499989
vn 2.8487992 3.1052954 0.1293353
v 22.0000000 3.4486556 -7.9029641
vn 2.8757915 3.0263541 -0.7331343
v 22.0000000 3.3530364 -8.8122730
vn 2.8757911 2.7274940 -1.5023584
v 22.0000000 3.0219154 -9.6645327
vn 2.8757915 2.2370675 -2.1660643
v 22.0000000 2.4785495 -10.3998823
vn 2.8757911 1.5895185 -2.6776359
v 22.0000000 1.7611015 -10.9666758
vn 2.8758173 0.8303307 -3.0011430
v 22.0000000 0.9199620 -11.3251028
vn 3.0979228 0.2566241 3.1303422
v 22.0000000 0.2811515 -4.9920893
vn 2.8218071 0.8079016 2.9944482
v 22.0000000 1.2312998 -5.0909095
vn 2.8218074 1.7082868 2.5886641
v 22.0000000 2.1022129 -5.4834113
vn 2.8218074 2.4354613 1.9204048
v 22.0000000 2.8055851 -6.1297970
vn 2.8218074 2.9156942 1.0574279
v 22.0000000 3.2700992 -6.9645271
vn 3.0979180 0.2564133 -3.1303596
v 22.0000000 0.2814968 4.9920697
vn 3.3740335 0.5467046 -3.0721338
v 22.0000000 -0.8760173 4.9226613
vn 3.3740342 1.2396805 -2.8635788
v 22.0000000 -1.9864137 4.5884814
vn 3.3740344 1.8659790 -2.5010028
v 22.0000000 -2.9899683 4.0075045
vn 3.3740344 2.3919134 -2.0039070
v 22.0000000 -3.8327038 3.2109785
vn 3.3740344 2.7891955 -1.3990287
v 22.0000000 -4.4692926 2.2417462
vn 3.3740344 3.0364571 -0.7189014
v 22.0000000 -4.8654947 1.1519388
vn 3.3740342 3.1203992 -0.0001078
v 22.0000000 -5.0000000 0.0001729
vn 3.3740349 3.0365071 0.7186916
v 22.0000000 -4.8655744 -1.1516023
vn 3.3740342 2.7892921 1.3988357
v 22.0000000 -4.4694476 -2.2414370
vn 3.3740339 2.3920519 2.0037415
v 22.0000000 -3.8329258 -3.2107134
vn 3.3740344 1.8661523 2.5008736
v 22.0000000 -2.9902456 -4.0072975
vn 3.3740344 1.2398787 2.8634930
v 22.0000000 -1.9867311 -4.5883441
vn 3.3740337 0.5469171 3.0720959
v 22.0000000 -0.8763577 -4.9226007
vn 2.8218002 2.9156485 -1.0575483
v 22.0000000 3.2706091 6.9643788
vn 2.8218009 2.4353666 -1.9205215
v 22.0000000 2.8060477 6.1296520
vn 2.8218002 1.7081425 -2.5887568
v 22.0000000 2.1026268 5.4832888
vn 2.8218005 0.8077149 -2.9944968
v 22.0000000 1.2316719 5.0908298
vn 3.2986736 0.2457265 -3.1222534
v -19.0000000 -40.0000000 1.0000000
vn 3.2160707 -0.1168817 -3.1372380
v -19.0000000 -52.0000000 1.0000000
vn 3.2986734 3.1222534 -0.2457284
v -19.0000000 -37.0000000 4.0000000
vn 3.4557490 2.9510479 -0.9588529
v -19.0000000 -37.1468315 3.0729489
vn 3.4557538 2.5103109 -1.8238462
v -19.0000000 -37.5729485 2.2366443
vn 3.4557500 1.8238473 -2.5103109
v -19.0000000 -38.2366447 1.5729491
vn 3.4557524 0.9588540 -2.9510467
v -19.0000000 -39.0729485 1.1468304
vn 3.5342901 -2.0189815 -2.3275914
v -19.0000000 -17.6533241 5.2414403
vn 3.2148259 0.7006509 3.0603046
v -19.0000000 -10.6519661 12.6912270
vn 3.3379431 -1.2748275 -2.8547502
v -19.0000000 -18.3312454 5.6279445
vn 3.2148263 0.9226903 3.0008366
v -19.0000000 -14.1352520 13.6241474
vn 3.2148263 1.1397830 2.9252813
v -19.0000000 -17.5409412 14.8094330
vn 3.5342946 -2.7560258 -1.3777814
v -19.0000000 -17.1749134 4.6249275
vn 3.2148256 0.4748560 3.1033678
v -19.0000000 -7.1097569 12.0156736
vn 3.3740344 2.3919134 -2.0039070
v -19.0000000 -3.8327038 3.2109785
vn 3.3740344 1.8659790 -2.5010028
v -19.0000000 -2.9899683 4.0075045
vn 3.5342884 -3.0734916 -0.2182195
v -19.0000000 -16.9688511 3.8722649
vn 3.3740344 2.7891955 -1.3990287
v -19.0000000 -4.4692926 2.2417462
vn 3.3379438 -3.0486038 0.6933944
v -19.0000000 -17.0665035 3.0980377
vn 3.3740344 3.0364571 -0.7189014
v -19.0000000 -4.8654947 1.1519388
vn 3.3740342 3.1203992 -0.0001078
v -19.0000000 -5.0000000 0.0001729
vn 3.3379443 -2.8547497 1.2748282
v -19.0000000 -18.0153770 0.2520513
vn 3.3740349 3.0365071 0.7186916
v -19.0000000 -4.8655744 -1.1516023
vn 3.5342901 -2.3275905 2.0189831
v -19.0000000 -18.4018822 -0.4258708
vn 3.3740342 2.7892921 1.3988357
v -19.0000000 -4.4694476 -2.2414370
vn 3.0905232 -0.2820452 -3.1278782
v -19.0000000 -11.3782978 -11.0081758
vn 3.3740339 2.3920519 2.0037415
v -19.0000000 -3.8329258 -3.2107134
vn 3.3740344 1.8661523 2.5008736
v -19.0000000 -2.9902456 -4.0072975
vn 3.0905232 -0.1220075 -3.1381979
v -19.0000000 -5.7018952 -11.3742046
vn 3.3740344 1.2398787 2.8634930
v -19.0000000 -1.9867311 -4.5883441
vn 3.3740337 0.5469171 3.0720959
v -19.0000000 -0.8763577 -4.9226007
vn 3.1290755 -0.0221937 -3.1414528
v -19.0000000 -0.0142087 -11.4499912
vn 2.8757915 3.0263541 -0.7331343
v -19.0000000 3.3530364 -8.8122730
vn 2.8757911 2.7274940 -1.5023584
v -19.0000000 3.0219154 -9.6645327
vn 2.8757915 2.2370675 -2.1660643
v -19.0000000 2.4785495 -10.3998823
vn 2.8757911 1.5895185 -2.6776359
v -19.0000000 1.7611015 -10.9666758
vn 2.8758173 0.8303307 -3.0011430
v -19.0000000 0.9199620 -11.3251028
vn 3.1407874 -0.0012652 -3.1415992
v -19.0000000 -0.0047362 -11.4499989
vn 3.1407869 0.0012652 -3.1415992
v -19.0000000 0.0047362 -11.4499989
vn 3.5342922 -1.3777837 2.7560263
v -19.0000000 -19.0183945 -0.9042805
vn 3.0905240 -0.4413469 -3.1094027
v -19.0000000 -17.0286140 -10.3528585
vn 3.5342922 -0.2182199 3.0734909
v -19.0000000 -19.7710571 -1.1103443
vn 3.0905235 -0.5994979 -3.0828187
v -19.0000000 -22.6381130 -9.4099636
vn 3.3379421 0.6933969 3.0486040
v -19.0000000 -20.5452843 -1.0126907
vn 3.0905232 -0.7560859 -3.0481968
v -19.0000000 -28.1921654 -8.1819477
vn 3.3379431 1.2748271 2.8547504
v -19.0000000 -30.0319061 2.1502211
vn 3.0905232 -0.9107020 -3.0056267
v -19.0000000 -33.6762886 -6.6720142
vn 3.0905228 -1.0629439 -2.9552193
v -19.0000000 -39.0761871 -4.8840995
vn 3.5342903 2.0189812 2.3275919
v -19.0000000 -30.7098274 2.5367250
vn 3.5342941 2.7560258 1.3777813
v -19.0000000 -31.1882381 3.1532378
vn 3.5342884 3.0734921 0.2182194
v -19.0000000 -31.3943005 3.9059007
vn 3.3379438 3.0486038 -0.6933945
v -19.0000000 -31.2966480 4.6801276
vn 3.3379428 2.8547499 -1.2748277
v -19.0000000 -30.3477745 7.5261140
vn 3.5342903 2.3275909 -2.0189824
v -19.0000000 -29.9612694 8.2040367
vn 3.2148280 1.9359431 2.4715381
v -19.0000000 -30.0308609 21.9276218
vn 3.2170796 2.1141198 2.3207860
v -19.0000000 -32.7863922 24.2537060
vn 3.5342927 1.3777826 -2.7560260
v -19.0000000 -29.3447571 8.6824465
vn 3.2148254 1.7499163 2.6065631
v -19.0000000 -27.1125202 19.8093910
vn 3.5342910 0.2182194 -3.0734911
v -19.0000000 -28.5920944 8.8885098
vn 3.2148261 1.5545082 2.7276146
v -19.0000000 -24.0470142 17.9103661
vn 3.3379419 -0.6933964 -3.0486040
v -19.0000000 -27.8178673 8.7908564
vn 3.2148266 1.3507661 2.8340445
v -19.0000000 -20.8507767 16.2407303
vn 3.2193308 2.4456849 1.9680771
v -19.0000000 -36.0873451 27.7592449
vn 3.2193346 2.2854517 2.1520710
v -19.0000000 -34.5050354 25.9422874
vn 3.0905232 -1.2124140 -2.8971062
v -19.0000000 -44.3777733 -2.8228657
vn 3.1161489 -1.3226572 -2.8493135
v -19.0000000 -49.5672302 -0.4936877
vn 3.1417761 -1.3586479 -2.8326101
v -19.0000000 -50.8101845 0.1026295
vn 3.1417789 -1.3581284 -2.8328593
v -19.0000000 -52.0532494 0.6987194
vn 3.2933161 -0.4657618 -3.0979965
v -19.0000000 -52.4452133 1.0332201
vn 3.2908223 -0.9181113 -2.9953215
v -19.0000000 -52.8805695 1.1321443
vn 0.0750530 -2.8598120 -5.5778174
v -19.0000000 -53.2964249 1.2945820
vn 3.0053790 0.2158221 -3.1268768
v -19.0000000 0.0142087 -11.4499912
vn 2.8487992 3.1052954 0.1293353
v -19.0000000 3.4486556 -7.9029641
vn 3.0979228 0.2566241 3.1303422
v -19.0000000 0.2811515 -4.9920893
vn 2.8218074 2.9156942 1.0574279
v -19.0000000 3.2700992 -6.9645271
vn 2.8218074 2.4354613 1.9204048
v -19.0000000 2.8055851 -6.1297970
vn 2.8218074 1.7082868 2.5886641
v -19.0000000 2.1022129 -5.4834113
vn 2.8218071 0.8079016 2.9944482
v -19.0000000 1.2312998 -5.0909095
vn 3.3740342 1.2396805 -2.8635788
v -19.0000000 -1.9864137 4.5884814
vn 3.2148268 0.2465150 3.1297934
v -19.0000000 -3.5276129 11.6011076
vn 3.3740335 0.5467046 -3.0721338
v -19.0000000 -0.8760173 4.9226613
vn 3.0303349 0.3057020 3.1218007
v -19.0000000 0.0752626 11.4497528
vn 2.8787351 3.0291166 0.7242606
v -19.0000000 3.3559783 8.8024130
vn 2.8787346 2.7368774 1.4864725
v -19.0000000 3.0322049 9.6468735
vn 2.8502669 3.1055298 -0.1317468
v -19.0000000 3.4492052 7.9028296
vn 3.0979180 0.2564133 -3.1303596
v -19.0000000 0.2814968 4.9920697
vn 2.8218002 2.9156485 -1.0575483
v -19.0000000 3.2706091 6.9643788
vn 2.8218009 2.4353666 -1.9205215
v -19.0000000 2.8060477 6.1296520
vn 2.8218002 1.7081425 -2.5887568
v -19.0000000 2.1026268 5.4832888
vn 2.8218005 0.8077149 -2.9944968
v -19.0000000 1.2316719 5.0908298
vn 2.8787348 2.2566223 2.1465685
v -19.0000000 2.5001268 10.3781977
vn 2.8787344 1.6213427 2.6592007
v -19.0000000 1.7962967 10.9461460
vn 2.8787353 0.8746820 2.9891527
v -19.0000000 0.9690658 11.3117018
vn -3.2170799 2.1141200 2.3207860
v -22.0000000 -32.7863922 24.2537060
vn -3.5342908 2.3275907 -2.0189824
v -22.0000000 -29.9612694 8.2040367
vn -3.3379431 2.8547499 -1.2748277
v -22.0000000 -30.3477745 7.5261140
vn -3.2193327 2.4456844 1.9680769
v -22.0000000 -36.0873451 27.7592449
vn -3.2193348 2.2854519 2.1520710
v -22.0000000 -34.5050354 25.9422874
vn -3.2148275 1.9359432 2.4715385
v -22.0000000 -30.0308609 21.9276218
vn -3.5342927 1.3777826 -2.7560258
v -22.0000000 -29.3447571 8.6824465
vn -3.2148254 1.7499162 2.6065629
v -22.0000000 -27.1125202 19.8093910
vn -3.5342910 0.2182194 -3.0734911
v -22.0000000 -28.5920944 8.8885098
vn -3.2148261 1.5545082 2.7276144
v -22.0000000 -24.0470142 17.9103661
vn -3.3379419 -0.6933964 -3.0486040
v -22.0000000 -27.8178673 8.7908564
vn -3.2148266 1.3507659 2.8340445
v -22.0000000 -20.8507767 16.2407303
vn -3.2148263 1.1397830 2.9252813
v -22.0000000 -17.5409412 14.8094330
vn -3.3379431 -1.2748275 -2.8547502
v -22.0000000 -18.3312454 5.6279445
vn -3.2148263 0.9226902 3.0008364
v -22.0000000 -14.1352520 13.6241474
vn -3.2148261 0.7006510 3.0603051
v -22.0000000 -10.6519661 12.6912270
vn -3.2148256 0.4748559 3.1033676
v -22.0000000 -7.1097569 12.0156736
vn -3.5342946 -2.7560258 -1.3777814
v -22.0000000 -17.1749134 4.6249275
vn -3.5342901 -2.0189815 -2.3275914
v -22.0000000 -17.6533241 5.2414403
vn -3.2148268 0.2465151 3.1297936
v -22.0000000 -3.5276129 11.6011076
vn -3.3740342 1.2396805 -2.8635788
v -22.0000000 -1.9864137 4.5884814
vn -3.3740344 1.8659787 -2.5010026
v -22.0000000 -2.9899683 4.0075045
vn -3.3740344 2.3919132 -2.0039070
v -22.0000000 -3.8327038 3.2109785
vn -3.3740335 0.5467046 -3.0721338
v -22.0000000 -0.8760173 4.9226613
vn -3.0303349 0.3057020 3.1218009
v -22.0000000 0.0752626 11.4497528
vn -2.8787351 3.0291166 0.7242606
v -22.0000000 3.3559783 8.8024130
vn -2.8787346 2.7368777 1.4864726
v -22.0000000 3.0322049 9.6468735
vn -2.8787348 2.2566221 2.1465685
v -22.0000000 2.5001268 10.3781977
vn -2.8787344 1.6213427 2.6592007
v -22.0000000 1.7962967 10.9461460
vn -2.8787353 0.8746819 2.9891524
v -22.0000000 0.9690658 11.3117018
vn -2.8502669 3.1055298 -0.1317468
v -22.0000000 3.4492052 7.9028296
vn -3.0979180 0.2564133 -3.1303596
v -22.0000000 0.2814968 4.9920697
vn -2.8218002 2.9156485 -1.0575483
v -22.0000000 3.2706091 6.9643788
vn -2.8218009 2.4353666 -1.9205214
v -22.0000000 2.8060477 6.1296520
vn -2.8218002 1.7081425 -2.5887570
v -22.0000000 2.1026268 5.4832888
vn -2.8218005 0.8077149 -2.9944968
v -22.0000000 1.2316719 5.0908298
vn -3.3740344 2.7891955 -1.3990287
v -22.0000000 -4.4692926 2.2417462
vn -3.5342884 -3.0734918 -0.2182196
v -22.0000000 -16.9688511 3.8722649
vn -3.3379438 -3.0486040 0.6933945
v -22.0000000 -17.0665035 3.0980377
vn -3.3740344 3.0364571 -0.7189014
v -22.0000000 -4.8654947 1.1519388
vn -3.3740342 3.1203995 -0.0001079
v -22.0000000 -5.0000000 0.0001729
vn -3.3379443 -2.8547494 1.2748282
v -22.0000000 -18.0153770 0.2520513
vn -3.3740349 3.0365069 0.7186915
v -22.0000000 -4.8655744 -1.1516023
vn -3.5342901 -2.3275907 2.0189834
v -22.0000000 -18.4018822 -0.4258708
vn -3.3740342 2.7892921 1.3988357
v -22.0000000 -4.4694476 -2.2414370
vn -3.0905232 -0.2820452 -3.1278782
v -22.0000000 -11.3782978 -11.0081758
vn -3.3740339 2.3920519 2.0037415
v -22.0000000 -3.8329258 -3.2107134
vn -3.3740344 1.8661522 2.5008736
v -22.0000000 -2.9902456 -4.0072975
vn -3.0905232 -0.1220075 -3.1381977
v -22.0000000 -5.7018952 -11.3742046
vn -3.3740344 1.2398788 2.8634930
v -22.0000000 -1.9867311 -4.5883441
vn -3.3740337 0.5469172 3.0720959
v -22.0000000 -0.8763577 -4.9226007
vn -3.0979228 0.2566241 3.1303425
v -22.0000000 0.2811515 -4.9920893
vn -2.8487992 3.1052952 0.1293353
v -22.0000000 3.4486556 -7.9029641
vn -2.8757915 3.0263541 -0.7331343
v -22.0000000 3.3530364 -8.8122730
vn -3.1290753 -0.0221937 -3.1414599
v -22.0000000 -0.0142087 -11.4499912
vn -2.8757911 2.7274940 -1.5023584
v -22.0000000 3.0219154 -9.6645327
vn -2.8757915 2.2370677 -2.1660643
v -22.0000000 2.4785495 -10.3998823
vn -2.8218071 0.8079015 2.9944482
v -22.0000000 1.2312998 -5.0909095
vn -2.8218074 1.7082868 2.5886641
v -22.0000000 2.1022129 -5.4834113
vn -2.8218074 2.4354610 1.9204047
v -22.0000000 2.8055851 -6.1297970
vn -2.8218074 2.9156942 1.0574279
v -22.0000000 3.2700992 -6.9645271
vn -2.8757911 1.5895185 -2.6776361
v -22.0000000 1.7611015 -10.9666758
vn -2.8758173 0.8303307 -3.0011425
v -22.0000000 0.9199620 -11.3251028
vn -3.1407874 -0.0012652 -3.1415992
v -22.0000000 -0.0047362 -11.4499989
vn -3.1407869 0.0012652 -3.1415992
v -22.0000000 0.0047362 -11.4499989
vn -3.0053790 0.2158221 -3.1268702
v -22.0000000 0.0142087 -11.4499912
vn -3.5342922 -1.3777835 2.7560258
v -22.0000000 -19.0183945 -0.9042805
vn -3.0905240 -0.4413469 -3.1094022
v -22.0000000 -17.0286140 -10.3528585
vn -3.5342922 -0.2182199 3.0734909
v -22.0000000 -19.7710571 -1.1103443
vn -3.0905235 -0.5994979 -3.0828192
v -22.0000000 -22.6381130 -9.4099636
vn -3.3379421 0.6933969 3.0486040
v -22.0000000 -20.5452843 -1.0126907
vn -3.0905232 -0.7560859 -3.0481970
v -22.0000000 -28.1921654 -8.1819477
vn -3.3379431 1.2748271 2.8547509
v -22.0000000 -30.0319061 2.1502211
vn -3.0905232 -0.9107021 -3.0056269
v -22.0000000 -33.6762886 -6.6720142
vn -3.0905206 -1.0629439 -2.9552193
v -22.0000000 -39.0761871 -4.8840995
vn -3.0905221 -1.2124141 -2.8971062
v -22.0000000 -44.3777733 -2.8228657
vn -3.5342944 2.7560263 1.3777814
v -22.0000000 -31.1882381 3.1532378
vn -3.5342903 2.0189810 2.3275917
v -22.0000000 -30.7098274 2.5367250
vn -3.5342884 3.0734921 0.2182194
v -22.0000000 -31.3943005 3.9059007
vn -3.1161513 -1.3226572 -2.8493133
v -22.0000000 -49.5672302 -0.4936877
vn -3.3379474 3.0486040 -0.6933945
v -22.0000000 -31.2966480 4.6801276
vn -3.1417761 -1.3586481 -2.8326104
v -22.0000000 -50.8101845 0.1026295
vn -3.1417761 -1.3581284 -2.8328593
v -22.0000000 -52.0532494 0.6987194
vn -2.8628628 -2.9892974 -0.8611256
v -22.0000000 -54.8823509 3.1681004
vn -3.0064266 -1.5465097 -2.7259569
v -22.0000000 -53.2964249 1.2945820
vn -2.8668206 -2.6333776 -1.6568403
v -22.0000000 -54.5386276 2.4014492
vn -2.8695545 -2.0705256 -2.3225703
v -22.0000000 -53.9957924 1.7601774
# 574 vertices, 0 vertices normals


usemtl material_0
f 1//1 2//2 3//3
f 3//3 2//2 4//4
f 3//3 4//4 5//5
f 6//6 7//7 1//1
f 1//1 7//7 8//8
f 1//1 8//8 2//2
f 9//9 10//10 11//11
f 11//11 10//10 12//12
f 11//11 12//12 13//13
f 13//13 12//12 14//14
f 13//13 14//14 15//15
f 15//15 16//16 13//13
f 13//13 16//16 17//17
f 13//13 17//17 18//18
f 18//18 19//19 13//13
f 13//13 19//19 20//20
f 20//20 19//19 21//21
f 20//20 21//21 22//22
f 22//22 23//23 20//20
f 20//20 23//23 24//24
f 20//20 24//24 25//25
f 20//20 25//25 26//26
f 26//26 25//25 27//27
f 26//26 27//27 28//28
f 28//28 29//29 26//26
f 26//26 29//29 30//30
f 26//26 30//30 31//31
f 31//31 32//32 26//26
f 26//26 32//32 11//11
f 11//11 32//32 33//33
f 11//11 33//33 34//34
f 34//34 35//35 11//11
f 11//11 35//35 36//36
f 11//11 36//36 9//9
f 37//37 38//38 39//39
f 39//39 38//38 40//40
f 39//39 40//40 41//41
f 42//42 43//43 37//37
f 37//37 43//43 44//44
f 37//37 44//44 45//45
f 46//46 47//47 42//42
f 42//42 47//47 48//48
f 42//42 48//48 49//49
f 39//39 50//50 46//46
f 46//46 50//50 51//51
f 46//46 51//51 52//52
f 41//41 53//53 39//39
f 39//39 53//53 54//54
f 39//39 54//54 55//55
f 55//55 56//56 39//39
f 39//39 56//56 50//50
f 52//52 57//57 46//46
f 46//46 57//57 58//58
f 46//46 58//58 59//59
f 59//59 47//47 46//46
f 49//49 60//60 42//42
f 42//42 60//60 61//61
f 42//42 61//61 43//43
f 45//45 62//62 37//37
f 37//37 62//62 63//63
f 37//37 63//63 64//64
f 64//64 38//38 37//37
f 65//65 66//66 67//67
f 67//67 66//66 68//68
f 69//69 70//70 71//71
f 71//71 70//70 72//72
f 67//67 68//68 73//73
f 73//73 68//68 74//74
f 75//75 20//20 76//76
f 76//76 20//20 26//26
f 76//76 26//26 77//77
f 67//67 73//73 26//26
f 26//26 73//73 77//77
f 11//11 65//65 26//26
f 26//26 65//65 67//67
f 2//2 65//65 4//4
f 4//4 65//65 11//11
f 2//2 8//8 65//65
f 65//65 8//8 66//66
f 7//7 39//39 8//8
f 8//8 39//39 66//66
f 66//66 39//39 68//68
f 68//68 39//39 46//46
f 46//46 78//78 68//68
f 68//68 78//78 74//74
f 78//78 46//46 79//79
f 79//79 46//46 42//42
f 79//79 42//42 80//80
f 71//71 81//81 42//42
f 42//42 81//81 80//80
f 37//37 39//39 6//6
f 6//6 39//39 7//7
f 1//1 69//69 6//6
f 6//6 69//69 37//37
f 37//37 69//69 42//42
f 42//42 69//69 71//71
f 1//1 3//3 69//69
f 69//69 3//3 70//70
f 5//5 4//4 13//13
f 13//13 4//4 11//11
f 70//70 3//3 13//13
f 13//13 3//3 5//5
f 70//70 13//13 72//72
f 72//72 13//13 20//20
f 20//20 75//75 72//72
f 72//72 75//75 82//82
f 82//82 81//81 72//72
f 72//72 81//81 71//71
f 79//79 83//83 78//78
f 78//78 83//83 84//84
f 78//78 84//84 85//85
f 85//85 86//86 78//78
f 78//78 86//86 87//87
f 78//78 87//87 88//88
f 78//78 88//88 74//74
f 74//74 88//88 89//89
f 74//74 89//89 73//73
f 73//73 89//89 77//77
f 77//77 89//89 90//90
f 77//77 90//90 91//91
f 91//91 92//92 77//77
f 77//77 92//92 93//93
f 77//77 93//93 94//94
f 94//94 76//76 77//77
f 79//79 80//80 95//95
f 95//95 80//80 96//96
f 96//96 80//80 97//97
f 97//97 80//80 98//98
f 98//98 80//80 99//99
f 99//99 80//80 100//100
f 100//100 80//80 101//101
f 101//101 80//80 102//102
f 102//102 80//80 103//103
f 103//103 80//80 104//104
f 104//104 80//80 105//105
f 105//105 80//80 81//81
f 105//105 81//81 106//106
f 106//106 81//81 107//107
f 107//107 81//81 108//108
f 108//108 81//81 109//109
f 109//109 81//81 110//110
f 110//110 81//81 111//111
f 111//111 81//81 112//112
f 112//112 81//81 113//113
f 113//113 81//81 82//82
f 113//113 82//82 114//114
f 114//114 82//82 115//115
f 115//115 82//82 116//116
f 116//116 82//82 117//117
f 117//117 82//82 118//118
f 118//118 82//82 119//119
f 119//119 82//82 120//120
f 120//120 82//82 121//121
f 121//121 82//82 75//75
f 121//121 75//75 122//122
f 122//122 75//75 123//123
f 123//123 75//75 124//124
f 124//124 75//75 125//125
f 125//125 75//75 126//126
f 126//126 75//75 127//127
f 127//127 75//75 128//128
f 128//128 75//75 129//129
f 129//129 75//75 130//130
f 130//130 75//75 131//131
f 131//131 75//75 76//76
f 132//132 133//133 134//134
f 134//134 133//133 135//135
f 134//134 135//135 136//136
f 136//136 135//135 137//137
f 136//136 137//137 138//138
f 138//138 137//137 139//139
f 138//138 139//139 140//140
f 140//140 139//139 141//141
f 140//140 141//141 142//142
f 142//142 141//141 143//143
f 142//142 143//143 144//144
f 144//144 143//143 145//145
f 144//144 145//145 146//146
f 146//146 145//145 147//147
f 146//146 147//147 148//148
f 148//148 147//147 149//149
f 148//148 149//149 150//150
f 150//150 149//149 151//151
f 150//150 151//151 152//152
f 152//152 151//151 153//153
f 152//152 153//153 154//154
f 154//154 153//153 155//155
f 154//154 155//155 156//156
f 156//156 155//155 157//157
f 156//156 157//157 158//158
f 158//158 157//157 159//159
f 133//133 132//132 160//160
f 160//160 132//132 161//161
f 160//160 161//161 162//162
f 162//162 161//161 163//163
f 162//162 163//163 164//164
f 164//164 163//163 165//165
f 164//164 165//165 166//166
f 166//166 165//165 167//167
f 166//166 167//167 168//168
f 168//168 167//167 169//169
f 168//168 169//169 170//170
f 170//170 169//169 171//171
f 170//170 171//171 172//172
f 172//172 171//171 173//173
f 172//172 173//173 174//174
f 174//174 173//173 175//175
f 174//174 175//175 176//176
f 176//176 175//175 177//177
f 176//176 177//177 178//178
f 178//178 177//177 179//179
f 178//178 179//179 180//180
f 180//180 179//179 181//181
f 180//180 181//181 182//182
f 136//136 100//100 134//134
f 134//134 100//100 101//101
f 134//134 101//101 132//132
f 132//132 101//101 102//102
f 132//132 102//102 161//161
f 161//161 102//102 103//103
f 161//161 103//103 163//163
f 163//163 103//103 104//104
f 163//163 104//104 165//165
f 165//165 104//104 105//105
f 165//165 105//105 167//167
f 167//167 105//105 106//106
f 167//167 106//106 169//169
f 169//169 106//106 107//107
f 169//169 107//107 171//171
f 171//171 107//107 108//108
f 171//171 108//108 173//173
f 173//173 108//108 109//109
f 173//173 109//109 175//175
f 175//175 109//109 110//110
f 175//175 110//110 177//177
f 177//177 110//110 111//111
f 177//177 111//111 179//179
f 179//179 111//111 112//112
f 179//179 112//112 181//181
f 181//181 112//112 113//113
f 181//181 113//113 182//182
f 182//182 113//113 114//114
f 182//182 114//114 180//180
f 180//180 114//114 115//115
f 180//180 115//115 178//178
f 178//178 115//115 116//116
f 178//178 116//116 176//176
f 176//176 116//116 117//117
f 176//176 117//117 174//174
f 174//174 117//117 118//118
f 174//174 118//118 172//172
f 172//172 118//118 119//119
f 172//172 119//119 170//170
f 170//170 119//119 120//120
f 170//170 120//120 168//168
f 168//168 120//120 121//121
f 168//168 121//121 166//166
f 166//166 121//121 122//122
f 166//166 122//122 164//164
f 164//164 122//122 123//123
f 164//164 123//123 162//162
f 162//162 123//123 124//124
f 162//162 124//124 160//160
f 160//160 124//124 125//125
f 160//160 125//125 133//133
f 133//133 125//125 126//126
f 133//133 126//126 135//135
f 135//135 126//126 127//127
f 135//135 127//127 137//137
f 137//137 127//127 128//128
f 137//137 128//128 139//139
f 139//139 128//128 129//129
f 139//139 129//129 141//141
f 141//141 129//129 143//143
f 143//143 129//129 130//130
f 143//143 130//130 145//145
f 145//145 130//130 131//131
f 145//145 131//131 147//147
f 147//147 131//131 76//76
f 147//147 76//76 149//149
f 149//149 76//76 94//94
f 149//149 94//94 93//93
f 100//100 136//136 99//99
f 99//99 136//136 138//138
f 99//99 138//138 98//98
f 98//98 138//138 140//140
f 98//98 140//140 97//97
f 97//97 140//140 142//142
f 97//97 142//142 96//96
f 96//96 142//142 144//144
f 96//96 144//144 95//95
f 95//95 144//144 146//146
f 95//95 146//146 79//79
f 79//79 146//146 148//148
f 79//79 148//148 83//83
f 83//83 148//148 150//150
f 83//83 150//150 84//84
f 84//84 150//150 152//152
f 84//84 152//152 85//85
f 85//85 152//152 154//154
f 85//85 154//154 86//86
f 86//86 154//154 156//156
f 86//86 156//156 87//87
f 87//87 156//156 158//158
f 87//87 158//158 88//88
f 88//88 158//158 159//159
f 88//88 159//159 89//89
f 89//89 159//159 157//157
f 89//89 157//157 90//90
f 90//90 157//157 155//155
f 90//90 155//155 91//91
f 91//91 155//155 153//153
f 91//91 153//153 92//92
f 92//92 153//153 151//151
f 92//92 151//151 93//93
f 93//93 151//151 149//149
f 183//183 32//32 184//184
f 184//184 32//32 31//31
f 184//184 31//31 185//185
f 185//185 31//31 30//30
f 185//185 30//30 186//186
f 186//186 30//30 29//29
f 186//186 29//29 187//187
f 187//187 29//29 28//28
f 187//187 28//28 188//188
f 188//188 28//28 27//27
f 189//189 59//59 190//190
f 190//190 59//59 58//58
f 190//190 58//58 191//191
f 191//191 58//58 57//57
f 191//191 57//57 192//192
f 192//192 57//57 52//52
f 192//192 52//52 193//193
f 193//193 52//52 51//51
f 193//193 51//51 194//194
f 194//194 51//51 50//50
f 27//27 25//25 188//188
f 188//188 25//25 195//195
f 47//47 59//59 196//196
f 196//196 59//59 189//189
f 195//195 25//25 197//197
f 197//197 25//25 24//24
f 197//197 24//24 198//198
f 198//198 24//24 23//23
f 198//198 23//23 199//199
f 199//199 23//23 22//22
f 199//199 22//22 200//200
f 200//200 22//22 201//201
f 201//201 22//22 21//21
f 201//201 21//21 202//202
f 202//202 21//21 203//203
f 203//203 21//21 19//19
f 203//203 19//19 204//204
f 33//33 32//32 205//205
f 205//205 32//32 183//183
f 50//50 56//56 194//194
f 194//194 56//56 206//206
f 19//19 18//18 204//204
f 204//204 18//18 207//207
f 208//208 10//10 209//209
f 209//209 10//10 9//9
f 209//209 9//9 210//210
f 210//210 9//9 36//36
f 210//210 36//36 211//211
f 211//211 36//36 212//212
f 212//212 36//36 213//213
f 213//213 36//36 35//35
f 213//213 35//35 214//214
f 214//214 35//35 34//34
f 214//214 34//34 215//215
f 215//215 34//34 33//33
f 215//215 33//33 205//205
f 206//206 56//56 216//216
f 216//216 56//56 55//55
f 216//216 55//55 217//217
f 217//217 55//55 54//54
f 217//217 54//54 218//218
f 218//218 54//54 53//53
f 218//218 53//53 219//219
f 219//219 53//53 220//220
f 220//220 53//53 221//221
f 221//221 53//53 41//41
f 221//221 41//41 222//222
f 222//222 41//41 40//40
f 222//222 40//40 223//223
f 207//207 18//18 224//224
f 224//224 18//18 17//17
f 224//224 17//17 225//225
f 225//225 17//17 16//16
f 225//225 16//16 226//226
f 226//226 16//16 15//15
f 226//226 15//15 227//227
f 227//227 15//15 14//14
f 227//227 14//14 228//228
f 228//228 14//14 12//12
f 12//12 10//10 228//228
f 228//228 10//10 208//208
f 201//201 202//202 229//229
f 229//229 202//202 203//203
f 229//229 203//203 204//204
f 229//229 204//204 230//230
f 230//230 204//204 207//207
f 230//230 207//207 231//231
f 231//231 207//207 232//232
f 232//232 207//207 233//233
f 233//233 207//207 224//224
f 233//233 224//224 225//225
f 226//226 234//234 225//225
f 225//225 234//234 235//235
f 225//225 235//235 233//233
f 233//233 235//235 236//236
f 236//236 235//235 237//237
f 237//237 235//235 238//238
f 237//237 238//238 239//239
f 239//239 238//238 240//240
f 239//239 240//240 241//241
f 241//241 240//240 242//242
f 241//241 242//242 243//243
f 243//243 242//242 244//244
f 243//243 244//244 245//245
f 245//245 244//244 246//246
f 246//246 244//244 247//247
f 246//246 247//247 248//248
f 248//248 247//247 249//249
f 248//248 249//249 250//250
f 250//250 249//249 251//251
f 251//251 249//249 252//252
f 251//251 252//252 253//253
f 253//253 252//252 254//254
f 253//253 254//254 255//255
f 255//255 254//254 256//256
f 256//256 254//254 257//257
f 256//256 257//257 258//258
f 234//234 226//226 259//259
f 259//259 226//226 227//227
f 259//259 227//227 260//260
f 260//260 227//227 228//228
f 260//260 228//228 261//261
f 261//261 228//228 262//262
f 262//262 228//228 263//263
f 263//263 228//228 264//264
f 263//263 264//264 265//265
f 265//265 264//264 266//266
f 265//265 266//266 267//267
f 267//267 266//266 268//268
f 267//267 268//268 269//269
f 269//269 268//268 270//270
f 269//269 270//270 271//271
f 208//208 272//272 228//228
f 228//228 272//272 273//273
f 228//228 273//273 264//264
f 272//272 208//208 274//274
f 274//274 208//208 209//209
f 274//274 209//209 210//210
f 210//210 211//211 274//274
f 269//269 271//271 258//258
f 258//258 271//271 275//275
f 258//258 275//275 256//256
f 276//276 277//277 255//255
f 255//255 277//277 278//278
f 255//255 278//278 253//253
f 277//277 276//276 279//279
f 279//279 276//276 280//280
f 279//279 280//280 281//281
f 281//281 280//280 282//282
f 282//282 280//280 283//283
f 283//283 280//280 284//284
f 284//284 280//280 285//285
f 281//281 286//286 279//279
f 279//279 286//286 287//287
f 287//287 286//286 288//288
f 287//287 288//288 289//289
f 289//289 290//290 287//287
f 287//287 290//290 291//291
f 245//245 292//292 243//243
f 243//243 292//292 293//293
f 243//243 293//293 294//294
f 294//294 293//293 295//295
f 294//294 295//295 296//296
f 297//297 298//298 296//296
f 296//296 298//298 299//299
f 296//296 299//299 300//300
f 300//300 299//299 301//301
f 300//300 301//301 302//302
f 303//303 304//304 297//297
f 297//297 304//304 305//305
f 297//297 305//305 306//306
f 306//306 298//298 297//297
f 302//302 307//307 300//300
f 300//300 307//307 308//308
f 300//300 308//308 309//309
f 309//309 308//308 310//310
f 310//310 308//308 311//311
f 300//300 294//294 296//296
f 312//312 313//313 247//247
f 247//247 313//313 249//249
f 238//238 314//314 240//240
f 240//240 314//314 315//315
f 240//240 315//315 242//242
f 242//242 315//315 316//316
f 242//242 316//316 244//244
f 244//244 316//316 317//317
f 244//244 317//317 247//247
f 247//247 317//317 312//312
f 318//318 314//314 235//235
f 235//235 314//314 238//238
f 261//261 319//319 260//260
f 260//260 319//319 320//320
f 260//260 320//320 259//259
f 259//259 320//320 321//321
f 259//259 321//321 234//234
f 234//234 321//321 322//322
f 234//234 322//322 235//235
f 235//235 322//322 318//318
f 323//323 319//319 262//262
f 262//262 319//319 261//261
f 269//269 324//324 267//267
f 267//267 324//324 325//325
f 267//267 325//325 265//265
f 265//265 325//325 326//326
f 265//265 326//326 263//263
f 263//263 326//326 327//327
f 263//263 327//327 262//262
f 262//262 327//327 323//323
f 328//328 324//324 258//258
f 258//258 324//324 269//269
f 249//249 313//313 252//252
f 252//252 313//313 329//329
f 252//252 329//329 254//254
f 254//254 329//329 330//330
f 254//254 330//330 257//257
f 257//257 330//330 331//331
f 257//257 331//331 258//258
f 258//258 331//331 328//328
f 332//332 333//333 280//280
f 280//280 333//333 285//285
f 285//285 333//333 334//334
f 285//285 334//334 284//284
f 284//284 334//334 335//335
f 284//284 335//335 283//283
f 283//283 335//335 336//336
f 283//283 336//336 282//282
f 282//282 336//336 281//281
f 281//281 336//336 337//337
f 281//281 337//337 338//338
f 338//338 286//286 281//281
f 339//339 340//340 273//273
f 273//273 340//340 264//264
f 264//264 340//340 341//341
f 264//264 341//341 266//266
f 266//266 341//341 342//342
f 266//266 342//342 268//268
f 268//268 342//342 270//270
f 270//270 342//342 343//343
f 270//270 343//343 344//344
f 270//270 344//344 271//271
f 271//271 344//344 345//345
f 271//271 345//345 275//275
f 275//275 345//345 346//346
f 275//275 346//346 256//256
f 256//256 346//346 347//347
f 256//256 347//347 255//255
f 255//255 347//347 348//348
f 255//255 348//348 276//276
f 276//276 348//348 332//332
f 276//276 332//332 280//280
f 211//211 212//212 274//274
f 274//274 212//212 349//349
f 274//274 349//349 350//350
f 274//274 350//350 272//272
f 272//272 350//350 339//339
f 272//272 339//339 273//273
f 231//231 351//351 230//230
f 230//230 351//351 352//352
f 230//230 352//352 229//229
f 229//229 352//352 353//353
f 229//229 353//353 201//201
f 201//201 353//353 200//200
f 354//354 355//355 300//300
f 300//300 355//355 294//294
f 294//294 355//355 356//356
f 294//294 356//356 243//243
f 243//243 356//356 357//357
f 243//243 357//357 241//241
f 241//241 357//357 358//358
f 241//241 358//358 239//239
f 239//239 358//358 359//359
f 239//239 359//359 237//237
f 237//237 359//359 360//360
f 237//237 360//360 236//236
f 236//236 360//360 361//361
f 236//236 361//361 233//233
f 233//233 361//361 362//362
f 233//233 362//362 232//232
f 232//232 362//362 351//351
f 232//232 351//351 231//231
f 311//311 363//363 310//310
f 310//310 363//363 364//364
f 310//310 364//364 309//309
f 309//309 364//364 365//365
f 309//309 365//365 300//300
f 300//300 365//365 354//354
f 366//366 367//367 298//298
f 298//298 367//367 299//299
f 299//299 367//367 368//368
f 299//299 368//368 301//301
f 301//301 368//368 369//369
f 301//301 369//369 302//302
f 302//302 369//369 370//370
f 302//302 370//370 307//307
f 307//307 370//370 308//308
f 308//308 370//370 371//371
f 308//308 371//371 363//363
f 363//363 311//311 308//308
f 372//372 373//373 297//297
f 297//297 373//373 303//303
f 303//303 373//373 374//374
f 303//303 374//374 304//304
f 304//304 374//374 375//375
f 304//304 375//375 305//305
f 305//305 375//375 376//376
f 305//305 376//376 306//306
f 306//306 376//376 366//366
f 306//306 366//366 298//298
f 377//377 378//378 287//287
f 287//287 378//378 279//279
f 279//279 378//378 379//379
f 279//279 379//379 277//277
f 277//277 379//379 380//380
f 277//277 380//380 278//278
f 278//278 380//380 381//381
f 278//278 381//381 253//253
f 253//253 381//381 382//382
f 253//253 382//382 251//251
f 251//251 382//382 383//383
f 251//251 383//383 250//250
f 250//250 383//383 384//384
f 250//250 384//384 248//248
f 248//248 384//384 246//246
f 246//246 384//384 385//385
f 246//246 385//385 386//386
f 246//246 386//386 245//245
f 245//245 386//386 387//387
f 245//245 387//387 292//292
f 292//292 387//387 388//388
f 292//292 388//388 293//293
f 293//293 388//388 389//389
f 293//293 389//389 295//295
f 295//295 389//389 390//390
f 295//295 390//390 296//296
f 296//296 390//390 372//372
f 296//296 372//372 297//297
f 338//338 391//391 286//286
f 286//286 391//391 288//288
f 288//288 391//391 392//392
f 288//288 392//392 289//289
f 289//289 392//392 393//393
f 289//289 393//393 290//290
f 290//290 393//393 394//394
f 290//290 394//394 291//291
f 291//291 394//394 377//377
f 291//291 377//377 287//287
f 331//331 346//346 328//328
f 328//328 346//346 345//345
f 328//328 345//345 344//344
f 331//331 330//330 346//346
f 346//346 330//330 347//347
f 347//347 330//330 381//381
f 347//347 381//381 380//380
f 330//330 329//329 381//381
f 381//381 329//329 382//382
f 382//382 329//329 313//313
f 382//382 313//313 383//383
f 383//383 313//313 384//384
f 384//384 313//313 312//312
f 384//384 312//312 385//385
f 385//385 312//312 317//317
f 385//385 317//317 386//386
f 386//386 317//317 356//356
f 386//386 356//356 387//387
f 387//387 356//356 388//388
f 388//388 356//356 355//355
f 388//388 355//355 389//389
f 389//389 355//355 390//390
f 390//390 355//355 354//354
f 390//390 354//354 367//367
f 367//367 354//354 368//368
f 368//368 354//354 369//369
f 369//369 354//354 370//370
f 370//370 354//354 371//371
f 371//371 354//354 365//365
f 371//371 365//365 364//364
f 317//317 316//316 356//356
f 356//356 316//316 357//357
f 357//357 316//316 315//315
f 357//357 315//315 358//358
f 358//358 315//315 314//314
f 358//358 314//314 359//359
f 359//359 314//314 318//318
f 359//359 318//318 360//360
f 360//360 318//318 361//361
f 361//361 318//318 322//322
f 361//361 322//322 321//321
f 361//361 321//321 362//362
f 362//362 321//321 320//320
f 362//362 320//320 351//351
f 351//351 320//320 319//319
f 351//351 319//319 352//352
f 352//352 319//319 195//195
f 352//352 195//195 353//353
f 353//353 195//195 197//197
f 353//353 197//197 200//200
f 200//200 197//197 198//198
f 200//200 198//198 199//199
f 319//319 323//323 195//195
f 195//195 323//323 327//327
f 195//195 327//327 339//339
f 339//339 327//327 340//340
f 340//340 327//327 326//326
f 340//340 326//326 341//341
f 341//341 326//326 325//325
f 341//341 325//325 342//342
f 342//342 325//325 324//324
f 342//342 324//324 343//343
f 343//343 324//324 344//344
f 344//344 324//324 328//328
f 349//349 212//212 205//205
f 205//205 212//212 213//213
f 205//205 213//213 214//214
f 214//214 215//215 205//205
f 349//349 205//205 188//188
f 188//188 205//205 183//183
f 188//188 183//183 187//187
f 187//187 183//183 186//186
f 186//186 183//183 185//185
f 185//185 183//183 184//184
f 195//195 339//339 188//188
f 188//188 339//339 350//350
f 188//188 350//350 349//349
f 364//364 363//363 371//371
f 367//367 366//366 390//390
f 390//390 366//366 372//372
f 372//372 366//366 376//376
f 372//372 376//376 375//375
f 375//375 374//374 372//372
f 372//372 374//374 373//373
f 380//380 379//379 347//347
f 347//347 379//379 348//348
f 348//348 379//379 378//378
f 348//348 378//378 332//332
f 332//332 378//378 337//337
f 332//332 337//337 336//336
f 337//337 378//378 338//338
f 338//338 378//378 377//377
f 338//338 377//377 391//391
f 391//391 377//377 392//392
f 392//392 377//377 393//393
f 393//393 377//377 394//394
f 336//336 335//335 332//332
f 332//332 335//335 334//334
f 332//332 334//334 333//333
f 44//44 43//43 395//395
f 395//395 43//43 396//396
f 40//40 38//38 223//223
f 223//223 38//38 397//397
f 397//397 38//38 398//398
f 398//398 38//38 64//64
f 398//398 64//64 399//399
f 399//399 64//64 63//63
f 399//399 63//63 400//400
f 400//400 63//63 62//62
f 400//400 62//62 401//401
f 401//401 62//62 45//45
f 401//401 45//45 395//395
f 395//395 45//45 44//44
f 402//402 403//403 404//404
f 404//404 403//403 405//405
f 404//404 405//405 406//406
f 402//402 407//407 403//403
f 403//403 407//407 408//408
f 408//408 407//407 409//409
f 408//408 409//409 410//410
f 407//407 411//411 409//409
f 409//409 411//411 412//412
f 412//412 411//411 413//413
f 412//412 413//413 414//414
f 414//414 413//413 415//415
f 415//415 413//413 416//416
f 415//415 416//416 417//417
f 417//417 416//416 418//418
f 417//417 418//418 419//419
f 419//419 418//418 420//420
f 419//419 420//420 421//421
f 421//421 420//420 422//422
f 422//422 420//420 423//423
f 422//422 423//423 424//424
f 424//424 423//423 425//425
f 425//425 423//423 426//426
f 425//425 426//426 427//427
f 427//427 426//426 428//428
f 428//428 426//426 429//429
f 429//429 426//426 430//430
f 430//430 426//426 431//431
f 431//431 426//426 432//432
f 431//431 432//432 433//433
f 418//418 434//434 420//420
f 420//420 434//434 435//435
f 435//435 434//434 436//436
f 435//435 436//436 437//437
f 437//437 436//436 438//438
f 437//437 438//438 439//439
f 439//439 438//438 440//440
f 439//439 440//440 441//441
f 441//441 440//440 442//442
f 442//442 440//440 400//400
f 442//442 400//400 401//401
f 440//440 443//443 400//400
f 400//400 443//443 399//399
f 399//399 443//443 444//444
f 399//399 444//444 398//398
f 398//398 444//444 445//445
f 398//398 445//445 397//397
f 397//397 445//445 446//446
f 397//397 446//446 447//447
f 447//447 448//448 397//397
f 397//397 448//448 449//449
f 397//397 449//449 450//450
f 448//448 451//451 449//449
f 449//449 451//451 452//452
f 452//452 451//451 453//453
f 452//452 453//453 454//454
f 454//454 453//453 455//455
f 454//454 455//455 456//456
f 456//456 455//455 406//406
f 406//406 455//455 404//404
f 220//220 221//221 457//457
f 457//457 221//221 222//222
f 457//457 222//222 223//223
f 457//457 223//223 458//458
f 458//458 223//223 397//397
f 458//458 397//397 450//450
f 401//401 395//395 442//442
f 442//442 395//395 459//459
f 459//459 395//395 460//460
f 460//460 395//395 461//461
f 461//461 395//395 396//396
f 461//461 396//396 462//462
f 462//462 396//396 463//463
f 462//462 463//463 464//464
f 464//464 465//465 462//462
f 433//433 466//466 431//431
f 427//427 467//467 425//425
f 425//425 467//467 468//468
f 468//468 467//467 469//469
f 468//468 469//469 470//470
f 470//470 471//471 468//468
f 468//468 471//471 472//472
f 410//410 473//473 408//408
f 408//408 473//473 474//474
f 474//474 473//473 475//475
f 474//474 475//475 476//476
f 476//476 475//475 477//477
f 476//476 477//477 478//478
f 477//477 475//475 479//479
f 479//479 475//475 480//480
f 479//479 480//480 481//481
f 481//481 480//480 482//482
f 482//482 480//480 483//483
f 483//483 480//480 484//484
f 478//478 485//485 476//476
f 476//476 485//485 486//486
f 476//476 486//486 487//487
f 189//189 488//488 196//196
f 196//196 488//488 489//489
f 196//196 489//489 490//490
f 190//190 194//194 189//189
f 189//189 194//194 206//206
f 189//189 206//206 491//491
f 491//491 206//206 219//219
f 219//219 206//206 218//218
f 218//218 206//206 217//217
f 217//217 206//206 216//216
f 190//190 191//191 194//194
f 194//194 191//191 192//192
f 194//194 192//192 193//193
f 491//491 492//492 189//189
f 189//189 492//492 488//488
f 488//488 493//493 489//489
f 489//489 493//493 494//494
f 494//494 493//493 495//495
f 494//494 495//495 496//496
f 496//496 495//495 497//497
f 496//496 497//497 498//498
f 498//498 497//497 499//499
f 498//498 499//499 500//500
f 498//498 500//500 501//501
f 501//501 500//500 502//502
f 501//501 502//502 503//503
f 504//504 505//505 503//503
f 503//503 505//505 506//506
f 503//503 506//506 501//501
f 507//507 508//508 504//504
f 504//504 508//508 509//509
f 504//504 509//509 510//510
f 508//508 507//507 511//511
f 511//511 507//507 512//512
f 511//511 512//512 513//513
f 513//513 512//512 514//514
f 514//514 512//512 515//515
f 515//515 512//512 516//516
f 516//516 512//512 517//517
f 513//513 518//518 511//511
f 511//511 518//518 519//519
f 519//519 518//518 520//520
f 519//519 520//520 521//521
f 521//521 522//522 519//519
f 519//519 522//522 523//523
f 524//524 525//525 510//510
f 510//510 525//525 505//505
f 510//510 505//505 504//504
f 525//525 524//524 526//526
f 526//526 524//524 527//527
f 526//526 527//527 528//528
f 526//526 528//528 529//529
f 529//529 528//528 530//530
f 529//529 530//530 531//531
f 531//531 530//530 532//532
f 531//531 532//532 533//533
f 533//533 532//532 534//534
f 533//533 534//534 535//535
f 533//533 535//535 536//536
f 536//536 535//535 537//537
f 536//536 537//537 538//538
f 539//539 540//540 538//538
f 538//538 540//540 541//541
f 538//538 541//541 542//542
f 542//542 541//541 543//543
f 542//542 543//543 544//544
f 545//545 546//546 539//539
f 539//539 546//546 547//547
f 539//539 547//547 548//548
f 548//548 540//540 539//539
f 544//544 549//549 542//542
f 542//542 549//549 550//550
f 542//542 550//550 551//551
f 551//551 550//550 552//552
f 552//552 550//550 553//553
f 542//542 536//536 538//538
f 531//531 533//533 554//554
f 554//554 533//533 555//555
f 554//554 555//555 556//556
f 556//556 555//555 557//557
f 556//556 557//557 558//558
f 558//558 557//557 559//559
f 558//558 559//559 560//560
f 560//560 559//559 561//561
f 560//560 561//561 562//562
f 563//563 564//564 562//562
f 562//562 564//564 565//565
f 562//562 565//565 560//560
f 564//564 563//563 566//566
f 566//566 563//563 567//567
f 566//566 567//567 568//568
f 568//568 567//567 569//569
f 568//568 569//569 196//196
f 196//196 569//569 570//570
f 196//196 570//570 571//571
f 571//571 570//570 572//572
f 571//571 572//572 573//573
f 573//573 572//572 574//574
f 490//490 568//568 196//196
f 416//416 413//413 529//529
f 529//529 413//413 526//526
f 558//558 438//438 556//556
f 556//556 438//438 436//436
f 556//556 436//436 554//554
f 554//554 436//436 434//434
f 554//554 434//434 531//531
f 531//531 434//434 418//418
f 531//531 418//418 529//529
f 529//529 418//418 416//416
f 440//440 438//438 560//560
f 560//560 438//438 558//558
f 568//568 446//446 566//566
f 566//566 446//446 445//445
f 566//566 445//445 564//564
f 564//564 445//445 444//444
f 564//564 444//444 565//565
f 565//565 444//444 443//443
f 565//565 443//443 560//560
f 560//560 443//443 440//440
f 447//447 446//446 490//490
f 490//490 446//446 568//568
f 498//498 455//455 496//496
f 496//496 455//455 453//453
f 496//496 453//453 494//494
f 494//494 453//453 451//451
f 494//494 451//451 489//489
f 489//489 451//451 448//448
f 489//489 448//448 490//490
f 490//490 448//448 447//447
f 404//404 455//455 501//501
f 501//501 455//455 498//498
f 526//526 413//413 525//525
f 525//525 413//413 411//411
f 525//525 411//411 505//505
f 505//505 411//411 407//407
f 505//505 407//407 506//506
f 506//506 407//407 402//402
f 506//506 402//402 501//501
f 501//501 402//402 404//404
f 476//476 487//487 512//512
f 512//512 487//487 517//517
f 517//517 487//487 486//486
f 517//517 486//486 516//516
f 516//516 486//486 485//485
f 516//516 485//485 515//515
f 515//515 485//485 478//478
f 515//515 478//478 514//514
f 514//514 478//478 513//513
f 513//513 478//478 477//477
f 513//513 477//477 479//479
f 479//479 518//518 513//513
f 450//450 449//449 488//488
f 488//488 449//449 493//493
f 493//493 449//449 452//452
f 493//493 452//452 495//495
f 495//495 452//452 454//454
f 495//495 454//454 497//497
f 497//497 454//454 499//499
f 499//499 454//454 456//456
f 499//499 456//456 406//406
f 499//499 406//406 500//500
f 500//500 406//406 405//405
f 500//500 405//405 502//502
f 502//502 405//405 403//403
f 502//502 403//403 503//503
f 503//503 403//403 408//408
f 503//503 408//408 504//504
f 504//504 408//408 474//474
f 504//504 474//474 507//507
f 507//507 474//474 476//476
f 507//507 476//476 512//512
f 219//219 220//220 491//491
f 491//491 220//220 457//457
f 491//491 457//457 458//458
f 491//491 458//458 492//492
f 492//492 458//458 450//450
f 492//492 450//450 488//488
f 396//396 43//43 463//463
f 463//463 43//43 61//61
f 463//463 61//61 464//464
f 464//464 61//61 465//465
f 465//465 61//61 60//60
f 465//465 60//60 572//572
f 572//572 60//60 574//574
f 574//574 60//60 49//49
f 574//574 49//49 573//573
f 573//573 49//49 48//48
f 573//573 48//48 571//571
f 571//571 48//48 47//47
f 571//571 47//47 196//196
f 567//567 460//460 569//569
f 569//569 460//460 461//461
f 569//569 461//461 570//570
f 570//570 461//461 462//462
f 570//570 462//462 572//572
f 572//572 462//462 465//465
f 426//426 423//423 542//542
f 542//542 423//423 536//536
f 536//536 423//423 420//420
f 536//536 420//420 533//533
f 533//533 420//420 435//435
f 533//533 435//435 555//555
f 555//555 435//435 437//437
f 555//555 437//437 557//557
f 557//557 437//437 439//439
f 557//557 439//439 559//559
f 559//559 439//439 441//441
f 559//559 441//441 561//561
f 561//561 441//441 442//442
f 561//561 442//442 562//562
f 562//562 442//442 459//459
f 562//562 459//459 563//563
f 563//563 459//459 460//460
f 563//563 460//460 567//567
f 553//553 466//466 552//552
f 552//552 466//466 433//433
f 552//552 433//433 551//551
f 551//551 433//433 432//432
f 551//551 432//432 542//542
f 542//542 432//432 426//426
f 467//467 427//427 540//540
f 540//540 427//427 541//541
f 541//541 427//427 428//428
f 541//541 428//428 543//543
f 543//543 428//428 429//429
f 543//543 429//429 544//544
f 544//544 429//429 430//430
f 544//544 430//430 549//549
f 549//549 430//430 550//550
f 550//550 430//430 431//431
f 550//550 431//431 466//466
f 466//466 553//553 550//550
f 468//468 472//472 539//539
f 539//539 472//472 545//545
f 545//545 472//472 471//471
f 545//545 471//471 546//546
f 546//546 471//471 470//470
f 546//546 470//470 547//547
f 547//547 470//470 469//469
f 547//547 469//469 548//548
f 548//548 469//469 467//467
f 548//548 467//467 540//540
f 480//480 475//475 519//519
f 519//519 475//475 511//511
f 511//511 475//475 473//473
f 511//511 473//473 508//508
f 508//508 473//473 410//410
f 508//508 410//410 509//509
f 509//509 410//410 409//409
f 509//509 409//409 510//510
f 510//510 409//409 412//412
f 510//510 412//412 524//524
f 524//524 412//412 414//414
f 524//524 414//414 527//527
f 527//527 414//414 415//415
f 527//527 415//415 528//528
f 528//528 415//415 530//530
f 530//530 415//415 417//417
f 530//530 417//417 419//419
f 530//530 419//419 532//532
f 532//532 419//419 421//421
f 532//532 421//421 534//534
f 534//534 421//421 422//422
f 534//534 422//422 535//535
f 535//535 422//422 424//424
f 535//535 424//424 537//537
f 537//537 424//424 425//425
f 537//537 425//425 538//538
f 538//538 425//425 468//468
f 538//538 468//468 539//539
f 479//479 481//481 518//518
f 518//518 481//481 520//520
f 520//520 481//481 482//482
f 520//520 482//482 521//521
f 521//521 482//482 483//483
f 521//521 483//483 522//522
f 522//522 483//483 484//484
f 522//522 484//484 523//523
f 523//523 484//484 480//480
f 523//523 480//480 519//519
# 1152 faces, 0 coords texture

# End of File
