####
#
# OBJ File Generated by Meshlab
#
####
# Object wx200_3_upper_arm.obj
#
# Vertices: 436
# Faces: 872
#
####
mtllib ./wx200_3_upper_arm.obj.mtl

vn 1.8185036 -1.7536614 4.2337022
v 11.0000000 -11.4499998 55.0000000
vn -1.5709593 -1.5707446 4.7123871
v -9.9999990 -9.9999981 55.0000114
vn -1.8185036 -1.7536614 4.2337022
v -11.0000000 -11.4499998 55.0000000
vn -3.1415901 0.0000104 3.1415949
v -10.0000000 -9.6000004 55.0000000
vn -3.1415906 -0.0000104 3.1415958
v -10.0000000 9.6000004 55.0000000
vn 1.8185036 1.7536614 4.2337031
v 11.0000000 11.4499998 55.0000000
vn 3.1415901 0.0000179 3.1415908
v 10.0000000 -9.6000004 55.0000000
vn 1.5709593 -1.5707370 4.7123914
v 10.0000010 -9.9999981 55.0000114
vn -1.8185036 1.7536614 4.2337012
v -11.0000000 11.4499998 55.0000000
vn -1.5709593 1.5707444 4.7123880
v -9.9999990 10.0000019 55.0000114
vn 1.5709593 1.5707371 4.7123909
v 10.0000010 10.0000019 55.0000114
vn 3.1415906 -0.0000179 3.1415901
v 10.0000000 9.6000004 55.0000000
vn 3.4906588 -1.0581640 2.9072816
v 14.0000000 2.0521209 -5.6381559
vn 3.4906583 -0.0000001 3.0938644
v 14.0000000 0.0000000 -6.0000000
vn 5.2370052 0.0000000 -2.3293364
v 14.0000000 0.0000000 -11.4499998
vn 3.4906588 1.0581638 2.9072816
v 14.0000000 -2.0521209 -5.6381559
vn 5.2427769 -0.5970169 -2.2464418
v 14.0000000 -2.9634781 -11.0598507
vn 3.4906585 1.9886979 2.3700376
v 14.0000000 -3.8567257 -4.5962667
vn 5.2502146 -1.1575487 -2.0084629
v 14.0000000 -5.7249999 -9.9159908
vn 3.4906583 2.6793652 1.5469321
v 14.0000000 -5.1961522 -3.0000000
vn 5.2525926 -1.6377697 -1.6377697
v 14.0000000 -8.0963726 -8.0963726
vn 3.4906583 3.0468616 0.5372440
v 14.0000000 -5.9088464 -1.0418891
vn 5.2502146 -2.0084627 -1.1575487
v 14.0000000 -9.9159908 -5.7249999
vn 3.4906585 3.0468616 -0.5372438
v 14.0000000 -5.9088464 1.0418891
vn 5.2427769 -2.2464418 -0.5970170
v 14.0000000 -11.0598507 -2.9634781
vn 5.3000193 -2.2753887 -0.1442303
v 14.0000000 -11.4499998 -0.0000000
vn 3.4906585 2.6793652 -1.5469320
v 14.0000000 -5.1961522 3.0000000
vn 4.9805822 -2.2400532 0.9278595
v 14.0000000 -11.4499998 50.7573586
vn 3.4906559 1.9886978 -2.3700376
v 14.0000000 -3.8567257 4.5962667
vn 4.9805741 -0.9278604 2.2400525
v 14.0000000 -10.2073593 52.0000000
vn 3.4906588 1.0581640 -2.9072814
v 14.0000000 -2.0521209 5.6381559
vn 3.4906583 0.0000001 -3.0938644
v 14.0000000 -0.0000000 6.0000000
vn 4.9805741 0.9278604 2.2400527
v 14.0000000 10.2073593 52.0000000
vn 3.4906588 -1.0581638 -2.9072816
v 14.0000000 2.0521209 5.6381559
vn 3.4906559 -1.9886979 -2.3700376
v 14.0000000 3.8567257 4.5962667
vn 4.9805822 2.2400532 0.9278595
v 14.0000000 11.4499998 50.7573586
vn 3.4906583 -2.6793652 -1.5469321
v 14.0000000 5.1961522 3.0000000
vn 5.3000193 2.2753887 -0.1442303
v 14.0000000 11.4499998 -0.0000000
vn 3.4906585 -3.0468616 -0.5372440
v 14.0000000 5.9088464 1.0418891
vn 5.2427769 2.2464421 -0.5970170
v 14.0000000 11.0598507 -2.9634781
vn 5.2502146 2.0084629 -1.1575487
v 14.0000000 9.9159908 -5.7249999
vn 3.4906585 -3.0468616 0.5372438
v 14.0000000 5.9088464 -1.0418891
vn 5.2525926 1.6377697 -1.6377697
v 14.0000000 8.0963726 -8.0963726
vn 3.4906583 -2.6793652 1.5469320
v 14.0000000 5.1961522 -3.0000000
vn 5.2502146 1.1575487 -2.0084627
v 14.0000000 5.7249999 -9.9159908
vn 3.4906585 -1.9886978 2.3700376
v 14.0000000 3.8567257 -4.5962667
vn 5.2427769 0.5970169 -2.2464418
v 14.0000000 2.9634781 -11.0598507
vn 1.8184979 -4.2337022 1.7536569
v 11.0000000 -14.4499998 52.0000000
vn 2.1620693 -5.2937851 -0.2943316
v 11.0000000 -14.4499998 -0.0000000
vn 1.8184979 4.2337022 1.7536567
v 11.0000000 14.4499998 52.0000000
vn 2.1620693 5.2937851 -0.2943316
v 11.0000000 14.4499998 -0.0000000
vn 2.0998304 5.0983152 -1.1568902
v 11.0000000 14.0877085 -3.2154274
vn 2.0946138 4.7177076 -2.2667630
v 11.0000000 13.0190001 -6.2696199
vn 2.0921369 4.0954418 -3.2638624
v 11.0000000 11.2974653 -9.0094280
vn 2.0921369 3.2638624 -4.0954418
v 11.0000000 9.0094280 -11.2974653
vn 2.0946138 2.2667630 -4.7177076
v 11.0000000 6.2696199 -13.0190001
vn 2.0998306 1.1568902 -5.0983152
v 11.0000000 3.2154274 -14.0877085
vn 2.1026969 -0.0000000 -5.2245359
v 11.0000000 0.0000000 -14.4499998
vn 2.0998306 -1.1568902 -5.0983152
v 11.0000000 -3.2154274 -14.0877085
vn 2.0946138 -2.2667630 -4.7177076
v 11.0000000 -6.2696199 -13.0190001
vn 2.0921369 -3.2638624 -4.0954418
v 11.0000000 -9.0094280 -11.2974653
vn 2.0921369 -4.0954418 -3.2638624
v 11.0000000 -11.2974653 -9.0094280
vn 2.0946138 -4.7177076 -2.2667630
v 11.0000000 -13.0190001 -6.2696199
vn 2.0998304 -5.0983152 -1.1568902
v 11.0000000 -14.0877085 -3.2154274
vn -1.8184979 4.2337022 1.7536569
v -11.0000000 14.4499998 52.0000000
vn -2.1620693 5.2937851 -0.2943316
v -11.0000000 14.4499998 -0.0000000
vn -2.1620693 -5.2937851 -0.2943316
v -11.0000000 -14.4499998 -0.0000000
vn -2.0998304 -5.0983152 -1.1568902
v -11.0000000 -14.0877085 -3.2154274
vn -2.0946138 -4.7177076 -2.2667630
v -11.0000000 -13.0190001 -6.2696199
vn -2.0921369 -4.0954418 -3.2638624
v -11.0000000 -11.2974653 -9.0094280
vn -2.0921369 -3.2638621 -4.0954413
v -11.0000000 -9.0094280 -11.2974653
vn -2.0946138 -2.2667627 -4.7177081
v -11.0000000 -6.2696199 -13.0190001
vn -2.0998306 -1.1568903 -5.0983152
v -11.0000000 -3.2154274 -14.0877085
vn -2.1026969 0.0000000 -5.2245359
v -11.0000000 0.0000000 -14.4499998
vn -2.0998306 1.1568902 -5.0983152
v -11.0000000 3.2154274 -14.0877085
vn -2.0946138 2.2667630 -4.7177076
v -11.0000000 6.2696199 -13.0190001
vn -2.0921369 3.2638624 -4.0954418
v -11.0000000 9.0094280 -11.2974653
vn -2.0921369 4.0954413 -3.2638621
v -11.0000000 11.2974653 -9.0094280
vn -2.0946138 4.7177081 -2.2667627
v -11.0000000 13.0190001 -6.2696199
vn -2.0998304 5.0983148 -1.1568903
v -11.0000000 14.0877085 -3.2154274
vn -3.4906588 1.0581640 2.9072814
v -14.0000000 -2.0521209 -5.6381559
vn -3.4906583 0.0000001 3.0938644
v -14.0000000 0.0000000 -6.0000000
vn -5.2370052 -0.0000000 -2.3293364
v -14.0000000 0.0000000 -11.4499998
vn -3.4906588 -1.0581638 2.9072816
v -14.0000000 2.0521209 -5.6381559
vn -5.2427769 0.5970169 -2.2464418
v -14.0000000 2.9634781 -11.0598507
vn -3.4906585 -1.9886978 2.3700376
v -14.0000000 3.8567257 -4.5962667
vn -5.2502146 1.1575487 -2.0084629
v -14.0000000 5.7249999 -9.9159908
vn -3.4906583 -2.6793652 1.5469321
v -14.0000000 5.1961522 -3.0000000
vn -5.2525926 1.6377697 -1.6377697
v -14.0000000 8.0963726 -8.0963726
vn -3.4906583 -3.0468616 0.5372440
v -14.0000000 5.9088464 -1.0418891
vn -5.2502146 2.0084627 -1.1575487
v -14.0000000 9.9159908 -5.7249999
vn -3.4906585 -3.0468616 -0.5372438
v -14.0000000 5.9088464 1.0418891
vn -5.2427769 2.2464418 -0.5970170
v -14.0000000 11.0598507 -2.9634781
vn -5.3000193 2.2753887 -0.1442303
v -14.0000000 11.4499998 -0.0000000
vn -3.4906585 -2.6793652 -1.5469320
v -14.0000000 5.1961522 3.0000000
vn -4.9805822 2.2400532 0.9278595
v -14.0000000 11.4499998 50.7573586
vn -3.4906559 -1.9886979 -2.3700376
v -14.0000000 3.8567257 4.5962667
vn -4.9805741 0.9278604 2.2400525
v -14.0000000 10.2073593 52.0000000
vn -3.4906588 -1.0581640 -2.9072814
v -14.0000000 2.0521209 5.6381559
vn -3.4906583 -0.0000001 -3.0938644
v -14.0000000 -0.0000000 6.0000000
vn -4.9805741 -0.9278604 2.2400527
v -14.0000000 -10.2073593 52.0000000
vn -3.4906588 1.0581638 -2.9072816
v -14.0000000 -2.0521209 5.6381559
vn -3.4906559 1.9886978 -2.3700376
v -14.0000000 -3.8567257 4.5962667
vn -4.9805822 -2.2400532 0.9278595
v -14.0000000 -11.4499998 50.7573586
vn -3.4906583 2.6793652 -1.5469321
v -14.0000000 -5.1961522 3.0000000
vn -5.3000193 -2.2753887 -0.1442303
v -14.0000000 -11.4499998 -0.0000000
vn -3.4906585 3.0468616 -0.5372440
v -14.0000000 -5.9088464 1.0418891
vn -5.2427769 -2.2464421 -0.5970170
v -14.0000000 -11.0598507 -2.9634781
vn -5.2502146 -2.0084629 -1.1575487
v -14.0000000 -9.9159908 -5.7249999
vn -3.4906585 3.0468616 0.5372438
v -14.0000000 -5.9088464 -1.0418891
vn -5.2525926 -1.6377697 -1.6377697
v -14.0000000 -8.0963726 -8.0963726
vn -3.4906583 2.6793652 1.5469320
v -14.0000000 -5.1961522 -3.0000000
vn -5.2502146 -1.1575487 -2.0084627
v -14.0000000 -5.7249999 -9.9159908
vn -3.4906585 1.9886979 2.3700376
v -14.0000000 -3.8567257 -4.5962667
vn -5.2427769 -0.5970169 -2.2464418
v -14.0000000 -2.9634781 -11.0598507
vn -1.8184979 -4.2337022 1.7536569
v -11.0000000 -14.4499998 52.0000000
vn -5.0562935 1.2191881 2.1117065
v -23.3999996 -48.9500008 201.3796539
vn -5.0564122 1.2191693 -2.1116140
v -23.3999996 -48.9500008 197.7423553
vn -5.0564098 -0.0000158 2.4382956
v -23.3999996 -50.0000000 201.6609955
vn -5.0562668 -0.0000174 -2.4384012
v -23.3999996 -50.0000000 197.4609985
vn -5.0562868 -1.2191744 2.1117189
v -23.3999996 -51.0499992 201.3796539
vn -5.0564070 -1.2191470 -2.1116285
v -23.3999996 -51.0499992 197.7423553
vn -5.0563235 -2.1116741 1.2191907
v -23.3999996 -51.8186531 200.6110077
vn -5.0563278 -2.1116772 -1.2191814
v -23.3999996 -51.8186531 198.5110016
vn -5.0563431 -2.4383457 -0.0000006
v -23.3999996 -52.0999985 199.5610046
vn -5.0563235 2.1116741 -1.2191907
v -23.3999996 -48.1813469 198.5110016
vn -5.0563221 2.1116741 1.2191932
v -23.3999996 -48.1813469 200.6110077
vn -5.0563431 2.4383457 0.0000006
v -23.3999996 -47.9000015 199.5610046
vn -1.9268533 -2.4807341 4.2967615
v -23.2499981 -51.1250000 201.5095520
vn -1.9269040 -0.0000092 4.9613571
v -23.2499981 -50.0000000 201.8110046
vn -1.9268492 2.4807465 4.2967615
v -23.2499981 -48.8750000 201.5095520
vn -1.9268610 4.2967119 2.4807179
v -23.2499981 -48.0514412 200.6860046
vn -1.9268759 4.9614229 0.0000004
v -23.2499981 -47.7500000 199.5610046
vn -1.9268695 4.2967253 -2.4807062
v -23.2499981 -48.0514412 198.4360046
vn -1.9269062 2.4806852 -4.2966733
v -23.2499981 -48.8750000 197.6124420
vn -1.9268413 -0.0000102 -4.9614754
v -23.2499981 -50.0000000 197.3110046
vn -1.9269083 -2.4806695 -4.2966776
v -23.2499981 -51.1250000 197.6124420
vn -1.9268667 -4.2967315 -2.4807034
v -23.2499981 -51.9485588 198.4360046
vn -1.9268759 -4.9614229 -0.0000004
v -23.2499981 -52.2500000 199.5610046
vn -1.9268609 -4.2967148 2.4807179
v -23.2499981 -51.9485588 200.6860046
vn -3.6651764 -1.5172774 2.6279981
v -20.8999996 -51.1250000 201.5095520
vn -3.6652074 0.0000000 3.0345392
v -20.8999996 -50.0000000 201.8110046
vn -3.6651764 1.5172772 2.6279981
v -20.8999996 -48.8750000 201.5095520
vn -3.6651998 2.6279862 1.5172784
v -20.8999996 -48.0514412 200.6860046
vn -3.6651888 3.0345464 0.0000000
v -20.8999996 -47.7500000 199.5610046
vn -3.6651902 2.6279964 -1.5172682
v -20.8999996 -48.0514412 198.4360046
vn -3.6651983 1.5172685 -2.6279929
v -20.8999996 -48.8750000 197.6124420
vn -3.6651821 -0.0000001 -3.0345492
v -20.8999996 -50.0000000 197.3110046
vn -3.6651981 -1.5172685 -2.6279926
v -20.8999996 -51.1250000 197.6124420
vn -3.6651907 -2.6279964 -1.5172682
v -20.8999996 -51.9485588 198.4360046
vn -3.6651888 -3.0345464 -0.0000000
v -20.8999996 -52.2500000 199.5610046
vn -3.6651998 -2.6279862 1.5172782
v -20.8999996 -51.9485588 200.6860046
vn -5.0958204 -2.1498177 -1.1339968
v -20.8999996 -53.4236832 197.9122467
vn -5.1256828 -2.4024825 0.0000023
v -20.8999996 -53.7999992 199.5610046
vn -5.0957723 -2.1498485 1.1340219
v -20.8999996 -53.4236832 201.2097626
vn -5.0141497 -1.4428010 2.0422041
v -20.8999996 -52.3692627 202.5319672
vn -4.9128151 -0.4199827 2.5438898
v -20.8999996 -50.8455811 203.2657318
vn -4.8167391 0.7222555 2.5448105
v -20.8999996 -49.1544189 203.2657318
vn -4.7400417 1.7575755 2.0425723
v -20.8999996 -47.6307373 202.5319672
vn -4.6910963 2.4769974 1.1343404
v -20.8999996 -46.5763168 201.2097626
vn -4.6742997 2.7342768 0.0000000
v -20.8999996 -46.2000008 199.5610046
vn -4.6911321 2.4769826 -1.1343231
v -20.8999996 -46.5763168 197.9122467
vn -4.7401543 1.7575321 -2.0425215
v -20.8999996 -47.6307373 196.5900421
vn -4.8167801 0.7222301 -2.5447917
v -20.8999996 -49.1544189 195.8562775
vn -4.9128151 -0.4199827 -2.5438898
v -20.8999996 -50.8455811 195.8562775
vn -5.0141492 -1.4428008 -2.0422039
v -20.8999996 -52.3692627 196.5900421
vn -2.0103993 -4.6344795 -1.9836464
v -20.6999989 -53.6541824 197.9340515
vn -1.9904174 -5.0633583 0.0000046
v -20.6999989 -54.0000000 199.5610046
vn -2.0103829 -4.6345167 1.9836400
v -20.6999989 -53.6541824 201.1879425
vn -2.0515022 -3.4167812 -3.6424963
v -20.6999989 -52.6765213 196.5884247
vn -2.0959837 -1.6247798 -4.6655378
v -20.6999989 -51.2360687 195.7567749
vn -2.1333823 0.4223719 -4.8746052
v -20.6999989 -49.5818863 195.5829163
vn -2.1611214 2.3694654 -4.2389402
v -20.6999989 -48.0000000 196.0968933
vn -2.1791706 3.8843808 -2.8735604
v -20.6999989 -46.7639313 197.2098541
vn -2.1880200 4.7112956 -1.0157455
v -20.6999989 -46.0874100 198.7293549
vn -2.1880164 4.7112927 1.0157516
v -20.6999989 -46.0874100 200.3926544
vn -2.1791477 3.8844104 2.8735900
v -20.6999989 -46.7639313 201.9121399
vn -2.1610892 2.3695068 4.2389879
v -20.6999989 -48.0000000 203.0251007
vn -2.1333740 0.4223881 4.8745999
v -20.6999989 -49.5818863 203.5390930
vn -2.0959837 -1.6247797 4.6655378
v -20.6999989 -51.2360687 203.3652344
vn -2.0514967 -3.4167867 3.6424892
v -20.6999989 -52.6765213 202.5335846
vn -3.5604758 -2.8072691 -1.2498797
v -18.9999981 -53.6541824 197.9340515
vn -3.5604711 -3.0729413 0.0000029
v -18.9999981 -54.0000000 199.5610046
vn -3.5604682 -2.8072739 1.2498758
v -18.9999981 -53.6541824 201.1879425
vn -3.5604720 -2.0562043 2.2836356
v -18.9999981 -52.6765213 202.5335846
vn -3.5604668 -2.0561993 -2.2836428
v -18.9999981 -52.6765213 196.5884247
vn -3.5604758 -0.9495913 -2.9225395
v -18.9999981 -51.2360687 195.7567749
vn -3.5604649 0.3212048 -3.0561101
v -18.9999981 -49.5818863 195.5829163
vn -3.5604765 1.5364627 -2.6612477
v -18.9999981 -48.0000000 196.0968933
vn -3.5604742 2.4860628 -1.8062265
v -18.9999981 -46.7639313 197.2098541
vn -3.5604696 3.0057917 -0.6388973
v -18.9999981 -46.0874100 198.7293549
vn -3.5604734 3.0057890 0.6389025
v -18.9999981 -46.0874100 200.3926544
vn -3.5604706 2.4860606 1.8062320
v -18.9999981 -46.7639313 201.9121399
vn -3.5604680 1.5364759 2.6612434
v -18.9999981 -48.0000000 203.0251007
vn -3.5604734 0.3212180 3.0561059
v -18.9999981 -49.5818863 203.5390930
vn -3.5604756 -0.9495913 2.9225397
v -18.9999981 -51.2360687 203.3652344
vn -5.1927910 -2.2518399 -0.7308988
v -18.9999981 -59.1631584 196.8704529
vn -5.2151599 -2.3466434 0.0000001
v -18.9999981 -59.5499992 199.5610046
vn -5.1928248 -2.2518146 0.7308804
v -18.9999981 -59.1631584 202.2515411
vn -5.1337399 -1.9719839 1.4021980
v -18.9999981 -58.0339699 204.7241211
vn -5.0571260 -1.5216446 1.9617749
v -18.9999981 -56.2539215 206.7784119
vn -4.9763384 -0.9290972 2.3687973
v -18.9999981 -53.9672127 208.2479858
vn -4.8979473 -0.2387652 2.5893090
v -18.9999981 -51.3591080 209.0137939
vn -4.8260765 0.4935072 2.6018126
v -18.9999981 -48.6408920 209.0137939
vn -4.7636890 1.2060075 2.4016397
v -18.9999981 -46.0327873 208.2479858
vn -4.7129102 1.8373582 2.0026953
v -18.9999981 -43.7460785 206.7784119
vn -4.6755342 2.3325090 1.4365281
v -18.9999981 -41.9660301 204.7241211
vn -4.6525879 2.6481500 0.7498184
v -18.9999981 -40.8368416 202.2515411
vn -4.6448507 2.7565422 0.0000001
v -18.9999981 -40.4500008 199.5610046
vn -4.6525450 2.6481731 -0.7498258
v -18.9999981 -40.8368416 196.8704529
vn -4.6755342 2.3325088 -1.4365283
v -18.9999981 -41.9660301 194.3978882
vn -4.7129102 1.8373582 -2.0026953
v -18.9999981 -43.7460785 192.3435974
vn -4.7636890 1.2060086 -2.4016392
v -18.9999981 -46.0327873 190.8740234
vn -4.8260374 0.4935254 -2.6018350
v -18.9999981 -48.6408920 190.1082001
vn -4.8978434 -0.2387843 -2.5893776
v -18.9999981 -51.3591080 190.1082001
vn -4.9763379 -0.9290977 -2.3687971
v -18.9999981 -53.9672127 190.8740234
vn -5.0572071 -1.5216024 -1.9617280
v -18.9999981 -56.2539215 192.3435974
vn -5.1337476 -1.9719821 -1.4021903
v -18.9999981 -58.0339699 194.3978882
vn -2.0920691 -4.9928093 -1.3386755
v -18.7999992 -59.3884430 196.9304810
vn -2.0752945 -5.1876068 0.0000000
v -18.7999992 -59.7500000 199.5610046
vn -2.0920842 -4.9927902 1.3386797
v -18.7999992 -59.3884430 202.1915283
vn -2.1289139 -4.4263830 -2.5883384
v -18.7999992 -58.3305893 194.4950562
vn -2.1709137 -3.5377955 -3.6430364
v -18.7999992 -56.6548920 192.4353485
vn -2.2098637 -2.4005828 -4.4205585
v -18.7999992 -54.4856339 190.9041290
vn -2.2432861 -1.1026852 -4.8642163
v -18.7999992 -51.9836960 190.0149384
vn -2.2709255 0.2592740 -4.9443049
v -18.7999992 -49.3346367 189.8337250
vn -2.2930448 1.5859239 -4.6585031
v -18.7999992 -46.7349243 190.3739624
vn -2.3101003 2.7818170 -4.0305548
v -18.7999992 -44.3773651 191.5955505
vn -2.3225181 3.7617307 -3.1082850
v -18.7999992 -42.4368134 193.4078979
vn -2.3306074 4.4561791 -1.9599786
v -18.7999992 -41.0571899 195.6765900
vn -2.3345964 4.8161016 -0.6694916
v -18.7999992 -40.3408127 198.2333832
vn -2.3345995 4.8160973 0.6694924
v -18.7999992 -40.3408127 200.8886261
vn -2.3306174 4.4561663 1.9599695
v -18.7999992 -41.0571899 203.4454193
vn -2.3225181 3.7617311 3.1082850
v -18.7999992 -42.4368134 205.7141113
vn -2.3101003 2.7818165 4.0305543
v -18.7999992 -44.3773651 207.5264587
vn -2.2930527 1.5859017 4.6584883
v -18.7999992 -46.7349243 208.7480469
vn -2.2709367 0.2592734 4.9443078
v -18.7999992 -49.3346367 209.2882690
vn -2.2433202 -1.1026521 4.8641686
v -18.7999992 -51.9836960 209.1070709
vn -2.2098596 -2.4005897 4.4205542
v -18.7999992 -54.4856339 208.2178802
vn -2.1708813 -3.5378399 3.6430688
v -18.7999992 -56.6548920 206.6866455
vn -2.1289129 -4.4263763 2.5883400
v -18.7999992 -58.3305893 204.6269531
vn -3.4147744 -2.9969180 -0.8396965
v -16.9999981 -59.3884430 196.9304810
vn -3.4147747 -3.1123319 -0.0000000
v -16.9999981 -59.7500000 199.5610046
vn -3.4147744 -2.9969182 0.8396966
v -16.9999981 -59.3884430 202.1915283
vn -3.4147787 -2.6592329 1.6171219
v -16.9999981 -58.3305893 204.6269531
vn -3.4147749 -2.6592362 -1.6171174
v -16.9999981 -58.3305893 194.4950562
vn -3.4147778 -2.1243272 -2.2746069
v -16.9999981 -56.6548920 192.4353485
vn -3.4147708 -1.4318719 -2.7633958
v -16.9999981 -54.4856339 190.9041290
vn -3.4147706 -0.6332310 -3.0472336
v -16.9999981 -51.9836960 190.0149384
vn -3.4147830 0.2123917 -3.1050744
v -16.9999981 -49.3346367 189.8337250
vn -3.4147706 1.0422623 -2.9326274
v -16.9999981 -46.7349243 190.3739624
vn -3.4147744 1.7948196 -2.5426819
v -16.9999981 -44.3773651 191.5955505
vn -3.4147747 2.4142702 -1.9641562
v -16.9999981 -42.4368134 193.4078979
vn -3.4147758 2.8546660 -1.2399555
v -16.9999981 -41.0571899 195.6765900
vn -3.4147737 3.0833437 -0.4237944
v -16.9999981 -40.3408127 198.2333832
vn -3.4147737 3.0833437 0.4237943
v -16.9999981 -40.3408127 200.8886261
vn -3.4147758 2.8546662 1.2399555
v -16.9999981 -41.0571899 203.4454193
vn -3.4147747 2.4142699 1.9641559
v -16.9999981 -42.4368134 205.7141113
vn -3.4147744 1.7948196 2.5426819
v -16.9999981 -44.3773651 207.5264587
vn -3.4147761 1.0422536 2.9326291
v -16.9999981 -46.7349243 208.7480469
vn -3.4147720 0.2123921 3.1050763
v -16.9999981 -49.3346367 209.2882690
vn -3.4147763 -0.6332220 3.0472341
v -16.9999981 -51.9836960 209.1070709
vn -3.4147758 -1.4318781 2.7633917
v -16.9999981 -54.4856339 208.2178802
vn -3.4147692 -2.1243300 2.2746072
v -16.9999981 -56.6548920 206.6866455
vn 4.6525331 -2.6481791 -0.7498274
v 19.0000019 -59.1631584 196.8704529
vn 5.1927791 2.2518492 -0.7309014
v 19.0000019 -40.8368416 196.8704529
vn 4.6448402 -2.7565484 0.0000001
v 19.0000019 -59.5499992 199.5610046
vn 5.2151489 2.3466549 0.0000001
v 19.0000019 -40.4500008 199.5610046
vn 4.6525769 -2.6481564 0.7498203
v 19.0000019 -59.1631584 202.2515411
vn 5.1928124 2.2518244 0.7308831
v 19.0000019 -40.8368416 202.2515411
vn 4.6755228 -2.3325143 1.4365313
v 19.0000019 -58.0339699 204.7241211
vn 5.1337271 1.9719918 1.4022028
v 19.0000019 -41.9660301 204.7241211
vn 4.7128983 -1.8373623 2.0027001
v 19.0000019 -56.2539215 206.7784119
vn 5.0571141 1.5216504 1.9617815
v 19.0000019 -43.7460785 206.7784119
vn 4.7636776 -1.2060103 2.4016459
v 19.0000019 -53.9672127 208.2479858
vn 4.9763260 0.9291008 2.3688049
v 19.0000019 -46.0327873 208.2479858
vn 4.8260646 -0.4935083 2.6018202
v 19.0000019 -51.3591080 209.0137939
vn 4.8979354 0.2387664 2.5893168
v 19.0000019 -48.6408920 209.0137939
vn 5.1337352 1.9719901 -1.4021955
v 19.0000019 -41.9660301 194.3978882
vn 4.6755228 -2.3325140 -1.4365315
v 19.0000019 -58.0339699 194.3978882
vn 5.0571947 1.5216082 -1.9617344
v 19.0000019 -43.7460785 192.3435974
vn 4.7128987 -1.8373623 -2.0027001
v 19.0000019 -56.2539215 192.3435974
vn 4.9763265 0.9291012 -2.3688049
v 19.0000019 -46.0327873 190.8740234
vn 4.7636771 -1.2060114 -2.4016454
v 19.0000019 -53.9672127 190.8740234
vn 4.8978314 0.2387853 -2.5893855
v 19.0000019 -48.6408920 190.1082001
vn 4.8260264 -0.4935265 -2.6018422
v 19.0000019 -51.3591080 190.1082001
vn 4.2523136 -2.6815176 -0.7853982
v 17.0000019 -60.8499985 203.0610046
vn 4.9805918 -2.2400498 0.9278463
v 17.0000019 -60.8499985 211.6453094
vn 1.1107210 -2.6815174 -2.3561943
v 16.6000004 -61.2500000 203.0610046
vn 1.8185036 -4.2336931 1.7536581
v 16.6000004 -61.2500000 211.8110046
vn 1.5707964 -1.5707934 1.5707960
v 13.5000010 -60.8499985 196.0610046
vn 1.5707966 -1.5707963 -1.5707960
v 13.5000010 -60.8499985 203.0610046
vn 1.5707966 -4.7123890 1.5707964
v 13.5000010 -61.2500000 196.0610046
vn 1.5707964 -4.7123890 -1.5707964
v 13.5000010 -61.2500000 203.0610046
vn -1.8184974 -4.2337041 -1.7536542
v -16.5999985 -61.2500000 187.3110046
vn -4.9805803 -2.2400515 -0.9278673
v -16.9999981 -60.8499985 187.4766846
vn -1.8184882 -1.7536623 -4.2337136
v -16.5999985 -59.2500000 185.3110046
vn -4.9805636 -0.9278663 -2.2400711
v -16.9999981 -59.0843163 185.7109985
vn 1.8184936 -4.2337084 -1.7536553
v 16.6000004 -61.2500000 187.3110046
vn 1.8184848 -1.7536645 -4.2337193
v 16.6000004 -59.2500000 185.3110046
vn 5.8230991 -0.7854078 -1.1107312
v 17.0000019 -42.0000000 185.7109985
vn 4.9805522 -0.9278667 -2.2400715
v 17.0000019 -59.0843163 185.7109985
vn 1.1107110 -0.7853888 -5.8231211
v 16.6000004 -42.0000000 185.3110046
vn 4.9805722 -2.2400551 -0.9278679
v 17.0000019 -60.8499985 187.4766846
vn 1.1107204 -2.6815166 2.3561943
v 16.6000004 -61.2500000 196.0610046
vn 4.2523131 -2.6815181 0.7853982
v 17.0000019 -60.8499985 196.0610046
vn 1.1107208 -2.6815171 -2.3561943
v 16.6000004 -61.2500000 196.1609955
vn 1.1107205 -2.6815169 2.3561943
v 16.6000004 -61.2500000 202.9609985
vn -1.5707964 -1.5707963 -1.5707964
v 13.6000013 -61.2500000 196.1609955
vn -1.5707959 -1.5707964 1.5707964
v 13.6000013 -61.2500000 202.9609985
vn 4.2523136 -2.6815171 0.7853982
v 17.0000019 -60.8499985 202.9609985
vn 4.2523131 -2.6815169 -0.7853982
v 17.0000019 -60.8499985 196.1609955
vn -1.5707964 -4.7123871 1.5707960
v 13.6000013 -60.8499985 202.9609985
vn 2.1224692 5.0021648 -1.3336161
v 18.8000011 -40.6115570 196.9304810
vn 2.1056938 5.1952491 0.0073936
v 18.8000011 -40.2500000 199.5610046
vn 2.1224797 4.9981546 1.3478647
v 18.8000011 -40.6115570 202.1915283
vn 2.1593070 4.4290676 2.5986242
v 18.8000011 -41.6694107 204.6269531
vn 2.2012880 3.5376511 3.6537037
v 18.8000011 -43.3451080 206.6866455
vn 2.2402627 2.3975444 4.4307418
v 18.8000011 -45.5143661 208.2178802
vn 2.2737246 1.0969638 4.8731585
v 18.8000011 -48.0163040 209.1070709
vn 2.3013411 -0.2671672 4.9514303
v 18.8000011 -50.6653633 209.2882690
vn 2.3234591 -1.5954322 4.6632147
v 18.8000011 -53.2650757 208.7480469
vn 2.3405035 -2.7922649 4.0325370
v 18.8000011 -55.6226349 207.5264587
vn 2.3529210 -3.7723284 3.1073723
v 18.8000011 -57.5631866 205.7141113
vn 2.3610163 -4.4661236 1.9562330
v 18.8000011 -58.9428101 203.4454193
vn 2.3650024 -4.8246775 0.6632088
v 18.8000011 -59.6591873 200.8886261
vn 2.3650026 -4.8226681 -0.6778578
v 18.8000011 -59.6591873 198.2333832
vn 2.3610113 -4.4602442 -1.9698069
v 18.8000011 -58.9428101 195.6765900
vn 2.3529227 -3.7629941 -3.1188455
v 18.8000011 -57.5631866 193.4078979
vn 2.3405063 -2.7801852 -4.0410638
v 18.8000011 -55.6226349 191.5955505
vn 2.3234484 -1.5815123 -4.6681833
v 18.8000011 -53.2650757 190.3739624
vn 2.3013215 -0.2524230 -4.9524355
v 18.8000011 -50.6653633 189.8337250
vn 2.2736995 1.1114799 -4.8701968
v 18.8000011 -48.0163040 190.0149384
vn 2.2402709 2.4106696 -4.4239416
v 18.8000011 -45.5143661 190.9041290
vn 2.2013087 3.5484166 -3.6435759
v 18.8000011 -43.3451080 192.4353485
vn 2.1593132 4.4367552 -2.5859931
v 18.8000011 -41.6694107 194.4950562
vn 3.3843694 -3.1192107 -0.0689530
v 17.0000019 -59.7470818 199.3224182
vn 3.3843625 -3.0221457 0.7751558
v 17.0000019 -59.4500008 201.9609985
vn 3.3843639 -2.7009416 1.5617770
v 17.0000019 -58.4520569 204.4215851
vn 3.3843718 -2.1794183 2.2325687
v 17.0000019 -56.8272629 206.5216827
vn 3.3843637 -1.4962614 2.7377796
v 17.0000019 -54.6961212 208.1055298
vn 3.3843794 -0.7021280 3.0399404
v 17.0000019 -52.2166901 209.0556793
vn 3.3843582 0.1440713 3.1166463
v 17.0000019 -49.5728569 209.3016357
vn 3.3843791 0.9795886 2.9621997
v 17.0000019 -46.9607048 208.8251953
vn 3.3843617 1.7424586 2.5880640
v 17.0000019 -44.5739632 207.6616516
vn 3.3843765 2.3760874 2.0219872
v 17.0000019 -42.5896416 205.8973389
vn 3.3843529 2.8335075 1.3059385
v 17.0000019 -41.1549187 203.6630707
vn 3.3843672 3.0807691 0.4930432
v 17.0000019 -40.3761902 201.1245880
vn 3.3843632 3.0995481 -0.3564209
v 17.0000019 -40.3112183 198.4701385
vn 3.3843699 2.8884461 -1.1794528
v 17.0000019 -40.9648170 195.8965759
vn 3.3843637 2.4631200 -1.9150119
v 17.0000019 -42.2885170 193.5948029
vn 3.3843606 1.8551168 -2.5085409
v 17.0000019 -44.1841393 191.7355194
vn 3.3843784 1.1095345 -2.9160175
v 17.0000019 -46.5110970 190.4566040
vn 3.3843768 0.2816588 -3.1072326
v 17.0000019 -49.0968132 189.8529205
vn 3.3843565 -0.5671198 -3.0679979
v 17.0000019 -51.7495155 189.9692535
vn 3.3843734 -1.3738168 -2.8012235
v 17.0000019 -54.2724609 190.7969513
vn 3.3843682 -2.0786335 -2.3266959
v 17.0000019 -56.4785385 192.2746429
vn 3.3843689 -2.6292863 -1.6796080
v 17.0000019 -58.2041321 194.2927246
vn 3.3843708 -2.9849389 -0.9079477
v 17.0000019 -59.3212662 196.7015381
vn 5.8231201 -0.7853886 1.1107103
v 17.0000019 -42.0000000 213.4109955
vn 1.1107918 -0.7853695 5.8230991
v 16.6000004 -42.0000000 213.8110046
vn 4.9806004 -0.9278625 2.2400367
v 17.0000019 -59.0843163 213.4109955
vn 1.8185086 -1.7536488 4.2336888
v 16.6000004 -59.2500000 213.8110046
vn -1.8185115 -1.7536469 4.2336855
v -16.5999985 -59.2500000 213.8110046
vn -1.8185077 -4.2336893 1.7536552
v -16.5999985 -61.2500000 211.8110046
vn -4.9805989 -2.2400453 0.9278429
v -16.9999981 -60.8499985 211.6453094
vn -4.9806123 -0.9278592 2.2400370
v -16.9999981 -59.0843163 213.4109955
vn -2.6815329 -3.9269788 1.1107075
v -16.9999981 -25.7749996 213.4109955
vn -1.1107392 -3.9270043 2.6815093
v -16.5999985 -25.7749996 213.8110046
vn 1.1107310 -3.9270005 2.6815064
v 16.6000004 -25.7749996 213.8110046
vn 1.1107913 0.7853695 5.8230991
v 16.6000004 -29.0000000 213.8110046
vn 1.5708563 1.5708345 1.5707958
v 17.0000019 -29.0000000 213.8109894
vn 1.5708563 -1.5708345 1.5707964
v 17.0000019 -42.0000000 213.8109894
vn 2.6815271 -3.9269810 1.1107103
v 17.0000019 -25.7749996 213.4109955
vn 5.8231201 0.7853886 1.1107099
v 17.0000019 -29.0000000 213.4109955
vn 5.8230991 0.7854078 -1.1107314
v 17.0000019 -29.0000000 185.7109985
vn 2.6815062 -3.9270003 -1.1107311
v 17.0000019 -25.7749996 185.7109985
vn 1.5707964 -1.5707964 -1.5707958
v 17.0000019 -42.0000000 185.3110046
vn 1.5707964 1.5707964 -1.5707964
v 17.0000019 -29.0000000 185.3110046
vn -1.5707959 -4.7123895 -1.5707960
v 13.6000013 -60.8499985 196.1609955
vn 1.1107100 -3.9269812 -2.6815276
v 16.6000004 -25.7749996 185.3110046
vn 1.1107099 0.7853888 -5.8231196
v 16.6000004 -29.0000000 185.3110046
vn -1.1107183 -3.9269850 -2.6815307
v -16.5999985 -25.7749996 185.3110046
vn -2.6815107 -3.9269979 -1.1107287
v -16.9999981 -25.7749996 185.7109985
vn -1.9548345 -1.2817620 -4.7505937
v -18.0999985 -11.1000004 160.5610046
vn 1.9548345 -1.2817621 -4.7505932
v 18.1000004 -11.1000004 160.5610046
vn -1.9548337 -3.4973750 -3.4611297
v -18.0999985 -15.5819187 163.1694336
vn 1.9548337 -3.4973752 -3.4611297
v 18.1000004 -15.5819187 163.1694336
vn -2.0884995 0.6851740 5.1387348
v -18.0999985 -13.5500002 218.0110016
vn -1.8184978 -1.7536573 4.2337027
v -18.0999985 -22.7749996 218.0110016
vn 2.0884995 0.6851739 5.1387348
v 18.1000004 -13.5500002 218.0110016
vn 1.8184978 -1.7536569 4.2337022
v 18.1000004 -22.7749996 218.0110016
vn -1.8184979 -4.2337027 1.7536569
v -18.0999985 -25.7749996 215.0110016
vn 1.8184979 -4.2337046 1.7536572
v 18.1000004 -25.7749996 215.0110016
vn -1.8184979 4.2337022 -1.7536570
v -18.0999985 14.1000004 163.5610046
vn 1.8184979 4.2337027 -1.7536572
v 18.1000004 14.1000004 163.5610046
vn -1.8184979 1.7536573 -4.2337027
v -18.0999985 11.1000004 160.5610046
vn 1.8184979 1.7536570 -4.2337027
v 18.1000004 11.1000004 160.5610046
vn -1.9583423 4.7625084 1.2676725
v -18.0999985 14.1000004 200.5610046
vn 1.9583423 4.7625084 1.2676725
v 18.1000004 14.1000004 200.5610046
vn -1.9583421 3.5021133 3.4675243
v -18.0999985 11.5119057 205.0781555
vn 1.9583418 3.5021133 3.4675245
v 18.1000004 11.5119057 205.0781555
vn -2.0884986 2.0076540 4.7796803
v -18.0999985 -7.9619060 216.4938507
vn 2.0884986 2.0076540 4.7796803
v 18.1000004 -7.9619060 216.4938507
vn -4.9805794 0.9278610 -2.2400520
v -21.0999985 9.8573589 163.5610046
vn -4.9805813 2.2400529 -0.9278572
v -21.0999985 11.1000004 164.8036499
vn -5.1058426 2.3201571 0.6175714
v -21.0999985 11.1000004 199.7624664
vn -5.1058383 1.7061299 1.6892779
v -21.0999985 9.3058567 202.8939056
vn -5.2308698 0.9037687 2.1516266
v -21.0999985 -9.1339788 213.7034607
vn -5.2308698 0.3084388 2.3132577
v -21.0999985 -13.9500074 215.0110016
vn -4.9805789 -0.9278619 2.2400520
v -21.0999985 -21.5323601 215.0110016
vn -4.9805822 -2.2400537 0.9278559
v -21.0999985 -22.7749996 213.7683563
vn -5.2342310 -2.3119609 -0.3002925
v -21.0999985 -22.7749996 184.5006561
vn -2.0919185 -5.1466856 -0.6684824
v -18.0999985 -25.7749996 184.1110077
vn -5.2342315 -2.1585321 -0.8809485
v -21.0999985 -21.4921684 179.6456909
vn -2.0919185 -4.8051367 -1.9610902
v -18.0999985 -24.2930813 178.5025635
vn -5.1025677 -1.7074000 -1.6897069
v -21.0999985 -13.3733253 165.3551331
vn -5.1025681 -0.6257485 -2.3192143
v -21.0999985 -10.2905664 163.5610046
vn -1.5708055 -1.5707961 -4.7123890
v -9.9999990 -9.9999981 160.5610046
vn -1.5708050 1.5707964 -4.7123890
v -9.9999990 10.0000019 160.5610046
vn 1.5708050 1.5707961 -4.7123890
v 10.0000010 10.0000019 160.5610046
vn 1.5708054 -1.5707964 -4.7123890
v 10.0000010 -9.9999981 160.5610046
vn 2.0919185 -4.8051357 -1.9610900
v 18.1000004 -24.2930813 178.5025635
vn 2.0919185 -5.1466870 -0.6684825
v 18.1000004 -25.7749996 184.1110077
vn 4.9805794 0.9278610 -2.2400520
v 21.1000004 9.8573589 163.5610046
vn 4.9805813 2.2400529 -0.9278572
v 21.1000004 11.1000004 164.8036499
vn 5.1058426 2.3201571 0.6175714
v 21.1000004 11.1000004 199.7624664
vn 5.1058378 1.7061300 1.6892780
v 21.1000004 9.3058567 202.8939056
vn 5.2308698 0.9037687 2.1516266
v 21.1000004 -9.1339788 213.7034607
vn 5.2308698 0.3084388 2.3132577
v 21.1000004 -13.9500074 215.0110016
vn 4.9805789 -0.9278619 2.2400520
v 21.1000004 -21.5323601 215.0110016
vn 4.9805822 -2.2400537 0.9278559
v 21.1000004 -22.7749996 213.7683563
vn 5.2342310 -2.3119609 -0.3002925
v 21.1000004 -22.7749996 184.5006561
vn 5.2342315 -2.1585321 -0.8809485
v 21.1000004 -21.4921684 179.6456909
vn 5.1025677 -1.7074000 -1.6897069
v 21.1000004 -13.3733253 165.3551331
vn 5.1025681 -0.6257485 -2.3192143
v 21.1000004 -10.2905664 163.5610046
# 436 vertices, 0 vertices normals


usemtl material_0
f 1//1 2//2 3//3
f 3//3 2//2 4//4
f 3//3 4//4 5//5
f 6//6 7//7 1//1
f 1//1 7//7 8//8
f 1//1 8//8 2//2
f 9//9 10//10 6//6
f 6//6 10//10 11//11
f 6//6 11//11 12//12
f 10//10 9//9 5//5
f 5//5 9//9 3//3
f 12//12 7//7 6//6
f 13//13 14//14 15//15
f 15//15 14//14 16//16
f 15//15 16//16 17//17
f 17//17 16//16 18//18
f 17//17 18//18 19//19
f 19//19 18//18 20//20
f 19//19 20//20 21//21
f 21//21 20//20 22//22
f 21//21 22//22 23//23
f 23//23 22//22 24//24
f 23//23 24//24 25//25
f 25//25 24//24 26//26
f 26//26 24//24 27//27
f 26//26 27//27 28//28
f 28//28 27//27 29//29
f 28//28 29//29 30//30
f 30//30 29//29 31//31
f 30//30 31//31 32//32
f 30//30 32//32 33//33
f 33//33 32//32 34//34
f 33//33 34//34 35//35
f 33//33 35//35 36//36
f 36//36 35//35 37//37
f 36//36 37//37 38//38
f 38//38 37//37 39//39
f 38//38 39//39 40//40
f 40//40 39//39 41//41
f 41//41 39//39 42//42
f 41//41 42//42 43//43
f 43//43 42//42 44//44
f 43//43 44//44 45//45
f 45//45 44//44 46//46
f 45//45 46//46 47//47
f 47//47 46//46 13//13
f 47//47 13//13 15//15
f 1//1 48//48 30//30
f 30//30 48//48 28//28
f 48//48 49//49 28//28
f 28//28 49//49 26//26
f 6//6 33//33 50//50
f 50//50 33//33 36//36
f 50//50 36//36 51//51
f 51//51 36//36 38//38
f 51//51 38//38 52//52
f 52//52 38//38 40//40
f 52//52 40//40 53//53
f 53//53 40//40 41//41
f 53//53 41//41 54//54
f 54//54 41//41 43//43
f 54//54 43//43 55//55
f 55//55 43//43 45//45
f 55//55 45//45 56//56
f 56//56 45//45 47//47
f 56//56 47//47 57//57
f 57//57 47//47 15//15
f 57//57 15//15 58//58
f 58//58 15//15 59//59
f 59//59 15//15 17//17
f 59//59 17//17 60//60
f 60//60 17//17 19//19
f 60//60 19//19 61//61
f 61//61 19//19 21//21
f 61//61 21//21 62//62
f 62//62 21//21 23//23
f 62//62 23//23 63//63
f 63//63 23//23 25//25
f 63//63 25//25 64//64
f 64//64 25//25 26//26
f 64//64 26//26 49//49
f 6//6 1//1 33//33
f 33//33 1//1 30//30
f 50//50 65//65 6//6
f 6//6 65//65 9//9
f 66//66 65//65 51//51
f 51//51 65//65 50//50
f 67//67 68//68 49//49
f 49//49 68//68 64//64
f 64//64 68//68 69//69
f 64//64 69//69 63//63
f 63//63 69//69 70//70
f 63//63 70//70 62//62
f 62//62 70//70 71//71
f 62//62 71//71 61//61
f 61//61 71//71 72//72
f 61//61 72//72 60//60
f 60//60 72//72 73//73
f 60//60 73//73 59//59
f 59//59 73//73 74//74
f 59//59 74//74 58//58
f 58//58 74//74 75//75
f 58//58 75//75 57//57
f 57//57 75//75 76//76
f 57//57 76//76 56//56
f 56//56 76//76 77//77
f 56//56 77//77 55//55
f 55//55 77//77 78//78
f 55//55 78//78 54//54
f 54//54 78//78 79//79
f 54//54 79//79 53//53
f 53//53 79//79 80//80
f 53//53 80//80 52//52
f 52//52 80//80 51//51
f 51//51 80//80 66//66
f 81//81 82//82 83//83
f 83//83 82//82 84//84
f 83//83 84//84 85//85
f 85//85 84//84 86//86
f 85//85 86//86 87//87
f 87//87 86//86 88//88
f 87//87 88//88 89//89
f 89//89 88//88 90//90
f 89//89 90//90 91//91
f 91//91 90//90 92//92
f 91//91 92//92 93//93
f 93//93 92//92 94//94
f 94//94 92//92 95//95
f 94//94 95//95 96//96
f 96//96 95//95 97//97
f 96//96 97//97 98//98
f 98//98 97//97 99//99
f 98//98 99//99 100//100
f 98//98 100//100 101//101
f 101//101 100//100 102//102
f 101//101 102//102 103//103
f 101//101 103//103 104//104
f 104//104 103//103 105//105
f 104//104 105//105 106//106
f 106//106 105//105 107//107
f 106//106 107//107 108//108
f 108//108 107//107 109//109
f 109//109 107//107 110//110
f 109//109 110//110 111//111
f 111//111 110//110 112//112
f 111//111 112//112 113//113
f 113//113 112//112 114//114
f 113//113 114//114 115//115
f 115//115 114//114 81//81
f 115//115 81//81 83//83
f 1//1 3//3 48//48
f 48//48 3//3 116//116
f 116//116 67//67 48//48
f 48//48 67//67 49//49
f 3//3 101//101 116//116
f 116//116 101//101 104//104
f 116//116 104//104 67//67
f 67//67 104//104 106//106
f 13//13 82//82 14//14
f 14//14 82//82 81//81
f 14//14 81//81 16//16
f 16//16 81//81 114//114
f 16//16 114//114 18//18
f 18//18 114//114 112//112
f 18//18 112//112 20//20
f 20//20 112//112 110//110
f 20//20 110//110 22//22
f 22//22 110//110 107//107
f 22//22 107//107 24//24
f 24//24 107//107 105//105
f 24//24 105//105 27//27
f 27//27 105//105 103//103
f 27//27 103//103 29//29
f 29//29 103//103 102//102
f 29//29 102//102 31//31
f 31//31 102//102 100//100
f 31//31 100//100 32//32
f 32//32 100//100 99//99
f 32//32 99//99 34//34
f 34//34 99//99 97//97
f 34//34 97//97 35//35
f 35//35 97//97 95//95
f 35//35 95//95 37//37
f 37//37 95//95 92//92
f 37//37 92//92 39//39
f 39//39 92//92 90//90
f 39//39 90//90 42//42
f 42//42 90//90 88//88
f 42//42 88//88 44//44
f 44//44 88//88 86//86
f 44//44 86//86 46//46
f 46//46 86//86 84//84
f 46//46 84//84 13//13
f 13//13 84//84 82//82
f 9//9 65//65 98//98
f 98//98 65//65 96//96
f 65//65 66//66 96//96
f 96//96 66//66 94//94
f 67//67 106//106 68//68
f 68//68 106//106 108//108
f 68//68 108//108 69//69
f 69//69 108//108 109//109
f 69//69 109//109 70//70
f 70//70 109//109 111//111
f 70//70 111//111 71//71
f 71//71 111//111 113//113
f 71//71 113//113 72//72
f 72//72 113//113 115//115
f 72//72 115//115 73//73
f 73//73 115//115 83//83
f 73//73 83//83 74//74
f 74//74 83//83 75//75
f 75//75 83//83 85//85
f 75//75 85//85 76//76
f 76//76 85//85 87//87
f 76//76 87//87 77//77
f 77//77 87//87 89//89
f 77//77 89//89 78//78
f 78//78 89//89 91//91
f 78//78 91//91 79//79
f 79//79 91//91 93//93
f 79//79 93//93 80//80
f 80//80 93//93 94//94
f 80//80 94//94 66//66
f 3//3 9//9 101//101
f 101//101 9//9 98//98
f 117//117 118//118 119//119
f 119//119 118//118 120//120
f 119//119 120//120 121//121
f 121//121 120//120 122//122
f 121//121 122//122 123//123
f 123//123 122//122 124//124
f 123//123 124//124 125//125
f 118//118 117//117 126//126
f 126//126 117//117 127//127
f 126//126 127//127 128//128
f 121//121 129//129 119//119
f 119//119 129//129 130//130
f 119//119 130//130 117//117
f 117//117 130//130 131//131
f 117//117 131//131 127//127
f 127//127 131//131 132//132
f 127//127 132//132 128//128
f 128//128 132//132 133//133
f 128//128 133//133 126//126
f 126//126 133//133 134//134
f 126//126 134//134 118//118
f 118//118 134//134 135//135
f 118//118 135//135 120//120
f 120//120 135//135 136//136
f 120//120 136//136 122//122
f 122//122 136//136 137//137
f 122//122 137//137 124//124
f 124//124 137//137 138//138
f 124//124 138//138 125//125
f 125//125 138//138 139//139
f 125//125 139//139 123//123
f 123//123 139//139 140//140
f 123//123 140//140 121//121
f 121//121 140//140 129//129
f 129//129 141//141 130//130
f 130//130 141//141 142//142
f 130//130 142//142 131//131
f 131//131 142//142 143//143
f 131//131 143//143 132//132
f 132//132 143//143 144//144
f 132//132 144//144 133//133
f 133//133 144//144 145//145
f 133//133 145//145 134//134
f 134//134 145//145 146//146
f 134//134 146//146 135//135
f 135//135 146//146 147//147
f 135//135 147//147 136//136
f 136//136 147//147 148//148
f 136//136 148//148 137//137
f 137//137 148//148 149//149
f 137//137 149//149 138//138
f 138//138 149//149 150//150
f 138//138 150//150 139//139
f 139//139 150//150 151//151
f 139//139 151//151 140//140
f 140//140 151//151 152//152
f 140//140 152//152 129//129
f 129//129 152//152 141//141
f 153//153 154//154 151//151
f 151//151 154//154 155//155
f 151//151 155//155 152//152
f 152//152 155//155 156//156
f 152//152 156//156 141//141
f 141//141 156//156 157//157
f 141//141 157//157 142//142
f 142//142 157//157 158//158
f 142//142 158//158 143//143
f 143//143 158//158 159//159
f 143//143 159//159 144//144
f 144//144 159//159 160//160
f 144//144 160//160 145//145
f 145//145 160//160 161//161
f 145//145 161//161 162//162
f 145//145 162//162 146//146
f 146//146 162//162 163//163
f 146//146 163//163 147//147
f 147//147 163//163 164//164
f 147//147 164//164 148//148
f 148//148 164//164 165//165
f 148//148 165//165 149//149
f 149//149 165//165 166//166
f 149//149 166//166 150//150
f 150//150 166//166 153//153
f 150//150 153//153 151//151
f 153//153 167//167 154//154
f 154//154 167//167 168//168
f 154//154 168//168 169//169
f 167//167 153//153 170//170
f 170//170 153//153 166//166
f 170//170 166//166 171//171
f 171//171 166//166 165//165
f 171//171 165//165 172//172
f 172//172 165//165 164//164
f 172//172 164//164 173//173
f 173//173 164//164 163//163
f 173//173 163//163 174//174
f 174//174 163//163 162//162
f 174//174 162//162 175//175
f 175//175 162//162 161//161
f 175//175 161//161 176//176
f 176//176 161//161 160//160
f 176//176 160//160 177//177
f 177//177 160//160 159//159
f 177//177 159//159 178//178
f 178//178 159//159 158//158
f 178//178 158//158 179//179
f 179//179 158//158 157//157
f 179//179 157//157 180//180
f 180//180 157//157 156//156
f 180//180 156//156 181//181
f 181//181 156//156 155//155
f 181//181 155//155 169//169
f 169//169 155//155 154//154
f 167//167 182//182 168//168
f 168//168 182//182 183//183
f 168//168 183//183 169//169
f 169//169 183//183 184//184
f 169//169 184//184 185//185
f 167//167 170//170 182//182
f 182//182 170//170 186//186
f 186//186 170//170 171//171
f 186//186 171//171 187//187
f 187//187 171//171 172//172
f 187//187 172//172 188//188
f 188//188 172//172 173//173
f 188//188 173//173 189//189
f 189//189 173//173 174//174
f 189//189 174//174 190//190
f 190//190 174//174 175//175
f 190//190 175//175 191//191
f 191//191 175//175 176//176
f 191//191 176//176 192//192
f 192//192 176//176 177//177
f 192//192 177//177 193//193
f 193//193 177//177 178//178
f 193//193 178//178 194//194
f 194//194 178//178 179//179
f 194//194 179//179 195//195
f 195//195 179//179 180//180
f 195//195 180//180 196//196
f 196//196 180//180 181//181
f 196//196 181//181 185//185
f 185//185 181//181 169//169
f 197//197 198//198 183//183
f 183//183 198//198 199//199
f 183//183 199//199 184//184
f 184//184 199//199 200//200
f 184//184 200//200 185//185
f 185//185 200//200 201//201
f 185//185 201//201 202//202
f 185//185 202//202 196//196
f 196//196 202//202 203//203
f 196//196 203//203 195//195
f 195//195 203//203 204//204
f 195//195 204//204 205//205
f 195//195 205//205 194//194
f 194//194 205//205 206//206
f 194//194 206//206 193//193
f 193//193 206//206 207//207
f 193//193 207//207 208//208
f 193//193 208//208 192//192
f 192//192 208//208 209//209
f 192//192 209//209 191//191
f 191//191 209//209 210//210
f 191//191 210//210 190//190
f 190//190 210//210 211//211
f 190//190 211//211 212//212
f 190//190 212//212 189//189
f 189//189 212//212 213//213
f 189//189 213//213 188//188
f 188//188 213//213 214//214
f 188//188 214//214 215//215
f 188//188 215//215 187//187
f 187//187 215//215 216//216
f 187//187 216//216 186//186
f 186//186 216//216 217//217
f 186//186 217//217 218//218
f 186//186 218//218 182//182
f 182//182 218//218 197//197
f 182//182 197//197 183//183
f 197//197 219//219 198//198
f 198//198 219//219 220//220
f 198//198 220//220 221//221
f 219//219 197//197 222//222
f 222//222 197//197 218//218
f 222//222 218//218 223//223
f 223//223 218//218 217//217
f 223//223 217//217 224//224
f 224//224 217//217 216//216
f 224//224 216//216 225//225
f 225//225 216//216 215//215
f 225//225 215//215 226//226
f 226//226 215//215 214//214
f 226//226 214//214 227//227
f 227//227 214//214 213//213
f 227//227 213//213 228//228
f 228//228 213//213 212//212
f 228//228 212//212 229//229
f 229//229 212//212 211//211
f 229//229 211//211 230//230
f 230//230 211//211 210//210
f 230//230 210//210 231//231
f 231//231 210//210 209//209
f 231//231 209//209 232//232
f 232//232 209//209 208//208
f 232//232 208//208 233//233
f 233//233 208//208 207//207
f 233//233 207//207 234//234
f 234//234 207//207 206//206
f 234//234 206//206 235//235
f 235//235 206//206 205//205
f 235//235 205//205 236//236
f 236//236 205//205 204//204
f 236//236 204//204 237//237
f 237//237 204//204 203//203
f 237//237 203//203 238//238
f 238//238 203//203 202//202
f 238//238 202//202 239//239
f 239//239 202//202 201//201
f 239//239 201//201 240//240
f 240//240 201//201 200//200
f 240//240 200//200 241//241
f 241//241 200//200 199//199
f 241//241 199//199 221//221
f 221//221 199//199 198//198
f 219//219 242//242 220//220
f 220//220 242//242 243//243
f 220//220 243//243 221//221
f 221//221 243//243 244//244
f 221//221 244//244 245//245
f 219//219 222//222 242//242
f 242//242 222//222 246//246
f 246//246 222//222 223//223
f 246//246 223//223 247//247
f 247//247 223//223 224//224
f 247//247 224//224 248//248
f 248//248 224//224 225//225
f 248//248 225//225 249//249
f 249//249 225//225 226//226
f 249//249 226//226 250//250
f 250//250 226//226 227//227
f 250//250 227//227 251//251
f 251//251 227//227 228//228
f 251//251 228//228 252//252
f 252//252 228//228 229//229
f 252//252 229//229 253//253
f 253//253 229//229 230//230
f 253//253 230//230 254//254
f 254//254 230//230 231//231
f 254//254 231//231 255//255
f 255//255 231//231 232//232
f 255//255 232//232 256//256
f 256//256 232//232 233//233
f 256//256 233//233 257//257
f 257//257 233//233 234//234
f 257//257 234//234 258//258
f 258//258 234//234 235//235
f 258//258 235//235 259//259
f 259//259 235//235 236//236
f 259//259 236//236 260//260
f 260//260 236//236 237//237
f 260//260 237//237 261//261
f 261//261 237//237 238//238
f 261//261 238//238 262//262
f 262//262 238//238 239//239
f 262//262 239//239 263//263
f 263//263 239//239 240//240
f 263//263 240//240 264//264
f 264//264 240//240 241//241
f 264//264 241//241 245//245
f 245//245 241//241 221//221
f 265//265 266//266 267//267
f 267//267 266//266 268//268
f 267//267 268//268 269//269
f 269//269 268//268 270//270
f 269//269 270//270 271//271
f 271//271 270//270 272//272
f 271//271 272//272 273//273
f 273//273 272//272 274//274
f 273//273 274//274 275//275
f 275//275 274//274 276//276
f 275//275 276//276 277//277
f 277//277 276//276 278//278
f 266//266 265//265 279//279
f 279//279 265//265 280//280
f 279//279 280//280 281//281
f 281//281 280//280 282//282
f 281//281 282//282 283//283
f 283//283 282//282 284//284
f 283//283 284//284 285//285
f 285//285 284//284 286//286
f 287//287 288//288 289//289
f 289//289 288//288 290//290
f 291//291 292//292 293//293
f 293//293 292//292 294//294
f 295//295 296//296 297//297
f 297//297 296//296 298//298
f 295//295 297//297 299//299
f 299//299 297//297 300//300
f 301//301 302//302 303//303
f 303//303 302//302 300//300
f 304//304 299//299 302//302
f 302//302 299//299 300//300
f 299//299 304//304 305//305
f 305//305 304//304 306//306
f 306//306 291//291 305//305
f 305//305 291//291 293//293
f 307//307 308//308 309//309
f 309//309 308//308 310//310
f 311//311 308//308 312//312
f 312//312 308//308 307//307
f 311//311 313//313 308//308
f 308//308 313//313 310//310
f 314//314 315//315 268//268
f 268//268 315//315 316//316
f 268//268 316//316 270//270
f 270//270 316//316 317//317
f 270//270 317//317 272//272
f 272//272 317//317 318//318
f 272//272 318//318 274//274
f 274//274 318//318 319//319
f 274//274 319//319 276//276
f 276//276 319//319 320//320
f 276//276 320//320 278//278
f 278//278 320//320 321//321
f 278//278 321//321 277//277
f 277//277 321//321 322//322
f 277//277 322//322 275//275
f 275//275 322//322 323//323
f 275//275 323//323 273//273
f 273//273 323//323 324//324
f 273//273 324//324 271//271
f 271//271 324//324 325//325
f 271//271 325//325 269//269
f 269//269 325//325 326//326
f 269//269 326//326 267//267
f 267//267 326//326 327//327
f 267//267 327//327 265//265
f 265//265 327//327 328//328
f 265//265 328//328 280//280
f 280//280 328//328 329//329
f 280//280 329//329 282//282
f 282//282 329//329 330//330
f 282//282 330//330 284//284
f 284//284 330//330 331//331
f 284//284 331//331 286//286
f 286//286 331//331 332//332
f 286//286 332//332 285//285
f 285//285 332//332 333//333
f 285//285 333//333 283//283
f 283//283 333//333 334//334
f 283//283 334//334 281//281
f 281//281 334//334 335//335
f 281//281 335//335 279//279
f 279//279 335//335 336//336
f 279//279 336//336 266//266
f 266//266 336//336 314//314
f 266//266 314//314 268//268
f 337//337 326//326 338//338
f 338//338 326//326 325//325
f 338//338 325//325 339//339
f 339//339 325//325 324//324
f 339//339 324//324 340//340
f 340//340 324//324 323//323
f 340//340 323//323 341//341
f 341//341 323//323 322//322
f 341//341 322//322 342//342
f 342//342 322//322 321//321
f 342//342 321//321 343//343
f 343//343 321//321 320//320
f 343//343 320//320 344//344
f 344//344 320//320 319//319
f 344//344 319//319 345//345
f 345//345 319//319 318//318
f 345//345 318//318 346//346
f 346//346 318//318 317//317
f 346//346 317//317 347//347
f 347//347 317//317 316//316
f 347//347 316//316 348//348
f 348//348 316//316 315//315
f 348//348 315//315 349//349
f 349//349 315//315 314//314
f 349//349 314//314 350//350
f 350//350 314//314 336//336
f 350//350 336//336 351//351
f 351//351 336//336 335//335
f 351//351 335//335 352//352
f 352//352 335//335 334//334
f 352//352 334//334 353//353
f 353//353 334//334 333//333
f 353//353 333//333 354//354
f 354//354 333//333 332//332
f 354//354 332//332 355//355
f 355//355 332//332 331//331
f 355//355 331//331 356//356
f 356//356 331//331 330//330
f 356//356 330//330 357//357
f 357//357 330//330 329//329
f 357//357 329//329 358//358
f 358//358 329//329 328//328
f 358//358 328//328 359//359
f 359//359 328//328 327//327
f 359//359 327//327 337//337
f 337//337 327//327 326//326
f 360//360 361//361 362//362
f 362//362 361//361 363//363
f 290//290 288//288 363//363
f 363//363 288//288 362//362
f 364//364 365//365 363//363
f 363//363 365//365 290//290
f 290//290 365//365 294//294
f 294//294 365//365 295//295
f 294//294 295//295 293//293
f 293//293 295//295 299//299
f 293//293 299//299 305//305
f 294//294 289//289 290//290
f 295//295 365//365 296//296
f 296//296 365//365 366//366
f 366//366 365//365 367//367
f 367//367 365//365 364//364
f 368//368 367//367 369//369
f 369//369 367//367 364//364
f 370//370 369//369 371//371
f 371//371 369//369 361//361
f 371//371 361//361 372//372
f 372//372 361//361 373//373
f 369//369 364//364 361//361
f 361//361 364//364 363//363
f 374//374 370//370 375//375
f 375//375 370//370 371//371
f 339//339 287//287 338//338
f 338//338 287//287 311//311
f 338//338 311//311 337//337
f 337//337 311//311 312//312
f 337//337 312//312 359//359
f 359//359 312//312 306//306
f 359//359 306//306 358//358
f 358//358 306//306 304//304
f 358//358 304//304 357//357
f 357//357 304//304 356//356
f 356//356 304//304 302//302
f 356//356 302//302 355//355
f 355//355 302//302 354//354
f 354//354 302//302 301//301
f 354//354 301//301 353//353
f 353//353 301//301 352//352
f 352//352 301//301 351//351
f 351//351 301//301 376//376
f 351//351 376//376 350//350
f 350//350 376//376 349//349
f 349//349 376//376 377//377
f 349//349 377//377 374//374
f 287//287 339//339 288//288
f 288//288 339//339 340//340
f 288//288 340//340 341//341
f 288//288 341//341 362//362
f 362//362 341//341 342//342
f 362//362 342//342 343//343
f 362//362 343//343 360//360
f 360//360 343//343 344//344
f 360//360 344//344 345//345
f 345//345 346//346 360//360
f 360//360 346//346 375//375
f 360//360 375//375 372//372
f 346//346 347//347 375//375
f 375//375 347//347 348//348
f 375//375 348//348 374//374
f 374//374 348//348 349//349
f 378//378 379//379 301//301
f 301//301 379//379 376//376
f 372//372 373//373 360//360
f 312//312 307//307 380//380
f 380//380 307//307 309//309
f 313//313 380//380 310//310
f 310//310 380//380 309//309
f 287//287 289//289 292//292
f 292//292 289//289 294//294
f 381//381 377//377 382//382
f 382//382 377//377 376//376
f 381//381 382//382 383//383
f 383//383 382//382 303//303
f 383//383 303//303 297//297
f 297//297 303//303 300//300
f 379//379 378//378 382//382
f 382//382 378//378 303//303
f 384//384 383//383 298//298
f 298//298 383//383 297//297
f 242//242 296//296 243//243
f 243//243 296//296 366//366
f 243//243 366//366 244//244
f 244//244 366//366 245//245
f 245//245 366//366 264//264
f 264//264 366//366 263//263
f 263//263 366//366 367//367
f 263//263 367//367 262//262
f 262//262 367//367 261//261
f 261//261 367//367 368//368
f 261//261 368//368 260//260
f 260//260 368//368 259//259
f 259//259 368//368 258//258
f 258//258 368//368 257//257
f 257//257 368//368 256//256
f 256//256 368//368 384//384
f 256//256 384//384 255//255
f 255//255 384//384 254//254
f 254//254 384//384 253//253
f 253//253 384//384 252//252
f 252//252 384//384 251//251
f 251//251 384//384 250//250
f 250//250 384//384 298//298
f 250//250 298//298 249//249
f 249//249 298//298 248//248
f 248//248 298//298 296//296
f 248//248 296//296 247//247
f 247//247 296//296 246//246
f 246//246 296//296 242//242
f 385//385 386//386 387//387
f 387//387 386//386 388//388
f 389//389 390//390 391//391
f 391//391 390//390 392//392
f 393//393 394//394 390//390
f 390//390 394//394 392//392
f 395//395 396//396 397//397
f 397//397 396//396 398//398
f 395//395 399//399 396//396
f 396//396 399//399 400//400
f 401//401 402//402 399//399
f 399//399 402//402 400//400
f 401//401 403//403 402//402
f 402//402 403//403 404//404
f 403//403 389//389 404//404
f 404//404 389//389 391//391
f 397//397 405//405 395//395
f 395//395 405//405 406//406
f 395//395 406//406 399//399
f 399//399 406//406 407//407
f 399//399 407//407 401//401
f 401//401 407//407 408//408
f 403//403 401//401 409//409
f 409//409 401//401 408//408
f 389//389 403//403 410//410
f 410//410 403//403 409//409
f 390//390 389//389 411//411
f 411//411 389//389 410//410
f 390//390 411//411 393//393
f 393//393 411//411 412//412
f 413//413 414//414 412//412
f 412//412 414//414 393//393
f 415//415 416//416 413//413
f 413//413 416//416 414//414
f 417//417 387//387 415//415
f 415//415 387//387 416//416
f 417//417 418//418 387//387
f 387//387 418//418 385//385
f 418//418 405//405 385//385
f 385//385 405//405 397//397
f 419//419 397//397 420//420
f 420//420 397//397 398//398
f 420//420 398//398 421//421
f 421//421 398//398 422//422
f 422//422 398//398 386//386
f 422//422 386//386 419//419
f 419//419 386//386 385//385
f 419//419 385//385 397//397
f 406//406 405//405 407//407
f 407//407 405//405 418//418
f 407//407 418//418 408//408
f 408//408 418//418 415//415
f 408//408 415//415 409//409
f 409//409 415//415 413//413
f 409//409 413//413 410//410
f 410//410 413//413 412//412
f 410//410 412//412 411//411
f 418//418 417//417 415//415
f 416//416 423//423 414//414
f 414//414 423//423 424//424
f 416//416 387//387 423//423
f 423//423 387//387 388//388
f 398//398 396//396 425//425
f 425//425 396//396 426//426
f 396//396 400//400 426//426
f 426//426 400//400 427//427
f 400//400 402//402 427//427
f 427//427 402//402 428//428
f 404//404 429//429 402//402
f 402//402 429//429 428//428
f 391//391 430//430 404//404
f 404//404 430//430 429//429
f 392//392 431//431 391//391
f 391//391 431//431 430//430
f 392//392 394//394 431//431
f 431//431 394//394 432//432
f 433//433 432//432 424//424
f 424//424 432//432 394//394
f 434//434 433//433 423//423
f 423//423 433//433 424//424
f 435//435 434//434 388//388
f 388//388 434//434 423//423
f 435//435 388//388 436//436
f 436//436 388//388 386//386
f 436//436 386//386 425//425
f 425//425 386//386 398//398
f 425//425 427//427 436//436
f 436//436 427//427 428//428
f 436//436 428//428 434//434
f 434//434 428//428 429//429
f 434//434 429//429 433//433
f 433//433 429//429 430//430
f 433//433 430//430 432//432
f 432//432 430//430 431//431
f 425//425 426//426 427//427
f 434//434 435//435 436//436
f 11//11 421//421 12//12
f 12//12 421//421 422//422
f 12//12 422//422 7//7
f 7//7 422//422 8//8
f 420//420 421//421 10//10
f 10//10 421//421 11//11
f 311//311 287//287 313//313
f 313//313 287//287 292//292
f 313//313 292//292 291//291
f 313//313 291//291 380//380
f 380//380 291//291 306//306
f 380//380 306//306 312//312
f 414//414 368//368 393//393
f 393//393 368//368 369//369
f 393//393 369//369 394//394
f 394//394 369//369 370//370
f 394//394 370//370 374//374
f 424//424 383//383 414//414
f 414//414 383//383 384//384
f 414//414 384//384 368//368
f 394//394 377//377 424//424
f 424//424 377//377 381//381
f 424//424 381//381 383//383
f 374//374 377//377 394//394
f 375//375 371//371 372//372
f 361//361 360//360 373//373
f 382//382 376//376 379//379
f 301//301 303//303 378//378
f 422//422 419//419 8//8
f 8//8 419//419 2//2
f 2//2 419//419 4//4
f 4//4 419//419 5//5
f 5//5 419//419 420//420
f 5//5 420//420 10//10
# 872 faces, 0 coords texture

# End of File
