####
#
# OBJ File Generated by Meshlab
#
####
# Object wx200_10_ar_tag.obj
#
# Vertices: 40
# Faces: 76
#
####
mtllib ./wx200_10_ar_tag.obj.mtl

vn -3.1114106 -0.3064466 2.9452436
v -23.5000000 -21.5000000 0.0000000
vn 0.3064466 -3.1114106 2.9452434
v 21.5000000 -23.5000000 0.0000000
vn -3.1114099 0.3064465 2.9452446
v -23.5000000 21.5000000 0.0000000
vn 3.1114099 -0.3064465 2.9452441
v 23.5000000 -21.5000000 0.0000000
vn -0.3064466 3.1114106 2.9452429
v -21.5000000 23.5000000 0.0000000
vn 3.1114106 0.3064466 2.9452441
v 23.5000000 21.5000000 0.0000000
vn 0.3064465 3.1114099 2.9452436
v 21.5000000 23.5000000 0.0000000
vn 1.1791360 2.8466825 2.7488916
v 22.2653675 23.3477592 0.0000000
vn 2.1787574 2.1787572 2.7488961
v 22.9142132 22.9142132 0.0000000
vn 2.8466816 1.1791356 2.7488918
v 23.3477592 22.2653675 0.0000000
vn -0.3064465 -3.1114097 2.9452441
v -21.5000000 -23.5000000 0.0000000
vn -2.8466816 -1.1791356 2.7488916
v -23.3477592 -22.2653675 0.0000000
vn -2.1787574 -2.1787572 2.7488961
v -22.9142132 -22.9142132 0.0000000
vn -1.1791360 -2.8466825 2.7488918
v -22.2653675 -23.3477592 0.0000000
vn 1.1791356 -2.8466816 2.7488918
v 22.2653675 -23.3477592 0.0000000
vn 2.1787572 -2.1787574 2.7488961
v 22.9142132 -22.9142132 0.0000000
vn 2.8466825 -1.1791360 2.7488916
v 23.3477592 -22.2653675 0.0000000
vn -1.1791356 2.8466816 2.7488916
v -22.2653675 23.3477592 0.0000000
vn -2.1787572 2.1787574 2.7488961
v -22.9142132 22.9142132 0.0000000
vn -2.8466825 1.1791360 2.7488918
v -23.3477592 22.2653675 0.0000000
vn -0.3064466 -3.1114106 -2.9452429
v -21.5000000 -23.5000000 -6.3000002
vn 0.3064465 -3.1114097 -2.9452436
v 21.5000000 -23.5000000 -6.3000002
vn 1.1791360 -2.8466825 -2.7488916
v 22.2653675 -23.3477592 -6.3000002
vn 2.1787574 -2.1787572 -2.7488961
v 22.9142132 -22.9142132 -6.3000002
vn 2.8466816 -1.1791356 -2.7488918
v 23.3477592 -22.2653675 -6.3000002
vn 3.1114106 -0.3064466 -2.9452441
v 23.5000000 -21.5000000 -6.3000002
vn 3.1114097 0.3064465 -2.9452441
v 23.5000000 21.5000000 -6.3000002
vn 2.8466825 1.1791360 -2.7488916
v 23.3477592 22.2653675 -6.3000002
vn 2.1787572 2.1787574 -2.7488961
v 22.9142132 22.9142132 -6.3000002
vn 1.1791356 2.8466816 -2.7488918
v 22.2653675 23.3477592 -6.3000002
vn 0.3064466 3.1114106 -2.9452434
v 21.5000000 23.5000000 -6.3000002
vn -0.3064465 3.1114097 -2.9452441
v -21.5000000 23.5000000 -6.3000002
vn -1.1791360 2.8466825 -2.7488918
v -22.2653675 23.3477592 -6.3000002
vn -2.1787574 2.1787572 -2.7488961
v -22.9142132 22.9142132 -6.3000002
vn -2.8466816 1.1791356 -2.7488916
v -23.3477592 22.2653675 -6.3000002
vn -3.1114106 0.3064466 -2.9452436
v -23.5000000 21.5000000 -6.3000002
vn -3.1114097 -0.3064465 -2.9452443
v -23.5000000 -21.5000000 -6.3000002
vn -2.8466825 -1.1791360 -2.7488918
v -23.3477592 -22.2653675 -6.3000002
vn -2.1787572 -2.1787574 -2.7488961
v -22.9142132 -22.9142132 -6.3000002
vn -1.1791356 -2.8466816 -2.7488916
v -22.2653675 -23.3477592 -6.3000002
# 40 vertices, 0 vertices normals


usemtl material_0
f 1//1 2//2 3//3
f 3//3 2//2 4//4
f 3//3 4//4 5//5
f 5//5 4//4 6//6
f 5//5 6//6 7//7
f 7//7 6//6 8//8
f 8//8 6//6 9//9
f 9//9 6//6 10//10
f 2//2 1//1 11//11
f 11//11 1//1 12//12
f 11//11 12//12 13//13
f 13//13 14//14 11//11
f 15//15 16//16 2//2
f 2//2 16//16 17//17
f 2//2 17//17 4//4
f 5//5 18//18 3//3
f 3//3 18//18 19//19
f 3//3 19//19 20//20
f 21//21 22//22 11//11
f 11//11 22//22 2//2
f 2//2 22//22 15//15
f 15//15 22//22 23//23
f 15//15 23//23 24//24
f 15//15 24//24 16//16
f 16//16 24//24 25//25
f 16//16 25//25 17//17
f 17//17 25//25 4//4
f 4//4 25//25 26//26
f 26//26 27//27 4//4
f 4//4 27//27 6//6
f 6//6 27//27 10//10
f 10//10 27//27 28//28
f 10//10 28//28 29//29
f 10//10 29//29 9//9
f 9//9 29//29 30//30
f 9//9 30//30 8//8
f 8//8 30//30 7//7
f 7//7 30//30 31//31
f 31//31 32//32 7//7
f 7//7 32//32 5//5
f 5//5 32//32 18//18
f 18//18 32//32 33//33
f 18//18 33//33 34//34
f 18//18 34//34 19//19
f 19//19 34//34 35//35
f 19//19 35//35 20//20
f 20//20 35//35 3//3
f 3//3 35//35 36//36
f 36//36 37//37 3//3
f 3//3 37//37 1//1
f 1//1 37//37 12//12
f 12//12 37//37 38//38
f 12//12 38//38 39//39
f 12//12 39//39 13//13
f 13//13 39//39 40//40
f 13//13 40//40 14//14
f 14//14 40//40 11//11
f 11//11 40//40 21//21
f 40//40 37//37 21//21
f 21//21 37//37 27//27
f 21//21 27//27 26//26
f 40//40 39//39 37//37
f 37//37 39//39 38//38
f 27//27 37//37 31//31
f 31//31 37//37 36//36
f 31//31 36//36 32//32
f 32//32 36//36 35//35
f 32//32 35//35 34//34
f 34//34 33//33 32//32
f 30//30 29//29 31//31
f 31//31 29//29 28//28
f 31//31 28//28 27//27
f 25//25 24//24 26//26
f 26//26 24//24 23//23
f 26//26 23//23 22//22
f 22//22 21//21 26//26
# 76 faces, 0 coords texture

# End of File
