####
#
# OBJ File Generated by Meshlab
#
####
# Object wx200_6_gripper.obj
#
# Vertices: 178
# Faces: 352
#
####
vn -2.6815159 -2.3561945 -1.1107210
v -14.2500000 -63.0000000 -9.2500000
vn -1.1107208 -2.3561945 -2.6815171
v -12.2500000 -63.0000000 -11.2500000
vn -2.6815171 -2.3561945 1.1107208
v -14.2500000 -63.0000000 33.2500000
vn 1.1107210 -2.3561952 -2.6815174
v 12.2500000 -63.0000000 -11.2500000
vn -1.1107210 -2.3561945 2.6815171
v -12.2500000 -63.0000000 35.2500000
vn 2.6815171 -2.3561945 -1.1107208
v 14.2500000 -63.0000000 -9.2500000
vn 2.6815171 -2.3561945 1.1107210
v 14.2500000 -63.0000000 33.2500000
vn 1.1107208 -2.3561945 2.6815166
v 12.2500000 -63.0000000 35.2500000
vn -1.5707957 1.5707964 4.7123895
v -8.5000000 -23.0000000 35.2500000
vn -1.1107202 2.3561952 2.6815164
v -12.2500000 -22.9999981 35.2500000
vn 1.1107204 2.3561950 2.6815162
v 12.2500000 -22.9999981 35.2500000
vn 1.5707955 1.5707964 4.7123895
v 8.5000000 -23.0000000 35.2500000
vn 1.5707965 1.5707965 1.5707964
v 8.5000000 -20.0000000 35.2500000
vn -1.5707964 1.5707964 1.5707961
v -8.5000000 -20.0000000 35.2500000
vn -2.6815162 2.3561945 1.1107202
v -14.2500000 -22.9999981 33.2500000
vn 2.6815152 2.3561945 1.1107196
v 14.2500000 -22.9999981 33.2500000
vn -4.7123899 1.5707964 1.5707955
v -14.2500000 -23.0000000 29.5000000
vn -0.0822060 3.0892348 3.1394393
v -11.0000000 -23.0000000 29.5000000
vn -1.5707964 1.5707964 1.5707965
v -14.2500000 -20.0000000 29.5000000
vn -0.0822062 3.1939507 3.1394401
v -11.0000000 -20.0000000 29.5000000
vn 3.1394379 3.0892310 0.0822121
v 8.5000000 -23.0000000 32.0000000
vn 3.1394398 3.1939545 0.0822122
v 8.5000000 -20.0000000 32.0000000
vn -3.1394382 3.0892310 0.0822121
v -8.5000000 -23.0000000 32.0000000
vn -3.1394398 3.1939523 0.0822122
v -8.5000000 -20.0000000 32.0000000
vn -0.3279426 3.0368648 3.1200986
v -10.7386789 -23.0000000 29.5136948
vn -3.1200995 3.0368776 0.3279347
v -8.5136957 -23.0000000 31.7386799
vn -1.5686460 3.0368886 2.7169695
v -9.7500000 -23.0000000 29.8349380
vn -1.2760570 3.0368609 2.8660493
v -9.9831591 -23.0000000 29.7161350
vn -3.0687289 3.0368693 0.6522759
v -8.5546312 -23.0000000 31.4802189
vn -2.9837365 3.0368736 0.9694768
v -8.6223583 -23.0000000 31.2274590
vn -2.8660526 3.0368726 1.2760502
v -8.7161360 -23.0000000 30.9831600
vn -0.9694620 3.0368705 2.9837403
v -10.2274580 -23.0000000 29.6223583
vn -0.6522801 3.0368845 3.0687294
v -10.4802208 -23.0000000 29.5546322
vn -2.7169695 3.0368743 1.5686426
v -8.8349371 -23.0000000 30.7500000
vn -2.5381186 3.0368719 1.8440497
v -8.9774580 -23.0000000 30.5305367
vn -2.3314610 3.0368755 2.0992517
v -9.1421385 -23.0000000 30.3271732
vn -2.0992570 3.0368705 2.3314548
v -9.3271732 -23.0000000 30.1421375
vn -1.8440416 3.0368657 2.5381236
v -9.5305367 -23.0000000 29.9774570
vn -1.1107200 -3.9269907 -2.6815157
v -12.2500000 -22.9999981 -11.2500000
vn 1.1107196 -3.9269910 -2.6815157
v 12.2500000 -22.9999981 -11.2500000
vn 3.1201010 3.2463055 0.3279349
v 8.5136957 -20.0000000 31.7386799
vn 3.1200998 3.0368776 0.3279347
v 8.5136957 -23.0000000 31.7386799
vn 3.0687301 3.2463150 0.6522762
v 8.5546312 -20.0000000 31.4802189
vn 3.0687294 3.0368693 0.6522761
v 8.5546312 -23.0000000 31.4802189
vn 2.9837377 3.2463117 0.9694772
v 8.6223583 -20.0000000 31.2274590
vn 2.9837353 3.0368736 0.9694764
v 8.6223583 -23.0000000 31.2274590
vn 2.8660536 3.2463126 1.2760507
v 8.7161360 -20.0000000 30.9831600
vn 2.8660524 3.0368726 1.2760502
v 8.7161360 -23.0000000 30.9831600
vn 2.7169704 3.2463109 1.5686431
v 8.8349371 -20.0000000 30.7500000
vn 2.7169700 3.0368743 1.5686427
v 8.8349371 -23.0000000 30.7500000
vn 2.5381193 3.2463133 1.8440503
v 8.9774580 -20.0000000 30.5305367
vn 2.5381186 3.0368719 1.8440497
v 8.9774580 -23.0000000 30.5305367
vn 2.3314617 3.2463098 2.0992522
v 9.1421385 -20.0000000 30.3271732
vn 2.3314607 3.0368755 2.0992510
v 9.1421385 -23.0000000 30.3271732
vn 2.0992577 3.2463145 2.3314557
v 9.3271732 -20.0000000 30.1421375
vn 2.0992572 3.0368705 2.3314552
v 9.3271732 -23.0000000 30.1421375
vn 1.8440422 3.2463145 2.5381246
v 9.5305367 -20.0000000 29.9774570
vn 1.8440416 3.0368657 2.5381238
v 9.5305367 -23.0000000 29.9774570
vn 1.5686464 3.2462969 2.7169702
v 9.7500000 -20.0000000 29.8349380
vn 1.5686462 3.0368886 2.7169695
v 9.7500000 -23.0000000 29.8349380
vn 1.2760574 3.2463241 2.8660502
v 9.9831591 -20.0000000 29.7161350
vn 1.2760569 3.0368609 2.8660491
v 9.9831591 -23.0000000 29.7161350
vn 0.9694623 3.2463145 2.9837413
v 10.2274580 -20.0000000 29.6223583
vn 0.9694620 3.0368705 2.9837403
v 10.2274580 -23.0000000 29.6223583
vn 0.6522803 3.2463007 3.0687304
v 10.4802208 -20.0000000 29.5546322
vn 0.6522802 3.0368845 3.0687296
v 10.4802208 -23.0000000 29.5546322
vn 0.3279427 3.2463207 3.1200995
v 10.7386789 -20.0000000 29.5136948
vn 0.3279426 3.0368648 3.1200988
v 10.7386789 -23.0000000 29.5136948
vn 0.0822062 3.1939507 3.1394405
v 11.0000000 -20.0000000 29.5000000
vn 0.0822061 3.0892348 3.1394391
v 11.0000000 -23.0000000 29.5000000
vn -0.3279427 3.2463207 3.1200998
v -10.7386789 -20.0000000 29.5136948
vn -0.6522804 3.2463007 3.0687306
v -10.4802208 -20.0000000 29.5546322
vn -0.9694623 3.2463145 2.9837413
v -10.2274580 -20.0000000 29.6223583
vn -1.2760572 3.2463245 2.8660500
v -9.9831591 -20.0000000 29.7161350
vn -1.5686467 3.2462969 2.7169704
v -9.7500000 -20.0000000 29.8349380
vn -1.8440421 3.2463195 2.5381246
v -9.5305367 -20.0000000 29.9774570
vn -2.0992579 3.2463150 2.3314559
v -9.3271732 -20.0000000 30.1421375
vn -2.3314614 3.2463098 2.0992520
v -9.1421385 -20.0000000 30.3271732
vn -2.5381193 3.2463133 1.8440503
v -8.9774580 -20.0000000 30.5305367
vn -2.7169709 3.2463112 1.5686433
v -8.8349371 -20.0000000 30.7500000
vn -2.8660536 3.2463126 1.2760507
v -8.7161360 -20.0000000 30.9831600
vn -2.9837365 3.2463117 0.9694768
v -8.6223583 -20.0000000 31.2274590
vn -3.0687308 3.2463138 0.6522764
v -8.5546312 -20.0000000 31.4802189
vn -3.1201012 3.2463071 0.3279349
v -8.5136957 -20.0000000 31.7386799
vn 4.7123890 1.5707963 1.5707958
v 14.2500000 -23.0000000 29.5000000
vn -2.6815155 -3.9269965 -1.1107198
v -14.2500000 -22.9999981 -9.2500000
vn 1.5707965 1.5707964 1.5707964
v 14.2500000 -20.0000000 29.5000000
vn -0.3342564 3.0348418 -3.1192603
v -2.1309817 -20.0000000 -19.8861485
vn -0.6647080 3.0348401 -3.0658889
v -4.2377019 -20.0000000 -19.5458927
vn -2.7471972 3.8659739 1.0409049
v -14.2500000 -20.0000000 14.0334425
vn -0.9875937 3.0348403 -2.9776113
v -6.2961755 -20.0000000 -18.9831028
vn -1.2992327 3.0348420 -2.8554349
v -8.2829657 -20.0000000 -18.2041874
vn -1.5960792 3.0348411 -2.7007492
v -10.1754541 -20.0000000 -17.2180176
vn -1.8747566 3.0348401 -2.5153131
v -11.9520950 -20.0000000 -16.0358181
vn 2.6508534 3.0348415 1.6776443
v 16.8999252 -20.0000000 10.6954441
vn 2.4570122 3.0348406 1.9505398
v 15.6641321 -20.0000000 12.4352312
vn 2.7471972 3.8659413 1.0409049
v 14.2500000 -20.0000000 14.0334425
vn 2.8145144 3.0348406 1.3856485
v 17.9433117 -20.0000000 8.8338890
vn 2.9461324 3.0348408 1.0778760
v 18.7824116 -20.0000000 6.8717580
vn 3.0442083 3.0348408 0.7578319
v 19.4076710 -20.0000000 4.8313913
vn 3.1076255 3.0348411 0.4291605
v 19.8119717 -20.0000000 2.7360187
vn 3.1356616 3.0348401 0.0956019
v 19.9907112 -20.0000000 0.6094965
vn 3.1279981 3.0348423 -0.2390434
v 19.9418526 -20.0000000 -1.5239650
vn 3.0847220 3.0348406 -0.5709664
v 19.6659565 -20.0000000 -3.6400759
vn 3.0063257 3.0348403 -0.8963917
v 19.1661606 -20.0000000 -5.7147446
vn 2.8937025 3.0348413 -1.2116108
v 18.4481544 -20.0000000 -7.7243500
vn 2.7481341 3.0348411 -1.5130345
v 17.5201149 -20.0000000 -9.6460123
vn 2.5712776 3.0348411 -1.7972324
v 16.3926067 -20.0000000 -11.4578543
vn 2.3651476 3.0348411 -2.0609686
v 15.0784674 -20.0000000 -13.1392469
vn 2.1320896 3.0348411 -2.3012402
v 13.5926580 -20.0000000 -14.6710482
vn 1.8747567 3.0348401 -2.5153131
v 11.9520950 -20.0000000 -16.0358181
vn 1.5960791 3.0348411 -2.7007492
v 10.1754541 -20.0000000 -17.2180176
vn 1.2992327 3.0348420 -2.8554347
v 8.2829657 -20.0000000 -18.2041874
vn 0.9875938 3.0348403 -2.9776115
v 6.2961755 -20.0000000 -18.9831028
vn 0.6647080 3.0348401 -3.0658886
v 4.2377019 -20.0000000 -19.5458927
vn -2.1320896 3.0348411 -2.3012402
v -13.5926580 -20.0000000 -14.6710482
vn -2.3651474 3.0348408 -2.0609684
v -15.0784674 -20.0000000 -13.1392469
vn -2.5712779 3.0348411 -1.7972324
v -16.3926067 -20.0000000 -11.4578543
vn 0.3342564 3.0348418 -3.1192603
v 2.1309817 -20.0000000 -19.8861485
vn 0.0000000 3.0348406 -3.1371183
v 0.0000000 -20.0000000 -20.0000000
vn -2.7481341 3.0348411 -1.5130345
v -17.5201149 -20.0000000 -9.6460123
vn -2.8937020 3.0348413 -1.2116108
v -18.4481544 -20.0000000 -7.7243500
vn -3.0063257 3.0348401 -0.8963917
v -19.1661606 -20.0000000 -5.7147446
vn -2.6508536 3.0348418 1.6776443
v -16.8999252 -20.0000000 10.6954441
vn -3.1279981 3.0348439 -0.2390434
v -19.9418526 -20.0000000 -1.5239650
vn -2.8145144 3.0348401 1.3856486
v -17.9433117 -20.0000000 8.8338890
vn -3.1356616 3.0348403 0.0956019
v -19.9907112 -20.0000000 0.6094965
vn -3.1076252 3.0348411 0.4291605
v -19.8119717 -20.0000000 2.7360187
vn -3.0442083 3.0348392 0.7578319
v -19.4076710 -20.0000000 4.8313913
vn -2.9461322 3.0348411 1.0778760
v -18.7824116 -20.0000000 6.8717580
vn -3.0847220 3.0348406 -0.5709664
v -19.6659565 -20.0000000 -3.6400759
vn -2.4570122 3.0348408 1.9505398
v -15.6641321 -20.0000000 12.4352312
vn 5.8887892 -0.7243658 1.0409049
v 14.2500000 -23.0000000 14.0334425
vn 2.4570119 -3.0348408 1.9505395
v 15.6641321 -23.0000000 12.4352312
vn 2.6508534 -3.0348413 1.6776440
v 16.8999252 -23.0000000 10.6954441
vn 2.8145142 -3.0348408 1.3856483
v 17.9433117 -23.0000000 8.8338890
vn 2.9461319 -3.0348406 1.0778759
v 18.7824116 -23.0000000 6.8717580
vn 3.0442073 -3.0348411 0.7578318
v 19.4076710 -23.0000000 4.8313913
vn 3.1076245 -3.0348411 0.4291604
v 19.8119717 -23.0000000 2.7360187
vn 3.1356606 -3.0348401 0.0956019
v 19.9907112 -23.0000000 0.6094965
vn 3.1279967 -3.0348423 -0.2390433
v 19.9418526 -23.0000000 -1.5239650
vn 3.0847208 -3.0348406 -0.5709662
v 19.6659565 -23.0000000 -3.6400759
vn 3.0063243 -3.0348403 -0.8963913
v 19.1661606 -23.0000000 -5.7147446
vn 2.8937004 -3.0348411 -1.2116101
v 18.4481544 -23.0000000 -7.7243500
vn 2.7481325 -3.0348411 -1.5130337
v 17.5201149 -23.0000000 -9.6460123
vn 2.5712764 -3.0348411 -1.7972312
v 16.3926067 -23.0000000 -11.4578543
vn 2.3651459 -3.0348411 -2.0609674
v 15.0784674 -23.0000000 -13.1392469
vn 2.1320884 -3.0348411 -2.3012393
v 13.5926580 -23.0000000 -14.6710482
vn 1.8747557 -3.0348401 -2.5153120
v 11.9520950 -23.0000000 -16.0358181
vn 1.5960784 -3.0348408 -2.7007480
v 10.1754541 -23.0000000 -17.2180176
vn 1.2992322 -3.0348423 -2.8554337
v 8.2829657 -23.0000000 -18.2041874
vn 0.9875934 -3.0348403 -2.9776103
v 6.2961755 -23.0000000 -18.9831028
vn 0.6647078 -3.0348399 -3.0658879
v 4.2377019 -23.0000000 -19.5458927
vn 0.3342563 -3.0348418 -3.1192596
v 2.1309817 -23.0000000 -19.8861485
vn 0.0000000 -3.0348406 -3.1371176
v 0.0000000 -23.0000000 -20.0000000
vn -0.3342563 -3.0348418 -3.1192596
v -2.1309817 -23.0000000 -19.8861485
vn -0.6647079 -3.0348401 -3.0658884
v -4.2377019 -23.0000000 -19.5458927
vn -0.9875937 -3.0348403 -2.9776113
v -6.2961755 -23.0000000 -18.9831028
vn -1.2992326 -3.0348420 -2.8554344
v -8.2829657 -23.0000000 -18.2041874
vn -1.5960790 -3.0348411 -2.7007487
v -10.1754541 -23.0000000 -17.2180176
vn -1.8747565 -3.0348399 -2.5153124
v -11.9520950 -23.0000000 -16.0358181
vn -2.1320884 -3.0348411 -2.3012393
v -13.5926580 -23.0000000 -14.6710482
vn -2.3651462 -3.0348411 -2.0609677
v -15.0784674 -23.0000000 -13.1392469
vn -2.5712759 -3.0348411 -1.7972312
v -16.3926067 -23.0000000 -11.4578543
vn -2.7481325 -3.0348411 -1.5130336
v -17.5201149 -23.0000000 -9.6460123
vn -2.8937008 -3.0348411 -1.2116101
v -18.4481544 -23.0000000 -7.7243500
vn -3.0063243 -3.0348403 -0.8963913
v -19.1661606 -23.0000000 -5.7147446
vn -3.0847208 -3.0348406 -0.5709662
v -19.6659565 -23.0000000 -3.6400759
vn -3.1279969 -3.0348423 -0.2390433
v -19.9418526 -23.0000000 -1.5239650
vn -3.1356606 -3.0348401 0.0956019
v -19.9907112 -23.0000000 0.6094965
vn -3.1076243 -3.0348411 0.4291604
v -19.8119717 -23.0000000 2.7360187
vn -3.0442076 -3.0348411 0.7578318
v -19.4076710 -23.0000000 4.8313913
vn -2.9461317 -3.0348406 1.0778759
v -18.7824116 -23.0000000 6.8717580
vn -2.8145144 -3.0348408 1.3856483
v -17.9433117 -23.0000000 8.8338890
vn -2.6508532 -3.0348413 1.6776440
v -16.8999252 -23.0000000 10.6954441
vn -2.4570119 -3.0348408 1.9505395
v -15.6641321 -23.0000000 12.4352312
vn -5.8887897 -0.7243658 1.0409049
v -14.2500000 -23.0000000 14.0334425
vn 2.6815157 -3.9269967 -1.1107199
v 14.2500000 -22.9999981 -9.2500000
# 178 vertices, 0 vertices normals

f 1//1 2//2 3//3
f 2//2 4//4 3//3
f 3//3 4//4 5//5
f 6//6 7//7 4//4
f 7//7 8//8 4//4
f 4//4 8//8 5//5
f 9//9 10//10 5//5
f 8//8 11//11 12//12
f 13//13 14//14 12//12
f 14//14 9//9 12//12
f 12//12 9//9 8//8
f 9//9 5//5 8//8
f 10//10 15//15 5//5
f 15//15 3//3 5//5
f 16//16 11//11 7//7
f 11//11 8//8 7//7
f 17//17 18//18 19//19
f 18//18 20//20 19//19
f 12//12 21//21 13//13
f 21//21 22//22 13//13
f 23//23 9//9 24//24
f 9//9 14//14 24//24
f 17//17 15//15 18//18
f 15//15 10//10 18//18
f 18//18 10//10 25//25
f 9//9 23//23 10//10
f 23//23 26//26 10//10
f 27//27 28//28 10//10
f 26//26 29//29 10//10
f 29//29 30//30 10//10
f 10//10 30//30 31//31
f 28//28 32//32 10//10
f 32//32 33//33 10//10
f 10//10 33//33 25//25
f 31//31 34//34 10//10
f 34//34 35//35 10//10
f 10//10 35//35 36//36
f 36//36 37//37 10//10
f 37//37 38//38 10//10
f 10//10 38//38 27//27
f 39//39 40//40 2//2
f 40//40 4//4 2//2
f 22//22 21//21 41//41
f 21//21 42//42 41//41
f 41//41 42//42 43//43
f 42//42 44//44 43//43
f 43//43 44//44 45//45
f 44//44 46//46 45//45
f 45//45 46//46 47//47
f 46//46 48//48 47//47
f 47//47 48//48 49//49
f 48//48 50//50 49//49
f 49//49 50//50 51//51
f 50//50 52//52 51//51
f 51//51 52//52 53//53
f 52//52 54//54 53//53
f 53//53 54//54 55//55
f 54//54 56//56 55//55
f 55//55 56//56 57//57
f 56//56 58//58 57//57
f 57//57 58//58 59//59
f 58//58 60//60 59//59
f 59//59 60//60 61//61
f 60//60 62//62 61//61
f 61//61 62//62 63//63
f 62//62 64//64 63//63
f 63//63 64//64 65//65
f 64//64 66//66 65//65
f 65//65 66//66 67//67
f 66//66 68//68 67//67
f 67//67 68//68 69//69
f 68//68 70//70 69//69
f 20//20 18//18 71//71
f 18//18 25//25 71//71
f 71//71 25//25 72//72
f 25//25 33//33 72//72
f 72//72 33//33 73//73
f 33//33 32//32 73//73
f 73//73 32//32 74//74
f 32//32 28//28 74//74
f 74//74 28//28 75//75
f 28//28 27//27 75//75
f 75//75 27//27 76//76
f 27//27 38//38 76//76
f 76//76 38//38 77//77
f 38//38 37//37 77//77
f 77//77 37//37 78//78
f 37//37 36//36 78//78
f 78//78 36//36 79//79
f 36//36 35//35 79//79
f 79//79 35//35 80//80
f 35//35 34//34 80//80
f 80//80 34//34 81//81
f 34//34 31//31 81//81
f 81//81 31//31 82//82
f 31//31 30//30 82//82
f 82//82 30//30 83//83
f 30//30 29//29 83//83
f 83//83 29//29 84//84
f 29//29 26//26 84//84
f 84//84 26//26 24//24
f 26//26 23//23 24//24
f 21//21 12//12 11//11
f 16//16 85//85 11//11
f 85//85 70//70 11//11
f 70//70 68//68 11//11
f 68//68 66//66 11//11
f 11//11 66//66 64//64
f 64//64 62//62 11//11
f 62//62 60//60 11//11
f 11//11 60//60 58//58
f 58//58 56//56 11//11
f 56//56 54//54 11//11
f 11//11 54//54 52//52
f 52//52 50//50 11//11
f 50//50 48//48 11//11
f 11//11 48//48 46//46
f 46//46 44//44 11//11
f 44//44 42//42 11//11
f 11//11 42//42 21//21
f 86//86 39//39 1//1
f 39//39 2//2 1//1
f 70//70 85//85 69//69
f 85//85 87//87 69//69
f 88//88 89//89 90//90
f 89//89 91//91 90//90
f 91//91 92//92 90//90
f 92//92 93//93 90//90
f 90//90 93//93 94//94
f 95//95 90//90 96//96
f 90//90 97//97 96//96
f 95//95 98//98 90//90
f 98//98 99//99 90//90
f 90//90 99//99 100//100
f 100//100 101//101 90//90
f 101//101 102//102 90//90
f 90//90 102//102 103//103
f 103//103 104//104 90//90
f 104//104 105//105 90//90
f 90//90 105//105 106//106
f 106//106 107//107 90//90
f 107//107 108//108 90//90
f 90//90 108//108 109//109
f 71//71 90//90 20//20
f 90//90 19//19 20//20
f 75//75 76//76 97//97
f 109//109 110//110 90//90
f 110//110 111//111 90//90
f 90//90 111//111 112//112
f 112//112 113//113 90//90
f 113//113 114//114 90//90
f 90//90 114//114 115//115
f 94//94 116//116 90//90
f 116//116 117//117 90//90
f 90//90 117//117 118//118
f 97//97 57//57 59//59
f 65//65 67//67 97//97
f 67//67 69//69 97//97
f 97//97 69//69 87//87
f 115//115 119//119 90//90
f 119//119 120//120 90//90
f 90//90 120//120 88//88
f 118//118 121//121 90//90
f 121//121 122//122 90//90
f 90//90 122//122 123//123
f 76//76 77//77 97//97
f 77//77 78//78 97//97
f 97//97 78//78 79//79
f 79//79 80//80 97//97
f 80//80 81//81 97//97
f 97//97 81//81 57//57
f 124//124 125//125 126//126
f 125//125 127//127 126//126
f 127//127 128//128 126//126
f 128//128 129//129 126//126
f 126//126 129//129 130//130
f 123//123 131//131 90//90
f 131//131 125//125 90//90
f 90//90 125//125 132//132
f 125//125 124//124 132//132
f 71//71 72//72 90//90
f 72//72 73//73 90//90
f 90//90 73//73 97//97
f 73//73 74//74 97//97
f 97//97 74//74 75//75
f 59//59 61//61 97//97
f 61//61 63//63 97//97
f 97//97 63//63 65//65
f 47//47 49//49 83//83
f 49//49 51//51 83//83
f 83//83 51//51 53//53
f 81//81 82//82 57//57
f 82//82 83//83 57//57
f 57//57 83//83 55//55
f 83//83 53//53 55//55
f 24//24 14//14 13//13
f 13//13 22//22 24//24
f 22//22 41//41 24//24
f 24//24 41//41 84//84
f 41//41 43//43 84//84
f 84//84 43//43 83//83
f 43//43 45//45 83//83
f 83//83 45//45 47//47
f 97//97 133//133 134//134
f 97//97 134//134 96//96
f 134//134 135//135 96//96
f 96//96 135//135 95//95
f 135//135 136//136 95//95
f 95//95 136//136 98//98
f 136//136 137//137 98//98
f 98//98 137//137 99//99
f 137//137 138//138 99//99
f 99//99 138//138 100//100
f 138//138 139//139 100//100
f 100//100 139//139 101//101
f 139//139 140//140 101//101
f 101//101 140//140 102//102
f 140//140 141//141 102//102
f 102//102 141//141 103//103
f 141//141 142//142 103//103
f 103//103 142//142 104//104
f 142//142 143//143 104//104
f 104//104 143//143 105//105
f 143//143 144//144 105//105
f 105//105 144//144 106//106
f 144//144 145//145 106//106
f 106//106 145//145 107//107
f 145//145 146//146 107//107
f 107//107 146//146 108//108
f 146//146 147//147 108//108
f 108//108 147//147 109//109
f 147//147 148//148 109//109
f 109//109 148//148 110//110
f 148//148 149//149 110//110
f 110//110 149//149 111//111
f 149//149 150//150 111//111
f 111//111 150//150 112//112
f 150//150 151//151 112//112
f 112//112 151//151 113//113
f 151//151 152//152 113//113
f 113//113 152//152 114//114
f 152//152 153//153 114//114
f 114//114 153//153 115//115
f 153//153 154//154 115//115
f 115//115 154//154 119//119
f 154//154 155//155 119//119
f 119//119 155//155 120//120
f 155//155 156//156 120//120
f 120//120 156//156 88//88
f 156//156 157//157 88//88
f 88//88 157//157 89//89
f 157//157 158//158 89//89
f 89//89 158//158 91//91
f 158//158 159//159 91//91
f 91//91 159//159 92//92
f 159//159 160//160 92//92
f 92//92 160//160 93//93
f 160//160 161//161 93//93
f 93//93 161//161 94//94
f 161//161 162//162 94//94
f 94//94 162//162 116//116
f 162//162 163//163 116//116
f 116//116 163//163 117//117
f 163//163 164//164 117//117
f 117//117 164//164 118//118
f 164//164 165//165 118//118
f 118//118 165//165 121//121
f 165//165 166//166 121//121
f 121//121 166//166 122//122
f 166//166 167//167 122//122
f 122//122 167//167 123//123
f 167//167 168//168 123//123
f 123//123 168//168 131//131
f 168//168 169//169 131//131
f 131//131 169//169 125//125
f 169//169 170//170 125//125
f 125//125 170//170 127//127
f 170//170 171//171 127//127
f 127//127 171//171 128//128
f 171//171 172//172 128//128
f 128//128 172//172 129//129
f 172//172 173//173 129//129
f 129//129 173//173 130//130
f 173//173 174//174 130//130
f 130//130 174//174 126//126
f 174//174 175//175 126//126
f 126//126 175//175 124//124
f 175//175 176//176 124//124
f 124//124 176//176 132//132
f 176//176 177//177 132//132
f 132//132 177//177 90//90
f 3//3 15//15 1//1
f 15//15 17//17 1//1
f 86//86 1//1 177//177
f 1//1 17//17 177//177
f 177//177 17//17 90//90
f 17//17 19//19 90//90
f 145//145 144//144 178//178
f 144//144 143//143 178//178
f 178//178 143//143 142//142
f 142//142 141//141 178//178
f 141//141 140//140 178//178
f 178//178 140//140 139//139
f 139//139 138//138 178//178
f 138//138 137//137 178//178
f 178//178 137//137 136//136
f 136//136 135//135 178//178
f 135//135 134//134 178//178
f 178//178 134//134 133//133
f 145//145 178//178 146//146
f 178//178 40//40 146//146
f 146//146 40//40 147//147
f 164//164 163//163 86//86
f 163//163 39//39 86//86
f 157//157 40//40 158//158
f 40//40 159//159 158//158
f 170//170 169//169 86//86
f 169//169 168//168 86//86
f 86//86 168//168 167//167
f 167//167 166//166 86//86
f 166//166 165//165 86//86
f 86//86 165//165 164//164
f 163//163 162//162 39//39
f 162//162 161//161 39//39
f 39//39 161//161 40//40
f 161//161 160//160 40//40
f 40//40 160//160 159//159
f 151//151 150//150 40//40
f 86//86 177//177 176//176
f 176//176 175//175 86//86
f 175//175 174//174 86//86
f 86//86 174//174 173//173
f 157//157 156//156 40//40
f 156//156 155//155 40//40
f 40//40 155//155 154//154
f 150//150 149//149 40//40
f 149//149 148//148 40//40
f 40//40 148//148 147//147
f 173//173 172//172 86//86
f 172//172 171//171 86//86
f 86//86 171//171 170//170
f 154//154 153//153 40//40
f 153//153 152//152 40//40
f 40//40 152//152 151//151
f 85//85 16//16 7//7
f 6//6 178//178 133//133
f 97//97 87//87 133//133
f 87//87 85//85 133//133
f 133//133 85//85 6//6
f 85//85 7//7 6//6
f 40//40 178//178 4//4
f 178//178 6//6 4//4
# 352 faces, 0 coords texture

# End of File
