####
#
# OBJ File Generated by Meshlab
#
####
# Object wx200_2_shoulder.obj
#
# Vertices: 628
# Faces: 1236
#
####
mtllib ./wx200_2_shoulder.obj.mtl

vn 1.8184961 4.2337041 -1.7536578
v 49.5999985 14.2499466 8.0000000
vn -1.8184992 4.2337027 -1.7536565
v 16.3999996 14.2499466 8.0000000
vn 1.8184936 4.2337031 1.7536576
v 49.5999985 14.2499466 50.5000000
vn -1.8184967 4.2337041 1.7536566
v 16.3999996 14.2499466 50.5000000
vn 3.1562772 0.5226063 -3.0977325
v 50.0000000 -0.8484883 46.2789307
vn 4.9806232 -0.9278611 2.2400537
v 50.0000000 -12.0843687 52.0999985
vn 6.1087117 0.2726756 0.0238479
v 50.0000000 -0.9224377 46.2658958
vn 4.9805713 -2.2400589 0.9278645
v 50.0000000 -13.8500538 50.3343163
vn 4.9805727 -2.2400570 -0.9278614
v 50.0000000 -13.8500538 8.1656857
vn 3.1563432 0.4769600 -3.1050873
v 50.0000000 -0.7743550 46.2908783
vn 4.8574286 -1.3437667 -1.5543052
v 50.0000000 -0.7000538 46.3017311
vn 4.8574252 1.3437669 -1.5543034
v 50.0000000 0.6999462 46.3017311
vn 4.7123861 -1.5707954 1.5707966
v 50.0000000 -0.7000538 46.2658958
vn 4.7123890 1.5707954 1.5707966
v 50.0000000 0.6999462 46.2658958
vn 4.9805856 -0.9278631 -2.2400544
v 50.0000000 -12.0843687 6.4000001
vn 4.9805884 0.9278616 -2.2400560
v 50.0000000 12.0842609 6.4000001
vn 6.1087122 -0.2726753 0.0238495
v 50.0000000 0.9223302 46.2658958
vn 4.9805737 2.2400532 -0.9278612
v 50.0000000 13.8499460 8.1656857
vn 4.9805727 2.2400556 0.9278653
v 50.0000000 13.8499460 50.3343163
vn 4.9806223 0.9278608 2.2400506
v 50.0000000 12.0842609 52.0999985
vn 3.1563432 -0.4769606 -3.1050906
v 50.0000000 0.7742475 46.2908783
vn 3.1562772 -0.5226062 -3.0977321
v 50.0000000 0.8483808 46.2789307
vn 1.8184977 1.7536569 4.2337027
v 49.5999985 12.2499466 52.5000000
vn -1.8184972 1.7536557 4.2336984
v 16.3999996 12.2499466 52.5000000
vn 1.8184943 -1.7536561 4.2337012
v 49.5999985 -12.2500534 52.5000000
vn -1.8184988 -1.7536558 4.2337012
v 16.3999996 -12.2500534 52.5000000
vn 1.8184936 -4.2337079 1.7536585
v 49.5999985 -14.2500534 50.5000000
vn -1.8184935 -4.2337027 1.7536573
v 16.3999996 -14.2500534 50.5000000
vn 1.8184962 -4.2337074 -1.7536585
v 49.5999985 -14.2500534 8.0000000
vn -1.8184965 -4.2337041 -1.7536578
v 16.3999996 -14.2500534 8.0000000
vn -4.9805808 2.2400527 -0.9278601
v 15.9999990 13.8499460 8.1656857
vn -3.3393035 3.0946746 -0.4374137
v 15.9999990 10.1516047 39.8335495
vn -4.9805770 2.2400548 0.9278634
v 15.9999990 13.8499460 50.3343163
vn -3.3393047 3.1163540 0.2380766
v 15.9999990 10.2187595 42.0489731
vn -3.3393028 2.9923162 0.9024341
v 15.9999990 9.8080940 44.2270355
vn -4.9805746 0.9278606 -2.2400515
v 15.9999990 12.0842609 6.4000001
vn -3.3393035 1.6700697 -2.6418200
v 15.9999990 5.4924259 32.5958023
vn -3.3393052 2.1989367 -2.2210402
v 15.9999990 7.2244120 33.9788513
vn -3.3393042 2.6249857 -1.6964061
v 15.9999990 8.6185894 35.7018929
vn -4.9805765 -0.9278620 -2.2400541
v 15.9999990 -12.0843687 6.4000001
vn -3.3393040 -0.2692303 -3.1138167
v 15.9999990 -0.8648272 31.0365448
vn -3.3393025 0.4064438 -3.0988946
v 15.9999990 1.3509817 31.0894299
vn -3.3393047 1.0631120 -2.9390707
v 15.9999990 3.5036178 31.6174107
vn -4.9805732 -2.2400532 -0.9278607
v 15.9999990 -13.8500538 8.1656857
vn -3.3393033 -1.5518050 -2.7129769
v 15.9999990 -5.0734196 32.3436279
vn -3.3393028 -0.9323138 -2.9831419
v 15.9999990 -3.0402002 31.4612312
vn -4.9805737 -2.2400553 0.9278647
v 15.9999990 -13.8500538 50.3343163
vn -3.3393040 -3.0723457 -0.5736176
v 15.9999990 -10.0725794 39.3508644
vn -3.3393054 -2.8772049 -1.2206700
v 15.9999990 -9.4288321 37.2299690
vn -3.3393028 -2.5475292 -1.8106463
v 15.9999990 -8.3442039 35.2970467
vn -4.9805827 -0.9278615 2.2400486
v 15.9999990 -12.0843687 52.0999985
vn -3.3393030 -2.7930117 1.4026508
v 15.9999990 -9.1680298 45.8337440
vn -3.3393040 -3.0292411 0.7694425
v 15.9999990 -9.9390574 43.7557335
vn -3.3393047 -3.1238267 0.1002560
v 15.9999990 -10.2453480 41.5605583
vn -4.9805779 0.9278587 2.2400510
v 15.9999990 12.0842609 52.0999985
vn -3.3393052 -0.0690112 3.1246727
v 15.9999990 -0.2446184 51.4970818
vn -3.3393035 -0.7391081 3.0367851
v 15.9999990 -2.4417205 51.2049370
vn -3.3393044 -1.3746483 2.8068995
v 15.9999990 -4.5246525 50.4473114
vn -3.3393042 2.7283602 1.5245960
v 15.9999990 8.9388103 46.2658958
vn -3.3393028 2.3368301 2.0754685
v 15.9999990 7.6515555 48.0702171
vn -3.3393025 1.8360331 2.5292940
v 15.9999990 6.0065198 49.5556335
vn -3.3393073 1.2493838 2.8648529
v 15.9999990 4.0806231 50.6526909
vn -3.3393056 0.6043140 3.0664554
v 15.9999990 1.9639190 51.3100853
vn -3.3393064 -1.9459120 2.4457657
v 15.9999990 -6.3960199 49.2596283
vn -3.3393025 -2.4261842 1.9702728
v 15.9999990 -7.9683185 47.6974220
vn -3.3393016 -2.0987344 -2.3159575
v 15.9999990 -6.8694134 33.6424789
vn -3.3393030 2.9282923 -1.0924509
v 15.9999990 9.6097698 37.6843605
vn 0.1744750 0.2726753 0.0238497
v 47.7999992 -0.9224377 46.2658958
vn 1.5707971 -1.5707964 1.5707964
v 47.7999992 -0.7000538 46.2658958
vn 0.1744750 -0.2726756 0.0238482
v 47.7999992 0.9223302 46.2658958
vn 1.5707971 1.5707964 1.5707964
v 47.7999992 0.6999462 46.2658958
vn -2.9438818 -3.0535555 0.6664415
v 13.9999990 -10.0104141 43.4534454
vn -2.9438810 3.1065071 0.3434486
v 13.9999990 10.1898603 42.3582191
vn -2.9438803 -3.1254299 -0.0055632
v 13.9999990 -10.2500534 41.2500000
vn -2.9438808 3.1077099 -0.3323875
v 13.9999990 10.1898603 40.1417809
vn -2.9438815 -3.0511637 -0.6773074
v 13.9999990 -10.0104141 39.0465546
vn -2.9438794 2.9635997 -0.9926833
v 13.9999990 9.7133913 37.9771576
vn -2.9438813 -2.8342276 -1.3173825
v 13.9999990 -9.3027020 36.9461365
vn -2.9438820 2.6809151 -1.6065607
v 13.9999990 8.7827320 35.9655724
vn -2.9438796 -2.4847658 -1.8958585
v 13.9999990 -8.1600075 35.0469627
vn -2.9438806 2.2728734 -2.1453183
v 13.9999990 7.4414001 34.2010803
vn -2.9438813 -2.0191207 -2.3856854
v 13.9999990 -6.6357632 33.4378395
vn -2.9438825 1.7585551 -2.5837626
v 13.9999990 5.7521138 32.7661896
vn -2.9438784 -1.4590623 -2.7639604
v 13.9999990 -4.8012404 32.1940002
vn -2.9438820 1.1620095 -2.9013922
v 13.9999990 3.7938623 31.7279892
vn -2.9438825 -0.8307804 -3.0129967
v 13.9999990 -2.7422192 31.3736134
vn -2.9438813 0.5111288 -3.0833571
v 13.9999990 1.6582117 31.1350288
vn -2.9438796 -0.1636524 -3.1211469
v 13.9999990 -0.5549776 31.0150318
vn -2.9438798 2.9600470 1.0032265
v 13.9999990 9.7133913 44.5228424
vn -2.9438808 -2.8388996 1.3072844
v 13.9999990 -9.3027020 45.5538635
vn -2.9438822 2.6751785 1.6160951
v 13.9999990 8.7827320 46.5344276
vn -2.9438794 -2.4914989 1.8870014
v 13.9999990 -8.1600075 47.4530373
vn -2.9438794 2.2652216 2.1533959
v 13.9999990 7.4414001 48.2989197
vn -2.9438837 -2.0276017 2.3784819
v 13.9999990 -6.6357632 49.0621605
vn -2.9438832 1.7493470 2.5900061
v 13.9999990 5.7521138 49.7338104
vn -2.9438810 -1.4688933 2.7587490
v 13.9999990 -4.8012404 50.3059998
vn -2.9438837 1.1516733 2.9055109
v 13.9999990 3.7938623 50.7720108
vn -2.9438806 -0.8414994 3.0100203
v 13.9999990 -2.7422192 51.1263885
vn -2.9438829 0.5001481 3.0851574
v 13.9999990 1.6582117 51.3649712
vn -2.9438834 -0.1747617 3.1205451
v 13.9999990 -0.5549776 51.4849663
vn -1.8184972 1.7536573 2.0494823
v 16.3999996 12.2499466 6.0000000
vn -1.8184941 -1.7536569 2.0494850
v 16.3999996 -12.2500534 6.0000000
vn 4.8664675 2.5039539 -1.1793691
v 49.5999985 12.2499466 6.0000000
vn 4.8664694 -2.5039544 -1.1793648
v 49.5999985 -12.2500534 6.0000000
vn 3.1269078 -0.5226063 -3.0977325
v 47.7999992 0.8483808 46.2789307
vn 3.1268418 -0.4769600 -3.1050873
v 47.7999992 0.7742475 46.2908783
vn 1.4257569 1.3437657 -1.5543052
v 47.7999992 0.6999462 46.3017311
vn 1.4257569 -1.3437660 -1.5543034
v 47.7999992 -0.7000538 46.3017311
vn 3.1269078 0.5226062 -3.0977321
v 47.7999992 -0.8484883 46.2789307
vn 3.1268418 0.4769606 -3.1050906
v 47.7999992 -0.7743550 46.2908783
vn -2.9628830 1.0366477 3.0545802
v -48.2159576 16.8950310 6.0000000
vn 1.8184948 1.7536571 2.0494852
v -16.3999996 12.2499466 6.0000000
vn 1.8184965 -1.7536572 2.0494823
v -16.3999996 -12.2500534 6.0000000
vn 0.0000000 -3.1390038 3.0545337
v 0.0000001 -51.0903893 6.0000000
vn -0.2975729 -3.1248670 3.0545363
v -4.8414383 -50.8604774 6.0000000
vn -0.5924646 -3.0825849 3.0545368
v -9.6393032 -50.1728172 6.0000000
vn -0.8820214 -3.0125372 3.0545409
v -14.3504124 -49.0335922 6.0000000
vn -1.1636329 -2.9153562 3.0545416
v -18.9323654 -47.4530602 6.0000000
vn -1.4347628 -2.7919161 3.0545402
v -23.3439255 -45.4454460 6.0000000
vn -1.6929712 -2.6433287 3.0545444
v -27.5453873 -43.0288124 6.0000000
vn -1.9359291 -2.4709339 3.0545480
v -31.4989357 -40.2249146 6.0000000
vn -2.1614504 -2.2762833 3.0545521
v -35.1689873 -37.0589905 6.0000000
vn -2.3675036 -2.0611303 3.0545607
v -38.5225143 -33.5595245 6.0000000
vn -2.5522318 -1.8274134 3.0545621
v -41.5293350 -29.7580242 6.0000000
vn -2.7139730 -1.5772361 3.0545666
v -44.1623840 -25.6886959 6.0000000
vn -2.8512681 -1.3128548 3.0545731
v -46.3979645 -21.3881645 6.0000000
vn -2.9628830 -1.0366479 3.0545788
v -48.2159576 -16.8951378 6.0000000
vn -4.8664665 -2.5039537 -1.1793617
v -49.5999985 -12.2500534 6.0000000
vn 2.9628830 1.0366477 3.0545795
v 48.2159576 16.8950310 6.0000000
vn 2.8512681 1.3128551 3.0545728
v 46.3979645 21.3880577 6.0000000
vn 2.7139730 1.5772358 3.0545678
v 44.1623840 25.6885872 6.0000000
vn 2.5522318 1.8274134 3.0545635
v 41.5293350 29.7579155 6.0000000
vn 2.3675029 2.0611305 3.0545585
v 38.5225143 33.5594177 6.0000000
vn 2.1614509 2.2762828 3.0545537
v 35.1689873 37.0588799 6.0000000
vn 1.9359295 2.4709334 3.0545483
v 31.4989357 40.2248077 6.0000000
vn 1.6929708 2.6433291 3.0545442
v 27.5453873 43.0287056 6.0000000
vn 1.4347630 2.7919164 3.0545442
v 23.3439255 45.4453354 6.0000000
vn 1.1636325 2.9153562 3.0545399
v 18.9323654 47.4529533 6.0000000
vn 0.8820224 3.0125370 3.0545392
v 14.3504124 49.0334854 6.0000000
vn 0.5924646 3.0825849 3.0545371
v 9.6393032 50.1727104 6.0000000
vn 0.2975729 3.1248670 3.0545363
v 4.8414383 50.8603706 6.0000000
vn 0.0000000 3.1390038 3.0545340
v 0.0000001 51.0902824 6.0000000
vn -0.2975729 3.1248670 3.0545363
v -4.8414383 50.8603706 6.0000000
vn -0.5924646 3.0825849 3.0545366
v -9.6393032 50.1727104 6.0000000
vn -0.8820224 3.0125370 3.0545392
v -14.3504124 49.0334854 6.0000000
vn -1.1636325 2.9153562 3.0545394
v -18.9323654 47.4529533 6.0000000
vn -1.4347630 2.7919164 3.0545442
v -23.3439255 45.4453354 6.0000000
vn -1.6929708 2.6433289 3.0545440
v -27.5453873 43.0287056 6.0000000
vn -1.9359294 2.4709334 3.0545480
v -31.4989357 40.2248077 6.0000000
vn -2.1614511 2.2762828 3.0545540
v -35.1689873 37.0588799 6.0000000
vn -2.3675032 2.0611308 3.0545585
v -38.5225143 33.5594177 6.0000000
vn -2.5522318 1.8274133 3.0545628
v -41.5293350 29.7579155 6.0000000
vn -2.7139730 1.5772358 3.0545671
v -44.1623840 25.6885872 6.0000000
vn -2.8512681 1.3128551 3.0545726
v -46.3979645 21.3880577 6.0000000
vn -4.8664699 2.5039544 -1.1793637
v -49.5999985 12.2499466 6.0000000
vn 0.2975729 -3.1248670 3.0545366
v 4.8414383 -50.8604774 6.0000000
vn 0.5924646 -3.0825849 3.0545371
v 9.6393032 -50.1728172 6.0000000
vn 0.8820214 -3.0125375 3.0545409
v 14.3504124 -49.0335922 6.0000000
vn 1.1636329 -2.9153559 3.0545416
v 18.9323654 -47.4530602 6.0000000
vn 1.4347628 -2.7919161 3.0545402
v 23.3439255 -45.4454460 6.0000000
vn 1.6929712 -2.6433287 3.0545444
v 27.5453873 -43.0288124 6.0000000
vn 1.9359289 -2.4709339 3.0545480
v 31.4989357 -40.2249146 6.0000000
vn 2.1614504 -2.2762833 3.0545521
v 35.1689873 -37.0589905 6.0000000
vn 2.3675036 -2.0611303 3.0545607
v 38.5225143 -33.5595245 6.0000000
vn 2.5522318 -1.8274134 3.0545621
v 41.5293350 -29.7580242 6.0000000
vn 2.7139730 -1.5772359 3.0545666
v 44.1623840 -25.6886959 6.0000000
vn 2.8512683 -1.3128548 3.0545731
v 46.3979645 -21.3881645 6.0000000
vn 2.9628830 -1.0366479 3.0545788
v 48.2159576 -16.8951378 6.0000000
vn 3.1059940 0.4535190 3.0540111
v 50.5521317 7.3961773 6.0000000
vn 3.1059942 -0.4535190 3.0540118
v 50.5521317 -7.3962851 6.0000000
vn 3.1352658 -0.1516449 3.0539937
v 51.0304413 -2.4731910 6.0000000
vn 3.1352661 0.1516449 3.0539939
v 51.0304413 2.4730835 6.0000000
vn -1.8184948 -4.2337065 -1.7536588
v -49.5999985 -14.2500534 8.0000000
vn 1.8184979 -4.2337050 -1.7536576
v -16.3999996 -14.2500534 8.0000000
vn -1.8184921 -4.2337050 1.7536585
v -49.5999985 -14.2500534 50.5000000
vn 1.8184953 -4.2337060 1.7536576
v -16.3999996 -14.2500534 50.5000000
vn -3.1562772 -0.5226063 -3.0977325
v -50.0000000 0.8483808 46.2789307
vn -4.9806242 0.9278597 2.2400532
v -50.0000000 12.0842609 52.0999985
vn -6.1087117 -0.2726756 0.0238479
v -50.0000000 0.9223302 46.2658958
vn -4.9805746 2.2400570 0.9278643
v -50.0000000 13.8499460 50.3343163
vn -4.9805760 2.2400551 -0.9278610
v -50.0000000 13.8499460 8.1656857
vn -3.1563432 -0.4769600 -3.1050873
v -50.0000000 0.7742475 46.2908783
vn -4.8574286 1.3437667 -1.5543052
v -50.0000000 0.6999462 46.3017311
vn -4.8574252 -1.3437669 -1.5543034
v -50.0000000 -0.7000538 46.3017311
vn -4.7123861 1.5707954 1.5707966
v -50.0000000 0.6999462 46.2658958
vn -4.7123890 -1.5707954 1.5707966
v -50.0000000 -0.7000538 46.2658958
vn -4.9805865 0.9278614 -2.2400537
v -50.0000000 12.0842609 6.4000001
vn -4.9805870 -0.9278630 -2.2400565
v -50.0000000 -12.0843687 6.4000001
vn -6.1087122 0.2726753 0.0238495
v -50.0000000 -0.9224377 46.2658958
vn -4.9805708 -2.2400551 -0.9278615
v -50.0000000 -13.8500538 8.1656857
vn -4.9805698 -2.2400575 0.9278656
v -50.0000000 -13.8500538 50.3343163
vn -4.9806209 -0.9278623 2.2400508
v -50.0000000 -12.0843687 52.0999985
vn -3.1563432 0.4769606 -3.1050906
v -50.0000000 -0.7743550 46.2908783
vn -3.1562772 0.5226062 -3.0977321
v -50.0000000 -0.8484883 46.2789307
vn 3.1106701 -0.3929693 -3.0159287
v 30.7555561 -3.8853841 0.0000000
vn -3.1106701 -0.3929693 -3.0159287
v -30.7555561 -3.8853841 0.0000000
vn 3.1353936 0.0000000 -3.0159292
v 31.0000000 -0.0000538 0.0000000
vn -3.1353936 -0.0000000 -3.0159292
v -31.0000000 -0.0000538 0.0000000
vn 3.1106696 0.3929693 -3.0159287
v 30.7555561 3.8852766 0.0000000
vn -3.1106699 0.3929693 -3.0159287
v -30.7555561 3.8852766 0.0000000
vn 3.0368896 0.7797411 -3.0159292
v 30.0260773 7.7093329 0.0000000
vn -3.0368891 0.7797410 -3.0159292
v -30.0260773 7.7093329 0.0000000
vn 2.9152155 1.1542155 -3.0159290
v 28.8230705 11.4118071 0.0000000
vn -2.9152155 1.1542153 -3.0159287
v -28.8230705 11.4118071 0.0000000
vn 2.7475665 1.5104872 -3.0159292
v 27.1655064 14.9343100 0.0000000
vn -2.7475667 1.5104873 -3.0159292
v -27.1655064 14.9343100 0.0000000
vn 2.5365870 1.8429376 -3.0159292
v 25.0795269 18.2212887 0.0000000
vn -2.5365870 1.8429375 -3.0159283
v -25.0795269 18.2212887 0.0000000
vn 2.2856035 2.1463246 -3.0159273
v 22.5980282 21.2209072 0.0000000
vn -2.2856035 2.1463246 -3.0159273
v -22.5980282 21.2209072 0.0000000
vn 1.9985749 2.4158626 -3.0159285
v 19.7601433 23.8858566 0.0000000
vn -1.9985749 2.4158626 -3.0159292
v -19.7601433 23.8858566 0.0000000
vn 1.6800280 2.6473000 -3.0159292
v 16.6106300 26.1741123 0.0000000
vn -1.6800281 2.6473002 -3.0159287
v -16.6106300 26.1741123 0.0000000
vn 1.3349857 2.8369889 -3.0159287
v 13.1991577 28.0495853 0.0000000
vn -1.3349855 2.8369887 -3.0159299
v -13.1991577 28.0495853 0.0000000
vn 0.9688900 2.9819365 -3.0159302
v 9.5795269 29.4826984 0.0000000
vn -0.9688899 2.9819365 -3.0159292
v -9.5795269 29.4826984 0.0000000
vn 0.5875138 3.0798571 -3.0159283
v 5.8088207 30.4508514 0.0000000
vn -0.5875138 3.0798573 -3.0159278
v -5.8088207 30.4508514 0.0000000
vn 0.1968725 3.1292064 -3.0159295
v 1.9465061 30.9387741 0.0000000
vn -0.1968725 3.1292067 -3.0159297
v -1.9465060 30.9387741 0.0000000
vn -3.0368893 -0.7797410 -3.0159292
v -30.0260773 -7.7094402 0.0000000
vn 3.0368891 -0.7797410 -3.0159292
v 30.0260773 -7.7094402 0.0000000
vn -2.9152155 -1.1542155 -3.0159290
v -28.8230705 -11.4119148 0.0000000
vn 2.9152153 -1.1542153 -3.0159287
v 28.8230705 -11.4119148 0.0000000
vn -2.7475667 -1.5104871 -3.0159292
v -27.1655064 -14.9344177 0.0000000
vn 2.7475667 -1.5104871 -3.0159292
v 27.1655064 -14.9344177 0.0000000
vn -2.5365868 -1.8429377 -3.0159287
v -25.0795269 -18.2213974 0.0000000
vn 2.5365870 -1.8429377 -3.0159278
v 25.0795269 -18.2213974 0.0000000
vn -2.2856033 -2.1463251 -3.0159276
v -22.5980282 -21.2210140 0.0000000
vn 2.2856030 -2.1463251 -3.0159276
v 22.5980282 -21.2210140 0.0000000
vn -1.9985749 -2.4158626 -3.0159285
v -19.7601433 -23.8859634 0.0000000
vn 1.9985749 -2.4158626 -3.0159292
v 19.7601433 -23.8859634 0.0000000
vn -1.6800280 -2.6473000 -3.0159292
v -16.6106300 -26.1742191 0.0000000
vn 1.6800281 -2.6473002 -3.0159287
v 16.6106300 -26.1742191 0.0000000
vn -1.3349857 -2.8369889 -3.0159287
v -13.1991577 -28.0496922 0.0000000
vn 1.3349855 -2.8369887 -3.0159299
v 13.1991577 -28.0496922 0.0000000
vn -0.9688900 -2.9819365 -3.0159302
v -9.5795269 -29.4828053 0.0000000
vn 0.9688899 -2.9819365 -3.0159292
v 9.5795269 -29.4828053 0.0000000
vn -0.5875145 -3.0798571 -3.0159287
v -5.8088207 -30.4509583 0.0000000
vn 0.5875146 -3.0798573 -3.0159278
v 5.8088207 -30.4509583 0.0000000
vn -0.1968733 -3.1292064 -3.0159287
v -1.9465060 -30.9388828 0.0000000
vn 0.1968733 -3.1292067 -3.0159292
v 1.9465061 -30.9388828 0.0000000
vn 3.1106701 -0.3929693 -3.2672567
v 30.7555561 -3.8853841 3.0000000
vn 3.1353936 -0.0000000 -3.2672565
v 31.0000000 -0.0000538 3.0000000
vn 3.1106701 0.3929693 -3.2672563
v 30.7555561 3.8852766 3.0000000
vn 3.0368891 0.7797410 -3.2672560
v 30.0260773 7.7093329 3.0000000
vn 2.9152155 1.1542153 -3.2672563
v 28.8230705 11.4118071 3.0000000
vn 2.7475667 1.5104873 -3.2672563
v 27.1655064 14.9343100 3.0000000
vn 2.5365868 1.8429375 -3.2672558
v 25.0795269 18.2212887 3.0000000
vn 2.2856035 2.1463246 -3.2672572
v 22.5980282 21.2209072 3.0000000
vn 1.9985747 2.4158626 -3.2672558
v 19.7601433 23.8858566 3.0000000
vn 1.6800280 2.6473002 -3.2672565
v 16.6106300 26.1741123 3.0000000
vn 1.3349856 2.8369887 -3.2672567
v 13.1991577 28.0495853 3.0000000
vn 0.9688898 2.9819365 -3.2672565
v 9.5795269 29.4826984 3.0000000
vn 0.5875138 3.0798571 -3.2672570
v 5.8088207 30.4508514 3.0000000
vn 0.1968725 3.1292067 -3.2672558
v 1.9465061 30.9387741 3.0000000
vn -0.1968725 3.1292067 -3.2672551
v -1.9465060 30.9387741 3.0000000
vn -0.5875138 3.0798573 -3.2672570
v -5.8088207 30.4508514 3.0000000
vn -0.9688900 2.9819365 -3.2672565
v -9.5795269 29.4826984 3.0000000
vn -1.3349856 2.8369889 -3.2672567
v -13.1991577 28.0495853 3.0000000
vn -1.6800280 2.6473000 -3.2672565
v -16.6106300 26.1741123 3.0000000
vn -1.9985747 2.4158626 -3.2672558
v -19.7601433 23.8858566 3.0000000
vn -2.2856035 2.1463246 -3.2672572
v -22.5980282 21.2209072 3.0000000
vn -2.5365872 1.8429375 -3.2672558
v -25.0795269 18.2212887 3.0000000
vn -2.7475662 1.5104871 -3.2672563
v -27.1655064 14.9343100 3.0000000
vn -2.9152155 1.1542155 -3.2672563
v -28.8230705 11.4118071 3.0000000
vn -3.0368896 0.7797412 -3.2672560
v -30.0260773 7.7093329 3.0000000
vn -3.1106696 0.3929693 -3.2672563
v -30.7555561 3.8852766 3.0000000
vn -3.1353936 0.0000000 -3.2672565
v -31.0000000 -0.0000538 3.0000000
vn -3.1106701 -0.3929693 -3.2672567
v -30.7555561 -3.8853841 3.0000000
vn -3.0368891 -0.7797410 -3.2672560
v -30.0260773 -7.7094402 3.0000000
vn -2.9152155 -1.1542153 -3.2672565
v -28.8230705 -11.4119148 3.0000000
vn -2.7475667 -1.5104871 -3.2672563
v -27.1655064 -14.9344177 3.0000000
vn -2.5365868 -1.8429377 -3.2672565
v -25.0795269 -18.2213974 3.0000000
vn -2.2856030 -2.1463251 -3.2672572
v -22.5980282 -21.2210140 3.0000000
vn -1.9985747 -2.4158626 -3.2672558
v -19.7601433 -23.8859634 3.0000000
vn -1.6800280 -2.6473002 -3.2672565
v -16.6106300 -26.1742191 3.0000000
vn -1.3349856 -2.8369887 -3.2672567
v -13.1991577 -28.0496922 3.0000000
vn -0.9688898 -2.9819365 -3.2672565
v -9.5795269 -29.4828053 3.0000000
vn -0.5875146 -3.0798571 -3.2672565
v -5.8088207 -30.4509583 3.0000000
vn -0.1968733 -3.1292067 -3.2672567
v -1.9465060 -30.9388828 3.0000000
vn 0.1968733 -3.1292067 -3.2672570
v 1.9465061 -30.9388828 3.0000000
vn 0.5875145 -3.0798571 -3.2672565
v 5.8088207 -30.4509583 3.0000000
vn 0.9688900 -2.9819365 -3.2672565
v 9.5795269 -29.4828053 3.0000000
vn 1.3349856 -2.8369889 -3.2672567
v 13.1991577 -28.0496922 3.0000000
vn 1.6800280 -2.6473000 -3.2672565
v 16.6106300 -26.1742191 3.0000000
vn 1.9985747 -2.4158626 -3.2672558
v 19.7601433 -23.8859634 3.0000000
vn 2.2856030 -2.1463251 -3.2672572
v 22.5980282 -21.2210140 3.0000000
vn 2.5365868 -1.8429378 -3.2672565
v 25.0795269 -18.2213974 3.0000000
vn 2.7475667 -1.5104871 -3.2672563
v 27.1655064 -14.9344177 3.0000000
vn 2.9152155 -1.1542153 -3.2672565
v 28.8230705 -11.4119148 3.0000000
vn 3.0368896 -0.7797410 -3.2672560
v 30.0260773 -7.7094402 3.0000000
vn 3.1246824 0.2990568 -3.0528727
v 50.8589935 4.8563914 3.0000000
vn 3.1389613 0.0000000 -3.0528617
v 51.0903358 -0.0000538 3.0000000
vn 3.1246822 -0.2990568 -3.0528729
v 50.8589935 -4.8564987 3.0000000
vn 3.0819750 -0.5953867 -3.0528994
v 50.1670685 -9.6689634 3.0000000
vn 3.0114202 -0.8857890 -3.0547788
v 49.0208168 -14.3938646 3.0000000
vn 2.9136262 -1.1679311 -3.0547709
v 47.4306297 -18.9884129 3.0000000
vn 2.7894654 -1.4395032 -3.0547667
v 45.4109001 -23.4110012 3.0000000
vn 2.6400604 -1.6980487 -3.0547595
v 42.9799271 -27.6215744 3.0000000
vn 2.4667642 -1.9412284 -3.0547523
v 40.1597176 -31.5820045 3.0000000
vn 2.2711465 -2.1668389 -3.0547478
v 36.9758148 -35.2564240 3.0000000
vn 2.0549746 -2.3728421 -3.0547471
v 33.4570541 -38.6115532 3.0000000
vn 1.8202076 -2.5573711 -3.0547428
v 29.6353016 -41.6170120 3.0000000
vn 1.5689684 -2.7187576 -3.0547397
v 25.5451679 -44.2455826 3.0000000
vn 1.3035301 -2.8555412 -3.0547378
v 21.2236919 -46.4734573 3.0000000
vn 1.0262970 -2.9664831 -3.0547323
v 16.7100124 -48.2804642 3.0000000
vn 0.7397758 -3.0505805 -3.0547311
v 12.0450029 -49.6502342 3.0000000
vn 0.4465596 -3.1070716 -3.0547333
v 7.2709131 -50.5703621 3.0000000
vn 0.1493043 -3.1354456 -3.0547321
v 2.4309762 -51.0325203 3.0000000
vn -0.1493043 -3.1354454 -3.0547326
v -2.4309759 -51.0325203 3.0000000
vn -0.4465596 -3.1070716 -3.0547333
v -7.2709126 -50.5703621 3.0000000
vn -0.7397758 -3.0505803 -3.0547311
v -12.0450029 -49.6502342 3.0000000
vn -1.0262970 -2.9664829 -3.0547323
v -16.7100124 -48.2804642 3.0000000
vn -1.3035301 -2.8555412 -3.0547378
v -21.2236919 -46.4734573 3.0000000
vn -1.5689684 -2.7187576 -3.0547397
v -25.5451679 -44.2455826 3.0000000
vn -1.8202076 -2.5573711 -3.0547428
v -29.6353016 -41.6170120 3.0000000
vn -2.0549743 -2.3728421 -3.0547471
v -33.4570541 -38.6115532 3.0000000
vn -2.2711463 -2.1668389 -3.0547478
v -36.9758148 -35.2564240 3.0000000
vn -2.4667642 -1.9412284 -3.0547523
v -40.1597176 -31.5820045 3.0000000
vn -2.6400604 -1.6980487 -3.0547595
v -42.9799271 -27.6215744 3.0000000
vn -2.7894654 -1.4395032 -3.0547667
v -45.4109001 -23.4110012 3.0000000
vn -2.9136262 -1.1679311 -3.0547709
v -47.4306297 -18.9884129 3.0000000
vn -3.0114205 -0.8857890 -3.0547788
v -49.0208168 -14.3938646 3.0000000
vn -3.0819750 -0.5953867 -3.0528994
v -50.1670685 -9.6689634 3.0000000
vn -3.1059940 -0.4535190 3.0540118
v -50.5521317 -7.3962851 6.0000000
vn -3.1246822 -0.2990568 -3.0528729
v -50.8589935 -4.8564987 3.0000000
vn -3.1352658 -0.1516449 3.0539937
v -51.0304413 -2.4731910 6.0000000
vn -3.1389616 0.0000000 -3.0528617
v -51.0903358 -0.0000538 3.0000000
vn -3.1352661 0.1516449 3.0539939
v -51.0304413 2.4730835 6.0000000
vn -3.1246824 0.2990568 -3.0528727
v -50.8589935 4.8563914 3.0000000
vn -3.1059937 0.4535190 3.0540111
v -50.5521317 7.3961773 6.0000000
vn -3.0819750 0.5953866 -3.0528989
v -50.1670685 9.6688557 3.0000000
vn -3.0114207 0.8857890 -3.0547791
v -49.0208168 14.3937569 3.0000000
vn -2.9136262 1.1679311 -3.0547709
v -47.4306297 18.9883060 3.0000000
vn -2.7894654 1.4395034 -3.0547676
v -45.4109001 23.4108925 3.0000000
vn -2.6400604 1.6980487 -3.0547581
v -42.9799271 27.6214676 3.0000000
vn -2.4667642 1.9412284 -3.0547528
v -40.1597176 31.5818958 3.0000000
vn -2.2711461 2.1668394 -3.0547495
v -36.9758148 35.2563133 3.0000000
vn -2.0549755 2.3728411 -3.0547454
v -33.4570541 38.6114464 3.0000000
vn -1.8202076 2.5573711 -3.0547428
v -29.6353016 41.6169052 3.0000000
vn -1.5689676 2.7187581 -3.0547380
v -25.5451679 44.2454758 3.0000000
vn -1.3035303 2.8555410 -3.0547357
v -21.2236919 46.4733505 3.0000000
vn -1.0262971 2.9664834 -3.0547361
v -16.7100124 48.2803535 3.0000000
vn -0.7397764 3.0505803 -3.0547309
v -12.0450029 49.6501274 3.0000000
vn -0.4465596 3.1070719 -3.0547333
v -7.2709126 50.5702553 3.0000000
vn -0.1493043 3.1354456 -3.0547321
v -2.4309759 51.0324135 3.0000000
vn 0.1493043 3.1354454 -3.0547314
v 2.4309762 51.0324135 3.0000000
vn 0.4465596 3.1070716 -3.0547333
v 7.2709131 50.5702553 3.0000000
vn 0.7397764 3.0505800 -3.0547309
v 12.0450029 49.6501274 3.0000000
vn 1.0262971 2.9664831 -3.0547361
v 16.7100124 48.2803535 3.0000000
vn 1.3035302 2.8555410 -3.0547357
v 21.2236919 46.4733505 3.0000000
vn 1.5689676 2.7187581 -3.0547380
v 25.5451679 44.2454758 3.0000000
vn 1.8202076 2.5573711 -3.0547428
v 29.6353016 41.6169052 3.0000000
vn 2.0549753 2.3728411 -3.0547454
v 33.4570541 38.6114464 3.0000000
vn 2.2711461 2.1668391 -3.0547495
v 36.9758148 35.2563133 3.0000000
vn 2.4667642 1.9412284 -3.0547528
v 40.1597176 31.5818958 3.0000000
vn 2.6400604 1.6980486 -3.0547581
v 42.9799271 27.6214676 3.0000000
vn 2.7894654 1.4395034 -3.0547676
v 45.4109001 23.4108925 3.0000000
vn 2.9136262 1.1679311 -3.0547709
v 47.4306297 18.9883060 3.0000000
vn 3.0114207 0.8857890 -3.0547791
v 49.0208168 14.3937569 3.0000000
vn 3.0819750 0.5953866 -3.0528989
v 50.1670685 9.6688557 3.0000000
vn -1.8184969 -1.7536566 4.2337036
v -49.5999985 -12.2500534 52.5000000
vn 1.8184962 -1.7536552 4.2336993
v -16.3999996 -12.2500534 52.5000000
vn -1.8184953 1.7536564 4.2337008
v -49.5999985 12.2499466 52.5000000
vn 1.8184993 1.7536559 4.2337003
v -16.3999996 12.2499466 52.5000000
vn -1.8184949 4.2337060 1.7536576
v -49.5999985 14.2499466 50.5000000
vn 1.8184948 4.2337008 1.7536564
v -16.3999996 14.2499466 50.5000000
vn -1.8184977 4.2337055 -1.7536573
v -49.5999985 14.2499466 8.0000000
vn 1.8184979 4.2337022 -1.7536569
v -16.3999996 14.2499466 8.0000000
vn 4.9805784 -2.2400548 -0.9278604
v -15.9999990 -13.8500538 8.1656857
vn 3.3393042 -3.0946748 -0.4374141
v -15.9999990 -10.1517124 39.8335495
vn 4.9805741 -2.2400568 0.9278637
v -15.9999990 -13.8500538 50.3343163
vn 3.3393047 -3.1163540 0.2380766
v -15.9999990 -10.2188673 42.0489731
vn 3.3393028 -2.9923162 0.9024341
v -15.9999990 -9.8082018 44.2270355
vn 4.9805737 -0.9278622 -2.2400522
v -15.9999990 -12.0843687 6.4000001
vn 3.3393035 -1.6700698 -2.6418197
v -15.9999990 -5.4925332 32.5958023
vn 3.3393052 -2.1989365 -2.2210405
v -15.9999990 -7.2245193 33.9788513
vn 3.3393044 -2.6249857 -1.6964056
v -15.9999990 -8.6186972 35.7018929
vn 4.9805775 0.9278606 -2.2400537
v -15.9999990 12.0842609 6.4000001
vn 3.3393040 0.2692303 -3.1138167
v -15.9999990 0.8647196 31.0365448
vn 3.3393025 -0.4064438 -3.0988946
v -15.9999990 -1.3510892 31.0894299
vn 3.3393047 -1.0631120 -2.9390707
v -15.9999990 -3.5037253 31.6174107
vn 4.9805732 2.2400508 -0.9278604
v -15.9999990 13.8499460 8.1656857
vn 3.3393030 1.5518049 -2.7129769
v -15.9999990 5.0733118 32.3436279
vn 3.3393028 0.9323138 -2.9831421
v -15.9999990 3.0400927 31.4612312
vn 4.9805765 2.2400532 0.9278644
v -15.9999990 13.8499460 50.3343163
vn 3.3393040 3.0723455 -0.5736178
v -15.9999990 10.0724726 39.3508644
vn 3.3393047 2.8772051 -1.2206702
v -15.9999990 9.4287243 37.2299690
vn 3.3393040 2.5475292 -1.8106461
v -15.9999990 8.3440971 35.2970467
vn 4.9805813 0.9278599 2.2400484
v -15.9999990 12.0842609 52.0999985
vn 3.3393052 2.7930119 1.4026505
v -15.9999990 9.1679230 45.8337440
vn 3.3393025 3.0292411 0.7694427
v -15.9999990 9.9389496 43.7557335
vn 3.3393035 3.1238267 0.1002567
v -15.9999990 10.2452402 41.5605583
vn 4.9805765 -0.9278601 2.2400513
v -15.9999990 -12.0843687 52.0999985
vn 3.3393052 0.0690112 3.1246727
v -15.9999990 0.2445109 51.4970818
vn 3.3393035 0.7391081 3.0367849
v -15.9999990 2.4416130 51.2049370
vn 3.3393052 1.3746485 2.8068995
v -15.9999990 4.5245452 50.4473114
vn 3.3393044 -2.7283602 1.5245962
v -15.9999990 -8.9389181 46.2658958
vn 3.3393028 -2.3368299 2.0754688
v -15.9999990 -7.6516628 48.0702171
vn 3.3393025 -1.8360331 2.5292940
v -15.9999990 -6.0066271 49.5556335
vn 3.3393078 -1.2493839 2.8648529
v -15.9999990 -4.0807309 50.6526909
vn 3.3393054 -0.6043140 3.0664554
v -15.9999990 -1.9640266 51.3100853
vn 3.3393061 1.9459118 2.4457657
v -15.9999990 6.3959122 49.2596283
vn 3.3393030 2.4261842 1.9702728
v -15.9999990 7.9682112 47.6974220
vn 3.3393021 2.0987341 -2.3159575
v -15.9999990 6.8693061 33.6424789
vn 3.3393009 -2.9282923 -1.0924512
v -15.9999990 -9.6098766 37.6843605
vn -0.1744750 -0.2726753 0.0238497
v -47.7999992 0.9223302 46.2658958
vn -1.5707971 1.5707964 1.5707964
v -47.7999992 0.6999462 46.2658958
vn -0.1744750 0.2726756 0.0238482
v -47.7999992 -0.9224377 46.2658958
vn -1.5707971 -1.5707964 1.5707964
v -47.7999992 -0.7000538 46.2658958
vn 2.9438801 3.0535553 0.6664419
v -13.9999990 10.0103073 43.4534454
vn 2.9438810 -3.1065071 0.3434486
v -13.9999990 -10.1899681 42.3582191
vn 2.9438791 3.1254299 -0.0055628
v -13.9999990 10.2499466 41.2500000
vn 2.9438808 -3.1077099 -0.3323875
v -13.9999990 -10.1899681 40.1417809
vn 2.9438810 3.0511634 -0.6773080
v -13.9999990 10.0103073 39.0465546
vn 2.9438782 -2.9635997 -0.9926836
v -13.9999990 -9.7134991 37.9771576
vn 2.9438820 2.8342276 -1.3173826
v -13.9999990 9.3025942 36.9461365
vn 2.9438815 -2.6809154 -1.6065605
v -13.9999990 -8.7828398 35.9655724
vn 2.9438803 2.4847660 -1.8958588
v -13.9999990 8.1598997 35.0469627
vn 2.9438808 -2.2728732 -2.1453185
v -13.9999990 -7.4415073 34.2010803
vn 2.9438810 2.0191205 -2.3856852
v -13.9999990 6.6356559 33.4378395
vn 2.9438827 -1.7585552 -2.5837624
v -13.9999990 -5.7522211 32.7661896
vn 2.9438784 1.4590623 -2.7639606
v -13.9999990 4.8011327 32.1940002
vn 2.9438818 -1.1620097 -2.9013925
v -13.9999990 -3.7939699 31.7279892
vn 2.9438825 0.8307804 -3.0129967
v -13.9999990 2.7421117 31.3736134
vn 2.9438813 -0.5111288 -3.0833571
v -13.9999990 -1.6583192 31.1350288
vn 2.9438796 0.1636524 -3.1211469
v -13.9999990 0.5548701 31.0150318
vn 2.9438798 -2.9600470 1.0032265
v -13.9999990 -9.7134991 44.5228424
vn 2.9438818 2.8388996 1.3072844
v -13.9999990 9.3025942 45.5538635
vn 2.9438820 -2.6751785 1.6160951
v -13.9999990 -8.7828398 46.5344276
vn 2.9438803 2.4914994 1.8870015
v -13.9999990 8.1598997 47.4530373
vn 2.9438796 -2.2652216 2.1533961
v -13.9999990 -7.4415073 48.2989197
vn 2.9438832 2.0276017 2.3784819
v -13.9999990 6.6356559 49.0621605
vn 2.9438834 -1.7493471 2.5900061
v -13.9999990 -5.7522211 49.7338104
vn 2.9438815 1.4688933 2.7587490
v -13.9999990 4.8011327 50.3059998
vn 2.9438837 -1.1516733 2.9055107
v -13.9999990 -3.7939699 50.7720108
vn 2.9438806 0.8414993 3.0100203
v -13.9999990 2.7421117 51.1263885
vn 2.9438829 -0.5001481 3.0851574
v -13.9999990 -1.6583192 51.3649712
vn 2.9438834 0.1747617 3.1205451
v -13.9999990 0.5548701 51.4849663
vn -3.1269078 0.5226063 -3.0977325
v -47.7999992 -0.8484883 46.2789307
vn -3.1268418 0.4769600 -3.1050873
v -47.7999992 -0.7743550 46.2908783
vn -1.4257569 -1.3437657 -1.5543052
v -47.7999992 -0.7000538 46.3017311
vn -1.4257569 1.3437660 -1.5543034
v -47.7999992 0.6999462 46.3017311
vn -3.1269078 -0.5226062 -3.0977321
v -47.7999992 0.8483808 46.2789307
vn -3.1268418 -0.4769606 -3.1050906
v -47.7999992 0.7742475 46.2908783
vn -1.2853382 -2.1653552 -1.7341877
v 39.8509331 8.6150980 10.0000000
vn -3.2780941 -4.0778842 0.0216957
v 39.9231758 8.5002356 9.2865705
vn -3.0313566 -0.3961968 -2.6988196
v 40.0400505 8.1441536 10.0000000
vn -4.7463102 -2.7347391 -2.4096694
v 39.9093246 8.5249462 6.1999998
vn -5.4768291 -0.0009667 -2.4157648
v 40.0499992 7.9999461 6.1999998
vn -2.9355185 -4.6810670 -0.6867955
v 39.8658600 8.5942783 8.5705156
vn -2.3287828 -5.0574865 -1.1713238
v 39.6113663 8.8537693 7.9679317
vn -2.7473090 -4.7427225 -2.3907683
v 39.5249977 8.9092731 6.1999998
vn -1.3038661 -5.4590120 -1.5526036
v 39.3535461 8.9885330 7.7653799
vn -0.0003894 -5.4829979 -2.3779523
v 39.0000000 9.0499458 6.1999998
vn -0.6451887 -5.5606966 -1.6965979
v 39.1811485 9.0340919 7.7054839
vn -0.0000033 -5.5872383 -1.7816902
v 39.0000000 9.0499458 7.6855512
vn 0.6432358 -5.5612750 -1.6988311
v 38.8188477 9.0340919 7.7054839
vn 2.7476957 -4.7426171 -2.3902562
v 38.4749985 8.9092731 6.1999998
vn 1.3045738 -5.4588475 -1.5540180
v 38.6464500 8.9885330 7.7653799
vn 2.3287706 -5.0575004 -1.1713301
v 38.3886337 8.8537693 7.9679317
vn 4.7476616 -2.7299011 -2.4169836
v 38.0906715 8.5249462 6.1999998
vn 2.9355574 -4.6810026 -0.6867952
v 38.1341362 8.5942783 8.5705156
vn 3.2906954 -4.0378551 0.0390609
v 38.0768242 8.5002356 9.2865705
vn 1.2853382 -2.1653550 -1.7341878
v 38.1490669 8.6150980 10.0000000
vn 3.0311821 -0.3966956 -2.6959934
v 37.9599495 8.1441536 10.0000000
vn 5.4755793 -0.0057735 -2.4226415
v 37.9500008 7.9999461 6.1999998
vn 2.8666763 1.0467421 -2.6734424
v 38.0137978 7.6395216 10.0000000
vn 4.7437873 2.7380672 -2.4132395
v 38.0906715 7.4749460 6.1999998
vn 2.0408630 2.2694333 -2.6754048
v 38.2980309 7.2190871 10.0000000
vn 2.7390385 4.7435136 -2.4117424
v 38.4749985 7.0906196 6.1999998
vn 0.7378021 2.9617691 -2.6763892
v 38.7462502 6.9810686 10.0000000
vn -0.0000051 5.4776025 -2.4112482
v 39.0000000 6.9499464 6.1999998
vn -0.7377974 2.9617712 -2.6763921
v 39.2537460 6.9810686 10.0000000
vn -2.7390332 4.7435069 -2.4117527
v 39.5249977 7.0906196 6.1999998
vn -2.0408585 2.2694354 -2.6754003
v 39.7019691 7.2190871 10.0000000
vn -4.7437620 2.7380791 -2.4132569
v 39.9093246 7.4749460 6.1999998
vn -2.8666759 1.0467428 -2.6734409
v 39.9862022 7.6395216 10.0000000
vn -0.9634385 -1.6687181 0.6911163
v 39.6250000 9.0824776 6.0000000
vn 0.0000007 -1.9268687 0.6911149
v 39.0000000 9.2499466 6.0000000
vn 0.9634384 -1.6687276 0.6911236
v 38.3750000 9.0824776 6.0000000
vn 1.6687300 -0.9634445 0.6911274
v 37.9174690 8.6249466 6.0000000
vn 1.9268708 0.0000033 0.6911165
v 37.7500000 7.9999461 6.0000000
vn 1.6687309 0.9634404 0.6911273
v 37.9174690 7.3749461 6.0000000
vn 0.9634386 1.6687266 0.6911231
v 38.3750000 6.9174147 6.0000000
vn -0.0000009 1.9268723 0.6911173
v 39.0000000 6.7499461 6.0000000
vn -0.9634369 1.6687156 0.6911144
v 39.6250000 6.9174147 6.0000000
vn -1.6687169 0.9634348 0.6911142
v 40.0825310 7.3749461 6.0000000
vn -1.9268677 0.0000007 0.6911138
v 40.2500000 7.9999461 6.0000000
vn -1.6687160 -0.9634351 0.6911136
v 40.0825310 8.6249466 6.0000000
vn 1.2853371 2.1653545 -1.7341849
v -39.8509331 -8.6152058 10.0000000
vn -1.2853371 2.1653545 -1.7341850
v -38.1490669 -8.6152058 10.0000000
vn 3.2780957 4.0778871 0.0216957
v -39.9231758 -8.5003424 9.2865705
vn -3.2906976 4.0378561 0.0390614
v -38.0768242 -8.5003424 9.2865705
vn 2.9355221 4.6810575 -0.6867965
v -39.8658600 -8.5943861 8.5705156
vn -2.9355607 4.6809931 -0.6867961
v -38.1341362 -8.5943861 8.5705156
vn 2.3287830 5.0574908 -1.1713239
v -39.6113663 -8.8538761 7.9679317
vn -2.3287709 5.0575047 -1.1713302
v -38.3886337 -8.8538761 7.9679317
vn 1.3038719 5.4590034 -1.5526088
v -39.3535461 -8.9886408 7.7653799
vn -1.3045790 5.4588389 -1.5540228
v -38.6464500 -8.9886408 7.7653799
vn 0.6451887 5.5606966 -1.6965979
v -39.1811485 -9.0341997 7.7054839
vn -0.6432367 5.5612745 -1.6988301
v -38.8188477 -9.0341997 7.7054839
vn 0.0000033 5.5872383 -1.7816902
v -39.0000000 -9.0500536 7.6855512
vn 0.0000011 1.9268739 0.6911188
v -39.0000000 -9.2500534 6.0000000
vn -0.9634371 1.6687233 0.6911202
v -38.3750000 -9.0825853 6.0000000
vn 0.9634342 1.6687146 0.6911131
v -39.6250000 -9.0825853 6.0000000
vn 1.6687193 0.9634351 0.6911165
v -40.0825310 -8.6250534 6.0000000
vn -1.6687320 0.9634453 0.6911297
v -37.9174690 -8.6250534 6.0000000
vn 1.9268672 -0.0000008 0.6911142
v -40.2500000 -8.0000534 6.0000000
vn -1.9268711 -0.0000036 0.6911163
v -37.7500000 -8.0000534 6.0000000
vn 1.6687174 -0.9634346 0.6911148
v -40.0825310 -7.3750539 6.0000000
vn -1.6687316 -0.9634404 0.6911272
v -37.9174690 -7.3750539 6.0000000
vn 0.9634368 -1.6687150 0.6911141
v -39.6250000 -6.9175220 6.0000000
vn -0.9634380 -1.6687260 0.6911228
v -38.3750000 -6.9175220 6.0000000
vn 0.0000004 -1.9268754 0.6911196
v -39.0000000 -6.7500539 6.0000000
vn -3.0311821 0.3966962 -2.6959927
v -37.9599495 -8.1442614 10.0000000
vn 3.0313568 0.3961974 -2.6988194
v -40.0400505 -8.1442614 10.0000000
vn 2.8666701 -1.0467513 -2.6734343
v -39.9862022 -7.6396289 10.0000000
vn -2.8666756 -1.0467426 -2.6734421
v -38.0137978 -7.6396289 10.0000000
vn 2.0408573 -2.2694414 -2.6754112
v -39.7019653 -7.2191949 10.0000000
vn -2.0408626 -2.2694340 -2.6754055
v -38.2980309 -7.2191949 10.0000000
vn 0.7378021 -2.9617693 -2.6763895
v -39.2537460 -6.9811764 10.0000000
vn -0.7378021 -2.9617691 -2.6763897
v -38.7462502 -6.9811764 10.0000000
vn 2.7473071 4.7427206 -2.3907707
v -39.5249977 -8.9093800 6.1999998
vn 0.0003927 5.4830017 -2.3779478
v -39.0000000 -9.0500536 6.1999998
vn -2.7476988 4.7426133 -2.3902595
v -38.4749985 -8.9093800 6.1999998
vn -4.7476606 2.7299061 -2.4169807
v -38.0906715 -8.5250540 6.1999998
vn -5.4755797 0.0057724 -2.4226418
v -37.9500008 -8.0000534 6.1999998
vn -4.7437882 -2.7380662 -2.4132395
v -38.0906715 -7.4750538 6.1999998
vn -2.7390397 -4.7435136 -2.4117427
v -38.4749985 -7.0907269 6.1999998
vn 0.0000043 -5.4776049 -2.4112458
v -39.0000000 -6.9500537 6.1999998
vn 2.7390347 -4.7435055 -2.4117541
v -39.5249977 -7.0907269 6.1999998
vn 4.7437620 -2.7380786 -2.4132581
v -39.9093246 -7.4750538 6.1999998
vn 5.4768305 0.0009658 -2.4157643
v -40.0499992 -8.0000534 6.1999998
vn 4.7463145 2.7347436 -2.4096684
v -39.9093246 -8.5250540 6.1999998
vn 1.2853371 2.1653545 -1.7341850
v 38.1490669 -8.6152058 10.0000000
vn 3.2780933 4.0778937 0.0216917
v 38.0768242 -8.5003424 9.2865705
vn 3.0313570 0.3961973 -2.6988196
v 37.9599495 -8.1442614 10.0000000
vn 4.7463355 2.7347307 -2.4096498
v 38.0906715 -8.5250540 6.1999998
vn 5.4768333 0.0009728 -2.4157572
v 37.9500008 -8.0000534 6.1999998
vn 2.9355607 4.6809931 -0.6867961
v 38.1341362 -8.5943861 8.5705156
vn 2.3287709 5.0575047 -1.1713305
v 38.3886337 -8.8538761 7.9679317
vn 2.7473152 4.7427263 -2.3907609
v 38.4749985 -8.9093800 6.1999998
vn 1.3038843 5.4589972 -1.5526057
v 38.6464500 -8.9886408 7.7653799
vn 0.0003837 5.4830027 -2.3779495
v 39.0000000 -9.0500536 6.1999998
vn 0.6451872 5.5606961 -1.6965948
v 38.8188477 -9.0341997 7.7054839
vn -0.0000033 5.5872383 -1.7816902
v 39.0000000 -9.0500536 7.6855512
vn -0.6432391 5.5612741 -1.6988319
v 39.1811485 -9.0341997 7.7054839
vn -2.7476923 4.7426062 -2.3902705
v 39.5249977 -8.9093800 6.1999998
vn -1.3045664 5.4588451 -1.5540252
v 39.3535461 -8.9886408 7.7653799
vn -2.3287830 5.0574903 -1.1713239
v 39.6113663 -8.8538761 7.9679317
vn -4.7476444 2.7299144 -2.4169936
v 39.9093246 -8.5250540 6.1999998
vn -2.9355221 4.6810575 -0.6867965
v 39.8658600 -8.5943861 8.5705156
vn -3.2906988 4.0378571 0.0390623
v 39.9231758 -8.5003424 9.2865705
vn -1.2853371 2.1653545 -1.7341847
v 39.8509331 -8.6152058 10.0000000
vn -3.0311821 0.3966962 -2.6959929
v 40.0400505 -8.1442614 10.0000000
vn -5.4755764 0.0057792 -2.4226480
v 40.0499992 -8.0000534 6.1999998
vn -2.8666754 -1.0467434 -2.6734400
v 39.9862022 -7.6396289 10.0000000
vn -4.7437620 -2.7380776 -2.4132578
v 39.9093246 -7.4750538 6.1999998
vn -2.0408583 -2.2694364 -2.6754007
v 39.7019691 -7.2191949 10.0000000
vn -2.7390323 -4.7435079 -2.4117532
v 39.5249977 -7.0907269 6.1999998
vn -0.7377976 -2.9617720 -2.6763926
v 39.2537460 -6.9811764 10.0000000
vn -0.0000046 -5.4776053 -2.4112444
v 39.0000000 -6.9500537 6.1999998
vn 0.7378021 -2.9617691 -2.6763897
v 38.7462502 -6.9811764 10.0000000
vn 2.7390399 -4.7435136 -2.4117415
v 38.4749985 -7.0907269 6.1999998
vn 2.0408626 -2.2694337 -2.6754055
v 38.2980309 -7.2191949 10.0000000
vn 4.7437830 -2.7380719 -2.4132423
v 38.0906715 -7.4750538 6.1999998
vn 2.8666756 -1.0467426 -2.6734419
v 38.0137978 -7.6396289 10.0000000
vn -0.9634356 -1.6687154 0.6911145
v 39.6250000 -6.9175220 6.0000000
vn -0.0000006 -1.9268744 0.6911190
v 39.0000000 -6.7500539 6.0000000
vn 0.9634378 -1.6687251 0.6911218
v 38.3750000 -6.9175220 6.0000000
vn 1.6687316 -0.9634448 0.6911292
v 37.9174690 -7.3750539 6.0000000
vn 1.9268706 0.0000031 0.6911163
v 37.7500000 -8.0000534 6.0000000
vn 1.6687326 0.9634403 0.6911285
v 37.9174690 -8.6250534 6.0000000
vn 0.9634364 1.6687250 0.6911213
v 38.3750000 -9.0825853 6.0000000
vn 0.0000000 1.9268748 0.6911194
v 39.0000000 -9.2500534 6.0000000
vn -0.9634361 1.6687133 0.6911128
v 39.6250000 -9.0825853 6.0000000
vn -1.6687179 0.9634351 0.6911150
v 40.0825310 -8.6250534 6.0000000
vn -1.9268674 0.0000003 0.6911142
v 40.2500000 -8.0000534 6.0000000
vn -1.6687183 -0.9634352 0.6911153
v 40.0825310 -7.3750539 6.0000000
vn -1.2853382 -2.1653552 -1.7341878
v -38.1490669 8.6150980 10.0000000
vn 1.2853382 -2.1653550 -1.7341877
v -39.8509331 8.6150980 10.0000000
vn -3.2780917 -4.0778913 0.0216917
v -38.0768242 8.5002356 9.2865705
vn 3.2906954 -4.0378547 0.0390619
v -39.9231758 8.5002356 9.2865705
vn -2.9355574 -4.6810031 -0.6867952
v -38.1341362 8.5942783 8.5705156
vn 2.9355185 -4.6810665 -0.6867955
v -39.8658600 8.5942783 8.5705156
vn -2.3287706 -5.0575013 -1.1713303
v -38.3886337 8.8537693 7.9679317
vn 2.3287828 -5.0574865 -1.1713238
v -39.6113663 8.8537693 7.9679317
vn -1.3038785 -5.4590058 -1.5526004
v -38.6464500 8.9885330 7.7653799
vn 1.3045610 -5.4588542 -1.5540205
v -39.3535461 8.9885330 7.7653799
vn -0.6451872 -5.5606966 -1.6965948
v -38.8188477 9.0340919 7.7054839
vn 0.6432382 -5.5612745 -1.6988330
v -39.1811485 9.0340919 7.7054839
vn 0.0000033 -5.5872383 -1.7816902
v -39.0000000 9.0499458 7.6855512
vn 0.0000002 1.9268715 0.6911165
v -39.0000000 6.7499461 6.0000000
vn -0.9634378 1.6687256 0.6911223
v -38.3750000 6.9174147 6.0000000
vn 0.9634364 1.6687164 0.6911145
v -39.6250000 6.9174147 6.0000000
vn 1.6687177 0.9634352 0.6911153
v -40.0825310 7.3749461 6.0000000
vn -1.6687311 0.9634451 0.6911287
v -37.9174690 7.3749461 6.0000000
vn 1.9268675 -0.0000006 0.6911142
v -40.2500000 7.9999461 6.0000000
vn -1.9268711 -0.0000032 0.6911162
v -37.7500000 7.9999461 6.0000000
vn 1.6687160 -0.9634343 0.6911130
v -40.0825310 8.6249466 6.0000000
vn -1.6687292 -0.9634403 0.6911258
v -37.9174690 8.6249466 6.0000000
vn 0.9634374 -1.6687175 0.6911162
v -39.6250000 9.0824776 6.0000000
vn -0.9634407 -1.6687281 0.6911247
v -38.3750000 9.0824776 6.0000000
vn 0.0000017 -1.9268694 0.6911156
v -39.0000000 9.2499466 6.0000000
vn -3.0313570 -0.3961968 -2.6988201
v -37.9599495 8.1441536 10.0000000
vn 3.0311821 -0.3966956 -2.6959934
v -40.0400505 8.1441536 10.0000000
vn 2.8666701 1.0467507 -2.6734352
v -39.9862022 7.6395216 10.0000000
vn -2.8666763 1.0467421 -2.6734426
v -38.0137978 7.6395216 10.0000000
vn 2.0408576 2.2694409 -2.6754105
v -39.7019653 7.2190871 10.0000000
vn -2.0408630 2.2694333 -2.6754048
v -38.2980309 7.2190871 10.0000000
vn 0.7378020 2.9617689 -2.6763890
v -39.2537460 6.9810686 10.0000000
vn -0.7378021 2.9617691 -2.6763892
v -38.7462502 6.9810686 10.0000000
vn 2.7390318 4.7435074 -2.4117544
v -39.5249977 7.0906196 6.1999998
vn 0.0000038 5.4776034 -2.4112468
v -39.0000000 6.9499464 6.1999998
vn -2.7390389 4.7435145 -2.4117408
v -38.4749985 7.0906196 6.1999998
vn -4.7437825 2.7380726 -2.4132426
v -38.0906715 7.4749460 6.1999998
vn -5.4768333 -0.0009737 -2.4157574
v -37.9500008 7.9999461 6.1999998
vn -4.7463350 -2.7347283 -2.4096508
v -38.0906715 8.5249462 6.1999998
vn -2.7473168 -4.7427278 -2.3907585
v -38.4749985 8.9092731 6.1999998
vn -0.0003805 -5.4829988 -2.3779535
v -39.0000000 9.0499458 6.1999998
vn 2.7476888 -4.7426095 -2.3902676
v -39.5249977 8.9092731 6.1999998
vn 4.7476425 -2.7299080 -2.4169960
v -39.9093246 8.5249462 6.1999998
vn 5.4755754 -0.0057805 -2.4226475
v -40.0499992 7.9999461 6.1999998
vn 4.7437611 2.7380791 -2.4132595
v -39.9093246 7.4749460 6.1999998
# 628 vertices, 0 vertices normals


usemtl material_0
f 1//1 2//2 3//3
f 3//3 2//2 4//4
f 5//5 6//6 7//7
f 7//7 6//6 8//8
f 7//7 8//8 9//9
f 5//5 10//10 6//6
f 6//6 10//10 11//11
f 6//6 11//11 12//12
f 12//12 11//11 13//13
f 12//12 13//13 14//14
f 14//14 13//13 15//15
f 14//14 15//15 16//16
f 13//13 7//7 15//15
f 15//15 7//7 9//9
f 14//14 16//16 17//17
f 17//17 16//16 18//18
f 17//17 18//18 19//19
f 6//6 12//12 20//20
f 20//20 12//12 21//21
f 20//20 21//21 22//22
f 22//22 17//17 20//20
f 20//20 17//17 19//19
f 23//23 24//24 25//25
f 25//25 24//24 26//26
f 27//27 28//28 29//29
f 29//29 28//28 30//30
f 31//31 32//32 33//33
f 33//33 32//32 34//34
f 33//33 34//34 35//35
f 36//36 37//37 31//31
f 31//31 37//37 38//38
f 31//31 38//38 39//39
f 40//40 41//41 36//36
f 36//36 41//41 42//42
f 36//36 42//42 43//43
f 44//44 45//45 40//40
f 40//40 45//45 46//46
f 40//40 46//46 41//41
f 47//47 48//48 44//44
f 44//44 48//48 49//49
f 44//44 49//49 50//50
f 51//51 52//52 47//47
f 47//47 52//52 53//53
f 47//47 53//53 54//54
f 55//55 56//56 51//51
f 51//51 56//56 57//57
f 51//51 57//57 58//58
f 33//33 35//35 55//55
f 55//55 35//35 59//59
f 55//55 59//59 60//60
f 60//60 61//61 55//55
f 55//55 61//61 62//62
f 55//55 62//62 63//63
f 63//63 56//56 55//55
f 58//58 64//64 51//51
f 51//51 64//64 65//65
f 51//51 65//65 52//52
f 54//54 48//48 47//47
f 50//50 66//66 44//44
f 44//44 66//66 45//45
f 43//43 37//37 36//36
f 39//39 67//67 31//31
f 31//31 67//67 32//32
f 7//7 13//13 68//68
f 68//68 13//13 69//69
f 17//17 70//70 14//14
f 14//14 70//70 71//71
f 72//72 73//73 74//74
f 74//74 73//73 75//75
f 74//74 75//75 76//76
f 76//76 75//75 77//77
f 76//76 77//77 78//78
f 78//78 77//77 79//79
f 78//78 79//79 80//80
f 80//80 79//79 81//81
f 80//80 81//81 82//82
f 82//82 81//81 83//83
f 82//82 83//83 84//84
f 84//84 83//83 85//85
f 84//84 85//85 86//86
f 86//86 85//85 87//87
f 86//86 87//87 88//88
f 73//73 72//72 89//89
f 89//89 72//72 90//90
f 89//89 90//90 91//91
f 91//91 90//90 92//92
f 91//91 92//92 93//93
f 93//93 92//92 94//94
f 93//93 94//94 95//95
f 95//95 94//94 96//96
f 95//95 96//96 97//97
f 97//97 96//96 98//98
f 97//97 98//98 99//99
f 99//99 98//98 100//100
f 35//35 89//89 59//59
f 59//59 89//89 91//91
f 59//59 91//91 60//60
f 60//60 91//91 93//93
f 60//60 93//93 61//61
f 61//61 93//93 95//95
f 61//61 95//95 62//62
f 62//62 95//95 97//97
f 62//62 97//97 63//63
f 63//63 97//97 99//99
f 63//63 99//99 56//56
f 56//56 99//99 100//100
f 56//56 100//100 57//57
f 57//57 100//100 98//98
f 57//57 98//98 58//58
f 58//58 98//98 96//96
f 58//58 96//96 64//64
f 64//64 96//96 94//94
f 64//64 94//94 65//65
f 65//65 94//94 92//92
f 65//65 92//92 52//52
f 52//52 92//92 90//90
f 52//52 90//90 53//53
f 53//53 90//90 72//72
f 53//53 72//72 54//54
f 54//54 72//72 74//74
f 54//54 74//74 48//48
f 48//48 74//74 76//76
f 48//48 76//76 49//49
f 49//49 76//76 78//78
f 49//49 78//78 50//50
f 50//50 78//78 80//80
f 50//50 80//80 66//66
f 66//66 80//80 82//82
f 66//66 82//82 45//45
f 45//45 82//82 84//84
f 45//45 84//84 46//46
f 46//46 84//84 86//86
f 46//46 86//86 41//41
f 41//41 86//86 88//88
f 41//41 88//88 42//42
f 42//42 88//88 87//87
f 42//42 87//87 43//43
f 43//43 87//87 85//85
f 43//43 85//85 37//37
f 37//37 85//85 83//83
f 37//37 83//83 38//38
f 38//38 83//83 81//81
f 38//38 81//81 39//39
f 39//39 81//81 79//79
f 39//39 79//79 67//67
f 67//67 79//79 77//77
f 67//67 77//77 32//32
f 32//32 77//77 75//75
f 32//32 75//75 34//34
f 34//34 75//75 73//73
f 34//34 73//73 35//35
f 35//35 73//73 89//89
f 101//101 102//102 36//36
f 36//36 102//102 40//40
f 4//4 2//2 33//33
f 33//33 2//2 31//31
f 101//101 36//36 2//2
f 2//2 36//36 31//31
f 1//1 103//103 2//2
f 2//2 103//103 101//101
f 16//16 103//103 18//18
f 18//18 103//103 1//1
f 16//16 15//15 103//103
f 103//103 15//15 104//104
f 9//9 29//29 15//15
f 15//15 29//29 104//104
f 104//104 29//29 102//102
f 102//102 29//29 30//30
f 30//30 44//44 102//102
f 102//102 44//44 40//40
f 30//30 28//28 44//44
f 44//44 28//28 47//47
f 26//26 51//51 28//28
f 28//28 51//51 47//47
f 27//27 29//29 8//8
f 8//8 29//29 9//9
f 6//6 25//25 8//8
f 8//8 25//25 27//27
f 27//27 25//25 28//28
f 28//28 25//25 26//26
f 23//23 25//25 20//20
f 20//20 25//25 6//6
f 19//19 18//18 3//3
f 3//3 18//18 1//1
f 23//23 20//20 3//3
f 3//3 20//20 19//19
f 23//23 3//3 24//24
f 24//24 3//3 4//4
f 4//4 33//33 24//24
f 24//24 33//33 55//55
f 55//55 51//51 24//24
f 24//24 51//51 26//26
f 70//70 17//17 105//105
f 105//105 17//17 22//22
f 105//105 22//22 106//106
f 106//106 22//22 21//21
f 106//106 21//21 107//107
f 107//107 21//21 12//12
f 71//71 107//107 14//14
f 14//14 107//107 12//12
f 69//69 13//13 108//108
f 108//108 13//13 11//11
f 70//70 105//105 71//71
f 71//71 105//105 106//106
f 71//71 106//106 107//107
f 68//68 69//69 109//109
f 109//109 69//69 110//110
f 110//110 69//69 108//108
f 7//7 68//68 5//5
f 5//5 68//68 109//109
f 5//5 109//109 10//10
f 10//10 109//109 110//110
f 10//10 110//110 11//11
f 11//11 110//110 108//108
f 103//103 111//111 101//101
f 101//101 111//111 112//112
f 101//101 112//112 102//102
f 102//102 112//112 113//113
f 102//102 113//113 114//114
f 114//114 113//113 115//115
f 115//115 113//113 116//116
f 116//116 113//113 117//117
f 117//117 113//113 118//118
f 118//118 113//113 119//119
f 119//119 113//113 120//120
f 120//120 113//113 121//121
f 121//121 113//113 122//122
f 122//122 113//113 123//123
f 123//123 113//113 124//124
f 124//124 113//113 125//125
f 125//125 113//113 126//126
f 126//126 113//113 127//127
f 127//127 113//113 128//128
f 129//129 130//130 103//103
f 103//103 130//130 131//131
f 103//103 131//131 132//132
f 132//132 133//133 103//103
f 103//103 133//133 134//134
f 103//103 134//134 135//135
f 135//135 136//136 103//103
f 103//103 136//136 137//137
f 103//103 137//137 138//138
f 138//138 139//139 103//103
f 103//103 139//139 140//140
f 103//103 140//140 141//141
f 141//141 142//142 103//103
f 103//103 142//142 143//143
f 103//103 143//143 144//144
f 144//144 145//145 103//103
f 103//103 145//145 146//146
f 103//103 146//146 147//147
f 147//147 148//148 103//103
f 103//103 148//148 149//149
f 103//103 149//149 150//150
f 150//150 151//151 103//103
f 103//103 151//151 152//152
f 103//103 152//152 153//153
f 153//153 154//154 103//103
f 103//103 154//154 111//111
f 111//111 155//155 112//112
f 114//114 156//156 102//102
f 102//102 156//156 157//157
f 102//102 157//157 158//158
f 158//158 159//159 102//102
f 102//102 159//159 160//160
f 102//102 160//160 161//161
f 161//161 162//162 102//102
f 102//102 162//162 163//163
f 102//102 163//163 164//164
f 164//164 165//165 102//102
f 102//102 165//165 166//166
f 102//102 166//166 167//167
f 167//167 168//168 102//102
f 102//102 168//168 104//104
f 103//103 104//104 169//169
f 169//169 104//104 170//170
f 169//169 170//170 171//171
f 171//171 172//172 169//169
f 173//173 174//174 175//175
f 175//175 174//174 176//176
f 177//177 178//178 179//179
f 179//179 178//178 180//180
f 179//179 180//180 181//181
f 177//177 182//182 178//178
f 178//178 182//182 183//183
f 178//178 183//183 184//184
f 184//184 183//183 185//185
f 184//184 185//185 186//186
f 186//186 185//185 187//187
f 186//186 187//187 188//188
f 185//185 179//179 187//187
f 187//187 179//179 181//181
f 186//186 188//188 189//189
f 189//189 188//188 190//190
f 189//189 190//190 191//191
f 178//178 184//184 192//192
f 192//192 184//184 193//193
f 192//192 193//193 194//194
f 194//194 189//189 192//192
f 192//192 189//189 191//191
f 195//195 196//196 197//197
f 197//197 196//196 198//198
f 197//197 198//198 199//199
f 199//199 198//198 200//200
f 199//199 200//200 201//201
f 201//201 200//200 202//202
f 201//201 202//202 203//203
f 203//203 202//202 204//204
f 203//203 204//204 205//205
f 205//205 204//204 206//206
f 205//205 206//206 207//207
f 207//207 206//206 208//208
f 207//207 208//208 209//209
f 209//209 208//208 210//210
f 209//209 210//210 211//211
f 211//211 210//210 212//212
f 211//211 212//212 213//213
f 213//213 212//212 214//214
f 213//213 214//214 215//215
f 215//215 214//214 216//216
f 215//215 216//216 217//217
f 217//217 216//216 218//218
f 217//217 218//218 219//219
f 219//219 218//218 220//220
f 219//219 220//220 221//221
f 221//221 220//220 222//222
f 196//196 195//195 223//223
f 223//223 195//195 224//224
f 223//223 224//224 225//225
f 225//225 224//224 226//226
f 225//225 226//226 227//227
f 227//227 226//226 228//228
f 227//227 228//228 229//229
f 229//229 228//228 230//230
f 229//229 230//230 231//231
f 231//231 230//230 232//232
f 231//231 232//232 233//233
f 233//233 232//232 234//234
f 233//233 234//234 235//235
f 235//235 234//234 236//236
f 235//235 236//236 237//237
f 237//237 236//236 238//238
f 237//237 238//238 239//239
f 239//239 238//238 240//240
f 239//239 240//240 241//241
f 241//241 240//240 242//242
f 241//241 242//242 243//243
f 243//243 242//242 244//244
f 245//245 195//195 246//246
f 246//246 195//195 197//197
f 246//246 197//197 247//247
f 247//247 197//197 199//199
f 247//247 199//199 248//248
f 248//248 199//199 201//201
f 248//248 201//201 249//249
f 249//249 201//201 203//203
f 249//249 203//203 250//250
f 250//250 203//203 205//205
f 250//250 205//205 251//251
f 251//251 205//205 207//207
f 251//251 207//207 252//252
f 252//252 207//207 209//209
f 252//252 209//209 253//253
f 253//253 209//209 211//211
f 253//253 211//211 254//254
f 254//254 211//211 213//213
f 254//254 213//213 255//255
f 255//255 213//213 215//215
f 255//255 215//215 256//256
f 256//256 215//215 217//217
f 256//256 217//217 257//257
f 257//257 217//217 219//219
f 257//257 219//219 258//258
f 258//258 219//219 221//221
f 258//258 221//221 259//259
f 259//259 221//221 222//222
f 259//259 222//222 260//260
f 260//260 222//222 220//220
f 260//260 220//220 261//261
f 261//261 220//220 218//218
f 261//261 218//218 262//262
f 262//262 218//218 216//216
f 262//262 216//216 263//263
f 263//263 216//216 214//214
f 263//263 214//214 264//264
f 264//264 214//214 212//212
f 264//264 212//212 265//265
f 265//265 212//212 210//210
f 265//265 210//210 266//266
f 266//266 210//210 208//208
f 266//266 208//208 267//267
f 267//267 208//208 206//206
f 267//267 206//206 268//268
f 268//268 206//206 204//204
f 268//268 204//204 269//269
f 269//269 204//204 202//202
f 269//269 202//202 270//270
f 270//270 202//202 200//200
f 270//270 200//200 271//271
f 271//271 200//200 198//198
f 271//271 198//198 272//272
f 272//272 198//198 196//196
f 272//272 196//196 273//273
f 273//273 196//196 223//223
f 273//273 223//223 274//274
f 274//274 223//223 225//225
f 274//274 225//225 275//275
f 275//275 225//225 227//227
f 275//275 227//227 276//276
f 276//276 227//227 229//229
f 276//276 229//229 277//277
f 277//277 229//229 231//231
f 277//277 231//231 278//278
f 278//278 231//231 233//233
f 278//278 233//233 279//279
f 279//279 233//233 235//235
f 279//279 235//235 280//280
f 280//280 235//235 237//237
f 280//280 237//237 281//281
f 281//281 237//237 239//239
f 281//281 239//239 282//282
f 282//282 239//239 241//241
f 282//282 241//241 283//283
f 283//283 241//241 243//243
f 283//283 243//243 284//284
f 284//284 243//243 244//244
f 284//284 244//244 285//285
f 285//285 244//244 242//242
f 285//285 242//242 286//286
f 286//286 242//242 240//240
f 286//286 240//240 287//287
f 287//287 240//240 238//238
f 287//287 238//238 288//288
f 288//288 238//238 236//236
f 288//288 236//236 289//289
f 289//289 236//236 234//234
f 289//289 234//234 290//290
f 290//290 234//234 232//232
f 290//290 232//232 291//291
f 291//291 232//232 230//230
f 291//291 230//230 292//292
f 292//292 230//230 228//228
f 292//292 228//228 293//293
f 293//293 228//228 226//226
f 293//293 226//226 294//294
f 294//294 226//226 224//224
f 294//294 224//224 245//245
f 245//245 224//224 195//195
f 295//295 172//172 296//296
f 296//296 172//172 171//171
f 296//296 171//171 297//297
f 297//297 171//171 170//170
f 297//297 170//170 298//298
f 298//298 170//170 104//104
f 298//298 104//104 299//299
f 299//299 104//104 168//168
f 299//299 168//168 300//300
f 300//300 168//168 167//167
f 300//300 167//167 301//301
f 301//301 167//167 166//166
f 301//301 166//166 302//302
f 302//302 166//166 165//165
f 302//302 165//165 303//303
f 303//303 165//165 164//164
f 303//303 164//164 304//304
f 304//304 164//164 163//163
f 304//304 163//163 305//305
f 305//305 163//163 162//162
f 305//305 162//162 306//306
f 306//306 162//162 161//161
f 306//306 161//161 307//307
f 307//307 161//161 160//160
f 307//307 160//160 308//308
f 308//308 160//160 159//159
f 308//308 159//159 309//309
f 309//309 159//159 158//158
f 309//309 158//158 310//310
f 310//310 158//158 157//157
f 310//310 157//157 311//311
f 311//311 157//157 156//156
f 311//311 156//156 312//312
f 312//312 156//156 114//114
f 312//312 114//114 313//313
f 313//313 114//114 115//115
f 313//313 115//115 314//314
f 314//314 115//115 116//116
f 314//314 116//116 315//315
f 315//315 116//116 117//117
f 315//315 117//117 316//316
f 316//316 117//117 118//118
f 316//316 118//118 317//317
f 317//317 118//118 119//119
f 317//317 119//119 318//318
f 318//318 119//119 120//120
f 318//318 120//120 319//319
f 319//319 120//120 121//121
f 319//319 121//121 320//320
f 320//320 121//121 122//122
f 320//320 122//122 321//321
f 321//321 122//122 123//123
f 321//321 123//123 322//322
f 322//322 123//123 124//124
f 322//322 124//124 323//323
f 323//323 124//124 125//125
f 323//323 125//125 324//324
f 324//324 125//125 126//126
f 324//324 126//126 325//325
f 325//325 126//126 127//127
f 325//325 127//127 326//326
f 326//326 127//127 128//128
f 326//326 128//128 327//327
f 327//327 128//128 328//328
f 327//327 328//328 329//329
f 329//329 328//328 330//330
f 329//329 330//330 331//331
f 331//331 330//330 332//332
f 331//331 332//332 333//333
f 333//333 332//332 334//334
f 333//333 334//334 335//335
f 335//335 334//334 155//155
f 335//335 155//155 336//336
f 336//336 155//155 111//111
f 336//336 111//111 337//337
f 337//337 111//111 154//154
f 337//337 154//154 338//338
f 338//338 154//154 153//153
f 338//338 153//153 339//339
f 339//339 153//153 152//152
f 339//339 152//152 340//340
f 340//340 152//152 151//151
f 340//340 151//151 341//341
f 341//341 151//151 150//150
f 341//341 150//150 342//342
f 342//342 150//150 149//149
f 342//342 149//149 343//343
f 343//343 149//149 148//148
f 343//343 148//148 344//344
f 344//344 148//148 147//147
f 344//344 147//147 345//345
f 345//345 147//147 146//146
f 345//345 146//146 346//346
f 346//346 146//146 145//145
f 346//346 145//145 347//347
f 347//347 145//145 144//144
f 347//347 144//144 348//348
f 348//348 144//144 143//143
f 348//348 143//143 349//349
f 349//349 143//143 142//142
f 349//349 142//142 350//350
f 350//350 142//142 141//141
f 350//350 141//141 351//351
f 351//351 141//141 140//140
f 351//351 140//140 352//352
f 352//352 140//140 139//139
f 352//352 139//139 353//353
f 353//353 139//139 138//138
f 353//353 138//138 354//354
f 354//354 138//138 137//137
f 354//354 137//137 355//355
f 355//355 137//137 136//136
f 355//355 136//136 356//356
f 356//356 136//136 135//135
f 356//356 135//135 357//357
f 357//357 135//135 134//134
f 357//357 134//134 358//358
f 358//358 134//134 133//133
f 358//358 133//133 359//359
f 359//359 133//133 132//132
f 359//359 132//132 360//360
f 360//360 132//132 131//131
f 360//360 131//131 361//361
f 361//361 131//131 130//130
f 361//361 130//130 362//362
f 362//362 130//130 129//129
f 362//362 129//129 363//363
f 363//363 129//129 103//103
f 363//363 103//103 364//364
f 364//364 103//103 169//169
f 364//364 169//169 295//295
f 295//295 169//169 172//172
f 329//329 331//331 271//271
f 271//271 331//331 333//333
f 271//271 333//333 270//270
f 270//270 333//333 335//335
f 270//270 335//335 269//269
f 269//269 335//335 336//336
f 269//269 336//336 268//268
f 268//268 336//336 337//337
f 268//268 337//337 338//338
f 268//268 338//338 267//267
f 267//267 338//338 339//339
f 267//267 339//339 266//266
f 266//266 339//339 340//340
f 266//266 340//340 265//265
f 265//265 340//340 341//341
f 265//265 341//341 342//342
f 265//265 342//342 264//264
f 264//264 342//342 343//343
f 264//264 343//343 263//263
f 263//263 343//343 344//344
f 263//263 344//344 262//262
f 262//262 344//344 345//345
f 262//262 345//345 346//346
f 262//262 346//346 261//261
f 261//261 346//346 347//347
f 261//261 347//347 260//260
f 260//260 347//347 348//348
f 260//260 348//348 259//259
f 259//259 348//348 349//349
f 259//259 349//349 350//350
f 259//259 350//350 258//258
f 258//258 350//350 351//351
f 258//258 351//351 257//257
f 257//257 351//351 352//352
f 257//257 352//352 256//256
f 256//256 352//352 353//353
f 256//256 353//353 255//255
f 255//255 353//353 354//354
f 255//255 354//354 355//355
f 255//255 355//355 254//254
f 254//254 355//355 356//356
f 254//254 356//356 253//253
f 253//253 356//356 357//357
f 253//253 357//357 252//252
f 252//252 357//357 358//358
f 252//252 358//358 359//359
f 252//252 359//359 251//251
f 251//251 359//359 360//360
f 251//251 360//360 250//250
f 250//250 360//360 361//361
f 250//250 361//361 249//249
f 249//249 361//361 362//362
f 249//249 362//362 363//363
f 249//249 363//363 248//248
f 248//248 363//363 364//364
f 248//248 364//364 247//247
f 247//247 364//364 295//295
f 247//247 295//295 246//246
f 246//246 295//295 296//296
f 246//246 296//296 297//297
f 246//246 297//297 245//245
f 245//245 297//297 298//298
f 245//245 298//298 294//294
f 294//294 298//298 299//299
f 294//294 299//299 293//293
f 293//293 299//299 300//300
f 293//293 300//300 301//301
f 293//293 301//301 292//292
f 292//292 301//301 302//302
f 292//292 302//302 291//291
f 291//291 302//302 303//303
f 291//291 303//303 290//290
f 290//290 303//303 304//304
f 290//290 304//304 305//305
f 290//290 305//305 289//289
f 289//289 305//305 306//306
f 289//289 306//306 288//288
f 288//288 306//306 307//307
f 288//288 307//307 287//287
f 287//287 307//307 308//308
f 287//287 308//308 309//309
f 287//287 309//309 286//286
f 286//286 309//309 310//310
f 286//286 310//310 285//285
f 285//285 310//310 311//311
f 285//285 311//311 284//284
f 284//284 311//311 312//312
f 284//284 312//312 313//313
f 284//284 313//313 283//283
f 283//283 313//313 314//314
f 283//283 314//314 282//282
f 282//282 314//314 315//315
f 282//282 315//315 281//281
f 281//281 315//315 316//316
f 281//281 316//316 280//280
f 280//280 316//316 317//317
f 280//280 317//317 318//318
f 280//280 318//318 279//279
f 279//279 318//318 319//319
f 279//279 319//319 278//278
f 278//278 319//319 320//320
f 278//278 320//320 277//277
f 277//277 320//320 321//321
f 277//277 321//321 322//322
f 277//277 322//322 276//276
f 276//276 322//322 323//323
f 276//276 323//323 275//275
f 275//275 323//323 324//324
f 275//275 324//324 274//274
f 274//274 324//324 325//325
f 274//274 325//325 326//326
f 274//274 326//326 273//273
f 273//273 326//326 327//327
f 273//273 327//327 272//272
f 272//272 327//327 329//329
f 272//272 329//329 271//271
f 365//365 366//366 367//367
f 367//367 366//366 368//368
f 369//369 370//370 371//371
f 371//371 370//370 372//372
f 373//373 374//374 375//375
f 375//375 374//374 376//376
f 375//375 376//376 377//377
f 378//378 379//379 373//373
f 373//373 379//379 380//380
f 373//373 380//380 381//381
f 382//382 383//383 378//378
f 378//378 383//383 384//384
f 378//378 384//384 385//385
f 386//386 387//387 382//382
f 382//382 387//387 388//388
f 382//382 388//388 383//383
f 389//389 390//390 386//386
f 386//386 390//390 391//391
f 386//386 391//391 392//392
f 393//393 394//394 389//389
f 389//389 394//394 395//395
f 389//389 395//395 396//396
f 397//397 398//398 393//393
f 393//393 398//398 399//399
f 393//393 399//399 400//400
f 375//375 377//377 397//397
f 397//397 377//377 401//401
f 397//397 401//401 402//402
f 402//402 403//403 397//397
f 397//397 403//403 404//404
f 397//397 404//404 405//405
f 405//405 398//398 397//397
f 400//400 406//406 393//393
f 393//393 406//406 407//407
f 393//393 407//407 394//394
f 396//396 390//390 389//389
f 392//392 408//408 386//386
f 386//386 408//408 387//387
f 385//385 379//379 378//378
f 381//381 409//409 373//373
f 373//373 409//409 374//374
f 155//155 334//334 128//128
f 128//128 334//334 328//328
f 328//328 334//334 330//330
f 330//330 334//334 332//332
f 179//179 185//185 410//410
f 410//410 185//185 411//411
f 189//189 412//412 186//186
f 186//186 412//412 413//413
f 414//414 415//415 416//416
f 416//416 415//415 417//417
f 416//416 417//417 418//418
f 418//418 417//417 419//419
f 418//418 419//419 420//420
f 420//420 419//419 421//421
f 420//420 421//421 422//422
f 422//422 421//421 423//423
f 422//422 423//423 424//424
f 424//424 423//423 425//425
f 424//424 425//425 426//426
f 426//426 425//425 427//427
f 426//426 427//427 428//428
f 428//428 427//427 429//429
f 428//428 429//429 430//430
f 415//415 414//414 431//431
f 431//431 414//414 432//432
f 431//431 432//432 433//433
f 433//433 432//432 434//434
f 433//433 434//434 435//435
f 435//435 434//434 436//436
f 435//435 436//436 437//437
f 437//437 436//436 438//438
f 437//437 438//438 439//439
f 439//439 438//438 440//440
f 439//439 440//440 441//441
f 441//441 440//440 442//442
f 377//377 431//431 401//401
f 401//401 431//431 433//433
f 401//401 433//433 402//402
f 402//402 433//433 435//435
f 402//402 435//435 403//403
f 403//403 435//435 437//437
f 403//403 437//437 404//404
f 404//404 437//437 439//439
f 404//404 439//439 405//405
f 405//405 439//439 441//441
f 405//405 441//441 398//398
f 398//398 441//441 442//442
f 398//398 442//442 399//399
f 399//399 442//442 440//440
f 399//399 440//440 400//400
f 400//400 440//440 438//438
f 400//400 438//438 406//406
f 406//406 438//438 436//436
f 406//406 436//436 407//407
f 407//407 436//436 434//434
f 407//407 434//434 394//394
f 394//394 434//434 432//432
f 394//394 432//432 395//395
f 395//395 432//432 414//414
f 395//395 414//414 396//396
f 396//396 414//414 416//416
f 396//396 416//416 390//390
f 390//390 416//416 418//418
f 390//390 418//418 391//391
f 391//391 418//418 420//420
f 391//391 420//420 392//392
f 392//392 420//420 422//422
f 392//392 422//422 408//408
f 408//408 422//422 424//424
f 408//408 424//424 387//387
f 387//387 424//424 426//426
f 387//387 426//426 388//388
f 388//388 426//426 428//428
f 388//388 428//428 383//383
f 383//383 428//428 430//430
f 383//383 430//430 384//384
f 384//384 430//430 429//429
f 384//384 429//429 385//385
f 385//385 429//429 427//427
f 385//385 427//427 379//379
f 379//379 427//427 425//425
f 379//379 425//425 380//380
f 380//380 425//425 423//423
f 380//380 423//423 381//381
f 381//381 423//423 421//421
f 381//381 421//421 409//409
f 409//409 421//421 419//419
f 409//409 419//419 374//374
f 374//374 419//419 417//417
f 374//374 417//417 376//376
f 376//376 417//417 415//415
f 376//376 415//415 377//377
f 377//377 415//415 431//431
f 113//113 112//112 378//378
f 378//378 112//112 382//382
f 176//176 174//174 375//375
f 375//375 174//174 373//373
f 113//113 378//378 174//174
f 174//174 378//378 373//373
f 173//173 128//128 174//174
f 174//174 128//128 113//113
f 188//188 128//128 190//190
f 190//190 128//128 173//173
f 188//188 187//187 128//128
f 128//128 187//187 155//155
f 181//181 371//371 187//187
f 187//187 371//371 155//155
f 155//155 371//371 112//112
f 112//112 371//371 372//372
f 372//372 386//386 112//112
f 112//112 386//386 382//382
f 372//372 370//370 386//386
f 386//386 370//370 389//389
f 368//368 393//393 370//370
f 370//370 393//393 389//389
f 369//369 371//371 180//180
f 180//180 371//371 181//181
f 178//178 367//367 180//180
f 180//180 367//367 369//369
f 369//369 367//367 370//370
f 370//370 367//367 368//368
f 365//365 367//367 192//192
f 192//192 367//367 178//178
f 191//191 190//190 175//175
f 175//175 190//190 173//173
f 365//365 192//192 175//175
f 175//175 192//192 191//191
f 365//365 175//175 366//366
f 366//366 175//175 176//176
f 176//176 375//375 366//366
f 366//366 375//375 397//397
f 397//397 393//393 366//366
f 366//366 393//393 368//368
f 412//412 189//189 443//443
f 443//443 189//189 194//194
f 443//443 194//194 444//444
f 444//444 194//194 193//193
f 444//444 193//193 445//445
f 445//445 193//193 184//184
f 413//413 445//445 186//186
f 186//186 445//445 184//184
f 411//411 185//185 446//446
f 446//446 185//185 183//183
f 412//412 443//443 413//413
f 413//413 443//443 444//444
f 413//413 444//444 445//445
f 410//410 411//411 447//447
f 447//447 411//411 448//448
f 448//448 411//411 446//446
f 179//179 410//410 177//177
f 177//177 410//410 447//447
f 177//177 447//447 182//182
f 182//182 447//447 448//448
f 182//182 448//448 183//183
f 183//183 448//448 446//446
f 449//449 450//450 451//451
f 451//451 450//450 452//452
f 451//451 452//452 453//453
f 450//450 454//454 452//452
f 452//452 454//454 455//455
f 452//452 455//455 456//456
f 456//456 455//455 457//457
f 456//456 457//457 458//458
f 458//458 457//457 459//459
f 458//458 459//459 460//460
f 460//460 461//461 458//458
f 458//458 461//461 462//462
f 462//462 461//461 463//463
f 462//462 463//463 464//464
f 462//462 464//464 465//465
f 465//465 464//464 466//466
f 465//465 466//466 467//467
f 468//468 469//469 467//467
f 467//467 469//469 470//470
f 467//467 470//470 465//465
f 469//469 471//471 470//470
f 470//470 471//471 472//472
f 472//472 471//471 473//473
f 472//472 473//473 474//474
f 474//474 473//473 475//475
f 474//474 475//475 476//476
f 476//476 475//475 477//477
f 476//476 477//477 478//478
f 478//478 477//477 479//479
f 478//478 479//479 480//480
f 480//480 479//479 481//481
f 480//480 481//481 453//453
f 453//453 481//481 451//451
f 482//482 456//456 483//483
f 483//483 456//456 458//458
f 483//483 458//458 484//484
f 484//484 458//458 462//462
f 484//484 462//462 485//485
f 485//485 462//462 465//465
f 485//485 465//465 486//486
f 486//486 465//465 470//470
f 486//486 470//470 487//487
f 487//487 470//470 472//472
f 487//487 472//472 488//488
f 488//488 472//472 474//474
f 488//488 474//474 489//489
f 489//489 474//474 476//476
f 489//489 476//476 490//490
f 490//490 476//476 478//478
f 490//490 478//478 491//491
f 491//491 478//478 480//480
f 491//491 480//480 492//492
f 492//492 480//480 453//453
f 492//492 453//453 493//493
f 493//493 453//453 452//452
f 493//493 452//452 482//482
f 482//482 452//452 456//456
f 468//468 449//449 469//469
f 469//469 449//449 451//451
f 469//469 451//451 481//481
f 469//469 481//481 471//471
f 471//471 481//481 479//479
f 471//471 479//479 473//473
f 473//473 479//479 477//477
f 473//473 477//477 475//475
f 449//449 468//468 450//450
f 450//450 468//468 467//467
f 450//450 467//467 454//454
f 454//454 467//467 466//466
f 454//454 466//466 455//455
f 455//455 466//466 464//464
f 455//455 464//464 457//457
f 457//457 464//464 463//463
f 457//457 463//463 459//459
f 459//459 463//463 461//461
f 459//459 461//461 460//460
f 483//483 484//484 482//482
f 482//482 484//484 493//493
f 493//493 484//484 485//485
f 493//493 485//485 492//492
f 492//492 485//485 486//486
f 492//492 486//486 491//491
f 491//491 486//486 487//487
f 491//491 487//487 490//490
f 490//490 487//487 488//488
f 490//490 488//488 489//489
f 494//494 495//495 496//496
f 496//496 495//495 497//497
f 496//496 497//497 498//498
f 498//498 497//497 499//499
f 498//498 499//499 500//500
f 500//500 499//499 501//501
f 500//500 501//501 502//502
f 502//502 501//501 503//503
f 502//502 503//503 504//504
f 504//504 503//503 505//505
f 504//504 505//505 506//506
f 507//507 508//508 509//509
f 509//509 508//508 510//510
f 510//510 508//508 511//511
f 510//510 511//511 512//512
f 512//512 511//511 513//513
f 512//512 513//513 514//514
f 514//514 513//513 515//515
f 514//514 515//515 516//516
f 516//516 515//515 517//517
f 516//516 517//517 518//518
f 495//495 494//494 519//519
f 519//519 494//494 520//520
f 519//519 520//520 521//521
f 519//519 521//521 522//522
f 522//522 521//521 523//523
f 522//522 523//523 524//524
f 524//524 523//523 525//525
f 524//524 525//525 526//526
f 509//509 527//527 507//507
f 507//507 527//527 528//528
f 507//507 528//528 508//508
f 508//508 528//528 529//529
f 508//508 529//529 511//511
f 511//511 529//529 530//530
f 511//511 530//530 513//513
f 513//513 530//530 531//531
f 513//513 531//531 515//515
f 515//515 531//531 532//532
f 515//515 532//532 517//517
f 517//517 532//532 533//533
f 517//517 533//533 518//518
f 518//518 533//533 534//534
f 518//518 534//534 516//516
f 516//516 534//534 535//535
f 516//516 535//535 514//514
f 514//514 535//535 536//536
f 514//514 536//536 512//512
f 512//512 536//536 537//537
f 512//512 537//537 510//510
f 510//510 537//537 538//538
f 510//510 538//538 509//509
f 509//509 538//538 527//527
f 494//494 496//496 520//520
f 520//520 496//496 538//538
f 520//520 538//538 537//537
f 496//496 498//498 538//538
f 538//538 498//498 500//500
f 538//538 500//500 527//527
f 527//527 500//500 502//502
f 527//527 502//502 528//528
f 528//528 502//502 504//504
f 528//528 504//504 506//506
f 506//506 505//505 528//528
f 528//528 505//505 529//529
f 529//529 505//505 503//503
f 529//529 503//503 501//501
f 529//529 501//501 530//530
f 530//530 501//501 499//499
f 530//530 499//499 497//497
f 495//495 519//519 497//497
f 497//497 519//519 531//531
f 497//497 531//531 530//530
f 519//519 522//522 531//531
f 531//531 522//522 532//532
f 532//532 522//522 524//524
f 532//532 524//524 533//533
f 533//533 524//524 526//526
f 533//533 526//526 534//534
f 534//534 526//526 525//525
f 534//534 525//525 535//535
f 535//535 525//525 523//523
f 535//535 523//523 536//536
f 536//536 523//523 521//521
f 536//536 521//521 537//537
f 537//537 521//521 520//520
f 539//539 540//540 541//541
f 541//541 540//540 542//542
f 541//541 542//542 543//543
f 540//540 544//544 542//542
f 542//542 544//544 545//545
f 542//542 545//545 546//546
f 546//546 545//545 547//547
f 546//546 547//547 548//548
f 548//548 547//547 549//549
f 548//548 549//549 550//550
f 550//550 551//551 548//548
f 548//548 551//551 552//552
f 552//552 551//551 553//553
f 552//552 553//553 554//554
f 552//552 554//554 555//555
f 555//555 554//554 556//556
f 555//555 556//556 557//557
f 558//558 559//559 557//557
f 557//557 559//559 560//560
f 557//557 560//560 555//555
f 559//559 561//561 560//560
f 560//560 561//561 562//562
f 562//562 561//561 563//563
f 562//562 563//563 564//564
f 564//564 563//563 565//565
f 564//564 565//565 566//566
f 566//566 565//565 567//567
f 566//566 567//567 568//568
f 568//568 567//567 569//569
f 568//568 569//569 570//570
f 570//570 569//569 571//571
f 570//570 571//571 543//543
f 543//543 571//571 541//541
f 572//572 564//564 573//573
f 573//573 564//564 566//566
f 573//573 566//566 574//574
f 574//574 566//566 568//568
f 574//574 568//568 575//575
f 575//575 568//568 570//570
f 575//575 570//570 576//576
f 576//576 570//570 543//543
f 576//576 543//543 577//577
f 577//577 543//543 542//542
f 577//577 542//542 578//578
f 578//578 542//542 546//546
f 578//578 546//546 579//579
f 579//579 546//546 548//548
f 579//579 548//548 580//580
f 580//580 548//548 552//552
f 580//580 552//552 581//581
f 581//581 552//552 555//555
f 581//581 555//555 582//582
f 582//582 555//555 560//560
f 582//582 560//560 583//583
f 583//583 560//560 562//562
f 583//583 562//562 572//572
f 572//572 562//562 564//564
f 539//539 541//541 558//558
f 558//558 541//541 559//559
f 559//559 541//541 561//561
f 561//561 541//541 571//571
f 561//561 571//571 563//563
f 563//563 571//571 569//569
f 563//563 569//569 565//565
f 565//565 569//569 567//567
f 539//539 558//558 540//540
f 540//540 558//558 557//557
f 540//540 557//557 544//544
f 544//544 557//557 556//556
f 544//544 556//556 545//545
f 545//545 556//556 554//554
f 545//545 554//554 547//547
f 547//547 554//554 553//553
f 547//547 553//553 549//549
f 549//549 553//553 551//551
f 549//549 551//551 550//550
f 573//573 574//574 572//572
f 572//572 574//574 583//583
f 583//583 574//574 575//575
f 583//583 575//575 582//582
f 582//582 575//575 576//576
f 582//582 576//576 581//581
f 581//581 576//576 577//577
f 581//581 577//577 580//580
f 580//580 577//577 578//578
f 580//580 578//578 579//579
f 584//584 585//585 586//586
f 586//586 585//585 587//587
f 586//586 587//587 588//588
f 588//588 587//587 589//589
f 588//588 589//589 590//590
f 590//590 589//589 591//591
f 590//590 591//591 592//592
f 592//592 591//591 593//593
f 592//592 593//593 594//594
f 594//594 593//593 595//595
f 594//594 595//595 596//596
f 597//597 598//598 599//599
f 599//599 598//598 600//600
f 600//600 598//598 601//601
f 600//600 601//601 602//602
f 602//602 601//601 603//603
f 602//602 603//603 604//604
f 604//604 603//603 605//605
f 604//604 605//605 606//606
f 606//606 605//605 607//607
f 606//606 607//607 608//608
f 584//584 609//609 585//585
f 585//585 609//609 610//610
f 610//610 609//609 611//611
f 611//611 609//609 612//612
f 611//611 612//612 613//613
f 613//613 612//612 614//614
f 613//613 614//614 615//615
f 615//615 614//614 616//616
f 599//599 617//617 597//597
f 597//597 617//617 618//618
f 597//597 618//618 598//598
f 598//598 618//618 619//619
f 598//598 619//619 601//601
f 601//601 619//619 620//620
f 601//601 620//620 603//603
f 603//603 620//620 621//621
f 603//603 621//621 605//605
f 605//605 621//621 622//622
f 605//605 622//622 607//607
f 607//607 622//622 623//623
f 607//607 623//623 608//608
f 608//608 623//623 624//624
f 608//608 624//624 606//606
f 606//606 624//624 625//625
f 606//606 625//625 604//604
f 604//604 625//625 626//626
f 604//604 626//626 602//602
f 602//602 626//626 627//627
f 602//602 627//627 600//600
f 600//600 627//627 628//628
f 600//600 628//628 599//599
f 599//599 628//628 617//617
f 584//584 586//586 609//609
f 609//609 586//586 622//622
f 609//609 622//622 621//621
f 586//586 588//588 622//622
f 622//622 588//588 590//590
f 622//622 590//590 623//623
f 623//623 590//590 592//592
f 623//623 592//592 624//624
f 624//624 592//592 594//594
f 624//624 594//594 596//596
f 596//596 595//595 624//624
f 624//624 595//595 625//625
f 625//625 595//595 593//593
f 625//625 593//593 591//591
f 625//625 591//591 626//626
f 626//626 591//591 589//589
f 626//626 589//589 587//587
f 585//585 610//610 587//587
f 587//587 610//610 627//627
f 587//587 627//627 626//626
f 610//610 611//611 627//627
f 627//627 611//611 628//628
f 628//628 611//611 613//613
f 628//628 613//613 617//617
f 617//617 613//613 615//615
f 617//617 615//615 618//618
f 618//618 615//615 616//616
f 618//618 616//616 619//619
f 619//619 616//616 614//614
f 619//619 614//614 620//620
f 620//620 614//614 612//612
f 620//620 612//612 621//621
f 621//621 612//612 609//609
# 1236 faces, 0 coords texture

# End of File
