####
#
# OBJ File Generated by Meshlab
#
####
# Object wx200_4_forearm.obj
#
# Vertices: 488
# Faces: 972
#
####
mtllib ./wx200_4_forearm.obj.mtl

vn 1.8511567 4.3657045 1.6545367
v 18.1000004 -125.0000000 11.1000004
vn 1.5707963 4.7123890 1.5707964
v 10.0000010 -125.0000000 10.0000019
vn 0.0000000 5.4940729 2.0821714
v -0.0000000 -125.0000000 11.1000004
vn -1.5707963 4.7123885 1.5707965
v -9.9999990 -125.0000000 10.0000019
vn -1.8511567 4.3657045 1.6545365
v -18.1000061 -125.0000000 11.1000004
vn -1.5707965 4.7123890 -1.5707965
v -9.9999990 -125.0000000 -9.9999981
vn -1.8511567 4.3657045 -1.6545367
v -18.1000061 -125.0000000 -11.1000004
vn 0.0000000 5.4940743 -2.0821714
v -0.0000000 -125.0000000 -11.1000004
vn 1.5707965 4.7123895 -1.5707964
v 10.0000010 -125.0000000 -9.9999981
vn 1.8511567 4.3657045 -1.6545367
v 18.1000004 -125.0000000 -11.1000004
vn -1.1107259 -3.9269896 -2.6815224
v -16.6000004 -175.7750092 -14.2500000
vn -2.6815157 -3.9269910 -1.1107208
v -17.0000000 -175.7750092 -13.8500004
vn -1.8184979 -4.2337027 -1.7536566
v -18.1000061 -175.7750092 -15.4499998
vn -2.6815157 -3.9269905 1.1107208
v -17.0000000 -175.7750092 13.8500004
vn -1.8184981 -4.2337027 1.7536564
v -18.1000061 -175.7750092 15.4499998
vn -1.1107259 -3.9269896 2.6815224
v -16.6000004 -175.7750092 14.2500000
vn 0.0000000 -5.3630333 2.2214413
v 0.0000000 -175.7750092 15.4499998
vn 1.1107259 -3.9269896 2.6815224
v 16.6000004 -175.7750092 14.2500000
vn 1.8184979 -4.2337027 1.7536566
v 18.1000004 -175.7750092 15.4499998
vn 2.6815159 -3.9269910 1.1107208
v 17.0000000 -175.7750092 13.8500004
vn 2.6815157 -3.9269910 -1.1107208
v 17.0000000 -175.7750092 -13.8500004
vn 1.8184981 -4.2337027 -1.7536566
v 18.1000004 -175.7750092 -15.4499998
vn 1.1107259 -3.9269896 -2.6815224
v 16.6000004 -175.7750092 -14.2500000
vn 0.0000000 -5.3630338 -2.2214413
v 0.0000000 -175.7750092 -15.4499998
vn 4.9805794 -2.2400522 -0.9278612
v 21.1000004 -172.7750092 -14.2073593
vn 4.9805794 -2.2400522 0.9278612
v 21.1000004 -172.7750092 14.2073593
vn 1.8184981 -1.7536570 4.2337017
v 18.1000004 -172.7750092 18.4500008
vn 0.0000000 -2.2214420 5.3630342
v 0.0000000 -172.7750092 18.4500008
vn -1.8184981 -1.7536570 4.2337017
v -18.1000061 -172.7750092 18.4500008
vn 2.1605253 0.3219896 5.2824912
v 18.1000004 -160.5500031 18.4500008
vn 0.0000000 0.3815684 6.2599268
v 0.0000001 -160.5500031 18.4500008
vn -2.1605253 0.3219896 5.2824912
v -18.1000061 -160.5500031 18.4500008
vn 1.8511567 2.1725323 4.1324286
v 18.1000004 -127.9777908 14.4643707
vn 0.0000000 2.7340493 5.2005057
v -0.0000000 -127.9777908 14.4643707
vn -1.8511567 2.1725323 4.1324296
v -18.1000061 -127.9777908 14.4643707
vn 5.0087986 2.2662280 -0.8588673
v 21.1000004 -128.0000000 -9.9630451
vn 5.0087991 2.2662282 0.8588673
v 21.1000004 -128.0000000 9.9630451
vn 5.0088010 1.1277543 2.1451361
v 21.1000004 -129.4707031 11.6246719
vn 5.3021941 0.1386042 2.2739091
v 21.1000004 -160.7328644 15.4499998
vn 4.9805822 -0.9278565 2.2400529
v 21.1000004 -171.5323639 15.4499998
vn 1.8184981 -1.7536570 -4.2337017
v 18.1000004 -172.7750092 -18.4500008
vn 0.0000000 -2.2214420 -5.3630342
v 0.0000000 -172.7750092 -18.4500008
vn -1.8184981 -1.7536570 -4.2337017
v -18.1000061 -172.7750092 -18.4500008
vn 2.1605253 0.3219896 -5.2824912
v 18.1000004 -160.5500031 -18.4500008
vn 0.0000000 0.3815684 -6.2599268
v 0.0000001 -160.5500031 -18.4500008
vn -2.1605253 0.3219896 -5.2824912
v -18.1000061 -160.5500031 -18.4500008
vn 1.8511567 2.1725323 -4.1324291
v 18.1000004 -127.9777908 -14.4643707
vn 0.0000000 2.7340493 -5.2005057
v -0.0000000 -127.9777908 -14.4643707
vn -1.8511567 2.1725323 -4.1324291
v -18.1000061 -127.9777908 -14.4643707
vn 5.0088010 1.1277544 -2.1451364
v 21.1000004 -129.4707031 -11.6246719
vn 5.3021936 0.1386042 -2.2739091
v 21.1000004 -160.7328644 -15.4499998
vn 4.9805822 -0.9278565 -2.2400529
v 21.1000004 -171.5323639 -15.4499998
vn -4.9805794 -2.2400522 0.9278612
v -21.1000061 -172.7750092 14.2073593
vn -4.9805794 -2.2400522 -0.9278612
v -21.1000061 -172.7750092 -14.2073593
vn -5.0087986 2.2662280 0.8588673
v -21.1000061 -128.0000000 9.9630451
vn -5.0087991 2.2662282 -0.8588673
v -21.1000061 -128.0000000 -9.9630451
vn -5.0088010 1.1277544 2.1451364
v -21.1000061 -129.4707031 11.6246719
vn -5.3021936 0.1386042 2.2739091
v -21.1000061 -160.7328644 15.4499998
vn -4.9805822 -0.9278565 2.2400529
v -21.1000061 -171.5323639 15.4499998
vn -5.0088010 1.1277543 -2.1451361
v -21.1000061 -129.4707031 -11.6246719
vn -5.3021941 0.1386042 -2.2739091
v -21.1000061 -160.7328644 -15.4499998
vn -4.9805822 -0.9278565 -2.2400529
v -21.1000061 -171.5323639 -15.4499998
vn -2.8797946 -3.1147163 0.0000000
v -19.0000000 -210.2500000 -0.0000000
vn -2.8797903 -3.0085831 0.8061505
v -19.0000000 -209.9007416 2.6528952
vn -2.8797901 -3.0085831 -0.8061504
v -19.0000000 -209.9007416 -2.6528952
vn -2.8797989 -2.6974242 -1.5573580
v -19.0000000 -208.8767548 -5.1250000
vn -2.8797984 -2.6974244 1.5573580
v -19.0000000 -208.8767548 5.1250000
vn -2.8797889 -2.2024384 -2.2024341
v -19.0000000 -207.2478485 -7.2478447
vn -2.8797894 -2.2024384 2.2024341
v -19.0000000 -207.2478485 7.2478447
vn -2.8797939 -1.5573562 -2.6974244
v -19.0000000 -205.1250000 -8.8767605
vn -2.8797932 -1.5573564 2.6974244
v -19.0000000 -205.1250000 8.8767605
vn -2.8797932 -0.8061475 -3.0085850
v -19.0000000 -202.6528931 -9.9007397
vn -2.8797936 -0.8061474 3.0085845
v -19.0000000 -202.6528931 9.9007397
vn -2.8797929 0.0000000 -3.1147161
v -19.0000000 -200.0000000 -10.2500000
vn -2.8797929 -0.0000000 3.1147161
v -19.0000000 -200.0000000 10.2500000
vn -2.8797936 0.8061474 -3.0085845
v -19.0000000 -197.3471069 -9.9007397
vn -2.8797932 0.8061475 3.0085850
v -19.0000000 -197.3471069 9.9007397
vn -2.8797932 1.5573564 -2.6974244
v -19.0000000 -194.8750000 -8.8767605
vn -2.8797939 1.5573562 2.6974244
v -19.0000000 -194.8750000 8.8767605
vn -2.8797894 2.2024384 -2.2024341
v -19.0000000 -192.7521515 -7.2478447
vn -2.8797891 2.2024384 2.2024341
v -19.0000000 -192.7521515 7.2478447
vn -2.8797984 2.6974244 -1.5573580
v -19.0000000 -191.1232452 -5.1250000
vn -2.8797989 2.6974242 1.5573580
v -19.0000000 -191.1232452 5.1250000
vn -2.8797901 3.0085831 -0.8061505
v -19.0000000 -190.0992584 -2.6528952
vn -2.8797901 3.0085831 0.8061504
v -19.0000000 -190.0992584 2.6528952
vn -2.8797946 3.1147163 -0.0000000
v -19.0000000 -189.7500000 -0.0000000
vn -3.4033914 -0.8061475 -3.0085847
v -17.0000000 -202.6528931 -9.9007397
vn -3.4033928 0.0000000 -3.1147161
v -17.0000000 -200.0000000 -10.2500000
vn -3.4033918 0.8061475 -3.0085850
v -17.0000000 -197.3471069 -9.9007397
vn -3.4033914 1.5573562 -2.6974242
v -17.0000000 -194.8750000 -8.8767605
vn -3.4033961 2.2024384 -2.2024341
v -17.0000000 -192.7521515 -7.2478447
vn -3.4033866 2.6974244 -1.5573580
v -17.0000000 -191.1232452 -5.1250000
vn -3.4033952 3.0085831 -0.8061504
v -17.0000000 -190.0992584 -2.6528952
vn -3.4033909 3.1147161 0.0000000
v -17.0000000 -189.7500000 -0.0000000
vn -3.4033952 3.0085831 0.8061505
v -17.0000000 -190.0992584 2.6528952
vn -3.4033866 2.6974244 1.5573580
v -17.0000000 -191.1232452 5.1250000
vn -3.4033961 2.2024384 2.2024341
v -17.0000000 -192.7521515 7.2478447
vn -3.4033914 1.5573564 2.6974244
v -17.0000000 -194.8750000 8.8767605
vn -3.4033918 0.8061475 3.0085845
v -17.0000000 -197.3471069 9.9007397
vn -3.4033928 0.0000000 3.1147161
v -17.0000000 -200.0000000 10.2500000
vn -3.4033914 -0.8061475 3.0085850
v -17.0000000 -202.6528931 9.9007397
vn -3.4033914 -1.5573562 2.6974242
v -17.0000000 -205.1250000 8.8767605
vn -3.4033961 -2.2024384 2.2024341
v -17.0000000 -207.2478485 7.2478447
vn -3.4033866 -2.6974244 1.5573580
v -17.0000000 -208.8767548 5.1250000
vn -3.4033957 -3.0085831 0.8061504
v -17.0000000 -209.9007416 2.6528952
vn -3.4033906 -3.1147161 -0.0000000
v -17.0000000 -210.2500000 -0.0000000
vn -3.4033957 -3.0085831 -0.8061505
v -17.0000000 -209.9007416 -2.6528952
vn -3.4033866 -2.6974244 -1.5573580
v -17.0000000 -208.8767548 -5.1250000
vn -3.4033961 -2.2024384 -2.2024341
v -17.0000000 -207.2478485 -7.2478447
vn -3.4033914 -1.5573564 -2.6974244
v -17.0000000 -205.1250000 -8.8767605
vn -4.9805765 -0.9278683 -2.2400599
v -17.0000000 -209.0843201 -13.8500004
vn -1.8184946 -1.7536559 -4.2337074
v -16.6000004 -209.2500000 -14.2500000
vn -1.8184893 -4.2337127 -1.7536628
v -16.6000004 -211.2500000 -12.2500000
vn -4.9805574 -2.2400668 -0.9278618
v -17.0000000 -210.8500061 -12.0843143
vn 4.9805565 -2.2400656 -0.9278618
v 17.0000000 -210.8500061 -12.0843143
vn 1.8184912 -4.2337141 -1.7536628
v 16.6000004 -211.2500000 -12.2500000
vn 4.9805775 -0.9278686 -2.2400601
v 17.0000000 -209.0843201 -13.8500004
vn 1.8184946 -1.7536564 -4.2337079
v 16.6000004 -209.2500000 -14.2500000
vn 1.8184893 -4.2337127 1.7536628
v 16.6000004 -211.2500000 12.2500000
vn 4.9805579 -2.2400668 0.9278618
v 17.0000000 -210.8500061 12.0843143
vn 4.9805760 -0.9278683 2.2400599
v 17.0000000 -209.0843201 13.8500004
vn 1.8184946 -1.7536559 4.2337074
v 16.6000004 -209.2500000 14.2500000
vn -1.8184912 -4.2337141 1.7536628
v -16.6000004 -211.2500000 12.2500000
vn -1.8184946 -1.7536564 4.2337079
v -16.6000004 -209.2500000 14.2500000
vn -4.9805770 -0.9278686 2.2400603
v -17.0000000 -209.0843201 13.8500004
vn -4.9805565 -2.2400656 0.9278616
v -17.0000000 -210.8500061 12.0843143
vn 3.4033918 0.8061475 3.0085850
v 17.0000000 -197.3471069 9.9007397
vn 3.4033914 1.5573562 2.6974244
v 17.0000000 -194.8750000 8.8767605
vn 3.4033961 2.2024384 2.2024341
v 17.0000000 -192.7521515 7.2478447
vn 3.4033914 -1.5573564 2.6974244
v 17.0000000 -205.1250000 8.8767605
vn 3.4033914 -0.8061474 3.0085845
v 17.0000000 -202.6528931 9.9007397
vn 3.4033928 -0.0000000 3.1147161
v 17.0000000 -200.0000000 10.2500000
vn 3.4033906 -3.1147163 0.0000000
v 17.0000000 -210.2500000 -0.0000000
vn 3.4033957 -3.0085831 0.8061505
v 17.0000000 -209.9007416 2.6528952
vn 3.4033866 -2.6974244 1.5573580
v 17.0000000 -208.8767548 5.1250000
vn 3.4033914 -1.5573562 -2.6974244
v 17.0000000 -205.1250000 -8.8767605
vn 3.4033961 -2.2024384 -2.2024341
v 17.0000000 -207.2478485 -7.2478447
vn 3.4033866 -2.6974242 -1.5573580
v 17.0000000 -208.8767548 -5.1250000
vn 3.4033918 0.8061474 -3.0085845
v 17.0000000 -197.3471069 -9.9007397
vn 3.4033928 0.0000000 -3.1147161
v 17.0000000 -200.0000000 -10.2500000
vn 3.4033914 -0.8061475 -3.0085850
v 17.0000000 -202.6528931 -9.9007397
vn 3.4033909 3.1147163 -0.0000000
v 17.0000000 -189.7500000 -0.0000000
vn 3.4033952 3.0085831 -0.8061505
v 17.0000000 -190.0992584 -2.6528952
vn 3.4033866 2.6974244 -1.5573580
v 17.0000000 -191.1232452 -5.1250000
vn 3.4033961 -2.2024384 2.2024341
v 17.0000000 -207.2478485 7.2478447
vn 3.4033866 2.6974242 1.5573580
v 17.0000000 -191.1232452 5.1250000
vn 3.4033952 3.0085831 0.8061504
v 17.0000000 -190.0992584 2.6528952
vn 3.4033961 2.2024384 -2.2024341
v 17.0000000 -192.7521515 -7.2478447
vn 3.4033914 1.5573564 -2.6974244
v 17.0000000 -194.8750000 -8.8767605
vn 3.4033957 -3.0085831 -0.8061504
v 17.0000000 -209.9007416 -2.6528952
vn 2.8797898 -3.0085831 -0.8061505
v 19.0000000 -209.9007416 -2.6528952
vn 2.8797898 3.0085831 -0.8061504
v 19.0000000 -190.0992584 -2.6528952
vn 2.8797946 -3.1147161 -0.0000000
v 19.0000000 -210.2500000 -0.0000000
vn 2.8797946 3.1147161 0.0000000
v 19.0000000 -189.7500000 -0.0000000
vn 2.8797898 -3.0085831 0.8061504
v 19.0000000 -209.9007416 2.6528952
vn 2.8797898 3.0085831 0.8061505
v 19.0000000 -190.0992584 2.6528952
vn 2.8797984 -2.6974244 1.5573580
v 19.0000000 -208.8767548 5.1250000
vn 2.8797991 2.6974244 1.5573580
v 19.0000000 -191.1232452 5.1250000
vn 2.8797894 -2.2024384 2.2024341
v 19.0000000 -207.2478485 7.2478447
vn 2.8797889 2.2024384 2.2024341
v 19.0000000 -192.7521515 7.2478447
vn 2.8797936 -1.5573562 2.6974242
v 19.0000000 -205.1250000 8.8767605
vn 2.8797941 1.5573564 2.6974244
v 19.0000000 -194.8750000 8.8767605
vn 2.8797941 -0.8061475 3.0085850
v 19.0000000 -202.6528931 9.9007397
vn 2.8797939 0.8061475 3.0085845
v 19.0000000 -197.3471069 9.9007397
vn 2.8797929 0.0000000 3.1147161
v 19.0000000 -200.0000000 10.2500000
vn 2.8797984 2.6974244 -1.5573580
v 19.0000000 -191.1232452 -5.1250000
vn 2.8797991 -2.6974244 -1.5573580
v 19.0000000 -208.8767548 -5.1250000
vn 2.8797894 2.2024384 -2.2024341
v 19.0000000 -192.7521515 -7.2478447
vn 2.8797889 -2.2024384 -2.2024341
v 19.0000000 -207.2478485 -7.2478447
vn 2.8797936 1.5573562 -2.6974242
v 19.0000000 -194.8750000 -8.8767605
vn 2.8797941 -1.5573564 -2.6974244
v 19.0000000 -205.1250000 -8.8767605
vn 2.8797941 0.8061475 -3.0085850
v 19.0000000 -197.3471069 -9.9007397
vn 2.8797939 -0.8061475 -3.0085845
v 19.0000000 -202.6528931 -9.9007397
vn 2.8797929 0.0000000 -3.1147161
v 19.0000000 -200.0000000 -10.2500000
vn -1.5707963 -4.7123880 -1.5707964
v -10.0000000 -55.0000000 -10.0000000
vn 1.5707963 -4.7123880 -1.5707965
v 10.0000000 -55.0000000 -10.0000000
vn 1.5707965 -4.7123885 1.5707965
v 10.0000000 -55.0000000 10.0000000
vn -1.5707965 -4.7123885 1.5707964
v -10.0000000 -55.0000000 10.0000000
vn -0.1515523 0.2371481 -6.2651806
v 19.0000000 -23.5000000 -14.4500017
vn -3.4446981 0.9269716 -2.9640141
v 19.0000000 -22.0075722 -14.2220726
vn -3.0432661 0.1847896 -3.1302633
v 19.0000000 -2.7518578 -14.4500017
vn -3.4446981 1.7694290 -2.5522089
v 19.0000000 -20.6512127 -13.5590668
vn -3.3574922 2.3787746 -2.0239058
v 19.0000000 -19.5545807 -12.5214300
vn -3.2717440 2.7021570 -1.5894897
v 19.0000000 -19.4455261 -12.3609076
vn -3.2778046 2.8852844 -1.2254201
v 19.0000000 -19.3581085 -12.1876497
vn -3.2028863 2.9895830 -0.9610751
v 19.0000000 -19.2937908 -12.0045547
vn -3.1884444 3.0363572 -0.8029395
v 19.0000000 -17.5592461 -6.0174050
vn -3.5342979 2.1787572 2.1787572
v 19.0000000 -3.0052037 -3.0052056
vn -3.5342922 1.1791351 2.8466835
v 19.0000000 -1.6264046 -3.9264898
vn -3.2366223 3.0829546 -0.5856725
v 19.0000000 -17.5264282 -5.8803353
vn -3.5342939 2.8466835 1.1791351
v 19.0000000 -3.9264879 -1.6264066
vn -3.2367141 3.1241841 -0.2952665
v 19.0000000 -17.5066223 -5.7407899
vn -3.1885958 3.1398578 -0.0738047
v 19.0000000 -17.5000000 -5.6000018
vn -3.5342917 3.0812283 0.0000000
v 19.0000000 -4.2500000 -0.0000019
vn -3.1885958 3.1398516 0.0738044
v 19.0000000 -17.5000000 5.5999980
vn -3.5342939 2.8466835 -1.1791351
v 19.0000000 -3.9264879 1.6264027
vn -3.2355797 3.1242714 0.2945381
v 19.0000000 -17.5066223 5.7407861
vn -3.2354681 3.0828536 0.5863979
v 19.0000000 -17.5264282 5.8803315
vn -3.5342979 2.1787572 -2.1787572
v 19.0000000 -3.0052037 3.0052018
vn -3.1884444 3.0364511 0.8029658
v 19.0000000 -17.5592461 6.0174012
vn -3.0432658 0.1847896 3.1302633
v 19.0000000 -2.7518578 14.4499979
vn -3.1974168 2.9907718 0.9577070
v 19.0000000 -19.2937908 12.0045509
vn -3.2721312 2.8841093 1.2287937
v 19.0000000 -19.3581085 12.1876459
vn -3.2717440 2.7021570 1.5894897
v 19.0000000 -19.4455261 12.3609037
vn -3.3574922 2.3787861 2.0239134
v 19.0000000 -19.5545807 12.5214262
vn -3.4446981 1.7694299 2.5522101
v 19.0000000 -20.6512127 13.5590630
vn -3.4446981 0.9269711 2.9640131
v 19.0000000 -22.0075722 14.2220688
vn -0.1515523 0.2371481 6.2651806
v 19.0000000 -23.5000000 14.4499979
vn -3.5342922 1.1791351 -2.8466835
v 19.0000000 -1.6264046 3.9264860
vn -2.9329195 0.9533895 2.9675524
v 19.0000000 -0.8042937 14.1513681
vn -2.9058173 1.7931733 2.5443306
v 19.0000000 0.9643165 13.2829189
vn -3.1325746 0.6267748 -3.0784018
v 19.0000000 -0.0000000 4.2499981
vn -2.8874488 2.4601684 1.9038939
v 19.0000000 2.3914621 11.9244490
vn -2.8819556 2.9202905 1.0699729
v 19.0000000 3.3460083 10.2007818
vn -2.7308581 1.2280254 -2.8197732
v 19.0000000 1.4973118 4.5618944
vn -2.8245561 3.0984197 0.0927822
v 19.0000000 3.7402456 8.2702999
vn -2.7308578 2.2517757 -2.0949159
v 19.0000000 2.7455537 5.4457006
vn -2.7308581 2.9009552 -1.0215808
v 19.0000000 3.5370874 6.7544012
vn -3.1325746 0.6267749 3.0784020
v 19.0000000 -0.0000000 -4.2500019
vn -2.9058173 1.7931733 -2.5443306
v 19.0000000 0.9643165 -13.2829227
vn -2.9329195 0.9533894 -2.9675527
v 19.0000000 -0.8042937 -14.1513720
vn -2.7308581 1.2280254 2.8197730
v 19.0000000 1.4973118 -4.5618982
vn -2.8819695 2.9202762 -1.0700117
v 19.0000000 3.3460083 -10.2007856
vn -2.8874285 2.4601784 -1.9038739
v 19.0000000 2.3914621 -11.9244528
vn -2.8245823 3.0984237 -0.0927620
v 19.0000000 3.7402456 -8.2703037
vn -2.7308578 2.2517757 2.0949159
v 19.0000000 2.7455537 -5.4457045
vn -2.7308581 2.9009547 1.0215807
v 19.0000000 3.5370874 -6.7544050
vn 4.4771276 0.1703714 -4.4013166
v 22.2338104 0.6512441 -12.2161913
vn 4.4853911 0.6024346 -4.3565388
v 22.5314350 0.6756889 -11.9106436
vn 5.2634068 0.2336474 -2.2976370
v 23.0000000 0.5894913 -11.4500017
vn 4.5522442 0.8664851 -4.2390785
v 22.7429256 0.8081088 -11.6691694
vn 5.3157949 0.5619977 -2.1960080
v 23.0000000 0.8451337 -11.3964338
vn 5.1939421 0.7899005 -2.2427876
v 23.0000000 1.0960695 -11.3239498
vn 5.4751320 0.7286056 -1.9669439
v 23.0000000 1.3409009 -11.2329550
vn 2.1384740 2.1527846 -4.4537263
v 21.3953552 1.2721460 -13.0546465
vn 4.6384611 0.7691402 -4.1450686
v 22.3315620 1.2999626 -12.0576677
vn 2.3024557 2.9717836 -3.7842374
v 22.0269756 2.1784389 -12.1858015
vn 5.5172167 1.1420566 -1.6958550
v 23.0000000 2.1083627 -10.8437319
vn 4.7881513 2.4013994 -3.2239132
v 22.5344753 2.6425958 -11.2000294
vn 3.7306945 3.8972983 -2.5860248
v 22.5167580 3.0057206 -10.8954630
vn 2.3468900 3.9757972 -2.8345778
v 22.4476757 2.9425941 -11.0840073
vn 2.3024411 4.6781564 -1.6791477
v 22.6793995 3.4782574 -9.8033972
vn 2.1729674 5.2361455 -0.6816289
v 22.7500000 3.7311096 -8.4202480
vn 5.2611289 2.2682981 -0.4530798
v 23.0000000 3.4325840 -8.6836443
vn 5.4355059 1.9750142 -0.8152484
v 23.0000000 3.1839499 -9.5155153
vn 5.4873075 1.6473010 -1.2693291
v 23.0000000 2.7379777 -10.2568016
vn 4.4561977 4.4208484 -0.2735207
v 22.7996120 3.6882064 -8.3148146
vn 4.6996517 4.1406059 -0.0197375
v 22.8836308 3.6043084 -8.2951021
vn 4.9418573 3.7712142 -0.1926259
v 22.9279461 3.5513277 -8.3841257
vn 4.4517374 4.4210811 0.0810860
v 22.8223209 3.6680527 -8.2659130
vn 4.5389538 4.3283987 0.0559136
v 22.8554363 3.6344016 -8.2719622
vn 2.2234502 5.3411436 -0.3497595
v 22.7500000 3.7345400 -8.3702908
vn 2.0559120 1.5995414 -4.9143171
v 20.7978210 0.3682615 -13.6521816
vn 2.0520697 1.1517826 -5.1328630
v 20.3587379 -0.6223260 -14.0912638
vn 1.9710819 0.5566699 -5.2982640
v 20.0903130 -1.6720895 -14.3596897
vn 2.1381886 0.1378555 -5.3571820
v 20.0000000 -2.7518578 -14.4500017
vn 2.0998898 5.2758651 0.1656671
v 22.7500000 3.7402456 -8.2703037
vn 2.2174160 5.3504343 -0.3056231
v 22.7500000 3.7375853 -8.3203077
vn 5.4762912 0.7282358 1.9654849
v 23.0000000 1.3409009 11.2329512
vn 4.5399461 0.8045959 4.2646480
v 22.7015095 0.7689428 11.7198801
vn 5.1842561 0.7922480 2.2507777
v 23.0000000 1.0960695 11.3239460
vn 5.3081980 0.5677467 2.2020400
v 23.0000000 0.8451337 11.3964300
vn 5.2635794 0.2337392 2.2974424
v 23.0000000 0.5894913 11.4499979
vn 4.4637690 0.6337258 4.3755126
v 22.5019550 0.6674350 11.9419508
vn 4.4869041 0.1797225 4.3903089
v 22.2338104 0.6512441 12.2161875
vn 2.3013868 4.6776567 1.6820407
v 22.6792431 3.4779556 9.8044710
vn 5.2606516 2.2688417 0.4522242
v 23.0000000 3.4325840 8.6836405
vn 2.1744499 5.2345619 0.6809406
v 22.7500000 3.7311096 8.4202442
vn 4.9344378 3.7834032 0.1835511
v 22.9251080 3.5550451 8.3761511
vn 4.4622130 4.4139624 0.2838571
v 22.7996216 3.6881983 8.3147917
vn 4.6817694 4.1614304 0.0202049
v 22.8803940 3.6078625 8.2913294
vn 4.5301814 4.3381281 -0.0582919
v 22.8532753 3.6366434 8.2709789
vn 2.3480465 3.9320860 2.8577037
v 22.4468651 2.9411995 11.0866756
vn 4.8288145 3.1155968 2.4644320
v 22.7564583 2.8739893 10.5873413
vn 5.5066023 1.6441213 1.2386131
v 23.0000000 2.7402830 10.2539396
vn 5.4353294 1.9757369 0.8141346
v 23.0000000 3.1841979 9.5149374
vn 4.9502454 2.3840935 3.0071819
v 22.7755260 2.5066574 10.9114809
vn 2.3160403 3.0275221 3.7549486
v 22.0256424 2.1758356 12.1885452
vn 5.5169282 1.1251917 1.7099614
v 23.0000000 2.1114647 10.8415775
vn 4.7076373 0.7598583 4.0720606
v 22.5574665 1.1407249 11.8276224
vn 4.2556076 1.1432050 4.3767123
v 21.8404102 1.6257529 12.5562429
vn 2.1180069 2.1402121 4.4775662
v 21.3953552 1.2721460 13.0546427
vn 4.4499989 4.4229608 -0.0807012
v 22.8223209 3.6680527 8.2659092
vn 5.5402741 0.7676560 1.8532858
v 23.0000000 -1.7220755 -4.1574597
vn 5.0231380 2.4464869 0.5080338
v 23.0000000 3.3952630 -7.1501842
vn 5.3355145 0.4520483 2.2026806
v 23.0000000 -0.0000000 -4.5000019
vn 5.0778170 1.9559236 1.4768838
v 23.0000000 2.7058039 -5.7799511
vn 5.1186290 1.0827388 2.1558278
v 23.0000000 1.4966332 -4.8361292
vn 5.5402746 1.4184427 1.4184426
v 23.0000000 -3.1819806 -3.1819825
vn 4.9805794 -0.9278595 -2.2400525
v 23.0000000 -50.7573586 -11.4500017
vn 4.9805794 -2.2400525 -0.9278604
v 23.0000000 -52.0000000 -10.2073612
vn 5.5402737 1.8532857 0.7676561
v 23.0000000 -4.1574578 -1.7220774
vn 5.5402737 2.0059817 0.0000000
v 23.0000000 -4.5000000 -0.0000019
vn 4.9805799 -2.2400527 0.9278604
v 23.0000000 -52.0000000 10.2073574
vn 5.5402737 1.8532858 -0.7676560
v 23.0000000 -4.1574578 1.7220736
vn 5.5402746 1.4184426 -1.4184427
v 23.0000000 -3.1819806 3.1819787
vn 5.5402741 0.7676562 -1.8532859
v 23.0000000 -1.7220755 4.1574559
vn 4.9805794 -0.9278595 2.2400525
v 23.0000000 -50.7573586 11.4499979
vn 5.3355145 0.4520483 -2.2026806
v 23.0000000 -0.0000000 4.4999981
vn 5.0231342 2.4464889 -0.5079892
v 23.0000000 3.3952630 7.1501803
vn 5.1186309 1.0827383 -2.1558261
v 23.0000000 1.4966332 4.8361259
vn 5.0778170 1.9559234 -1.4768840
v 23.0000000 2.7058039 5.7799473
vn 2.2234454 5.3411493 0.3497603
v 22.7500000 3.7345400 8.3702869
vn 2.2174082 5.3504419 0.3056250
v 22.7500000 3.7375853 8.3203039
vn 2.0998867 5.2758684 -0.1656708
v 22.7500000 3.7402456 8.2702999
vn 2.1944346 1.0726447 -5.2728367
v 22.7500000 -0.0000000 4.2499981
vn 2.0054703 1.9711084 -4.6606455
v 22.7500000 1.4973118 4.5618944
vn 2.0283294 3.6348701 -3.4857941
v 22.7500000 2.7455537 5.4457006
vn 2.0568044 4.6931238 -1.7368839
v 22.7500000 3.5370874 6.7544012
vn 2.3935957 2.0951247 -5.0580773
v 22.7500000 -1.6264046 3.9264860
vn 2.3935969 3.8712838 -3.8712840
v 22.7500000 -3.0052037 3.0052018
vn 2.3935957 5.0580773 -2.0951242
v 22.7500000 -3.9264879 1.6264027
vn 2.3935959 5.4748240 -0.0000000
v 22.7500000 -4.2500000 -0.0000019
vn 2.3935957 5.0580773 2.0951247
v 22.7500000 -3.9264879 -1.6264066
vn 2.3935969 3.8712840 3.8712838
v 22.7500000 -3.0052037 -3.0052056
vn 2.3935957 2.0951242 5.0580773
v 22.7500000 -1.6264046 -3.9264898
vn 2.1944349 1.0726447 5.2728367
v 22.7500000 -0.0000000 -4.2500019
vn 2.0054688 1.9711087 4.6606469
v 22.7500000 1.4973118 -4.5618982
vn 2.0283294 3.6348703 3.4857941
v 22.7500000 2.7455537 -5.4457045
vn 2.0568044 4.6931238 1.7368840
v 22.7500000 3.5370874 -6.7544050
vn 1.8184940 -1.7536564 -4.2336974
v 20.0000000 -52.0000000 -14.4500017
vn 2.0559120 1.5995414 4.9143171
v 20.7978210 0.3682615 13.6521778
vn 2.0520692 1.1517826 5.1328630
v 20.3587379 -0.6223260 14.0912600
vn 1.9710819 0.5566700 5.2982640
v 20.0903130 -1.6720895 14.3596859
vn 2.1381886 0.1378555 5.3571820
v 20.0000000 -2.7518578 14.4499979
vn 1.8184979 -4.2337027 -1.7536569
v 20.0000000 -55.0000000 -11.4500017
vn 1.8184979 -4.2337017 1.7536564
v 20.0000000 -55.0000000 11.4499979
vn 1.8184941 -1.7536567 4.2336984
v 20.0000000 -52.0000000 14.4499979
vn 3.2717440 2.7021570 -1.5894897
v -19.0000000 -19.4455261 -12.3609076
vn 3.3574922 2.3787861 -2.0239134
v -19.0000000 -19.5545807 -12.5214300
vn 3.0432661 0.1847896 -3.1302633
v -19.0000000 -2.7518578 -14.4500017
vn 3.4446981 1.7694299 -2.5522101
v -19.0000000 -20.6512127 -13.5590668
vn 3.4446981 0.9269711 -2.9640131
v -19.0000000 -22.0075722 -14.2220726
vn 0.1515523 0.2371481 -6.2651806
v -19.0000000 -23.5000000 -14.4500017
vn 2.9329195 0.9533895 -2.9675524
v -19.0000000 -0.8042937 -14.1513720
vn 3.5342922 1.1791351 2.8466835
v -19.0000000 -1.6264046 -3.9264898
vn 3.5342979 2.1787572 2.1787572
v -19.0000000 -3.0052037 -3.0052056
vn 3.1884444 3.0364511 -0.8029657
v -19.0000000 -17.5592461 -6.0174050
vn 3.2354681 3.0828536 -0.5863979
v -19.0000000 -17.5264282 -5.8803353
vn 3.5342939 2.8466835 1.1791351
v -19.0000000 -3.9264879 -1.6264066
vn 3.2355797 3.1242714 -0.2945381
v -19.0000000 -17.5066223 -5.7407899
vn 3.1885958 3.1398516 -0.0738044
v -19.0000000 -17.5000000 -5.6000018
vn 3.5342917 3.0812283 0.0000000
v -19.0000000 -4.2500000 -0.0000019
vn 3.1885958 3.1398578 0.0738047
v -19.0000000 -17.5000000 5.5999980
vn 3.5342939 2.8466835 -1.1791351
v -19.0000000 -3.9264879 1.6264027
vn 3.2367141 3.1241841 0.2952665
v -19.0000000 -17.5066223 5.7407861
vn 3.2366223 3.0829546 0.5856725
v -19.0000000 -17.5264282 5.8803315
vn 3.5342979 2.1787572 -2.1787572
v -19.0000000 -3.0052037 3.0052018
vn 3.1884444 3.0363572 0.8029395
v -19.0000000 -17.5592461 6.0174012
vn 3.0432658 0.1847896 3.1302633
v -19.0000000 -2.7518578 14.4499979
vn 3.2028863 2.9895833 0.9610750
v -19.0000000 -19.2937908 12.0045509
vn 3.2778046 2.8852844 1.2254201
v -19.0000000 -19.3581085 12.1876459
vn 3.2717440 2.7021570 1.5894897
v -19.0000000 -19.4455261 12.3609037
vn 3.3574922 2.3787746 2.0239058
v -19.0000000 -19.5545807 12.5214262
vn 3.4446981 1.7694290 2.5522089
v -19.0000000 -20.6512127 13.5590630
vn 3.4446981 0.9269714 2.9640138
v -19.0000000 -22.0075722 14.2220688
vn 0.1515523 0.2371481 6.2651806
v -19.0000000 -23.5000000 14.4499979
vn 2.9058173 1.7931733 -2.5443306
v -19.0000000 0.9643165 -13.2829227
vn 3.1325746 0.6267749 3.0784018
v -19.0000000 0.0000000 -4.2500019
vn 2.8874285 2.4601784 -1.9038739
v -19.0000000 2.3914621 -11.9244528
vn 2.8819695 2.9202762 -1.0700117
v -19.0000000 3.3460083 -10.2007856
vn 2.7308581 1.2280254 2.8197732
v -19.0000000 1.4973118 -4.5618982
vn 2.8245823 3.0984235 -0.0927620
v -19.0000000 3.7402456 -8.2703037
vn 2.7308578 2.2517757 2.0949159
v -19.0000000 2.7455537 -5.4457045
vn 2.7308581 2.9009552 1.0215808
v -19.0000000 3.5370874 -6.7544050
vn 3.5342922 1.1791351 -2.8466835
v -19.0000000 -1.6264046 3.9264860
vn 2.9329195 0.9533894 2.9675527
v -19.0000000 -0.8042937 14.1513681
vn 2.9058173 1.7931733 2.5443306
v -19.0000000 0.9643165 13.2829189
vn 3.1325746 0.6267749 -3.0784020
v -19.0000000 0.0000000 4.2499981
vn 2.8874488 2.4601684 1.9038939
v -19.0000000 2.3914621 11.9244490
vn 2.8819556 2.9202905 1.0699729
v -19.0000000 3.3460083 10.2007818
vn 2.7308581 1.2280254 -2.8197730
v -19.0000000 1.4973118 4.5618944
vn 2.8245561 3.0984197 0.0927822
v -19.0000000 3.7402456 8.2702999
vn 2.7308578 2.2517757 -2.0949159
v -19.0000000 2.7455537 5.4457006
vn 2.7308581 2.9009547 -1.0215807
v -19.0000000 3.5370874 6.7544012
vn 3.1974168 2.9907718 -0.9577070
v -19.0000000 -19.2937908 -12.0045547
vn 3.2721312 2.8841093 -1.2287937
v -19.0000000 -19.3581085 -12.1876497
vn -5.4751320 0.7286056 -1.9669439
v -23.0000000 1.3409009 -11.2329550
vn -4.5522442 0.8664851 -4.2390785
v -22.7429256 0.8081088 -11.6691694
vn -5.1939425 0.7899005 -2.2427876
v -23.0000000 1.0960695 -11.3239498
vn -5.3157949 0.5619977 -2.1960077
v -23.0000000 0.8451337 -11.3964338
vn -5.2634072 0.2336474 -2.2976370
v -23.0000000 0.5894913 -11.4500017
vn -4.4853911 0.6024338 -4.3565388
v -22.5314350 0.6756889 -11.9106436
vn -4.4771276 0.1703714 -4.4013166
v -22.2338104 0.6512441 -12.2161913
vn -2.3211007 4.6400161 -1.6955492
v -22.6793995 3.4782574 -9.8033972
vn -5.2611289 2.2682981 -0.4530798
v -23.0000000 3.4325840 -8.6836443
vn -2.1729674 5.2361455 -0.6816289
v -22.7500000 3.7311096 -8.4202480
vn -4.9418573 3.7712142 -0.1926259
v -22.9279461 3.5513277 -8.3841257
vn -4.6996517 4.1406059 -0.0197375
v -22.8836308 3.6043084 -8.2951021
vn -2.3468900 3.9757969 -2.8345780
v -22.4476757 2.9425941 -11.0840073
vn -3.7351642 3.8963013 -2.5769968
v -22.5167580 3.0057206 -10.8954630
vn -5.4252987 1.9746623 -0.8400023
v -23.0000000 3.1839499 -9.5155153
vn -4.7890353 2.4015555 -3.2221484
v -22.5344753 2.6425958 -11.2000294
vn -2.3024554 2.9717834 -3.7842374
v -22.0269756 2.1784389 -12.1858015
vn -5.5168657 1.1428330 -1.6957752
v -23.0000000 2.1083627 -10.8437319
vn -4.6384611 0.7691402 -4.1450682
v -22.3315620 1.2999626 -12.0576677
vn -2.1384740 2.1527846 -4.4537263
v -21.3953552 1.2721460 -13.0546465
vn -5.4626174 1.6861326 -1.2611401
v -23.0000000 2.7379777 -10.2568016
vn -4.4561982 4.4208479 -0.2735206
v -22.7996120 3.6882064 -8.3148146
vn -4.5389538 4.3283987 0.0559136
v -22.8554363 3.6344016 -8.2719622
vn -4.4517374 4.4210811 0.0810859
v -22.8223209 3.6680527 -8.2659130
vn -2.0559120 1.5995414 -4.9143171
v -20.7978210 0.3682615 -13.6521816
vn -2.0520692 1.1517826 -5.1328630
v -20.3587379 -0.6223260 -14.0912638
vn -1.9710819 0.5566700 -5.2982640
v -20.0903130 -1.6720895 -14.3596897
vn -2.1381886 0.1378555 -5.3571820
v -20.0000000 -2.7518578 -14.4500017
vn -2.2234502 5.3411441 -0.3497595
v -22.7500000 3.7345400 -8.3702908
vn -2.2174160 5.3504343 -0.3056231
v -22.7500000 3.7375853 -8.3203077
vn -2.0998898 5.2758651 0.1656671
v -22.7500000 3.7402456 -8.2703037
vn -4.4869041 0.1797225 4.3903089
v -22.2338104 0.6512441 12.2161875
vn -4.4637685 0.6337268 4.3755121
v -22.5019550 0.6674350 11.9419508
vn -5.2635789 0.2337392 2.2974424
v -23.0000000 0.5894913 11.4499979
vn -4.5399461 0.8045959 4.2646484
v -22.7015095 0.7689428 11.7198801
vn -5.3081980 0.5677467 2.2020400
v -23.0000000 0.8451337 11.3964300
vn -5.1842556 0.7922480 2.2507777
v -23.0000000 1.0960695 11.3239460
vn -5.3317471 0.8800703 2.0688028
v -23.0000000 1.3409009 11.2329512
vn -2.1180069 2.1402121 4.4775658
v -21.3953552 1.2721460 13.0546427
vn -4.2556086 1.1432052 4.3767123
v -21.8404102 1.6257529 12.5562429
vn -2.3635359 2.9959760 3.6996553
v -22.0256424 2.1758356 12.1885452
vn -4.7283263 0.9283129 3.9884100
v -22.5574665 1.1407249 11.8276224
vn -4.9419007 2.2680917 3.0845661
v -22.7755260 2.5066574 10.9114809
vn -5.4101911 1.1214101 1.8494318
v -23.0000000 2.1114647 10.8415775
vn -5.5066023 1.6441212 1.2386130
v -23.0000000 2.7402830 10.2539396
vn -4.8288145 3.1155968 2.4644320
v -22.7564583 2.8739893 10.5873413
vn -2.3013868 4.6776571 1.6820408
v -22.6792431 3.4779556 9.8044710
vn -2.3480465 3.9320860 2.8577037
v -22.4468651 2.9411995 11.0866756
vn -2.1744499 5.2345619 0.6809406
v -22.7500000 3.7311096 8.4202442
vn -5.2606511 2.2688417 0.4522242
v -23.0000000 3.4325840 8.6836405
vn -5.4353285 1.9757369 0.8141346
v -23.0000000 3.1841979 9.5149374
vn -4.9344378 3.7834029 0.1835512
v -22.9251080 3.5550451 8.3761511
vn -4.4622135 4.4139624 0.2838570
v -22.7996216 3.6881983 8.3147917
vn -4.6817694 4.1614304 0.0202050
v -22.8803940 3.6078625 8.2913294
vn -4.5301814 4.3381281 -0.0582921
v -22.8532753 3.6366434 8.2709789
vn -4.4499989 4.4229608 -0.0807012
v -22.8223209 3.6680527 8.2659092
vn -4.9805794 -0.9278595 -2.2400525
v -23.0000000 -50.7573586 -11.4500017
vn -5.5402741 1.4184425 1.4184427
v -23.0000000 -3.1819806 -3.1819825
vn -5.5402741 0.7676562 1.8532858
v -23.0000000 -1.7220755 -4.1574597
vn -5.0231380 2.4464872 0.5080338
v -23.0000000 3.3952630 -7.1501842
vn -5.3355145 0.4520483 2.2026806
v -23.0000000 0.0000000 -4.5000019
vn -5.0778170 1.9559236 1.4768838
v -23.0000000 2.7058039 -5.7799511
vn -5.1186295 1.0827388 2.1558278
v -23.0000000 1.4966332 -4.8361292
vn -4.9805799 -2.2400527 -0.9278604
v -23.0000000 -52.0000000 -10.2073612
vn -5.5402737 1.8532858 0.7676560
v -23.0000000 -4.1574578 -1.7220774
vn -5.5402737 2.0059819 0.0000000
v -23.0000000 -4.5000000 -0.0000019
vn -4.9805794 -2.2400525 0.9278604
v -23.0000000 -52.0000000 10.2073574
vn -5.5402741 1.8532857 -0.7676562
v -23.0000000 -4.1574578 1.7220736
vn -5.5402741 1.4184427 -1.4184425
v -23.0000000 -3.1819806 3.1819787
vn -4.9805794 -0.9278595 2.2400525
v -23.0000000 -50.7573586 11.4499979
vn -5.5402737 0.7676560 -1.8532858
v -23.0000000 -1.7220755 4.1574559
vn -5.0231342 2.4464891 -0.5079892
v -23.0000000 3.3952630 7.1501803
vn -5.3355150 0.4520483 -2.2026808
v -23.0000000 0.0000000 4.4999981
vn -5.0778170 1.9559234 -1.4768839
v -23.0000000 2.7058039 5.7799473
vn -5.1186314 1.0827383 -2.1558261
v -23.0000000 1.4966332 4.8361259
vn -2.0998867 5.2758684 -0.1656707
v -22.7500000 3.7402456 8.2702999
vn -2.2174082 5.3504419 0.3056250
v -22.7500000 3.7375853 8.3203039
vn -2.2234454 5.3411493 0.3497603
v -22.7500000 3.7345400 8.3702869
vn -2.0568044 4.6931238 -1.7368840
v -22.7500000 3.5370874 6.7544012
vn -2.0283294 3.6348701 -3.4857941
v -22.7500000 2.7455537 5.4457006
vn -2.0054700 1.9711084 -4.6606455
v -22.7500000 1.4973118 4.5618944
vn -2.1944346 1.0726447 -5.2728367
v -22.7500000 0.0000000 4.2499981
vn -2.3935957 2.0951242 -5.0580773
v -22.7500000 -1.6264046 3.9264860
vn -2.3935966 3.8712840 -3.8712838
v -22.7500000 -3.0052037 3.0052018
vn -2.3935955 5.0580773 -2.0951245
v -22.7500000 -3.9264879 1.6264027
vn -2.3935957 5.4748240 0.0000000
v -22.7500000 -4.2500000 -0.0000019
vn -2.3935957 5.0580773 2.0951242
v -22.7500000 -3.9264879 -1.6264066
vn -2.3935966 3.8712838 3.8712840
v -22.7500000 -3.0052037 -3.0052056
vn -2.3935955 2.0951245 5.0580773
v -22.7500000 -1.6264046 -3.9264898
vn -2.1944346 1.0726448 5.2728367
v -22.7500000 0.0000000 -4.2500019
vn -2.0568044 4.6931238 1.7368839
v -22.7500000 3.5370874 -6.7544050
vn -2.0283294 3.6348705 3.4857941
v -22.7500000 2.7455537 -5.4457045
vn -2.0054686 1.9711087 4.6606469
v -22.7500000 1.4973118 -4.5618982
vn -1.8184940 -1.7536567 -4.2336979
v -20.0000000 -52.0000000 -14.4500017
vn -2.0559120 1.5995414 4.9143171
v -20.7978210 0.3682615 13.6521778
vn -2.0520697 1.1517826 5.1328630
v -20.3587379 -0.6223260 14.0912600
vn -1.9710819 0.5566699 5.2982640
v -20.0903130 -1.6720895 14.3596859
vn -2.1381886 0.1378555 5.3571820
v -20.0000000 -2.7518578 14.4499979
vn -1.8184979 -4.2337027 -1.7536565
v -20.0000000 -55.0000000 -11.4500017
vn -1.8184979 -4.2337017 1.7536569
v -20.0000000 -55.0000000 11.4499979
vn -1.8184941 -1.7536564 4.2336979
v -20.0000000 -52.0000000 14.4499979
vn 0.0000000 0.4742962 -6.2471762
v -0.0000014 -23.5000000 -14.4500017
vn 0.0000000 0.4742962 6.2471762
v -0.0000014 -23.5000000 14.4499979
vn 0.0020624 5.3477736 -3.2604966
v -6.3333335 -19.4939194 -12.4377060
vn -0.0000613 5.3959370 -3.1609144
v 6.3333335 -19.4939194 -12.4377060
vn 0.0000072 6.1181917 1.3997390
v -6.3333335 -17.5511112 5.9882269
vn -0.0006810 6.1051817 1.4676384
v 6.3333335 -17.5511112 5.9882269
vn -0.0020624 5.3477736 3.2604966
v 6.3333335 -19.4939194 12.4377022
vn 0.0000613 5.3959370 3.1609144
v -6.3333335 -19.4939194 12.4377022
vn -0.0000072 6.1181917 -1.3997390
v 6.3333335 -17.5511112 -5.9882307
vn 0.0006810 6.1051817 -1.4676384
v -6.3333335 -17.5511112 -5.9882307
# 488 vertices, 0 vertices normals


usemtl material_0
f 1//1 2//2 3//3
f 3//3 2//2 4//4
f 3//3 4//4 5//5
f 5//5 4//4 6//6
f 5//5 6//6 7//7
f 7//7 6//6 8//8
f 8//8 6//6 9//9
f 8//8 9//9 10//10
f 10//10 9//9 1//1
f 1//1 9//9 2//2
f 11//11 12//12 13//13
f 13//13 12//12 14//14
f 13//13 14//14 15//15
f 15//15 14//14 16//16
f 15//15 16//16 17//17
f 17//17 16//16 18//18
f 17//17 18//18 19//19
f 19//19 18//18 20//20
f 19//19 20//20 21//21
f 19//19 21//21 22//22
f 22//22 21//21 23//23
f 22//22 23//23 24//24
f 24//24 23//23 11//11
f 24//24 11//11 13//13
f 25//25 26//26 22//22
f 22//22 26//26 19//19
f 27//27 28//28 19//19
f 19//19 28//28 17//17
f 17//17 28//28 29//29
f 17//17 29//29 15//15
f 30//30 31//31 27//27
f 27//27 31//31 28//28
f 28//28 31//31 32//32
f 28//28 32//32 29//29
f 1//1 3//3 33//33
f 33//33 3//3 34//34
f 34//34 3//3 5//5
f 34//34 5//5 35//35
f 30//30 33//33 31//31
f 31//31 33//33 34//34
f 31//31 34//34 32//32
f 32//32 34//34 35//35
f 10//10 1//1 36//36
f 36//36 1//1 37//37
f 1//1 33//33 37//37
f 37//37 33//33 38//38
f 30//30 39//39 33//33
f 33//33 39//39 38//38
f 27//27 40//40 30//30
f 30//30 40//40 39//39
f 19//19 26//26 27//27
f 27//27 26//26 40//40
f 22//22 24//24 41//41
f 41//41 24//24 42//42
f 42//42 24//24 13//13
f 42//42 13//13 43//43
f 44//44 41//41 45//45
f 45//45 41//41 42//42
f 45//45 42//42 46//46
f 46//46 42//42 43//43
f 47//47 48//48 10//10
f 10//10 48//48 8//8
f 8//8 48//48 49//49
f 8//8 49//49 7//7
f 44//44 45//45 47//47
f 47//47 45//45 48//48
f 48//48 45//45 46//46
f 48//48 46//46 49//49
f 10//10 36//36 47//47
f 47//47 36//36 50//50
f 44//44 47//47 51//51
f 51//51 47//47 50//50
f 41//41 44//44 52//52
f 52//52 44//44 51//51
f 22//22 41//41 25//25
f 25//25 41//41 52//52
f 50//50 36//36 51//51
f 51//51 36//36 37//37
f 51//51 37//37 39//39
f 39//39 37//37 38//38
f 40//40 26//26 39//39
f 39//39 26//26 25//25
f 39//39 25//25 51//51
f 51//51 25//25 52//52
f 53//53 54//54 15//15
f 15//15 54//54 13//13
f 5//5 7//7 55//55
f 55//55 7//7 56//56
f 5//5 55//55 35//35
f 35//35 55//55 57//57
f 32//32 35//35 58//58
f 58//58 35//35 57//57
f 29//29 32//32 59//59
f 59//59 32//32 58//58
f 15//15 29//29 53//53
f 53//53 29//29 59//59
f 7//7 49//49 56//56
f 56//56 49//49 60//60
f 46//46 61//61 49//49
f 49//49 61//61 60//60
f 43//43 62//62 46//46
f 46//46 62//62 61//61
f 13//13 54//54 43//43
f 43//43 54//54 62//62
f 57//57 55//55 58//58
f 58//58 55//55 56//56
f 58//58 56//56 61//61
f 61//61 56//56 60//60
f 62//62 54//54 61//61
f 61//61 54//54 53//53
f 61//61 53//53 58//58
f 58//58 53//53 59//59
f 63//63 64//64 65//65
f 65//65 64//64 66//66
f 66//66 64//64 67//67
f 66//66 67//67 68//68
f 68//68 67//67 69//69
f 68//68 69//69 70//70
f 70//70 69//69 71//71
f 70//70 71//71 72//72
f 72//72 71//71 73//73
f 72//72 73//73 74//74
f 74//74 73//73 75//75
f 74//74 75//75 76//76
f 76//76 75//75 77//77
f 76//76 77//77 78//78
f 78//78 77//77 79//79
f 78//78 79//79 80//80
f 80//80 79//79 81//81
f 80//80 81//81 82//82
f 82//82 81//81 83//83
f 82//82 83//83 84//84
f 84//84 83//83 85//85
f 84//84 85//85 86//86
f 87//87 72//72 88//88
f 88//88 72//72 74//74
f 88//88 74//74 89//89
f 89//89 74//74 76//76
f 89//89 76//76 90//90
f 90//90 76//76 78//78
f 90//90 78//78 91//91
f 91//91 78//78 80//80
f 91//91 80//80 92//92
f 92//92 80//80 82//82
f 92//92 82//82 93//93
f 93//93 82//82 84//84
f 93//93 84//84 94//94
f 94//94 84//84 86//86
f 94//94 86//86 95//95
f 95//95 86//86 85//85
f 95//95 85//85 96//96
f 96//96 85//85 83//83
f 96//96 83//83 97//97
f 97//97 83//83 81//81
f 97//97 81//81 98//98
f 98//98 81//81 79//79
f 98//98 79//79 99//99
f 99//99 79//79 77//77
f 99//99 77//77 100//100
f 100//100 77//77 75//75
f 100//100 75//75 101//101
f 101//101 75//75 73//73
f 101//101 73//73 102//102
f 102//102 73//73 71//71
f 102//102 71//71 103//103
f 103//103 71//71 69//69
f 103//103 69//69 104//104
f 104//104 69//69 67//67
f 104//104 67//67 105//105
f 105//105 67//67 64//64
f 105//105 64//64 106//106
f 106//106 64//64 63//63
f 106//106 63//63 107//107
f 107//107 63//63 65//65
f 107//107 65//65 108//108
f 108//108 65//65 66//66
f 108//108 66//66 109//109
f 109//109 66//66 68//68
f 109//109 68//68 110//110
f 110//110 68//68 70//70
f 110//110 70//70 87//87
f 87//87 70//70 72//72
f 12//12 11//11 111//111
f 111//111 11//11 112//112
f 113//113 114//114 112//112
f 112//112 114//114 111//111
f 115//115 116//116 117//117
f 117//117 116//116 118//118
f 118//118 116//116 112//112
f 112//112 116//116 113//113
f 119//119 116//116 120//120
f 120//120 116//116 115//115
f 20//20 18//18 121//121
f 121//121 18//18 122//122
f 119//119 120//120 122//122
f 122//122 120//120 121//121
f 119//119 122//122 123//123
f 123//123 122//122 124//124
f 124//124 125//125 123//123
f 123//123 125//125 126//126
f 126//126 114//114 123//123
f 123//123 114//114 113//113
f 121//121 127//127 20//20
f 20//20 127//127 128//128
f 20//20 128//128 129//129
f 120//120 130//130 121//121
f 121//121 130//130 131//131
f 121//121 131//131 132//132
f 115//115 133//133 120//120
f 120//120 133//133 134//134
f 120//120 134//134 135//135
f 117//117 136//136 115//115
f 115//115 136//136 137//137
f 115//115 137//137 138//138
f 21//21 139//139 117//117
f 117//117 139//139 140//140
f 117//117 140//140 141//141
f 20//20 142//142 21//21
f 21//21 142//142 143//143
f 21//21 143//143 144//144
f 135//135 145//145 120//120
f 120//120 145//145 130//130
f 132//132 127//127 121//121
f 129//129 146//146 20//20
f 20//20 146//146 147//147
f 20//20 147//147 142//142
f 144//144 148//148 21//21
f 21//21 148//148 149//149
f 21//21 149//149 139//139
f 141//141 136//136 117//117
f 138//138 150//150 115//115
f 115//115 150//150 133//133
f 87//87 88//88 111//111
f 111//111 88//88 89//89
f 111//111 89//89 12//12
f 12//12 89//89 90//90
f 12//12 90//90 91//91
f 91//91 92//92 12//12
f 12//12 92//92 93//93
f 12//12 93//93 94//94
f 12//12 94//94 14//14
f 14//14 94//94 95//95
f 14//14 95//95 96//96
f 96//96 97//97 14//14
f 14//14 97//97 98//98
f 14//14 98//98 99//99
f 14//14 99//99 125//125
f 125//125 99//99 100//100
f 125//125 100//100 101//101
f 101//101 102//102 125//125
f 125//125 102//102 126//126
f 126//126 102//102 103//103
f 126//126 103//103 104//104
f 104//104 105//105 126//126
f 126//126 105//105 106//106
f 126//126 106//106 114//114
f 114//114 106//106 107//107
f 114//114 107//107 108//108
f 108//108 109//109 114//114
f 114//114 109//109 110//110
f 114//114 110//110 111//111
f 111//111 110//110 87//87
f 14//14 125//125 16//16
f 16//16 125//125 124//124
f 151//151 152//152 153//153
f 153//153 152//152 154//154
f 153//153 154//154 155//155
f 155//155 154//154 156//156
f 155//155 156//156 157//157
f 157//157 156//156 158//158
f 157//157 158//158 159//159
f 159//159 158//158 160//160
f 159//159 160//160 161//161
f 161//161 160//160 162//162
f 161//161 162//162 163//163
f 163//163 162//162 164//164
f 163//163 164//164 165//165
f 152//152 151//151 166//166
f 166//166 151//151 167//167
f 166//166 167//167 168//168
f 168//168 167//167 169//169
f 168//168 169//169 170//170
f 170//170 169//169 171//171
f 170//170 171//171 172//172
f 172//172 171//171 173//173
f 172//172 173//173 174//174
f 155//155 134//134 153//153
f 153//153 134//134 133//133
f 153//153 133//133 151//151
f 151//151 133//133 150//150
f 151//151 150//150 167//167
f 167//167 150//150 138//138
f 167//167 138//138 169//169
f 169//169 138//138 137//137
f 169//169 137//137 171//171
f 171//171 137//137 136//136
f 171//171 136//136 173//173
f 173//173 136//136 141//141
f 173//173 141//141 174//174
f 174//174 141//141 140//140
f 174//174 140//140 172//172
f 172//172 140//140 139//139
f 172//172 139//139 170//170
f 170//170 139//139 149//149
f 170//170 149//149 168//168
f 168//168 149//149 148//148
f 168//168 148//148 166//166
f 166//166 148//148 144//144
f 166//166 144//144 152//152
f 152//152 144//144 143//143
f 152//152 143//143 154//154
f 154//154 143//143 142//142
f 154//154 142//142 156//156
f 156//156 142//142 147//147
f 156//156 147//147 158//158
f 158//158 147//147 146//146
f 158//158 146//146 160//160
f 160//160 146//146 129//129
f 160//160 129//129 162//162
f 162//162 129//129 128//128
f 162//162 128//128 164//164
f 164//164 128//128 127//127
f 164//164 127//127 165//165
f 165//165 127//127 132//132
f 165//165 132//132 163//163
f 163//163 132//132 131//131
f 163//163 131//131 161//161
f 161//161 131//131 130//130
f 161//161 130//130 159//159
f 159//159 130//130 145//145
f 159//159 145//145 157//157
f 157//157 145//145 135//135
f 157//157 135//135 155//155
f 155//155 135//135 134//134
f 116//116 119//119 113//113
f 113//113 119//119 123//123
f 23//23 118//118 11//11
f 11//11 118//118 112//112
f 118//118 23//23 117//117
f 117//117 23//23 21//21
f 122//122 18//18 124//124
f 124//124 18//18 16//16
f 175//175 176//176 6//6
f 6//6 176//176 9//9
f 176//176 177//177 9//9
f 9//9 177//177 2//2
f 4//4 178//178 6//6
f 6//6 178//178 175//175
f 2//2 177//177 4//4
f 4//4 177//177 178//178
f 179//179 180//180 181//181
f 181//181 180//180 182//182
f 181//181 182//182 183//183
f 183//183 184//184 181//181
f 181//181 184//184 185//185
f 181//181 185//185 186//186
f 186//186 187//187 181//181
f 181//181 187//187 188//188
f 181//181 188//188 189//189
f 187//187 190//190 188//188
f 188//188 190//190 191//191
f 191//191 190//190 192//192
f 191//191 192//192 193//193
f 191//191 193//193 194//194
f 194//194 193//193 195//195
f 194//194 195//195 196//196
f 196//196 195//195 197//197
f 196//196 197//197 198//198
f 196//196 198//198 199//199
f 199//199 198//198 200//200
f 199//199 200//200 201//201
f 201//201 200//200 202//202
f 201//201 202//202 203//203
f 203//203 204//204 201//201
f 201//201 204//204 205//205
f 201//201 205//205 206//206
f 206//206 207//207 201//201
f 201//201 207//207 208//208
f 199//199 201//201 209//209
f 209//209 201//201 210//210
f 209//209 210//210 211//211
f 209//209 211//211 212//212
f 212//212 211//211 213//213
f 212//212 213//213 214//214
f 212//212 214//214 215//215
f 215//215 214//214 216//216
f 215//215 216//216 217//217
f 217//217 216//216 218//218
f 219//219 220//220 189//189
f 189//189 220//220 221//221
f 189//189 221//221 181//181
f 222//222 223//223 219//219
f 219//219 223//223 224//224
f 219//219 224//224 220//220
f 223//223 222//222 225//225
f 225//225 222//222 226//226
f 225//225 226//226 227//227
f 228//228 229//229 230//230
f 230//230 229//229 231//231
f 230//230 231//231 232//232
f 232//232 231//231 233//233
f 233//233 231//231 234//234
f 228//228 235//235 236//236
f 236//236 235//235 237//237
f 236//236 237//237 234//234
f 234//234 237//237 238//238
f 238//238 237//237 239//239
f 238//238 239//239 240//240
f 240//240 239//239 241//241
f 240//240 241//241 242//242
f 237//237 241//241 239//239
f 243//243 244//244 242//242
f 242//242 244//244 245//245
f 242//242 245//245 246//246
f 247//247 248//248 243//243
f 243//243 248//248 249//249
f 243//243 249//249 244//244
f 250//250 251//251 247//247
f 247//247 251//251 248//248
f 242//242 246//246 240//240
f 240//240 246//246 238//238
f 234//234 231//231 236//236
f 236//236 231//231 229//229
f 236//236 229//229 228//228
f 252//252 243//243 225//225
f 225//225 243//243 242//242
f 225//225 242//242 223//223
f 223//223 242//242 241//241
f 223//223 241//241 224//224
f 224//224 241//241 237//237
f 224//224 237//237 235//235
f 224//224 235//235 220//220
f 220//220 235//235 253//253
f 220//220 253//253 221//221
f 221//221 253//253 254//254
f 221//221 254//254 255//255
f 256//256 181//181 255//255
f 255//255 181//181 221//221
f 257//257 258//258 225//225
f 225//225 258//258 252//252
f 250//250 247//247 257//257
f 257//257 247//247 258//258
f 258//258 247//247 252//252
f 252//252 247//247 243//243
f 259//259 260//260 261//261
f 261//261 260//260 262//262
f 262//262 260//260 263//263
f 263//263 260//260 264//264
f 263//263 264//264 265//265
f 266//266 267//267 268//268
f 268//268 267//267 269//269
f 268//268 269//269 270//270
f 270//270 269//269 271//271
f 270//270 271//271 272//272
f 273//273 274//274 266//266
f 266//266 274//274 275//275
f 266//266 275//275 276//276
f 274//274 273//273 277//277
f 277//277 273//273 278//278
f 277//277 278//278 279//279
f 279//279 278//278 259//259
f 259//259 278//278 280//280
f 259//259 280//280 260//260
f 260//260 280//280 264//264
f 264//264 280//280 265//265
f 265//265 280//280 281//281
f 265//265 281//281 282//282
f 282//282 281//281 278//278
f 278//278 281//281 280//280
f 279//279 275//275 277//277
f 277//277 275//275 274//274
f 276//276 267//267 266//266
f 272//272 283//283 270//270
f 232//232 233//233 230//230
f 230//230 233//233 234//234
f 230//230 234//234 238//238
f 238//238 246//246 230//230
f 230//230 246//246 245//245
f 230//230 245//245 244//244
f 230//230 244//244 284//284
f 284//284 244//244 285//285
f 284//284 285//285 286//286
f 286//286 285//285 287//287
f 286//286 287//287 288//288
f 284//284 289//289 230//230
f 230//230 289//289 290//290
f 290//290 289//289 291//291
f 291//291 289//289 292//292
f 291//291 292//292 293//293
f 291//291 293//293 294//294
f 294//294 293//293 295//295
f 294//294 295//295 296//296
f 297//297 263//263 296//296
f 296//296 263//263 298//298
f 296//296 298//298 294//294
f 299//299 300//300 297//297
f 297//297 300//300 267//267
f 297//297 267//267 263//263
f 263//263 267//267 276//276
f 263//263 276//276 275//275
f 301//301 302//302 299//299
f 299//299 302//302 300//300
f 275//275 279//279 263//263
f 263//263 279//279 259//259
f 263//263 259//259 261//261
f 261//261 262//262 263//263
f 268//268 270//270 303//303
f 303//303 270//270 304//304
f 304//304 270//270 305//305
f 305//305 270//270 283//283
f 306//306 307//307 299//299
f 299//299 307//307 301//301
f 301//301 307//307 308//308
f 301//301 308//308 302//302
f 302//302 308//308 309//309
f 302//302 309//309 300//300
f 300//300 309//309 305//305
f 300//300 305//305 283//283
f 283//283 272//272 300//300
f 300//300 272//272 271//271
f 300//300 271//271 269//269
f 269//269 267//267 300//300
f 306//306 299//299 310//310
f 310//310 299//299 297//297
f 310//310 297//297 311//311
f 311//311 297//297 296//296
f 311//311 296//296 312//312
f 312//312 296//296 295//295
f 312//312 295//295 313//313
f 313//313 295//295 293//293
f 313//313 293//293 314//314
f 314//314 293//293 292//292
f 314//314 292//292 315//315
f 315//315 292//292 289//289
f 315//315 289//289 316//316
f 316//316 289//289 284//284
f 316//316 284//284 317//317
f 317//317 284//284 286//286
f 317//317 286//286 318//318
f 318//318 286//286 288//288
f 318//318 288//288 319//319
f 319//319 288//288 287//287
f 319//319 287//287 320//320
f 320//320 287//287 285//285
f 320//320 285//285 257//257
f 257//257 285//285 250//250
f 250//250 285//285 251//251
f 251//251 285//285 248//248
f 248//248 285//285 249//249
f 249//249 285//285 244//244
f 228//228 290//290 235//235
f 235//235 290//290 321//321
f 235//235 321//321 253//253
f 253//253 321//321 254//254
f 254//254 321//321 256//256
f 254//254 256//256 255//255
f 228//228 230//230 290//290
f 219//219 317//317 222//222
f 222//222 317//317 318//318
f 222//222 318//318 319//319
f 222//222 319//319 226//226
f 226//226 319//319 320//320
f 226//226 320//320 227//227
f 227//227 320//320 257//257
f 227//227 257//257 225//225
f 212//212 306//306 209//209
f 209//209 306//306 310//310
f 209//209 310//310 199//199
f 199//199 310//310 311//311
f 199//199 311//311 196//196
f 196//196 311//311 312//312
f 196//196 312//312 194//194
f 194//194 312//312 313//313
f 194//194 313//313 191//191
f 191//191 313//313 314//314
f 191//191 314//314 188//188
f 188//188 314//314 315//315
f 188//188 315//315 189//189
f 189//189 315//315 316//316
f 189//189 316//316 219//219
f 219//219 316//316 317//317
f 305//305 309//309 216//216
f 216//216 309//309 218//218
f 218//218 309//309 308//308
f 218//218 308//308 217//217
f 217//217 308//308 307//307
f 217//217 307//307 215//215
f 215//215 307//307 212//212
f 212//212 307//307 306//306
f 278//278 213//213 282//282
f 282//282 213//213 211//211
f 282//282 211//211 322//322
f 322//322 211//211 210//210
f 322//322 210//210 323//323
f 323//323 210//210 324//324
f 324//324 210//210 201//201
f 324//324 201//201 325//325
f 278//278 273//273 213//213
f 213//213 273//273 214//214
f 214//214 273//273 266//266
f 214//214 266//266 216//216
f 216//216 266//266 268//268
f 216//216 268//268 303//303
f 303//303 304//304 216//216
f 216//216 304//304 305//305
f 290//290 291//291 321//321
f 321//321 291//291 326//326
f 327//327 326//326 294//294
f 294//294 326//326 291//291
f 298//298 328//328 294//294
f 294//294 328//328 327//327
f 263//263 265//265 298//298
f 298//298 265//265 282//282
f 298//298 282//282 328//328
f 328//328 282//282 322//322
f 328//328 322//322 323//323
f 324//324 325//325 323//323
f 323//323 325//325 328//328
f 329//329 330//330 331//331
f 331//331 330//330 332//332
f 331//331 332//332 333//333
f 333//333 334//334 331//331
f 335//335 336//336 331//331
f 331//331 336//336 337//337
f 331//331 337//337 338//338
f 338//338 337//337 339//339
f 339//339 337//337 340//340
f 339//339 340//340 341//341
f 341//341 340//340 342//342
f 342//342 340//340 343//343
f 342//342 343//343 344//344
f 344//344 343//343 345//345
f 344//344 345//345 346//346
f 346//346 345//345 347//347
f 347//347 345//345 348//348
f 347//347 348//348 349//349
f 349//349 348//348 350//350
f 349//349 350//350 351//351
f 351//351 350//350 352//352
f 352//352 350//350 353//353
f 353//353 350//350 354//354
f 354//354 350//350 355//355
f 355//355 350//350 356//356
f 356//356 350//350 357//357
f 335//335 358//358 336//336
f 336//336 358//358 359//359
f 359//359 358//358 360//360
f 359//359 360//360 361//361
f 359//359 361//361 362//362
f 362//362 361//361 363//363
f 362//362 363//363 364//364
f 364//364 363//363 365//365
f 348//348 366//366 350//350
f 350//350 366//366 367//367
f 367//367 366//366 368//368
f 368//368 366//366 369//369
f 368//368 369//369 370//370
f 370//370 369//369 371//371
f 371//371 369//369 372//372
f 371//371 372//372 373//373
f 373//373 372//372 374//374
f 373//373 374//374 375//375
f 338//338 376//376 331//331
f 331//331 376//376 377//377
f 331//331 377//377 329//329
f 378//378 379//379 380//380
f 380//380 379//379 381//381
f 381//381 379//379 382//382
f 382//382 379//379 383//383
f 382//382 383//383 384//384
f 385//385 386//386 387//387
f 387//387 386//386 388//388
f 387//387 388//388 389//389
f 390//390 391//391 385//385
f 385//385 391//391 392//392
f 385//385 392//392 386//386
f 391//391 390//390 393//393
f 393//393 390//390 394//394
f 393//393 394//394 395//395
f 395//395 394//394 378//378
f 378//378 394//394 396//396
f 378//378 396//396 379//379
f 379//379 396//396 383//383
f 383//383 396//396 384//384
f 384//384 396//396 397//397
f 397//397 396//396 394//394
f 395//395 398//398 393//393
f 393//393 398//398 391//391
f 398//398 392//392 391//391
f 387//387 389//389 399//399
f 399//399 389//389 400//400
f 399//399 400//400 401//401
f 394//394 360//360 397//397
f 397//397 360//360 358//358
f 397//397 358//358 402//402
f 402//402 358//358 335//335
f 402//402 335//335 403//403
f 403//403 335//335 404//404
f 404//404 335//335 331//331
f 404//404 331//331 405//405
f 394//394 390//390 360//360
f 360//360 390//390 361//361
f 361//361 390//390 385//385
f 361//361 385//385 363//363
f 363//363 385//385 387//387
f 363//363 387//387 406//406
f 406//406 407//407 363//363
f 363//363 407//407 408//408
f 387//387 399//399 406//406
f 406//406 399//399 407//407
f 407//407 399//399 408//408
f 408//408 399//399 401//401
f 409//409 410//410 411//411
f 411//411 410//410 412//412
f 411//411 412//412 413//413
f 413//413 412//412 414//414
f 414//414 412//412 415//415
f 409//409 416//416 417//417
f 417//417 416//416 418//418
f 417//417 418//418 419//419
f 419//419 418//418 420//420
f 419//419 420//420 415//415
f 415//415 420//420 421//421
f 421//421 420//420 422//422
f 422//422 420//420 423//423
f 422//422 423//423 424//424
f 424//424 423//423 425//425
f 425//425 423//423 420//420
f 425//425 420//420 418//418
f 426//426 427//427 424//424
f 424//424 427//427 428//428
f 424//424 428//428 422//422
f 427//427 426//426 429//429
f 429//429 426//426 430//430
f 429//429 430//430 431//431
f 431//431 430//430 432//432
f 432//432 430//430 433//433
f 415//415 412//412 419//419
f 419//419 412//412 410//410
f 419//419 410//410 409//409
f 419//419 409//409 417//417
f 395//395 378//378 382//382
f 382//382 378//378 380//380
f 382//382 380//380 381//381
f 434//434 435//435 382//382
f 382//382 435//435 436//436
f 382//382 436//436 386//386
f 386//386 436//436 437//437
f 437//437 436//436 438//438
f 437//437 438//438 439//439
f 439//439 438//438 440//440
f 434//434 441//441 435//435
f 435//435 441//441 442//442
f 442//442 441//441 443//443
f 443//443 441//441 444//444
f 443//443 444//444 445//445
f 445//445 444//444 446//446
f 446//446 444//444 447//447
f 446//446 447//447 411//411
f 413//413 414//414 411//411
f 411//411 414//414 415//415
f 411//411 415//415 421//421
f 421//421 422//422 411//411
f 411//411 422//422 428//428
f 411//411 428//428 427//427
f 411//411 427//427 448//448
f 448//448 427//427 449//449
f 448//448 449//449 450//450
f 450//450 449//449 451//451
f 450//450 451//451 452//452
f 448//448 446//446 411//411
f 386//386 392//392 382//382
f 382//382 392//392 398//398
f 382//382 398//398 395//395
f 433//433 430//430 453//453
f 453//453 430//430 454//454
f 454//454 430//430 455//455
f 455//455 430//430 426//426
f 433//433 453//453 449//449
f 449//449 453//453 456//456
f 449//449 456//456 451//451
f 451//451 456//456 457//457
f 451//451 457//457 452//452
f 452//452 457//457 458//458
f 452//452 458//458 450//450
f 450//450 458//458 459//459
f 427//427 429//429 449//449
f 449//449 429//429 431//431
f 449//449 431//431 432//432
f 432//432 433//433 449//449
f 450//450 459//459 448//448
f 448//448 459//459 460//460
f 448//448 460//460 446//446
f 446//446 460//460 461//461
f 446//446 461//461 445//445
f 445//445 461//461 462//462
f 445//445 462//462 443//443
f 443//443 462//462 463//463
f 443//443 463//463 442//442
f 442//442 463//463 464//464
f 442//442 464//464 435//435
f 435//435 464//464 465//465
f 435//435 465//465 436//436
f 436//436 465//465 466//466
f 436//436 466//466 438//438
f 438//438 466//466 467//467
f 386//386 437//437 388//388
f 388//388 437//437 389//389
f 389//389 437//437 400//400
f 400//400 437//437 401//401
f 401//401 437//437 408//408
f 408//408 437//437 468//468
f 468//468 437//437 439//439
f 468//468 439//439 469//469
f 469//469 439//439 440//440
f 469//469 440//440 470//470
f 470//470 440//440 438//438
f 470//470 438//438 467//467
f 382//382 384//384 434//434
f 434//434 384//384 397//397
f 434//434 397//397 471//471
f 471//471 397//397 402//402
f 471//471 402//402 403//403
f 404//404 405//405 403//403
f 403//403 405//405 471//471
f 408//408 468//468 363//363
f 363//363 468//468 365//365
f 365//365 468//468 469//469
f 365//365 469//469 364//364
f 364//364 469//469 470//470
f 364//364 470//470 362//362
f 362//362 470//470 359//359
f 359//359 470//470 467//467
f 359//359 467//467 336//336
f 336//336 467//467 466//466
f 336//336 466//466 337//337
f 337//337 466//466 465//465
f 337//337 465//465 340//340
f 340//340 465//465 464//464
f 340//340 464//464 343//343
f 343//343 464//464 463//463
f 343//343 463//463 345//345
f 345//345 463//463 462//462
f 345//345 462//462 348//348
f 348//348 462//462 461//461
f 348//348 461//461 366//366
f 366//366 461//461 460//460
f 366//366 460//460 369//369
f 369//369 460//460 459//459
f 369//369 459//459 372//372
f 372//372 459//459 458//458
f 372//372 458//458 457//457
f 372//372 457//457 374//374
f 374//374 457//457 456//456
f 374//374 456//456 375//375
f 375//375 456//456 453//453
f 375//375 453//453 373//373
f 455//455 426//426 373//373
f 373//373 426//426 424//424
f 373//373 424//424 371//371
f 371//371 424//424 425//425
f 371//371 425//425 370//370
f 370//370 425//425 418//418
f 370//370 418//418 416//416
f 370//370 416//416 368//368
f 368//368 416//416 472//472
f 368//368 472//472 367//367
f 367//367 472//472 473//473
f 367//367 473//473 474//474
f 475//475 350//350 474//474
f 474//474 350//350 367//367
f 453//453 454//454 373//373
f 373//373 454//454 455//455
f 434//434 471//471 441//441
f 441//441 471//471 476//476
f 476//476 477//477 441//441
f 441//441 477//477 444//444
f 447//447 444//444 478//478
f 478//478 444//444 477//477
f 411//411 447//447 409//409
f 409//409 447//447 416//416
f 416//416 447//447 478//478
f 416//416 478//478 472//472
f 472//472 478//478 473//473
f 473//473 478//478 475//475
f 473//473 475//475 474//474
f 477//477 327//327 478//478
f 478//478 327//327 328//328
f 175//175 326//326 176//176
f 176//176 326//326 327//327
f 176//176 327//327 177//177
f 177//177 327//327 178//178
f 178//178 327//327 477//477
f 178//178 477//477 175//175
f 175//175 477//477 476//476
f 175//175 476//476 326//326
f 471//471 321//321 476//476
f 476//476 321//321 326//326
f 479//479 471//471 334//334
f 334//334 471//471 405//405
f 334//334 405//405 331//331
f 471//471 479//479 321//321
f 321//321 479//479 179//179
f 321//321 179//179 256//256
f 256//256 179//179 181//181
f 205//205 354//354 206//206
f 206//206 354//354 355//355
f 206//206 355//355 356//356
f 357//357 480//480 356//356
f 356//356 480//480 207//207
f 356//356 207//207 206//206
f 480//480 208//208 207//207
f 330//330 183//183 332//332
f 332//332 183//183 182//182
f 332//332 182//182 180//180
f 179//179 479//479 180//180
f 180//180 479//479 333//333
f 180//180 333//333 332//332
f 479//479 334//334 333//333
f 376//376 186//186 377//377
f 377//377 186//186 481//481
f 377//377 481//481 329//329
f 329//329 481//481 330//330
f 330//330 481//481 482//482
f 330//330 482//482 183//183
f 183//183 482//482 184//184
f 184//184 482//482 185//185
f 185//185 482//482 186//186
f 186//186 482//482 481//481
f 347//347 349//349 483//483
f 483//483 349//349 200//200
f 483//483 200//200 484//484
f 484//484 200//200 198//198
f 484//484 198//198 346//346
f 346//346 198//198 197//197
f 346//346 197//197 195//195
f 195//195 344//344 346//346
f 484//484 346//346 483//483
f 483//483 346//346 347//347
f 342//342 344//344 193//193
f 193//193 344//344 195//195
f 202//202 351//351 203//203
f 203//203 351//351 485//485
f 203//203 485//485 204//204
f 204//204 485//485 205//205
f 205//205 485//485 486//486
f 205//205 486//486 354//354
f 354//354 486//486 353//353
f 353//353 486//486 352//352
f 352//352 486//486 351//351
f 351//351 486//486 485//485
f 190//190 187//187 487//487
f 487//487 187//187 338//338
f 487//487 338//338 488//488
f 488//488 338//338 339//339
f 488//488 339//339 192//192
f 192//192 339//339 341//341
f 192//192 341//341 342//342
f 342//342 193//193 192//192
f 488//488 192//192 487//487
f 487//487 192//192 190//190
f 376//376 338//338 186//186
f 186//186 338//338 187//187
f 349//349 351//351 200//200
f 200//200 351//351 202//202
f 328//328 480//480 478//478
f 478//478 480//480 357//357
f 478//478 357//357 475//475
f 475//475 357//357 350//350
f 480//480 328//328 208//208
f 208//208 328//328 325//325
f 208//208 325//325 201//201
# 972 faces, 0 coords texture

# End of File
