####
#
# OBJ File Generated by Meshlab
#
####
# Object wx200_1_base.obj
#
# Vertices: 757
# Faces: 1510
#
####
mtllib ./wx200_1_base.obj.mtl

vn -2.3569181 2.0669603 3.0106924
v -40.1213188 142.8786774 37.0000000
vn -2.3569183 2.0669606 3.2724934
v -40.1213188 142.8786774 9.0000000
vn -2.6974235 1.5573596 2.8797946
v -40.5980759 142.2573547 37.0000000
vn -2.6974237 1.5573595 3.4033899
v -40.5980759 142.2573547 9.0000000
vn -3.0085845 0.8061494 2.8797920
v -40.8977776 141.5338135 37.0000000
vn -3.0085845 0.8061492 3.4033937
v -40.8977776 141.5338135 9.0000000
vn -3.1281552 0.2050296 3.0106952
v -41.0000000 140.7573547 37.0000000
vn -3.1281545 0.2050295 3.2724919
v -41.0000000 140.7573547 9.0000000
vn -3.0880682 -0.4065522 3.4033921
v -41.0000000 61.0000038 9.0000000
vn -3.0880690 -0.4065523 2.8797932
v -41.0000000 61.0000038 37.0000000
vn -2.6279926 -1.5172729 2.6179941
v -40.5980759 59.5000038 37.0000000
vn -2.6279931 -1.5172726 3.6651912
v -40.5980759 59.5000038 9.0000000
vn -1.5172726 -2.6279931 2.6179943
v -39.5000000 58.4019279 37.0000000
vn -1.5172729 -2.6279926 3.6651912
v -39.5000000 58.4019279 9.0000000
vn -0.4065522 -3.0880682 2.8797929
v -38.0000000 58.0000038 37.0000000
vn -0.4065523 -3.0880690 3.4033918
v -38.0000000 58.0000038 9.0000000
vn 0.4065522 -3.0880685 3.4033926
v 38.0000000 58.0000038 9.0000000
vn 0.4065523 -3.0880690 2.8797944
v 38.0000000 58.0000038 37.0000000
vn 1.5172729 -2.6279926 2.6179943
v 39.5000000 58.4019279 37.0000000
vn 1.5172726 -2.6279931 3.6651912
v 39.5000000 58.4019279 9.0000000
vn 2.6279931 -1.5172726 2.6179941
v 40.5980759 59.5000038 37.0000000
vn 2.6279926 -1.5172729 3.6651912
v 40.5980759 59.5000038 9.0000000
vn 3.0880685 -0.4065522 2.8797932
v 41.0000000 61.0000038 37.0000000
vn 3.0880690 -0.4065523 3.4033921
v 41.0000000 61.0000038 9.0000000
vn 3.1281550 0.2050296 3.2724919
v 41.0000000 140.7573547 9.0000000
vn 3.1281545 0.2050295 3.0106936
v 41.0000000 140.7573547 37.0000000
vn 3.0085845 0.8061492 2.8797920
v 40.8977776 141.5338135 37.0000000
vn 3.0085845 0.8061494 3.4033937
v 40.8977776 141.5338135 9.0000000
vn 2.6974237 1.5573595 2.8797946
v 40.5980759 142.2573547 37.0000000
vn 2.6974235 1.5573596 3.4033899
v 40.5980759 142.2573547 9.0000000
vn 2.3569186 2.0669603 3.0106928
v 40.1213188 142.8786774 37.0000000
vn 2.3569183 2.0669601 3.2724929
v 40.1213188 142.8786774 9.0000000
vn 2.0668266 2.3570201 3.2726004
v 29.6732941 153.3267059 9.0000000
vn 2.0668268 2.3570204 3.0105848
v 29.6732941 153.3267059 37.0000000
vn 1.5567431 2.6977253 2.8795702
v 29.1550579 153.7242737 37.0000000
vn 1.5567431 2.6977253 3.4036150
v 29.1550579 153.7242737 9.0000000
vn 0.8048482 3.0088911 2.8795981
v 28.5515289 153.9740295 37.0000000
vn 0.8048482 3.0088911 3.4035869
v 28.5515289 153.9740295 9.0000000
vn 0.2031894 3.1282616 3.0105691
v 27.9039021 154.0589447 37.0000000
vn 0.2031894 3.1282616 3.2726161
v 27.9039021 154.0589447 9.0000000
vn -0.2068925 3.1280429 3.2723823
v -27.9434643 154.0226288 9.0000000
vn -0.2068925 3.1280432 3.0108032
v -27.9434643 154.0226288 37.0000000
vn -0.8074590 3.0082786 2.8800094
v -28.5899334 153.9371643 37.0000000
vn -0.8074590 3.0082788 3.4031758
v -28.5899334 153.9371643 9.0000000
vn -1.5579754 2.6971152 2.8799989
v -29.1923084 153.6874237 37.0000000
vn -1.5579753 2.6971149 3.4031863
v -29.1923084 153.6874237 9.0000000
vn -2.0671082 2.3568041 3.0108123
v -29.7096062 153.2903900 37.0000000
vn -2.0671084 2.3568044 3.2723742
v -29.7096062 153.2903900 9.0000000
vn 2.6815171 1.1107206 2.3561935
v 51.5359993 137.6362305 9.0000000
vn 2.6815171 1.1107210 3.9269900
v 51.5359993 56.7022476 9.0000000
vn 2.6815166 1.1107208 3.9269907
v 51.5000000 21.3319988 9.0000000
vn 1.1107216 2.6815181 3.9269905
v 21.3319988 51.5000000 9.0000000
vn -1.1107208 2.6815166 3.9269910
v -21.3319988 51.5000000 9.0000000
vn -2.6815181 1.1107216 3.9269905
v -51.5000000 21.3319988 9.0000000
vn -2.6815166 1.1107206 3.9269900
v -51.5359993 56.7022476 9.0000000
vn -2.6815174 1.1107206 2.3561935
v -51.5359993 137.6362305 9.0000000
vn -1.1107209 2.6815171 2.3561950
v -32.1722336 157.0000000 9.0000000
vn 1.1107209 2.6815166 2.3561945
v 32.1722336 157.0000000 9.0000000
vn -2.6815171 1.1107210 2.3561943
v -76.5360031 31.7022495 9.0000000
vn -2.6815166 -1.1107208 3.9269907
v -51.5000000 -21.3319988 9.0000000
vn -2.6815171 -1.1107209 2.3561945
v -76.5360031 -31.7022495 9.0000000
vn -1.1107209 -2.6815171 2.3561945
v -31.7022495 -76.5360031 9.0000000
vn -1.1107216 -2.6815181 3.9269907
v -21.3319988 -51.5000000 9.0000000
vn 1.1107209 -2.6815171 2.3561945
v 31.7022495 -76.5360031 9.0000000
vn 1.1107208 -2.6815166 3.9269910
v 21.3319988 -51.5000000 9.0000000
vn 2.6815181 -1.1107216 3.9269907
v 51.5000000 -21.3319988 9.0000000
vn 2.6815171 -1.1107209 2.3561945
v 76.5360031 -31.7022495 9.0000000
vn 2.6815166 1.1107206 2.3561943
v 76.5360031 31.7022495 9.0000000
vn -2.6815171 1.1107206 -2.3561945
v -51.5359993 137.6362305 -0.0000001
vn -1.1107209 2.6815164 -2.3561943
v -32.1722336 157.0000000 -0.0000001
vn -2.6815171 1.1107210 -3.9269903
v -51.5359993 56.7022476 -0.0000001
vn -2.6815166 1.1107206 -2.3561945
v -76.5360031 31.7022495 -0.0000001
vn -2.6815174 -1.1107209 -2.3561945
v -76.5360031 -31.7022495 -0.0000001
vn -1.1107209 -2.6815171 -2.3561945
v -31.7022495 -76.5360031 -0.0000001
vn 1.1107209 -2.6815174 -2.3561945
v 31.7022495 -76.5360031 -0.0000001
vn 2.6815171 -1.1107209 -2.3561945
v 76.5360031 -31.7022495 -0.0000001
vn 2.6815171 1.1107210 -2.3561945
v 76.5360031 31.7022495 -0.0000001
vn 2.6815166 1.1107206 -3.9269905
v 51.5359993 56.7022476 -0.0000001
vn 2.6815174 1.1107206 -2.3561945
v 51.5359993 137.6362305 -0.0000001
vn 1.1107209 2.6815171 -2.3561940
v 32.1722336 157.0000000 -0.0000001
vn -3.1050761 -0.4267834 3.2781839
v 47.5529251 6.5359993 71.5999985
vn -3.1050761 -0.4267834 3.0050011
v 47.5529251 6.5359993 69.0000000
vn -3.1342690 0.0000000 3.2781835
v 48.0000000 -0.0000000 71.5999985
vn -3.1342692 -0.0000000 3.0050011
v 48.0000000 -0.0000000 69.0000000
vn -3.1050761 0.4267834 3.2781842
v 47.5529251 -6.5359993 71.5999985
vn -3.1050763 0.4267834 3.0050011
v 47.5529251 -6.5359993 69.0000000
vn -3.0180421 0.8456157 3.2781832
v 46.2200279 -12.9502449 71.5999985
vn -3.0180416 0.8456156 3.0050015
v 46.2200279 -12.9502449 69.0000000
vn -2.8747869 1.2486959 3.2781839
v 44.0261421 -19.1232529 71.5999985
vn -2.8747873 1.2486960 3.0050015
v 44.0261421 -19.1232529 69.0000000
vn -2.6779804 1.6285160 3.2781835
v 41.0121307 -24.9400291 71.5999985
vn -2.6779804 1.6285160 3.0050025
v 41.0121307 -24.9400291 69.0000000
vn -2.4312882 1.9779992 3.2781835
v 37.2341423 -30.2922211 71.5999985
vn -2.4312878 1.9779990 3.0050020
v 37.2341423 -30.2922211 69.0000000
vn -2.1393046 2.2906365 3.2781844
v 32.7625504 -35.0801277 71.5999985
vn -2.1393046 2.2906365 3.0050008
v 32.7625504 -35.0801277 69.0000000
vn -1.8074713 2.5606031 3.2781830
v 27.6806545 -39.2145538 71.5999985
vn -1.8074714 2.5606031 3.0050020
v 27.6806545 -39.2145538 69.0000000
vn -1.4419675 2.7828710 3.2781844
v 22.0831223 -42.6184921 71.5999985
vn -1.4419676 2.7828708 3.0050011
v 22.0831223 -42.6184921 69.0000000
vn -1.0496024 2.9532993 3.2781830
v 16.0742207 -45.2285233 71.5999985
vn -1.0496025 2.9532993 3.0050020
v 16.0742207 -45.2285233 69.0000000
vn -0.6376858 3.0687127 3.2781842
v 9.7658882 -46.9960365 71.5999985
vn -0.6376858 3.0687129 3.0050015
v 9.7658882 -46.9960365 69.0000000
vn -0.2138897 3.1269624 3.2781835
v 3.2756360 -47.8880997 71.5999985
vn -0.2138897 3.1269622 3.0050013
v 3.2756360 -47.8880997 69.0000000
vn 0.2138897 3.1269622 3.2781835
v -3.2756360 -47.8880997 71.5999985
vn 0.2138897 3.1269624 3.0050015
v -3.2756360 -47.8880997 69.0000000
vn 0.6376858 3.0687129 3.2781842
v -9.7658882 -46.9960365 71.5999985
vn 0.6376858 3.0687129 3.0050013
v -9.7658882 -46.9960365 69.0000000
vn 1.0496025 2.9532995 3.2781830
v -16.0742207 -45.2285233 71.5999985
vn 1.0496024 2.9532993 3.0050030
v -16.0742207 -45.2285233 69.0000000
vn 1.4419675 2.7828708 3.2781844
v -22.0831223 -42.6184921 71.5999985
vn 1.4419676 2.7828710 3.0050001
v -22.0831223 -42.6184921 69.0000000
vn 1.8074713 2.5606031 3.2781827
v -27.6806545 -39.2145538 71.5999985
vn 1.8074714 2.5606031 3.0050027
v -27.6806545 -39.2145538 69.0000000
vn 2.1393046 2.2906365 3.2781842
v -32.7625504 -35.0801277 71.5999985
vn 2.1393046 2.2906365 3.0050011
v -32.7625504 -35.0801277 69.0000000
vn 2.4312878 1.9779990 3.2781837
v -37.2341423 -30.2922211 71.5999985
vn 2.4312882 1.9779992 3.0050008
v -37.2341423 -30.2922211 69.0000000
vn 2.6779804 1.6285160 3.2781835
v -41.0121307 -24.9400291 71.5999985
vn 2.6779804 1.6285160 3.0050025
v -41.0121307 -24.9400291 69.0000000
vn 2.8747871 1.2486960 3.2781839
v -44.0261421 -19.1232529 71.5999985
vn 2.8747869 1.2486959 3.0050015
v -44.0261421 -19.1232529 69.0000000
vn 3.0180416 0.8456156 3.2781832
v -46.2200279 -12.9502449 71.5999985
vn 3.0180421 0.8456157 3.0050025
v -46.2200279 -12.9502449 69.0000000
vn 3.1050763 0.4267834 3.2781842
v -47.5529251 -6.5359993 71.5999985
vn 3.1050763 0.4267834 3.0050011
v -47.5529251 -6.5359993 69.0000000
vn 3.1342690 0.0000000 3.2781837
v -48.0000000 -0.0000000 71.5999985
vn 3.1342692 0.0000000 3.0050011
v -48.0000000 -0.0000000 69.0000000
vn 3.1050761 -0.4267834 3.2781839
v -47.5529251 6.5359993 71.5999985
vn 3.1050763 -0.4267834 3.0050011
v -47.5529251 6.5359993 69.0000000
vn 3.0180421 -0.8456157 3.2781830
v -46.2200279 12.9502449 71.5999985
vn 3.0180416 -0.8456156 3.0050015
v -46.2200279 12.9502449 69.0000000
vn 2.8747869 -1.2486959 3.2781839
v -44.0261421 19.1232529 71.5999985
vn 2.8747873 -1.2486960 3.0050015
v -44.0261421 19.1232529 69.0000000
vn 2.6779804 -1.6285160 3.2781835
v -41.0121307 24.9400291 71.5999985
vn 2.6779804 -1.6285160 3.0050025
v -41.0121307 24.9400291 69.0000000
vn 2.4312882 -1.9779992 3.2781837
v -37.2341423 30.2922211 71.5999985
vn 2.4312878 -1.9779990 3.0050020
v -37.2341423 30.2922211 69.0000000
vn 2.1393046 -2.2906365 3.2781839
v -32.7625504 35.0801277 71.5999985
vn 2.1393046 -2.2906365 3.0050008
v -32.7625504 35.0801277 69.0000000
vn 1.8074713 -2.5606031 3.2781827
v -27.6806545 39.2145538 71.5999985
vn 1.8074714 -2.5606031 3.0050020
v -27.6806545 39.2145538 69.0000000
vn 1.4419675 -2.7828710 3.2781844
v -22.0831223 42.6184921 71.5999985
vn 1.4419676 -2.7828708 3.0050011
v -22.0831223 42.6184921 69.0000000
vn 1.0496024 -2.9532993 3.2781830
v -16.0742207 45.2285233 71.5999985
vn 1.0496025 -2.9532993 3.0050020
v -16.0742207 45.2285233 69.0000000
vn 0.6376858 -3.0687127 3.2781839
v -9.7658882 46.9960365 71.5999985
vn 0.6376858 -3.0687129 3.0050015
v -9.7658882 46.9960365 69.0000000
vn 0.2138897 -3.1269624 3.2781835
v -3.2756360 47.8880997 71.5999985
vn 0.2138897 -3.1269622 3.0050013
v -3.2756360 47.8880997 69.0000000
vn -0.2138897 -3.1269622 3.2781835
v 3.2756360 47.8880997 71.5999985
vn -0.2138897 -3.1269624 3.0050015
v 3.2756360 47.8880997 69.0000000
vn -0.6376858 -3.0687129 3.2781844
v 9.7658882 46.9960365 71.5999985
vn -0.6376858 -3.0687129 3.0050013
v 9.7658882 46.9960365 69.0000000
vn -1.0496025 -2.9532995 3.2781830
v 16.0742207 45.2285233 71.5999985
vn -1.0496024 -2.9532993 3.0050030
v 16.0742207 45.2285233 69.0000000
vn -1.4419675 -2.7828708 3.2781844
v 22.0831223 42.6184921 71.5999985
vn -1.4419676 -2.7828710 3.0050001
v 22.0831223 42.6184921 69.0000000
vn -1.8074713 -2.5606031 3.2781830
v 27.6806545 39.2145538 71.5999985
vn -1.8074714 -2.5606031 3.0050027
v 27.6806545 39.2145538 69.0000000
vn -2.1393046 -2.2906365 3.2781842
v 32.7625504 35.0801277 71.5999985
vn -2.1393046 -2.2906365 3.0050011
v 32.7625504 35.0801277 69.0000000
vn -2.4312878 -1.9779990 3.2781835
v 37.2341423 30.2922211 71.5999985
vn -2.4312882 -1.9779992 3.0050008
v 37.2341423 30.2922211 69.0000000
vn -2.6779804 -1.6285160 3.2781835
v 41.0121307 24.9400291 71.5999985
vn -2.6779804 -1.6285160 3.0050025
v 41.0121307 24.9400291 69.0000000
vn -2.8747871 -1.2486960 3.2781839
v 44.0261421 19.1232529 71.5999985
vn -2.8747869 -1.2486959 3.0050015
v 44.0261421 19.1232529 69.0000000
vn -3.0180416 -0.8456156 3.2781835
v 46.2200279 12.9502449 71.5999985
vn -3.0180421 -0.8456157 3.0050025
v 46.2200279 12.9502449 69.0000000
vn -4.5810595 4.2975407 0.0652722
v -36.8235817 35.2848930 49.5468712
vn -4.5789657 4.2916589 0.2940911
v -37.2639580 34.9134636 46.4583931
vn -4.9093122 3.9127178 0.0341811
v -39.9146767 31.7461166 51.4745750
vn -4.9099083 3.9119678 0.1726015
v -40.0208931 31.6270943 50.2752953
vn -5.2514763 3.4388013 0.0269094
v -42.6834297 27.9119415 52.8081093
vn -5.2407851 3.4532781 0.1908880
v -42.7489433 27.8289280 51.5792236
vn -5.5454817 2.9406805 0.0272753
v -45.0941963 23.8216515 53.5901604
vn -5.5445080 2.9404256 0.1924558
v -45.1271935 23.7797928 52.3433418
vn -5.7992067 2.4024639 0.0193187
v -47.1176186 19.5170288 53.8474655
vn -5.7989578 2.3996122 0.1916178
v -47.1265793 19.5207386 52.5946312
vn -6.0003724 1.8430169 0.0218492
v -48.7304459 15.0423517 53.5909233
vn -6.0006866 1.8381600 0.1882015
v -48.7241783 15.0952759 52.3441086
vn -6.1454649 1.2781267 0.0224081
v -49.9187851 10.4456367 52.8071404
vn -6.1478772 1.2618697 0.1824167
v -49.9064102 10.5506601 51.5782471
vn -6.2380209 0.7013159 0.0186710
v -50.6715698 5.7761006 51.4752083
vn -6.2388673 0.6858556 0.1826305
v -50.6625175 5.9353642 50.2759323
vn -6.2781467 0.1924729 0.0780894
v -50.9883919 1.0880167 49.5468712
vn -6.2251787 0.6471949 0.4970973
v -50.8867264 6.7611594 44.2889328
vn -6.2733283 0.2222723 0.2578430
v -51.0371437 1.6620517 46.4583931
vn -6.2595582 0.1915879 0.4956878
v -51.2077637 2.2378235 43.3745728
vn -6.2261944 0.1085572 0.8259494
v -51.4999924 2.8144646 40.3000488
vn -6.2029161 0.6391763 0.7301805
v -51.1019592 7.1045423 41.9035034
vn -6.1131988 1.2245038 0.7305233
v -50.3347244 11.3914757 42.9999352
vn -6.1337557 1.2438451 0.5020371
v -50.1205101 11.1326494 45.4437523
vn -5.9648223 1.8131493 0.7325404
v -49.1946831 15.6234436 43.6412811
vn -5.9858618 1.8264487 0.5068043
v -48.9685287 15.4445467 46.1203995
vn -5.7601399 2.3847401 0.7326016
v -47.6903305 19.7542343 43.8499985
vn -5.7829390 2.3925323 0.5072916
v -47.4399529 19.6505280 46.3409653
vn -5.5013204 2.9340189 0.7294440
v -45.8334122 23.7390041 43.6404762
vn -5.5270247 2.9367781 0.5031452
v -45.5469780 23.7055874 46.1196060
vn -5.1915975 3.4542191 0.7243895
v -43.6463203 27.5371971 43.0009995
vn -5.2215776 3.4523408 0.4946354
v -43.3118477 27.5687637 45.4447937
vn -4.8365903 3.9369571 0.7258999
v -41.1583977 31.1111012 41.9028320
vn -4.8603873 3.9452424 0.4880812
v -40.7633858 31.2017078 44.2882729
vn -4.4858971 4.3436308 0.6907005
v -38.4061203 34.4258690 40.3000488
vn -4.5519896 4.3034840 0.4761386
v -37.7917366 34.6269760 43.3745728
vn -4.3468609 4.4822254 0.6940009
v -34.4258690 38.4061203 40.3000488
vn -4.4291964 4.4341784 0.3150281
v -34.4260635 38.4059334 40.2999992
vn -4.4273810 4.4273753 0.5107157
v -36.2733612 36.2733612 42.3440666
vn -4.4320650 4.4321051 0.3093762
v -36.3456192 36.4863815 40.3038330
vn -4.4337111 4.4314413 0.3022818
v -38.4059334 34.4260635 40.2999992
vn -4.4413433 4.4413433 0.1404473
v -36.0683098 36.0683098 48.1274796
vn -4.2855563 4.5868812 0.2555936
v -34.9134636 37.2639580 46.4583931
vn -4.3036532 4.5749764 0.0795962
v -35.2848930 36.8235817 49.5468712
vn -4.4415774 4.4437618 0.0337040
v -36.0624466 36.0624466 49.2858238
vn -4.2925625 4.5597453 0.4967406
v -34.6269760 37.7917366 43.3745728
vn -0.2027580 6.2780676 0.0640689
v -1.0880167 50.9883919 49.5468712
vn -0.2031496 6.2724795 0.2940924
v -1.6620517 51.0371437 46.4583931
vn -0.7023662 6.2383194 0.0351817
v -5.7760439 50.6718330 51.4745750
vn -0.7056442 6.2380085 0.1726082
v -5.9353127 50.6627808 50.2752953
vn -1.2808014 6.1452942 0.0234763
v -10.4450197 49.9184647 52.8081093
vn -1.2639599 6.1476302 0.1908933
v -10.5500441 49.9060936 51.5792236
vn -1.8467300 5.9992256 0.0250174
v -15.0419617 48.7308617 53.5901604
vn -1.8413661 5.9997540 0.1924524
v -15.0948906 48.7245941 52.3433418
vn -2.3998623 5.8002024 0.0210956
v -19.5165634 47.1178093 53.8474655
vn -2.4036982 5.7972655 0.1916219
v -19.5202770 47.1267700 52.5946312
vn -2.9375980 5.5473595 0.0192074
v -23.8210793 45.0941772 53.5909233
vn -2.9433489 5.5429010 0.1882072
v -23.7792263 45.1271706 52.3441086
vn -3.4458015 5.2465019 0.0237751
v -27.9117298 42.6840935 52.8071404
vn -3.4549303 5.2394810 0.1824187
v -27.8287182 42.7496071 51.5782471
vn -3.9142792 4.9073510 0.0210090
v -31.7458916 39.9145317 51.4752083
vn -3.9265721 4.8965187 0.1826226
v -31.6268730 40.0207443 50.2759323
vn -3.9442303 4.8595023 0.4970983
v -31.2014866 40.7632103 44.2889328
vn -3.9341586 4.8380919 0.7301819
v -31.1108723 41.1582108 41.9035034
vn -3.4568288 5.1885390 0.7305245
v -27.5370350 43.6470146 42.9999352
vn -3.4576895 5.2167516 0.5020369
v -27.5685806 43.3125229 45.4437523
vn -2.9356761 5.4998550 0.7325405
v -23.7384510 45.8333359 43.6412811
vn -2.9411497 5.5241385 0.5068032
v -23.7050362 45.5469208 46.1203995
vn -2.3867693 5.7592993 0.7326046
v -19.7538033 47.6905098 43.8499985
vn -2.3973801 5.7809315 0.5072938
v -19.6500893 47.4401321 46.3409653
vn -1.8153553 5.9646845 0.7294458
v -15.6231079 49.1951294 43.6404762
vn -1.8315797 5.9848118 0.5031481
v -15.4441957 48.9689598 46.1196060
vn -1.2285100 6.1135149 0.7243911
v -11.3908710 50.3343468 43.0009995
vn -1.2510390 6.1333866 0.4946357
v -11.1320410 50.1201591 45.4447937
vn -0.6361355 6.2038350 0.7259014
v -7.1045108 51.1022530 41.9028320
vn -0.6471063 6.2265205 0.4880803
v -6.7611256 50.8870049 44.2882729
vn -0.1201599 6.2269311 0.8176230
v -2.8144646 51.4999924 40.3000488
vn -0.1757208 6.2617645 0.4761383
v -2.2378235 51.2077637 43.3745728
vn 0.1082442 6.2261925 0.8259810
v 2.8144646 51.4999924 40.3000488
vn 0.0186834 6.2642641 0.3436827
v 2.8141923 51.5000000 40.2999992
vn -0.0000033 6.2612581 0.5107147
v -0.0000000 51.2982788 42.3440666
vn 0.0000280 6.2679129 0.3093756
v 0.0995339 51.5000000 40.3038330
vn -0.0139964 6.2675390 0.3125821
v -2.8141923 51.5000000 40.2999992
vn 0.0000000 6.2810073 0.1404426
v -0.0000000 51.0082893 48.1274796
vn 0.2130634 6.2737608 0.2555939
v 1.6620517 51.0371437 46.4583931
vn 0.1951331 6.2780876 0.0775242
v 1.0880167 50.9883919 49.5468712
vn 0.0010729 6.2829161 0.0293416
v -0.0000000 51.0000000 49.2858238
vn 0.1889248 6.2595272 0.4967398
v 2.2378235 51.2077637 43.3745728
vn 4.2946782 4.5837593 0.0649688
v 35.2848930 36.8235817 49.5468712
vn 4.2916589 4.5789657 0.2940911
v 34.9134636 37.2639580 46.4583931
vn 3.9167175 4.9058757 0.0377299
v 31.7461166 39.9146767 51.4745750
vn 3.9119678 4.9099083 0.1726015
v 31.6270943 40.0208931 50.2752953
vn 3.4410772 5.2502213 0.0218366
v 27.9119415 42.6834297 52.8081093
vn 3.4532781 5.2407851 0.1908880
v 27.8289280 42.7489433 51.5792236
vn 2.9320967 5.5501223 0.0257990
v 23.8216515 45.0941963 53.5901604
vn 2.9404256 5.5445080 0.1924558
v 23.7797928 45.1271935 52.3433418
vn 2.4062028 5.7974072 0.0246579
v 19.5170288 47.1176186 53.8474655
vn 2.3996122 5.7989578 0.1916178
v 19.5207386 47.1265793 52.5946312
vn 1.8475665 5.9991446 0.0182847
v 15.0423517 48.7304459 53.5909233
vn 1.8381600 6.0006866 0.1882015
v 15.0952759 48.7241783 52.3441086
vn 1.2720129 6.1466775 0.0233658
v 10.4456367 49.9187851 52.8071404
vn 1.2618697 6.1478772 0.1824167
v 10.5506601 49.9064102 51.5782471
vn 0.7005206 6.2379484 0.0222091
v 5.7761006 50.6715698 51.4752083
vn 0.6858556 6.2388673 0.1826305
v 5.9353642 50.6625175 50.2759323
vn 0.6471949 6.2251787 0.4970973
v 6.7611594 50.8867264 44.2889328
vn 0.6391763 6.2029161 0.7301805
v 7.1045423 51.1019592 41.9035034
vn 1.2245038 6.1131988 0.7305233
v 11.3914757 50.3347244 42.9999352
vn 1.2438451 6.1337557 0.5020371
v 11.1326494 50.1205101 45.4437523
vn 1.8131493 5.9648223 0.7325404
v 15.6234436 49.1946831 43.6412811
vn 1.8264487 5.9858618 0.5068043
v 15.4445467 48.9685287 46.1203995
vn 2.3847401 5.7601399 0.7326016
v 19.7542343 47.6903305 43.8499985
vn 2.3925323 5.7829390 0.5072916
v 19.6505280 47.4399529 46.3409653
vn 2.9340189 5.5013204 0.7294440
v 23.7390041 45.8334122 43.6404762
vn 2.9367781 5.5270247 0.5031452
v 23.7055874 45.5469780 46.1196060
vn 3.4542191 5.1915975 0.7243895
v 27.5371971 43.6463203 43.0009995
vn 3.4523408 5.2215776 0.4946354
v 27.5687637 43.3118477 45.4447937
vn 3.9369571 4.8365903 0.7258999
v 31.1111012 41.1583977 41.9028320
vn 3.9452424 4.8603873 0.4880812
v 31.2017078 40.7633858 44.2882729
vn 4.3436308 4.4858971 0.6907005
v 34.4258690 38.4061203 40.3000488
vn 4.3034840 4.5519896 0.4761386
v 34.6269760 37.7917366 43.3745728
vn 4.4822259 4.3468609 0.6940009
v 38.4061203 34.4258690 40.3000488
vn 4.4341784 4.4291964 0.3150281
v 38.4059334 34.4260635 40.2999992
vn 4.4273753 4.4273810 0.5107157
v 36.2733612 36.2733612 42.3440666
vn 4.4321051 4.4320650 0.3093762
v 36.4863815 36.3456192 40.3038330
vn 4.4314413 4.4337111 0.3022818
v 34.4260635 38.4059334 40.2999992
vn 4.4413433 4.4413433 0.1404473
v 36.0683098 36.0683098 48.1274796
vn 4.5868812 4.2855563 0.2555936
v 37.2639580 34.9134636 46.4583931
vn 4.5791864 4.2992649 0.0767782
v 36.8235817 35.2848930 49.5468712
vn 4.4430923 4.4423151 0.0267322
v 36.0624466 36.0624466 49.2858238
vn 4.5597453 4.2925625 0.4967406
v 37.7917366 34.6269760 43.3745728
vn 6.2779169 0.2055146 0.0680714
v 50.9883919 1.0880167 49.5468712
vn 6.2724795 0.2031496 0.2940924
v 51.0371437 1.6620517 46.4583931
vn 6.2387180 0.6956517 0.0421245
v 50.6718330 5.7760439 51.4745750
vn 6.2380085 0.7056442 0.1726082
v 50.6627808 5.9353127 50.2752953
vn 6.1460881 1.2772031 0.0219467
v 49.9184647 10.4450197 52.8081093
vn 6.1476302 1.2639599 0.1908933
v 49.9060936 10.5500441 51.5792236
vn 5.9978108 1.8516474 0.0237169
v 48.7308617 15.0419617 53.5901604
vn 5.9997540 1.8413661 0.1924524
v 48.7245941 15.0948906 52.3433418
vn 5.7997522 2.4005277 0.0243088
v 47.1178093 19.5165634 53.8474655
vn 5.7972655 2.4036982 0.1916219
v 47.1267700 19.5202770 52.5946312
vn 5.5493903 2.9337912 0.0191267
v 45.0941772 23.8210793 53.5909233
vn 5.5429010 2.9433489 0.1882072
v 45.1271706 23.7792263 52.3441086
vn 5.2475071 3.4446139 0.0199451
v 42.6840935 27.9117298 52.8071404
vn 5.2394810 3.4549303 0.1824187
v 42.7496071 27.8287182 51.5782471
vn 4.9033937 3.9190066 0.0226988
v 39.9145317 31.7458916 51.4752083
vn 4.8965187 3.9265721 0.1826226
v 40.0207443 31.6268730 50.2759323
vn 4.8595023 3.9442303 0.4970983
v 40.7632103 31.2014866 44.2889328
vn 4.8380919 3.9341586 0.7301819
v 41.1582108 31.1108723 41.9035034
vn 5.1885390 3.4568288 0.7305245
v 43.6470146 27.5370350 42.9999352
vn 5.2167516 3.4576895 0.5020369
v 43.3125229 27.5685806 45.4437523
vn 5.4998550 2.9356761 0.7325405
v 45.8333359 23.7384510 43.6412811
vn 5.5241385 2.9411497 0.5068032
v 45.5469208 23.7050362 46.1203995
vn 5.7592993 2.3867693 0.7326046
v 47.6905098 19.7538033 43.8499985
vn 5.7809315 2.3973801 0.5072938
v 47.4401321 19.6500893 46.3409653
vn 5.9646845 1.8153553 0.7294458
v 49.1951294 15.6231079 43.6404762
vn 5.9848118 1.8315797 0.5031481
v 48.9689598 15.4441957 46.1196060
vn 6.1135182 1.2284967 0.7243750
v 50.3343468 11.3908710 43.0009995
vn 6.1333866 1.2510390 0.4946357
v 50.1201591 11.1320410 45.4447937
vn 6.2038341 0.6361713 0.7258711
v 51.1022530 7.1045108 41.9028320
vn 6.2265205 0.6471063 0.4880803
v 50.8870049 6.7611256 44.2882729
vn 6.2269311 0.1201599 0.8176230
v 51.4999924 2.8144646 40.3000488
vn 6.2617645 0.1757208 0.4761383
v 51.2077637 2.2378235 43.3745728
vn 6.2261925 -0.1082442 0.8259810
v 51.4999924 -2.8144646 40.3000488
vn 6.2642641 -0.0186834 0.3436827
v 51.5000000 -2.8141923 40.2999992
vn 6.2612581 0.0000033 0.5107147
v 51.2982788 0.0000000 42.3440666
vn 6.2679124 -0.0000280 0.3093756
v 51.5000000 -0.0995339 40.3038330
vn 6.2675390 0.0139964 0.3125821
v 51.5000000 2.8141923 40.2999992
vn 6.2810073 -0.0000000 0.1404426
v 51.0082893 0.0000000 48.1274796
vn 6.2737608 -0.2130634 0.2555939
v 51.0371437 -1.6620517 46.4583931
vn 6.2779231 -0.2001094 0.0772415
v 50.9883919 -1.0880167 49.5468712
vn 6.2829370 0.0000000 0.0258512
v 51.0000000 -0.0000000 49.2858238
vn 6.2595272 -0.1889248 0.4967398
v 51.2077637 -2.2378235 43.3745728
vn 4.5829473 -4.2955031 0.0674416
v 36.8235817 -35.2848930 49.5468712
vn 4.5789657 -4.2916589 0.2940911
v 37.2639580 -34.9134636 46.4583931
vn 4.9068842 -3.9153705 0.0388938
v 39.9146767 -31.7461166 51.4745750
vn 4.9099083 -3.9119678 0.1726015
v 40.0208931 -31.6270943 50.2752953
vn 5.2476034 -3.4448793 0.0237218
v 42.6834297 -27.9119415 52.8081093
vn 5.2407851 -3.4532781 0.1908880
v 42.7489433 -27.8289280 51.5792236
vn 5.5496993 -2.9333448 0.0210860
v 45.0941963 -23.8216515 53.5901604
vn 5.5445080 -2.9404256 0.1924558
v 45.1271935 -23.7797928 52.3433418
vn 5.8003387 -2.3991108 0.0243097
v 47.1176186 -19.5170288 53.8474655
vn 5.7989578 -2.3996122 0.1916178
v 47.1265793 -19.5207386 52.5946312
vn 5.9979053 -1.8511207 0.0217470
v 48.7304459 -15.0423517 53.5909233
vn 6.0006866 -1.8381600 0.1882015
v 48.7241783 -15.0952759 52.3441086
vn 6.1458349 -1.2773075 0.0181580
v 49.9187851 -10.4456367 52.8071404
vn 6.1478772 -1.2618697 0.1824167
v 49.9064102 -10.5506601 51.5782471
vn 6.2388020 -0.6909246 0.0256369
v 50.6715698 -5.7761006 51.4752083
vn 6.2388673 -0.6858556 0.1826305
v 50.6625175 -5.9353642 50.2759323
vn 6.2251787 -0.6471949 0.4970973
v 50.8867264 -6.7611594 44.2889328
vn 6.2029161 -0.6391763 0.7301805
v 51.1019592 -7.1045423 41.9035034
vn 6.1131988 -1.2245038 0.7305233
v 50.3347244 -11.3914757 42.9999352
vn 6.1337557 -1.2438451 0.5020371
v 50.1205101 -11.1326494 45.4437523
vn 5.9648223 -1.8131493 0.7325404
v 49.1946831 -15.6234436 43.6412811
vn 5.9858618 -1.8264487 0.5068043
v 48.9685287 -15.4445467 46.1203995
vn 5.7601399 -2.3847401 0.7326016
v 47.6903305 -19.7542343 43.8499985
vn 5.7829390 -2.3925323 0.5072916
v 47.4399529 -19.6505280 46.3409653
vn 5.5013204 -2.9340189 0.7294440
v 45.8334122 -23.7390041 43.6404762
vn 5.5270247 -2.9367781 0.5031452
v 45.5469780 -23.7055874 46.1196060
vn 5.1915975 -3.4542191 0.7243895
v 43.6463203 -27.5371971 43.0009995
vn 5.2215776 -3.4523408 0.4946354
v 43.3118477 -27.5687637 45.4447937
vn 4.8365903 -3.9369571 0.7258999
v 41.1583977 -31.1111012 41.9028320
vn 4.8603873 -3.9452424 0.4880812
v 40.7633858 -31.2017078 44.2882729
vn 4.4858971 -4.3436308 0.6907005
v 38.4061203 -34.4258690 40.3000488
vn 4.5519896 -4.3034840 0.4761386
v 37.7917366 -34.6269760 43.3745728
vn 4.3468609 -4.4822259 0.6940009
v 34.4258690 -38.4061203 40.3000488
vn 4.4291964 -4.4341784 0.3150281
v 34.4260635 -38.4059334 40.2999992
vn 4.4273810 -4.4273753 0.5107157
v 36.2733612 -36.2733612 42.3440666
vn 4.4320650 -4.4321051 0.3093762
v 36.3456192 -36.4863815 40.3038330
vn 4.4337111 -4.4314413 0.3022818
v 38.4059334 -34.4260635 40.2999992
vn 4.4413433 -4.4413433 0.1404473
v 36.0683098 -36.0683098 48.1274796
vn 4.2855563 -4.5868812 0.2555936
v 34.9134636 -37.2639580 46.4583931
vn 4.2984347 -4.5800028 0.0743189
v 35.2848930 -36.8235817 49.5468712
vn 4.4430923 -4.4423151 0.0267322
v 36.0624466 -36.0624466 49.2858238
vn 4.2925625 -4.5597453 0.4967406
v 34.6269760 -37.7917366 43.3745728
vn 0.2004513 -6.2780876 0.0681849
v 1.0880167 -50.9883919 49.5468712
vn 0.2031496 -6.2724795 0.2940924
v 1.6620517 -51.0371437 46.4583931
vn 0.7055637 -6.2378445 0.0384058
v 5.7760439 -50.6718330 51.4745750
vn 0.7056442 -6.2380085 0.1726082
v 5.9353127 -50.6627808 50.2752953
vn 1.2718780 -6.1469378 0.0271541
v 10.4450197 -49.9184647 52.8081093
vn 1.2639599 -6.1476302 0.1908933
v 10.5500441 -49.9060936 51.5792236
vn 1.8481164 -5.9990439 0.0202384
v 15.0419617 -48.7308617 53.5901604
vn 1.8413661 -5.9997540 0.1924524
v 15.0948906 -48.7245941 52.3433418
vn 2.4076018 -5.7968283 0.0246450
v 19.5165634 -47.1178093 53.8474655
vn 2.4036982 -5.7972655 0.1916219
v 19.5202770 -47.1267700 52.5946312
vn 2.9325376 -5.5498176 0.0237986
v 23.8210793 -45.0941772 53.5909233
vn 2.9433489 -5.5429010 0.1882072
v 23.7792263 -45.1271706 52.3441086
vn 3.4408383 -5.2501068 0.0180612
v 27.9117298 -42.6840935 52.8071404
vn 3.4549303 -5.2394810 0.1824187
v 27.8287182 -42.7496071 51.5782471
vn 3.9203665 -4.9023733 0.0215726
v 31.7458916 -39.9145317 51.4752083
vn 3.9265721 -4.8965187 0.1826226
v 31.6268730 -40.0207443 50.2759323
vn 3.9442303 -4.8595023 0.4970983
v 31.2014866 -40.7632103 44.2889328
vn 3.9341586 -4.8380919 0.7301819
v 31.1108723 -41.1582108 41.9035034
vn 3.4568288 -5.1885390 0.7305245
v 27.5370350 -43.6470146 42.9999352
vn 3.4576895 -5.2167516 0.5020369
v 27.5685806 -43.3125229 45.4437523
vn 2.9356761 -5.4998550 0.7325405
v 23.7384510 -45.8333359 43.6412811
vn 2.9411497 -5.5241385 0.5068032
v 23.7050362 -45.5469208 46.1203995
vn 2.3867693 -5.7592993 0.7326046
v 19.7538033 -47.6905098 43.8499985
vn 2.3973801 -5.7809315 0.5072938
v 19.6500893 -47.4401321 46.3409653
vn 1.8153553 -5.9646845 0.7294458
v 15.6231079 -49.1951294 43.6404762
vn 1.8315797 -5.9848118 0.5031481
v 15.4441957 -48.9689598 46.1196060
vn 1.2285100 -6.1135149 0.7243911
v 11.3908710 -50.3343468 43.0009995
vn 1.2510390 -6.1333866 0.4946357
v 11.1320410 -50.1201591 45.4447937
vn 0.6361355 -6.2038350 0.7259014
v 7.1045108 -51.1022530 41.9028320
vn 0.6471063 -6.2265205 0.4880803
v 6.7611256 -50.8870049 44.2882729
vn 0.1201599 -6.2269306 0.8176231
v 2.8144646 -51.4999924 40.3000488
vn 0.1757208 -6.2617645 0.4761383
v 2.2378235 -51.2077637 43.3745728
vn -0.1082442 -6.2261925 0.8259810
v -2.8144646 -51.4999924 40.3000488
vn -0.0186834 -6.2642641 0.3436827
v -2.8141923 -51.5000000 40.2999992
vn 0.0000033 -6.2612581 0.5107147
v 0.0000000 -51.2982788 42.3440666
vn -0.0000280 -6.2679129 0.3093756
v -0.0995339 -51.5000000 40.3038330
vn 0.0139964 -6.2675390 0.3125821
v 2.8141923 -51.5000000 40.2999992
vn -0.0000000 -6.2810073 0.1404426
v 0.0000000 -51.0082893 48.1274796
vn -0.2130634 -6.2737608 0.2555939
v -1.6620517 -51.0371437 46.4583931
vn -0.1974445 -6.2780685 0.0734173
v -1.0880167 -50.9883919 49.5468712
vn 0.0010729 -6.2829156 0.0293416
v 0.0000000 -51.0000000 49.2858238
vn -0.1889248 -6.2595272 0.4967398
v -2.2378235 -51.2077637 43.3745728
vn -4.2998934 -4.5787354 0.0702553
v -35.2848930 -36.8235817 49.5468712
vn -4.2916589 -4.5789657 0.2940911
v -34.9134636 -37.2639580 46.4583931
vn -3.9106565 -4.9108324 0.0371555
v -31.7461166 -39.9146767 51.4745750
vn -3.9119678 -4.9099083 0.1726015
v -31.6270943 -40.0208931 50.2752953
vn -3.4460316 -5.2466259 0.0274728
v -27.9119415 -42.6834297 52.8081093
vn -3.4532781 -5.2407851 0.1908880
v -27.8289280 -42.7489433 51.5792236
vn -2.9371305 -5.5476813 0.0211518
v -23.8216515 -45.0941963 53.5901604
vn -2.9404256 -5.5445080 0.1924558
v -23.7797928 -45.1271935 52.3433418
vn -2.3984632 -5.8007817 0.0210838
v -19.5170288 -47.1176186 53.8474655
vn -2.3996122 -5.7989578 0.1916178
v -19.5207386 -47.1265793 52.5946312
vn -1.8462085 -5.9993205 0.0230051
v -15.0423517 -48.7304459 53.5909233
vn -1.8381600 -6.0006866 0.1882015
v -15.0952759 -48.7241783 52.3441086
vn -1.2808748 -6.1450467 0.0196907
v -10.4456367 -49.9187851 52.8071404
vn -1.2618697 -6.1478772 0.1824167
v -10.5506601 -49.9064102 51.5782471
vn -0.6973196 -6.2384214 0.0190282
v -5.7761006 -50.6715698 51.4752083
vn -0.6858556 -6.2388673 0.1826305
v -5.9353642 -50.6625175 50.2759323
vn -0.6471949 -6.2251787 0.4970973
v -6.7611594 -50.8867264 44.2889328
vn -0.6391763 -6.2029161 0.7301805
v -7.1045423 -51.1019592 41.9035034
vn -1.2245038 -6.1131988 0.7305233
v -11.3914757 -50.3347244 42.9999352
vn -1.2438451 -6.1337557 0.5020371
v -11.1326494 -50.1205101 45.4437523
vn -1.8131493 -5.9648223 0.7325404
v -15.6234436 -49.1946831 43.6412811
vn -1.8264487 -5.9858618 0.5068043
v -15.4445467 -48.9685287 46.1203995
vn -2.3847401 -5.7601399 0.7326016
v -19.7542343 -47.6903305 43.8499985
vn -2.3925323 -5.7829390 0.5072916
v -19.6505280 -47.4399529 46.3409653
vn -2.9340189 -5.5013204 0.7294440
v -23.7390041 -45.8334122 43.6404762
vn -2.9367781 -5.5270247 0.5031452
v -23.7055874 -45.5469780 46.1196060
vn -3.4542191 -5.1915975 0.7243895
v -27.5371971 -43.6463203 43.0009995
vn -3.4523408 -5.2215776 0.4946354
v -27.5687637 -43.3118477 45.4447937
vn -3.9369571 -4.8365903 0.7258999
v -31.1111012 -41.1583977 41.9028320
vn -3.9452424 -4.8603873 0.4880812
v -31.2017078 -40.7633858 44.2882729
vn -4.3436308 -4.4858971 0.6907005
v -34.4258690 -38.4061203 40.3000488
vn -4.3034840 -4.5519896 0.4761386
v -34.6269760 -37.7917366 43.3745728
vn -4.4822259 -4.3468609 0.6940009
v -38.4061203 -34.4258690 40.3000488
vn -4.4341784 -4.4291964 0.3150281
v -38.4059334 -34.4260635 40.2999992
vn -4.4273753 -4.4273810 0.5107157
v -36.2733612 -36.2733612 42.3440666
vn -4.4321051 -4.4320650 0.3093762
v -36.4863815 -36.3456192 40.3038330
vn -4.4314413 -4.4337111 0.3022818
v -34.4260635 -38.4059334 40.2999992
vn -4.4413433 -4.4413433 0.1404473
v -36.0683098 -36.0683098 48.1274796
vn -4.5868812 -4.2855563 0.2555936
v -37.2639580 -34.9134636 46.4583931
vn -4.5773020 -4.3012991 0.0746176
v -36.8235817 -35.2848930 49.5468712
vn -4.4415770 -4.4437623 0.0337040
v -36.0624466 -36.0624466 49.2858238
vn -4.5597453 -4.2925625 0.4967406
v -37.7917366 -34.6269760 43.3745728
vn -6.2781529 -0.1972246 0.0684248
v -50.9883919 -1.0880167 49.5468712
vn -6.2728248 -0.1953359 0.2921495
v -51.0371437 -1.6620517 46.4583931
vn -6.2379208 -0.7063456 0.0348190
v -50.6718330 -5.7760439 51.4745750
vn -6.2380085 -0.7056442 0.1726082
v -50.6627808 -5.9353127 50.2752953
vn -6.1457176 -1.2780387 0.0261200
v -49.9184647 -10.4450197 52.8081093
vn -6.1476302 -1.2639599 0.1908933
v -49.9060936 -10.5500441 51.5792236
vn -6.0002642 -1.8435903 0.0237897
v -48.7308617 -15.0419617 53.5901604
vn -5.9997540 -1.8413661 0.1924524
v -48.7245941 -15.0948906 52.3433418
vn -5.7986279 -2.4038634 0.0193182
v -47.1178093 -19.5165634 53.8474655
vn -5.7972655 -2.4036982 0.1916219
v -47.1267700 -19.5202770 52.5946312
vn -5.5447598 -2.9418242 0.0262343
v -45.0941772 -23.8210793 53.5909233
vn -5.5429010 -2.9433489 0.1882072
v -45.1271706 -23.7792263 52.3441086
vn -5.2515941 -3.4381609 0.0239182
v -42.6840935 -27.9117298 52.8071404
vn -5.2394810 -3.4549303 0.1824187
v -42.7496071 -27.8287182 51.5782471
vn -4.9058199 -3.9163544 0.0180300
v -39.9145317 -31.7458916 51.4752083
vn -4.8965187 -3.9265721 0.1826226
v -40.0207443 -31.6268730 50.2759323
vn -4.8595023 -3.9442303 0.4970983
v -40.7632103 -31.2014866 44.2889328
vn -4.8380919 -3.9341586 0.7301819
v -41.1582108 -31.1108723 41.9035034
vn -5.1885390 -3.4568288 0.7305245
v -43.6470146 -27.5370350 42.9999352
vn -5.2167516 -3.4576895 0.5020369
v -43.3125229 -27.5685806 45.4437523
vn -5.4998550 -2.9356761 0.7325405
v -45.8333359 -23.7384510 43.6412811
vn -5.5241385 -2.9411497 0.5068032
v -45.5469208 -23.7050362 46.1203995
vn -5.7592993 -2.3867693 0.7326046
v -47.6905098 -19.7538033 43.8499985
vn -5.7809315 -2.3973801 0.5072938
v -47.4401321 -19.6500893 46.3409653
vn -5.9646845 -1.8153553 0.7294458
v -49.1951294 -15.6231079 43.6404762
vn -5.9848118 -1.8315797 0.5031481
v -48.9689598 -15.4441957 46.1196060
vn -6.1135149 -1.2285100 0.7243911
v -50.3343468 -11.3908710 43.0009995
vn -6.1333866 -1.2510390 0.4946357
v -50.1201591 -11.1320410 45.4447937
vn -6.2038350 -0.6361355 0.7259014
v -51.1022530 -7.1045108 41.9028320
vn -6.2265205 -0.6471063 0.4880803
v -50.8870049 -6.7611256 44.2882729
vn -6.2269306 -0.1201166 0.8176293
v -51.4999924 -2.8144646 40.3000488
vn -6.2615933 -0.1740378 0.4785877
v -51.2077637 -2.2378235 43.3745728
vn -6.2644787 0.0186686 0.3417104
v -51.5000000 2.8141923 40.2999992
vn -6.2611804 0.0029565 0.5114235
v -51.2980385 0.2167765 42.3462296
vn -6.2679367 0.0004352 0.3091584
v -51.5000000 1.5075517 40.3019371
vn -6.2679129 -0.0000338 0.3094002
v -51.5000000 -0.0172519 40.3038406
vn -6.2686939 0.0028489 0.3013880
v -51.5000000 -1.5242244 40.3019066
vn -6.2677221 -0.0163663 0.3106689
v -51.5000000 -2.8141923 40.2999992
vn -6.2810111 0.0007654 0.1401940
v -51.0081596 0.1185869 48.1296425
vn -6.2828665 -0.0026343 0.0353105
v -51.0000000 -0.0000000 49.2858238
vn 4.4140959 -4.4433393 0.3533902
v 34.4258690 -38.4061279 40.2999992
vn 4.4433489 -4.4140511 0.3535471
v 38.4061279 -34.4258690 40.2999992
vn 6.2437687 0.0279092 0.4948916
v 51.5000000 2.8144670 40.2999992
vn 4.3393364 -4.4632525 0.5970483
v 33.6456070 -39.1863937 40.1830177
vn 4.2917342 -4.5401049 0.4541570
v 32.8580284 -39.9739723 39.8321419
vn 4.2403479 -4.5952148 0.3976438
v 32.0636024 -40.7683983 39.2475815
vn 4.1764083 -4.6500101 0.3864403
v 31.2627983 -41.5691986 38.4296799
vn 4.0871148 -4.7156219 0.4094628
v 30.4560966 -42.3759003 37.3789253
vn 4.0421233 -4.7500372 0.4007553
v 29.6439762 -43.1880226 36.0959473
vn 3.9883502 -4.7897511 0.3888776
v 28.8269157 -44.0050812 34.5814972
vn 3.8918812 -4.8531480 0.3912282
v 28.0054035 -44.8265953 32.8364830
vn 3.7601688 -4.9317112 0.3949818
v 26.3509750 -46.4810219 28.6590385
vn 3.6241465 -5.0047584 0.3936321
v 24.6846218 -48.1473770 23.5735359
vn 3.4855680 -5.0704279 0.3933284
v 23.0103035 -49.8216934 17.5920601
vn 2.2189848 -5.3571014 0.0757924
v 21.3319988 -51.5000000 10.7288189
vn 1.1206636 -6.0500035 0.3933238
v 18.9585152 -51.5000000 17.5920601
vn 0.9761508 -6.1015902 0.3935964
v 16.5906715 -51.5000000 23.5735359
vn 0.8283210 -6.1461134 0.3949624
v 14.2340937 -51.5000000 28.6590385
vn 0.6799247 -6.1836085 0.3913464
v 11.8943787 -51.5000000 32.8364830
vn 0.5668444 -6.2070069 0.3889895
v 10.7325850 -51.5000000 34.5814972
vn 0.5007110 -6.2169576 0.4008676
v 9.5770884 -51.5000000 36.0959473
vn 0.4445610 -6.2244530 0.4094863
v 8.4285746 -51.5000000 37.3789253
vn 0.3347130 -6.2412634 0.3862419
v 7.2877259 -51.5000000 38.4296799
vn 0.2507958 -6.2477221 0.3974513
v 6.1552210 -51.5000000 39.2475815
vn 0.1755410 -6.2450914 0.4539489
v 5.0317321 -51.5000000 39.8321419
vn 0.0875994 -6.2249002 0.5969144
v 3.9179270 -51.5000000 40.1830177
vn 0.0279092 -6.2437687 0.4948916
v 2.8144670 -51.5000000 40.2999992
vn -0.0279047 -6.2437754 0.4948496
v -2.8144670 -51.5000000 40.2999992
vn 4.4140511 4.4433489 0.3535471
v 34.4258690 38.4061279 40.2999992
vn -0.0876411 -6.2248535 0.5971521
v -3.9179270 -51.5000000 40.1830177
vn -0.1756305 -6.2450542 0.4541674
v -5.0317321 -51.5000000 39.8321419
vn -0.2509264 -6.2476854 0.3976553
v -6.1552210 -51.5000000 39.2475815
vn -0.3348843 -6.2412205 0.3864405
v -7.2877259 -51.5000000 38.4296799
vn -0.4444229 -6.2244749 0.4094601
v -8.4285746 -51.5000000 37.3789253
vn -0.5005695 -6.2169952 0.4007567
v -9.5770884 -51.5000000 36.0959473
vn -0.5666783 -6.2070532 0.3888769
v -10.7325850 -51.5000000 34.5814972
vn -0.6797169 -6.1836696 0.3912278
v -11.8943787 -51.5000000 32.8364830
vn -0.8284075 -6.1460872 0.3949815
v -14.2340937 -51.5000000 28.6590385
vn -0.9762375 -6.1015573 0.3936318
v -16.5906715 -51.5000000 23.5735359
vn -1.1206663 -6.0500016 0.3933282
v -18.9585152 -51.5000000 17.5920601
vn -2.2189841 -5.3571005 0.0757924
v -21.3319988 -51.5000000 10.7288189
vn -3.4855707 -5.0704274 0.3933242
v -23.0103035 -49.8216934 17.5920601
vn -3.6242299 -5.0047207 0.3935976
v -24.6846218 -48.1473770 23.5735359
vn -3.7602479 -4.9316692 0.3949632
v -26.3509750 -46.4810219 28.6590385
vn -3.8916917 -4.8532519 0.3913465
v -28.0054035 -44.8265953 32.8364830
vn -3.9882011 -4.7898350 0.3889903
v -28.8269157 -44.0050812 34.5814972
vn -4.0419965 -4.7501097 0.4008664
v -29.6439762 -43.1880226 36.0959473
vn -4.0870023 -4.7157040 0.4094878
v -30.4560966 -42.3759003 37.3789253
vn -4.1765604 -4.6499195 0.3862413
v -31.2627983 -41.5691986 38.4296799
vn -4.2404661 -4.5951476 0.3974400
v -32.0636024 -40.7683983 39.2475815
vn -4.2918239 -4.5400686 0.4539382
v -32.8580284 -39.9739723 39.8321419
vn -4.3393993 -4.4632564 0.5968103
v -33.6456070 -39.1863937 40.1830177
vn -4.4140511 -4.4433489 0.3535471
v -34.4258690 -38.4061279 40.2999992
vn -4.4433393 -4.4140959 0.3533902
v -38.4061279 -34.4258690 40.2999992
vn -0.0279092 6.2437687 0.4948916
v -2.8144670 51.5000000 40.2999992
vn -4.4632525 -4.3393364 0.5970483
v -39.1863937 -33.6456070 40.1830177
vn -4.5401049 -4.2917342 0.4541570
v -39.9739723 -32.8580284 39.8321419
vn -4.5952148 -4.2403479 0.3976438
v -40.7683983 -32.0636024 39.2475815
vn -4.6500101 -4.1764083 0.3864403
v -41.5691986 -31.2627983 38.4296799
vn -4.7156219 -4.0871148 0.4094628
v -42.3759003 -30.4560966 37.3789253
vn -4.7500372 -4.0421233 0.4007553
v -43.1880226 -29.6439762 36.0959473
vn -4.7897511 -3.9883502 0.3888776
v -44.0050812 -28.8269157 34.5814972
vn -4.8531480 -3.8918812 0.3912282
v -44.8265953 -28.0054035 32.8364830
vn -4.9317112 -3.7601688 0.3949818
v -46.4810219 -26.3509750 28.6590385
vn -5.0047584 -3.6241465 0.3936321
v -48.1473770 -24.6846218 23.5735359
vn -5.0704279 -3.4855680 0.3933284
v -49.8216934 -23.0103035 17.5920601
vn -5.3571014 -2.2189848 0.0757924
v -51.5000000 -21.3319988 10.7288189
vn -6.0500035 -1.1206636 0.3933238
v -51.5000000 -18.9585152 17.5920601
vn -6.1015902 -0.9761508 0.3935964
v -51.5000000 -16.5906715 23.5735359
vn -6.1461134 -0.8283210 0.3949624
v -51.5000000 -14.2340937 28.6590385
vn -6.1836085 -0.6799247 0.3913464
v -51.5000000 -11.8943787 32.8364830
vn -6.2070069 -0.5668444 0.3889895
v -51.5000000 -10.7325850 34.5814972
vn -6.2169576 -0.5007110 0.4008676
v -51.5000000 -9.5770884 36.0959473
vn -6.2244525 -0.4445610 0.4094863
v -51.5000000 -8.4285746 37.3789253
vn -6.2412643 -0.3347130 0.3862419
v -51.5000000 -7.2877259 38.4296799
vn -6.2477226 -0.2507958 0.3974513
v -51.5000000 -6.1552210 39.2475815
vn -6.2450914 -0.1755410 0.4539489
v -51.5000000 -5.0317321 39.8321419
vn -6.2249002 -0.0875994 0.5969144
v -51.5000000 -3.9179270 40.1830177
vn -6.2437687 -0.0279092 0.4948916
v -51.5000000 -2.8144670 40.2999992
vn -6.2437754 0.0279047 0.4948496
v -51.5000000 2.8144670 40.2999992
vn -4.4433489 4.4140511 0.3535471
v -38.4061279 34.4258690 40.2999992
vn -6.2248535 0.0876411 0.5971521
v -51.5000000 3.9179270 40.1830177
vn -6.2450542 0.1756305 0.4541674
v -51.5000000 5.0317321 39.8321419
vn -6.2476859 0.2509264 0.3976553
v -51.5000000 6.1552210 39.2475815
vn -6.2412200 0.3348843 0.3864405
v -51.5000000 7.2877259 38.4296799
vn -6.2244778 0.4444229 0.4094601
v -51.5000000 8.4285746 37.3789253
vn -6.2169952 0.5005695 0.4007567
v -51.5000000 9.5770884 36.0959473
vn -6.2070532 0.5666783 0.3888769
v -51.5000000 10.7325850 34.5814972
vn -6.1836696 0.6797169 0.3912278
v -51.5000000 11.8943787 32.8364830
vn -6.1460872 0.8284075 0.3949815
v -51.5000000 14.2340937 28.6590385
vn -6.1015573 0.9762375 0.3936318
v -51.5000000 16.5906715 23.5735359
vn -6.0500016 1.1206663 0.3933282
v -51.5000000 18.9585152 17.5920601
vn -5.3571005 2.2189841 0.0757924
v -51.5000000 21.3319988 10.7288189
vn -5.0704274 3.4855707 0.3933242
v -49.8216934 23.0103035 17.5920601
vn -5.0047207 3.6242299 0.3935976
v -48.1473770 24.6846218 23.5735359
vn -4.9316692 3.7602479 0.3949632
v -46.4810219 26.3509750 28.6590385
vn -4.8532519 3.8916917 0.3913465
v -44.8265953 28.0054035 32.8364830
vn -4.7898350 3.9882011 0.3889903
v -44.0050812 28.8269157 34.5814972
vn -4.7501097 4.0419965 0.4008664
v -43.1880226 29.6439762 36.0959473
vn -4.7157040 4.0870023 0.4094878
v -42.3759003 30.4560966 37.3789253
vn -4.6499195 4.1765604 0.3862413
v -41.5691986 31.2627983 38.4296799
vn -4.5951476 4.2404661 0.3974400
v -40.7683983 32.0636024 39.2475815
vn -4.5400686 4.2918239 0.4539382
v -39.9739723 32.8580284 39.8321419
vn -4.4632564 4.3393993 0.5968103
v -39.1863937 33.6456070 40.1830177
vn 3.1075649 -0.4148747 3.0201073
v 50.5449524 -6.7976346 71.5999985
vn 3.1349442 0.0001132 3.0164833
v 51.0000000 -0.0000000 71.5999985
vn 3.0234756 -0.8296486 3.0224304
v 49.1879272 -13.4739656 71.5999985
vn 2.8869221 -1.2228297 3.0216410
v 46.9531441 -19.9098530 71.5999985
vn 2.6973562 -1.5981914 3.0232651
v 43.8804817 -25.9904480 71.5999985
vn 2.4598045 -1.9438839 3.0207233
v 40.0247688 -31.6072445 71.5999985
vn 2.1796837 -2.2534385 3.0202930
v 35.4548149 -36.6600075 71.5999985
vn 1.8608327 -2.5232835 3.0222893
v 30.2521667 -41.0585709 71.5999985
vn 1.5050192 -2.7503324 3.0210567
v 24.5096703 -44.7244453 71.5999985
vn 1.1289651 -2.9248950 3.0217979
v 18.3297958 -47.5922127 71.5999985
vn 0.7246156 -3.0503323 3.0219145
v 11.8228273 -49.6106911 71.5999985
vn 0.3148378 -3.1192913 3.0201123
v 5.1048803 -50.7438698 71.5999985
vn -0.1044060 -3.1334903 3.0224257
v -1.7041638 -50.9715195 71.5999985
vn -0.5218578 -3.0914948 3.0223813
v -8.4827967 -50.2895813 71.5999985
vn -0.9284542 -2.9946032 3.0217361
v -15.1100550 -48.7102280 71.5999985
vn -1.3193529 -2.8441801 3.0235934
v -21.4676723 -46.2616348 71.5999985
vn -1.6886439 -2.6415763 3.0211101
v -27.4421997 -42.9875069 71.5999985
vn -2.0232499 -2.3949165 3.0206268
v -32.9270210 -38.9462624 71.5999985
vn -2.3249621 -2.1034105 3.0228760
v -37.8242569 -34.2100220 71.5999985
vn -2.5861974 -1.7721567 3.0198152
v -42.0465202 -28.8633022 71.5999985
vn -2.7967143 -1.4168936 3.0203938
v -45.5184593 -23.0015163 71.5999985
vn -2.9622526 -1.0271295 3.0231333
v -48.1781235 -16.7292671 71.5999985
vn -3.0723159 -0.6247852 3.0211906
v -49.9780464 -10.1584854 71.5999985
vn -3.1282210 -0.2093741 3.0222206
v -50.8861122 -3.4064243 71.5999985
vn -3.1282194 0.2093864 3.0222013
v -50.8861122 3.4064243 71.5999985
vn -3.0723128 0.6247881 3.0211639
v -49.9780464 10.1584854 71.5999985
vn -2.9622564 1.0271134 3.0231071
v -48.1781235 16.7292671 71.5999985
vn -2.7969303 1.4165274 3.0209434
v -45.5184593 23.0015163 71.5999985
vn -2.5859895 1.7725090 3.0203483
v -42.0465202 28.8633022 71.5999985
vn -2.3249547 2.1034203 3.0228944
v -37.8242569 34.2100220 71.5999985
vn -2.0232401 2.3949237 3.0206065
v -32.9270210 38.9462624 71.5999985
vn -1.6886396 2.6415768 3.0210836
v -27.4421997 42.9875069 71.5999985
vn -1.3193675 2.8441727 3.0235693
v -21.4676723 46.2616348 71.5999985
vn -0.9284308 2.9946089 3.0217135
v -15.1100550 48.7102280 71.5999985
vn -0.5218934 3.0914881 3.0223625
v -8.4827967 50.2895813 71.5999985
vn -0.1043937 3.1334918 3.0224433
v -1.7041638 50.9715195 71.5999985
vn 0.3148170 3.1192951 3.0201344
v 5.1048803 50.7438698 71.5999985
vn 0.7246518 3.0503240 3.0219295
v 11.8228273 49.6106911 71.5999985
vn 1.1289495 2.9248998 3.0217774
v 18.3297958 47.5922127 71.5999985
vn 1.5050402 2.7503195 3.0210333
v 24.5096703 44.7244453 71.5999985
vn 1.8608034 2.5233045 3.0222747
v 30.2521667 41.0585709 71.5999985
vn 2.1796930 2.2534304 3.0203097
v 35.4548149 36.6600075 71.5999985
vn 2.4597919 1.9439018 3.0207479
v 40.0247688 31.6072445 71.5999985
vn 2.6973763 1.5981598 3.0232775
v 43.8804817 25.9904480 71.5999985
vn 2.8869104 1.2228560 3.0216389
v 46.9531441 19.9098530 71.5999985
vn 3.0234852 0.8296127 3.0224204
v 49.1879272 13.4739656 71.5999985
vn 3.1075685 0.4147836 3.0199320
v 50.5449524 6.7976346 71.5999985
vn -4.4140964 4.4433393 0.3533902
v -34.4258690 38.4061279 40.2999992
vn -4.3393364 4.4632525 0.5970483
v -33.6456070 39.1863937 40.1830177
vn -4.2917342 4.5401049 0.4541570
v -32.8580284 39.9739723 39.8321419
vn -4.2403479 4.5952148 0.3976438
v -32.0636024 40.7683983 39.2475815
vn -4.1764083 4.6500101 0.3864403
v -31.2627983 41.5691986 38.4296799
vn -4.0871148 4.7156219 0.4094628
v -30.4560966 42.3759003 37.3789253
vn -4.0421233 4.7500372 0.4007553
v -29.6439762 43.1880226 36.0959473
vn -3.9883502 4.7897511 0.3888776
v -28.8269157 44.0050812 34.5814972
vn -3.8918812 4.8531480 0.3912282
v -28.0054035 44.8265953 32.8364830
vn -3.7601688 4.9317112 0.3949818
v -26.3509750 46.4810219 28.6590385
vn -3.6241465 5.0047584 0.3936321
v -24.6846218 48.1473770 23.5735359
vn -3.4855680 5.0704279 0.3933284
v -23.0103035 49.8216934 17.5920601
vn -2.2189848 5.3571019 0.0757924
v -21.3319988 51.5000000 10.7288189
vn -1.1206636 6.0500035 0.3933238
v -18.9585152 51.5000000 17.5920601
vn -0.9761508 6.1015902 0.3935964
v -16.5906715 51.5000000 23.5735359
vn -0.8283210 6.1461134 0.3949624
v -14.2340937 51.5000000 28.6590385
vn -0.6799247 6.1836085 0.3913464
v -11.8943787 51.5000000 32.8364830
vn -0.5668444 6.2070069 0.3889895
v -10.7325850 51.5000000 34.5814972
vn -0.5007110 6.2169576 0.4008676
v -9.5770884 51.5000000 36.0959473
vn -0.4445610 6.2244530 0.4094863
v -8.4285746 51.5000000 37.3789253
vn -0.3347130 6.2412634 0.3862419
v -7.2877259 51.5000000 38.4296799
vn -0.2507958 6.2477221 0.3974513
v -6.1552210 51.5000000 39.2475815
vn -0.1755410 6.2450914 0.4539489
v -5.0317321 51.5000000 39.8321419
vn -0.0875994 6.2249002 0.5969144
v -3.9179270 51.5000000 40.1830177
vn 0.0279047 6.2437754 0.4948496
v 2.8144670 51.5000000 40.2999992
vn 0.0876411 6.2248535 0.5971521
v 3.9179270 51.5000000 40.1830177
vn 0.1756305 6.2450542 0.4541674
v 5.0317321 51.5000000 39.8321419
vn 0.2509264 6.2476854 0.3976553
v 6.1552210 51.5000000 39.2475815
vn 0.3348843 6.2412205 0.3864405
v 7.2877259 51.5000000 38.4296799
vn 0.4444229 6.2244749 0.4094601
v 8.4285746 51.5000000 37.3789253
vn 0.5005695 6.2169952 0.4007567
v 9.5770884 51.5000000 36.0959473
vn 0.5666783 6.2070532 0.3888769
v 10.7325850 51.5000000 34.5814972
vn 0.6797169 6.1836696 0.3912278
v 11.8943787 51.5000000 32.8364830
vn 0.8284075 6.1460872 0.3949815
v 14.2340937 51.5000000 28.6590385
vn 0.9762375 6.1015573 0.3936318
v 16.5906715 51.5000000 23.5735359
vn 1.1206663 6.0500021 0.3933282
v 18.9585152 51.5000000 17.5920601
vn 2.2189841 5.3571005 0.0757924
v 21.3319988 51.5000000 10.7288189
vn 3.4855707 5.0704274 0.3933242
v 23.0103035 49.8216934 17.5920601
vn 3.6242299 5.0047207 0.3935976
v 24.6846218 48.1473770 23.5735359
vn 3.7602479 4.9316692 0.3949632
v 26.3509750 46.4810219 28.6590385
vn 3.8916917 4.8532519 0.3913465
v 28.0054035 44.8265953 32.8364830
vn 3.9882011 4.7898350 0.3889903
v 28.8269157 44.0050812 34.5814972
vn 4.0419965 4.7501097 0.4008664
v 29.6439762 43.1880226 36.0959473
vn 4.0870023 4.7157040 0.4094878
v 30.4560966 42.3759003 37.3789253
vn 4.1765604 4.6499195 0.3862413
v 31.2627983 41.5691986 38.4296799
vn 4.2404661 4.5951476 0.3974400
v 32.0636024 40.7683983 39.2475815
vn 4.2918239 4.5400686 0.4539382
v 32.8580284 39.9739723 39.8321419
vn 4.3393993 4.4632564 0.5968103
v 33.6456070 39.1863937 40.1830177
vn 4.4433393 4.4140959 0.3533902
v 38.4061279 34.4258690 40.2999992
vn 4.4632525 4.3393364 0.5970483
v 39.1863937 33.6456070 40.1830177
vn 4.5401049 4.2917342 0.4541570
v 39.9739723 32.8580284 39.8321419
vn 4.5952148 4.2403479 0.3976438
v 40.7683983 32.0636024 39.2475815
vn 4.6500101 4.1764083 0.3864403
v 41.5691986 31.2627983 38.4296799
vn 4.7156219 4.0871148 0.4094628
v 42.3759003 30.4560966 37.3789253
vn 4.7500372 4.0421233 0.4007553
v 43.1880226 29.6439762 36.0959473
vn 4.7897511 3.9883502 0.3888776
v 44.0050812 28.8269157 34.5814972
vn 4.8531480 3.8918812 0.3912282
v 44.8265953 28.0054035 32.8364830
vn 4.9317112 3.7601688 0.3949818
v 46.4810219 26.3509750 28.6590385
vn 5.0047584 3.6241465 0.3936321
v 48.1473770 24.6846218 23.5735359
vn 5.0704279 3.4855680 0.3933284
v 49.8216934 23.0103035 17.5920601
vn 5.3571014 2.2189848 0.0757924
v 51.5000000 21.3319988 10.7288189
vn 6.0500031 1.1206636 0.3933238
v 51.5000000 18.9585152 17.5920601
vn 6.1015902 0.9761508 0.3935964
v 51.5000000 16.5906715 23.5735359
vn 6.1461134 0.8283210 0.3949624
v 51.5000000 14.2340937 28.6590385
vn 6.1836081 0.6799247 0.3913464
v 51.5000000 11.8943787 32.8364830
vn 6.2070069 0.5668444 0.3889895
v 51.5000000 10.7325850 34.5814972
vn 6.2169533 0.5006954 0.4009198
v 51.5000000 9.5770884 36.0959473
vn 6.2243619 0.4449598 0.4097415
v 51.5000000 8.4285746 37.3789253
vn 6.2412634 0.3347130 0.3862419
v 51.5000000 7.2877259 38.4296799
vn 6.2477221 0.2507958 0.3974513
v 51.5000000 6.1552210 39.2475815
vn 6.2450914 0.1755410 0.4539489
v 51.5000000 5.0317321 39.8321419
vn 6.2249002 0.0875994 0.5969144
v 51.5000000 3.9179270 40.1830177
vn 6.2437754 -0.0279047 0.4948496
v 51.5000000 -2.8144670 40.2999992
vn 6.2248535 -0.0876411 0.5971521
v 51.5000000 -3.9179270 40.1830177
vn 6.2450542 -0.1756305 0.4541674
v 51.5000000 -5.0317321 39.8321419
vn 6.2476854 -0.2509264 0.3976553
v 51.5000000 -6.1552210 39.2475815
vn 6.2412205 -0.3348843 0.3864405
v 51.5000000 -7.2877259 38.4296799
vn 6.2244749 -0.4444229 0.4094601
v 51.5000000 -8.4285746 37.3789253
vn 6.2169952 -0.5005695 0.4007567
v 51.5000000 -9.5770884 36.0959473
vn 6.2070532 -0.5666783 0.3888769
v 51.5000000 -10.7325850 34.5814972
vn 6.1836700 -0.6797169 0.3912278
v 51.5000000 -11.8943787 32.8364830
vn 6.1460872 -0.8284075 0.3949815
v 51.5000000 -14.2340937 28.6590385
vn 6.1015577 -0.9762375 0.3936318
v 51.5000000 -16.5906715 23.5735359
vn 6.0500021 -1.1206663 0.3933282
v 51.5000000 -18.9585152 17.5920601
vn 5.3571005 -2.2189841 0.0757924
v 51.5000000 -21.3319988 10.7288189
vn 5.0704274 -3.4855707 0.3933242
v 49.8216934 -23.0103035 17.5920601
vn 5.0047207 -3.6242299 0.3935976
v 48.1473770 -24.6846218 23.5735359
vn 4.9316692 -3.7602479 0.3949632
v 46.4810219 -26.3509750 28.6590385
vn 4.8532519 -3.8916917 0.3913465
v 44.8265953 -28.0054035 32.8364830
vn 4.7898350 -3.9882011 0.3889903
v 44.0050812 -28.8269157 34.5814972
vn 4.7501097 -4.0419965 0.4008664
v 43.1880226 -29.6439762 36.0959473
vn 4.7157040 -4.0870023 0.4094878
v 42.3759003 -30.4560966 37.3789253
vn 4.6499195 -4.1765604 0.3862413
v 41.5691986 -31.2627983 38.4296799
vn 4.5951476 -4.2404661 0.3974400
v 40.7683983 -32.0636024 39.2475815
vn 4.5400686 -4.2918239 0.4539382
v 39.9739723 -32.8580284 39.8321419
vn 4.4632564 -4.3393993 0.5968103
v 39.1863937 -33.6456070 40.1830177
# 757 vertices, 0 vertices normals


usemtl material_0
f 1//1 2//2 3//3
f 3//3 2//2 4//4
f 3//3 4//4 5//5
f 5//5 4//4 6//6
f 5//5 6//6 7//7
f 7//7 6//6 8//8
f 8//8 9//9 7//7
f 7//7 9//9 10//10
f 10//10 9//9 11//11
f 11//11 9//9 12//12
f 11//11 12//12 13//13
f 13//13 12//12 14//14
f 13//13 14//14 15//15
f 15//15 14//14 16//16
f 16//16 17//17 15//15
f 15//15 17//17 18//18
f 18//18 17//17 19//19
f 19//19 17//17 20//20
f 19//19 20//20 21//21
f 21//21 20//20 22//22
f 21//21 22//22 23//23
f 23//23 22//22 24//24
f 24//24 25//25 23//23
f 23//23 25//25 26//26
f 26//26 25//25 27//27
f 27//27 25//25 28//28
f 27//27 28//28 29//29
f 29//29 28//28 30//30
f 29//29 30//30 31//31
f 31//31 30//30 32//32
f 32//32 33//33 31//31
f 31//31 33//33 34//34
f 34//34 33//33 35//35
f 35//35 33//33 36//36
f 35//35 36//36 37//37
f 37//37 36//36 38//38
f 37//37 38//38 39//39
f 39//39 38//38 40//40
f 40//40 41//41 39//39
f 39//39 41//41 42//42
f 42//42 41//41 43//43
f 43//43 41//41 44//44
f 43//43 44//44 45//45
f 45//45 44//44 46//46
f 45//45 46//46 47//47
f 47//47 46//46 48//48
f 48//48 2//2 47//47
f 47//47 2//2 1//1
f 19//19 23//23 18//18
f 18//18 23//23 26//26
f 18//18 26//26 39//39
f 39//39 26//26 34//34
f 39//39 34//34 37//37
f 37//37 34//34 35//35
f 19//19 21//21 23//23
f 27//27 29//29 26//26
f 26//26 29//29 31//31
f 26//26 31//31 34//34
f 39//39 42//42 18//18
f 18//18 42//42 7//7
f 18//18 7//7 15//15
f 15//15 7//7 10//10
f 15//15 10//10 13//13
f 13//13 10//10 11//11
f 7//7 42//42 47//47
f 47//47 42//42 43//43
f 47//47 43//43 45//45
f 47//47 1//1 7//7
f 7//7 1//1 3//3
f 7//7 3//3 5//5
f 28//28 25//25 49//49
f 49//49 25//25 24//24
f 49//49 24//24 50//50
f 50//50 24//24 22//22
f 50//50 22//22 20//20
f 50//50 20//20 51//51
f 51//51 20//20 17//17
f 51//51 17//17 52//52
f 52//52 17//17 16//16
f 52//52 16//16 53//53
f 53//53 16//16 54//54
f 54//54 16//16 14//14
f 54//54 14//14 55//55
f 55//55 14//14 12//12
f 55//55 12//12 9//9
f 55//55 9//9 56//56
f 56//56 9//9 8//8
f 56//56 8//8 6//6
f 6//6 4//4 56//56
f 56//56 4//4 2//2
f 56//56 2//2 57//57
f 57//57 2//2 48//48
f 57//57 48//48 46//46
f 46//46 44//44 57//57
f 57//57 44//44 41//41
f 57//57 41//41 40//40
f 57//57 40//40 58//58
f 58//58 40//40 38//38
f 58//58 38//38 36//36
f 36//36 33//33 58//58
f 58//58 33//33 32//32
f 58//58 32//32 49//49
f 49//49 32//32 30//30
f 49//49 30//30 28//28
f 55//55 59//59 54//54
f 54//54 59//59 60//60
f 60//60 59//59 61//61
f 60//60 61//61 62//62
f 60//60 62//62 63//63
f 63//63 62//62 64//64
f 63//63 64//64 65//65
f 65//65 64//64 66//66
f 66//66 64//64 67//67
f 66//66 67//67 68//68
f 66//66 68//68 51//51
f 51//51 68//68 50//50
f 56//56 57//57 69//69
f 69//69 57//57 70//70
f 55//55 56//56 71//71
f 71//71 56//56 69//69
f 59//59 55//55 72//72
f 72//72 55//55 71//71
f 61//61 59//59 73//73
f 73//73 59//59 72//72
f 62//62 61//61 74//74
f 74//74 61//61 73//73
f 64//64 62//62 75//75
f 75//75 62//62 74//74
f 67//67 64//64 76//76
f 76//76 64//64 75//75
f 68//68 67//67 77//77
f 77//77 67//67 76//76
f 50//50 68//68 78//78
f 78//78 68//68 77//77
f 49//49 50//50 79//79
f 79//79 50//50 78//78
f 58//58 49//49 80//80
f 80//80 49//49 79//79
f 57//57 58//58 70//70
f 70//70 58//58 80//80
f 81//81 82//82 83//83
f 83//83 82//82 84//84
f 83//83 84//84 85//85
f 85//85 84//84 86//86
f 85//85 86//86 87//87
f 87//87 86//86 88//88
f 87//87 88//88 89//89
f 89//89 88//88 90//90
f 89//89 90//90 91//91
f 91//91 90//90 92//92
f 91//91 92//92 93//93
f 93//93 92//92 94//94
f 93//93 94//94 95//95
f 95//95 94//94 96//96
f 95//95 96//96 97//97
f 97//97 96//96 98//98
f 97//97 98//98 99//99
f 99//99 98//98 100//100
f 99//99 100//100 101//101
f 101//101 100//100 102//102
f 101//101 102//102 103//103
f 103//103 102//102 104//104
f 103//103 104//104 105//105
f 105//105 104//104 106//106
f 105//105 106//106 107//107
f 107//107 106//106 108//108
f 107//107 108//108 109//109
f 109//109 108//108 110//110
f 109//109 110//110 111//111
f 111//111 110//110 112//112
f 111//111 112//112 113//113
f 113//113 112//112 114//114
f 113//113 114//114 115//115
f 115//115 114//114 116//116
f 115//115 116//116 117//117
f 117//117 116//116 118//118
f 117//117 118//118 119//119
f 119//119 118//118 120//120
f 119//119 120//120 121//121
f 121//121 120//120 122//122
f 121//121 122//122 123//123
f 123//123 122//122 124//124
f 123//123 124//124 125//125
f 125//125 124//124 126//126
f 125//125 126//126 127//127
f 127//127 126//126 128//128
f 127//127 128//128 129//129
f 129//129 128//128 130//130
f 129//129 130//130 131//131
f 131//131 130//130 132//132
f 131//131 132//132 133//133
f 133//133 132//132 134//134
f 133//133 134//134 135//135
f 135//135 134//134 136//136
f 135//135 136//136 137//137
f 137//137 136//136 138//138
f 137//137 138//138 139//139
f 139//139 138//138 140//140
f 139//139 140//140 141//141
f 141//141 140//140 142//142
f 141//141 142//142 143//143
f 143//143 142//142 144//144
f 143//143 144//144 145//145
f 145//145 144//144 146//146
f 145//145 146//146 147//147
f 147//147 146//146 148//148
f 147//147 148//148 149//149
f 149//149 148//148 150//150
f 149//149 150//150 151//151
f 151//151 150//150 152//152
f 151//151 152//152 153//153
f 153//153 152//152 154//154
f 153//153 154//154 155//155
f 155//155 154//154 156//156
f 155//155 156//156 157//157
f 157//157 156//156 158//158
f 157//157 158//158 159//159
f 159//159 158//158 160//160
f 159//159 160//160 161//161
f 161//161 160//160 162//162
f 161//161 162//162 163//163
f 163//163 162//162 164//164
f 163//163 164//164 165//165
f 165//165 164//164 166//166
f 165//165 166//166 167//167
f 167//167 166//166 168//168
f 167//167 168//168 169//169
f 169//169 168//168 170//170
f 169//169 170//170 171//171
f 171//171 170//170 172//172
f 171//171 172//172 81//81
f 81//81 172//172 82//82
f 173//173 174//174 175//175
f 175//175 174//174 176//176
f 175//175 176//176 177//177
f 177//177 176//176 178//178
f 177//177 178//178 179//179
f 179//179 178//178 180//180
f 179//179 180//180 181//181
f 181//181 180//180 182//182
f 181//181 182//182 183//183
f 183//183 182//182 184//184
f 183//183 184//184 185//185
f 185//185 184//184 186//186
f 185//185 186//186 187//187
f 187//187 186//186 188//188
f 187//187 188//188 189//189
f 189//189 188//188 190//190
f 189//189 190//190 191//191
f 191//191 190//190 192//192
f 192//192 190//190 193//193
f 193//193 190//190 194//194
f 194//194 190//190 195//195
f 195//195 190//190 196//196
f 195//195 196//196 197//197
f 197//197 196//196 198//198
f 197//197 198//198 199//199
f 199//199 198//198 200//200
f 199//199 200//200 201//201
f 201//201 200//200 202//202
f 201//201 202//202 203//203
f 203//203 202//202 204//204
f 203//203 204//204 205//205
f 205//205 204//204 206//206
f 205//205 206//206 207//207
f 207//207 206//206 208//208
f 208//208 206//206 176//176
f 208//208 176//176 174//174
f 178//178 176//176 206//206
f 178//178 206//206 204//204
f 180//180 178//178 204//204
f 180//180 204//204 202//202
f 182//182 180//180 202//202
f 182//182 202//202 200//200
f 184//184 182//182 200//200
f 184//184 200//200 198//198
f 186//186 184//184 198//198
f 186//186 198//198 196//196
f 188//188 186//186 196//196
f 188//188 196//196 190//190
f 209//209 210//210 211//211
f 211//211 210//210 212//212
f 211//211 212//212 213//213
f 207//207 208//208 213//213
f 213//213 208//208 211//211
f 208//208 174//174 211//211
f 211//211 174//174 214//214
f 211//211 214//214 215//215
f 215//215 214//214 216//216
f 216//216 214//214 217//217
f 217//217 214//214 173//173
f 173//173 214//214 174//174
f 215//215 218//218 211//211
f 211//211 218//218 209//209
f 219//219 220//220 221//221
f 221//221 220//220 222//222
f 221//221 222//222 223//223
f 223//223 222//222 224//224
f 223//223 224//224 225//225
f 225//225 224//224 226//226
f 225//225 226//226 227//227
f 227//227 226//226 228//228
f 227//227 228//228 229//229
f 229//229 228//228 230//230
f 229//229 230//230 231//231
f 231//231 230//230 232//232
f 231//231 232//232 233//233
f 233//233 232//232 234//234
f 233//233 234//234 216//216
f 216//216 234//234 235//235
f 216//216 235//235 215//215
f 215//215 235//235 218//218
f 218//218 235//235 209//209
f 209//209 235//235 236//236
f 236//236 235//235 237//237
f 237//237 235//235 238//238
f 237//237 238//238 239//239
f 239//239 238//238 240//240
f 239//239 240//240 241//241
f 241//241 240//240 242//242
f 241//241 242//242 243//243
f 243//243 242//242 244//244
f 243//243 244//244 245//245
f 245//245 244//244 246//246
f 245//245 246//246 247//247
f 247//247 246//246 248//248
f 247//247 248//248 249//249
f 249//249 248//248 250//250
f 250//250 248//248 222//222
f 250//250 222//222 220//220
f 224//224 222//222 248//248
f 224//224 248//248 246//246
f 226//226 224//224 246//246
f 226//226 246//246 244//244
f 228//228 226//226 244//244
f 228//228 244//244 242//242
f 230//230 228//228 242//242
f 230//230 242//242 240//240
f 232//232 230//230 240//240
f 232//232 240//240 238//238
f 234//234 232//232 238//238
f 234//234 238//238 235//235
f 251//251 252//252 253//253
f 253//253 252//252 254//254
f 253//253 254//254 255//255
f 249//249 250//250 255//255
f 255//255 250//250 253//253
f 250//250 220//220 253//253
f 253//253 220//220 256//256
f 253//253 256//256 257//257
f 257//257 256//256 258//258
f 258//258 256//256 259//259
f 259//259 256//256 219//219
f 219//219 256//256 220//220
f 257//257 260//260 253//253
f 253//253 260//260 251//251
f 261//261 262//262 263//263
f 263//263 262//262 264//264
f 263//263 264//264 265//265
f 265//265 264//264 266//266
f 265//265 266//266 267//267
f 267//267 266//266 268//268
f 267//267 268//268 269//269
f 269//269 268//268 270//270
f 269//269 270//270 271//271
f 271//271 270//270 272//272
f 271//271 272//272 273//273
f 273//273 272//272 274//274
f 273//273 274//274 275//275
f 275//275 274//274 276//276
f 275//275 276//276 258//258
f 258//258 276//276 277//277
f 258//258 277//277 257//257
f 257//257 277//277 260//260
f 260//260 277//277 251//251
f 251//251 277//277 278//278
f 278//278 277//277 279//279
f 279//279 277//277 280//280
f 279//279 280//280 281//281
f 281//281 280//280 282//282
f 281//281 282//282 283//283
f 283//283 282//282 284//284
f 283//283 284//284 285//285
f 285//285 284//284 286//286
f 285//285 286//286 287//287
f 287//287 286//286 288//288
f 287//287 288//288 289//289
f 289//289 288//288 290//290
f 289//289 290//290 291//291
f 291//291 290//290 292//292
f 292//292 290//290 264//264
f 292//292 264//264 262//262
f 266//266 264//264 290//290
f 266//266 290//290 288//288
f 268//268 266//266 288//288
f 268//268 288//288 286//286
f 270//270 268//268 286//286
f 270//270 286//286 284//284
f 272//272 270//270 284//284
f 272//272 284//284 282//282
f 274//274 272//272 282//282
f 274//274 282//282 280//280
f 276//276 274//274 280//280
f 276//276 280//280 277//277
f 293//293 294//294 295//295
f 295//295 294//294 296//296
f 295//295 296//296 297//297
f 291//291 292//292 297//297
f 297//297 292//292 295//295
f 292//292 262//262 295//295
f 295//295 262//262 298//298
f 295//295 298//298 299//299
f 299//299 298//298 300//300
f 300//300 298//298 301//301
f 301//301 298//298 261//261
f 261//261 298//298 262//262
f 299//299 302//302 295//295
f 295//295 302//302 293//293
f 303//303 304//304 305//305
f 305//305 304//304 306//306
f 305//305 306//306 307//307
f 307//307 306//306 308//308
f 307//307 308//308 309//309
f 309//309 308//308 310//310
f 309//309 310//310 311//311
f 311//311 310//310 312//312
f 311//311 312//312 313//313
f 313//313 312//312 314//314
f 313//313 314//314 315//315
f 315//315 314//314 316//316
f 315//315 316//316 317//317
f 317//317 316//316 318//318
f 317//317 318//318 300//300
f 300//300 318//318 319//319
f 300//300 319//319 299//299
f 299//299 319//319 302//302
f 302//302 319//319 293//293
f 293//293 319//319 320//320
f 320//320 319//319 321//321
f 321//321 319//319 322//322
f 321//321 322//322 323//323
f 323//323 322//322 324//324
f 323//323 324//324 325//325
f 325//325 324//324 326//326
f 325//325 326//326 327//327
f 327//327 326//326 328//328
f 327//327 328//328 329//329
f 329//329 328//328 330//330
f 329//329 330//330 331//331
f 331//331 330//330 332//332
f 331//331 332//332 333//333
f 333//333 332//332 334//334
f 334//334 332//332 306//306
f 334//334 306//306 304//304
f 308//308 306//306 332//332
f 308//308 332//332 330//330
f 310//310 308//308 330//330
f 310//310 330//330 328//328
f 312//312 310//310 328//328
f 312//312 328//328 326//326
f 314//314 312//312 326//326
f 314//314 326//326 324//324
f 316//316 314//314 324//324
f 316//316 324//324 322//322
f 318//318 316//316 322//322
f 318//318 322//322 319//319
f 335//335 336//336 337//337
f 337//337 336//336 338//338
f 337//337 338//338 339//339
f 333//333 334//334 339//339
f 339//339 334//334 337//337
f 334//334 304//304 337//337
f 337//337 304//304 340//340
f 337//337 340//340 341//341
f 341//341 340//340 342//342
f 342//342 340//340 343//343
f 343//343 340//340 303//303
f 303//303 340//340 304//304
f 341//341 344//344 337//337
f 337//337 344//344 335//335
f 345//345 346//346 347//347
f 347//347 346//346 348//348
f 347//347 348//348 349//349
f 349//349 348//348 350//350
f 349//349 350//350 351//351
f 351//351 350//350 352//352
f 351//351 352//352 353//353
f 353//353 352//352 354//354
f 353//353 354//354 355//355
f 355//355 354//354 356//356
f 355//355 356//356 357//357
f 357//357 356//356 358//358
f 357//357 358//358 359//359
f 359//359 358//358 360//360
f 359//359 360//360 342//342
f 342//342 360//360 361//361
f 342//342 361//361 341//341
f 341//341 361//361 344//344
f 344//344 361//361 335//335
f 335//335 361//361 362//362
f 362//362 361//361 363//363
f 363//363 361//361 364//364
f 363//363 364//364 365//365
f 365//365 364//364 366//366
f 365//365 366//366 367//367
f 367//367 366//366 368//368
f 367//367 368//368 369//369
f 369//369 368//368 370//370
f 369//369 370//370 371//371
f 371//371 370//370 372//372
f 371//371 372//372 373//373
f 373//373 372//372 374//374
f 373//373 374//374 375//375
f 375//375 374//374 376//376
f 376//376 374//374 348//348
f 376//376 348//348 346//346
f 350//350 348//348 374//374
f 350//350 374//374 372//372
f 352//352 350//350 372//372
f 352//352 372//372 370//370
f 354//354 352//352 370//370
f 354//354 370//370 368//368
f 356//356 354//354 368//368
f 356//356 368//368 366//366
f 358//358 356//356 366//366
f 358//358 366//366 364//364
f 360//360 358//358 364//364
f 360//360 364//364 361//361
f 377//377 378//378 379//379
f 379//379 378//378 380//380
f 379//379 380//380 381//381
f 375//375 376//376 381//381
f 381//381 376//376 379//379
f 376//376 346//346 379//379
f 379//379 346//346 382//382
f 379//379 382//382 383//383
f 383//383 382//382 384//384
f 384//384 382//382 385//385
f 385//385 382//382 345//345
f 345//345 382//382 346//346
f 383//383 386//386 379//379
f 379//379 386//386 377//377
f 387//387 388//388 389//389
f 389//389 388//388 390//390
f 389//389 390//390 391//391
f 391//391 390//390 392//392
f 391//391 392//392 393//393
f 393//393 392//392 394//394
f 393//393 394//394 395//395
f 395//395 394//394 396//396
f 395//395 396//396 397//397
f 397//397 396//396 398//398
f 397//397 398//398 399//399
f 399//399 398//398 400//400
f 399//399 400//400 401//401
f 401//401 400//400 402//402
f 401//401 402//402 384//384
f 384//384 402//402 403//403
f 384//384 403//403 383//383
f 383//383 403//403 386//386
f 386//386 403//403 377//377
f 377//377 403//403 404//404
f 404//404 403//403 405//405
f 405//405 403//403 406//406
f 405//405 406//406 407//407
f 407//407 406//406 408//408
f 407//407 408//408 409//409
f 409//409 408//408 410//410
f 409//409 410//410 411//411
f 411//411 410//410 412//412
f 411//411 412//412 413//413
f 413//413 412//412 414//414
f 413//413 414//414 415//415
f 415//415 414//414 416//416
f 415//415 416//416 417//417
f 417//417 416//416 418//418
f 418//418 416//416 390//390
f 418//418 390//390 388//388
f 392//392 390//390 416//416
f 392//392 416//416 414//414
f 394//394 392//392 414//414
f 394//394 414//414 412//412
f 396//396 394//394 412//412
f 396//396 412//412 410//410
f 398//398 396//396 410//410
f 398//398 410//410 408//408
f 400//400 398//398 408//408
f 400//400 408//408 406//406
f 402//402 400//400 406//406
f 402//402 406//406 403//403
f 419//419 420//420 421//421
f 421//421 420//420 422//422
f 421//421 422//422 423//423
f 417//417 418//418 423//423
f 423//423 418//418 421//421
f 418//418 388//388 421//421
f 421//421 388//388 424//424
f 421//421 424//424 425//425
f 425//425 424//424 426//426
f 426//426 424//424 427//427
f 427//427 424//424 387//387
f 387//387 424//424 388//388
f 425//425 428//428 421//421
f 421//421 428//428 419//419
f 429//429 430//430 431//431
f 431//431 430//430 432//432
f 431//431 432//432 433//433
f 433//433 432//432 434//434
f 433//433 434//434 435//435
f 435//435 434//434 436//436
f 435//435 436//436 437//437
f 437//437 436//436 438//438
f 437//437 438//438 439//439
f 439//439 438//438 440//440
f 439//439 440//440 441//441
f 441//441 440//440 442//442
f 441//441 442//442 443//443
f 443//443 442//442 444//444
f 443//443 444//444 426//426
f 426//426 444//444 445//445
f 426//426 445//445 425//425
f 425//425 445//445 428//428
f 428//428 445//445 419//419
f 419//419 445//445 446//446
f 446//446 445//445 447//447
f 447//447 445//445 448//448
f 447//447 448//448 449//449
f 449//449 448//448 450//450
f 449//449 450//450 451//451
f 451//451 450//450 452//452
f 451//451 452//452 453//453
f 453//453 452//452 454//454
f 453//453 454//454 455//455
f 455//455 454//454 456//456
f 455//455 456//456 457//457
f 457//457 456//456 458//458
f 457//457 458//458 459//459
f 459//459 458//458 460//460
f 460//460 458//458 432//432
f 460//460 432//432 430//430
f 434//434 432//432 458//458
f 434//434 458//458 456//456
f 436//436 434//434 456//456
f 436//436 456//456 454//454
f 438//438 436//436 454//454
f 438//438 454//454 452//452
f 440//440 438//438 452//452
f 440//440 452//452 450//450
f 442//442 440//440 450//450
f 442//442 450//450 448//448
f 444//444 442//442 448//448
f 444//444 448//448 445//445
f 461//461 462//462 463//463
f 463//463 462//462 464//464
f 463//463 464//464 465//465
f 459//459 460//460 465//465
f 465//465 460//460 463//463
f 460//460 430//430 463//463
f 463//463 430//430 466//466
f 463//463 466//466 467//467
f 467//467 466//466 468//468
f 468//468 466//466 469//469
f 469//469 466//466 429//429
f 429//429 466//466 430//430
f 467//467 470//470 463//463
f 463//463 470//470 461//461
f 471//471 472//472 473//473
f 473//473 472//472 474//474
f 473//473 474//474 475//475
f 475//475 474//474 476//476
f 475//475 476//476 477//477
f 477//477 476//476 478//478
f 477//477 478//478 479//479
f 479//479 478//478 480//480
f 479//479 480//480 481//481
f 481//481 480//480 482//482
f 481//481 482//482 483//483
f 483//483 482//482 484//484
f 483//483 484//484 485//485
f 485//485 484//484 486//486
f 485//485 486//486 468//468
f 468//468 486//486 487//487
f 468//468 487//487 467//467
f 467//467 487//487 470//470
f 470//470 487//487 461//461
f 461//461 487//487 488//488
f 488//488 487//487 489//489
f 489//489 487//487 490//490
f 489//489 490//490 491//491
f 491//491 490//490 492//492
f 491//491 492//492 493//493
f 493//493 492//492 494//494
f 493//493 494//494 495//495
f 495//495 494//494 496//496
f 495//495 496//496 497//497
f 497//497 496//496 498//498
f 497//497 498//498 499//499
f 499//499 498//498 500//500
f 499//499 500//500 501//501
f 501//501 500//500 502//502
f 502//502 500//500 474//474
f 502//502 474//474 472//472
f 476//476 474//474 500//500
f 476//476 500//500 498//498
f 478//478 476//476 498//498
f 478//478 498//498 496//496
f 480//480 478//478 496//496
f 480//480 496//496 494//494
f 482//482 480//480 494//494
f 482//482 494//494 492//492
f 484//484 482//482 492//492
f 484//484 492//492 490//490
f 486//486 484//484 490//490
f 486//486 490//490 487//487
f 193//193 503//503 504//504
f 504//504 503//503 505//505
f 504//504 505//505 506//506
f 506//506 507//507 504//504
f 504//504 507//507 502//502
f 504//504 502//502 472//472
f 507//507 508//508 502//502
f 502//502 508//508 501//501
f 504//504 472//472 509//509
f 509//509 472//472 471//471
f 509//509 471//471 510//510
f 510//510 189//189 509//509
f 509//509 189//189 191//191
f 509//509 191//191 504//504
f 504//504 191//191 192//192
f 504//504 192//192 193//193
f 378//378 377//377 511//511
f 375//375 381//381 512//512
f 333//333 339//339 513//513
f 511//511 377//377 514//514
f 514//514 377//377 404//404
f 514//514 404//404 515//515
f 515//515 404//404 516//516
f 516//516 404//404 517//517
f 517//517 404//404 518//518
f 518//518 404//404 405//405
f 518//518 405//405 519//519
f 519//519 405//405 520//520
f 520//520 405//405 521//521
f 521//521 405//405 522//522
f 522//522 405//405 407//407
f 522//522 407//407 523//523
f 523//523 407//407 524//524
f 524//524 407//407 409//409
f 524//524 409//409 525//525
f 525//525 409//409 526//526
f 526//526 409//409 411//411
f 526//526 411//411 527//527
f 527//527 411//411 528//528
f 528//528 411//411 413//413
f 528//528 413//413 529//529
f 529//529 413//413 530//530
f 530//530 413//413 531//531
f 531//531 413//413 532//532
f 532//532 413//413 415//415
f 532//532 415//415 533//533
f 533//533 415//415 534//534
f 534//534 415//415 535//535
f 535//535 415//415 536//536
f 536//536 415//415 417//417
f 536//536 417//417 537//537
f 420//420 419//419 538//538
f 417//417 423//423 537//537
f 291//291 297//297 539//539
f 538//538 419//419 540//540
f 540//540 419//419 446//446
f 540//540 446//446 541//541
f 541//541 446//446 542//542
f 542//542 446//446 543//543
f 543//543 446//446 544//544
f 544//544 446//446 447//447
f 544//544 447//447 545//545
f 545//545 447//447 546//546
f 546//546 447//447 547//547
f 547//547 447//447 548//548
f 548//548 447//447 449//449
f 548//548 449//449 549//549
f 549//549 449//449 550//550
f 550//550 449//449 451//451
f 550//550 451//451 551//551
f 551//551 451//451 552//552
f 552//552 451//451 453//453
f 552//552 453//453 553//553
f 553//553 453//453 554//554
f 554//554 453//453 455//455
f 554//554 455//455 555//555
f 555//555 455//455 556//556
f 556//556 455//455 557//557
f 557//557 455//455 558//558
f 558//558 455//455 457//457
f 558//558 457//457 559//559
f 559//559 457//457 560//560
f 560//560 457//457 561//561
f 561//561 457//457 562//562
f 562//562 457//457 459//459
f 562//562 459//459 563//563
f 462//462 461//461 564//564
f 459//459 465//465 563//563
f 249//249 255//255 565//565
f 564//564 461//461 566//566
f 566//566 461//461 488//488
f 566//566 488//488 567//567
f 567//567 488//488 568//568
f 568//568 488//488 569//569
f 569//569 488//488 570//570
f 570//570 488//488 489//489
f 570//570 489//489 571//571
f 571//571 489//489 572//572
f 572//572 489//489 573//573
f 573//573 489//489 574//574
f 574//574 489//489 491//491
f 574//574 491//491 575//575
f 575//575 491//491 576//576
f 576//576 491//491 493//493
f 576//576 493//493 577//577
f 577//577 493//493 578//578
f 578//578 493//493 495//495
f 578//578 495//495 579//579
f 579//579 495//495 580//580
f 580//580 495//495 497//497
f 580//580 497//497 581//581
f 581//581 497//497 582//582
f 582//582 497//497 583//583
f 583//583 497//497 584//584
f 584//584 497//497 499//499
f 584//584 499//499 585//585
f 585//585 499//499 586//586
f 586//586 499//499 587//587
f 587//587 499//499 588//588
f 588//588 499//499 501//501
f 588//588 501//501 589//589
f 503//503 193//193 590//590
f 501//501 508//508 589//589
f 207//207 213//213 591//591
f 590//590 193//193 592//592
f 592//592 193//193 194//194
f 592//592 194//194 593//593
f 593//593 194//194 594//594
f 594//594 194//194 595//595
f 595//595 194//194 596//596
f 596//596 194//194 195//195
f 596//596 195//195 597//597
f 597//597 195//195 598//598
f 598//598 195//195 599//599
f 599//599 195//195 600//600
f 600//600 195//195 197//197
f 600//600 197//197 601//601
f 601//601 197//197 602//602
f 602//602 197//197 199//199
f 602//602 199//199 603//603
f 603//603 199//199 604//604
f 604//604 199//199 201//201
f 604//604 201//201 605//605
f 605//605 201//201 606//606
f 606//606 201//201 203//203
f 606//606 203//203 607//607
f 607//607 203//203 608//608
f 608//608 203//203 609//609
f 609//609 203//203 610//610
f 610//610 203//203 205//205
f 610//610 205//205 611//611
f 611//611 205//205 612//612
f 612//612 205//205 613//613
f 613//613 205//205 614//614
f 614//614 205//205 207//207
f 614//614 207//207 591//591
f 615//615 359//359 616//616
f 616//616 359//359 342//342
f 616//616 342//342 343//343
f 359//359 615//615 357//357
f 357//357 615//615 617//617
f 357//357 617//617 355//355
f 355//355 617//617 618//618
f 355//355 618//618 353//353
f 353//353 618//618 351//351
f 351//351 618//618 619//619
f 351//351 619//619 349//349
f 349//349 619//619 620//620
f 349//349 620//620 347//347
f 347//347 620//620 345//345
f 345//345 620//620 621//621
f 345//345 621//621 385//385
f 385//385 621//621 384//384
f 384//384 621//621 401//401
f 401//401 621//621 622//622
f 401//401 622//622 399//399
f 399//399 622//622 623//623
f 399//399 623//623 397//397
f 397//397 623//623 395//395
f 395//395 623//623 624//624
f 395//395 624//624 393//393
f 393//393 624//624 625//625
f 393//393 625//625 391//391
f 391//391 625//625 626//626
f 391//391 626//626 389//389
f 389//389 626//626 387//387
f 387//387 626//626 627//627
f 387//387 627//627 427//427
f 427//427 627//627 426//426
f 426//426 627//627 443//443
f 443//443 627//627 628//628
f 443//443 628//628 441//441
f 441//441 628//628 629//629
f 441//441 629//629 439//439
f 439//439 629//629 437//437
f 437//437 629//629 630//630
f 437//437 630//630 435//435
f 435//435 630//630 631//631
f 435//435 631//631 433//433
f 433//433 631//631 431//431
f 431//431 631//631 632//632
f 431//431 632//632 429//429
f 429//429 632//632 633//633
f 429//429 633//633 469//469
f 469//469 633//633 468//468
f 468//468 633//633 485//485
f 485//485 633//633 634//634
f 485//485 634//634 483//483
f 483//483 634//634 481//481
f 481//481 634//634 635//635
f 481//481 635//635 479//479
f 479//479 635//635 636//636
f 479//479 636//636 477//477
f 477//477 636//636 637//637
f 477//477 637//637 475//475
f 475//475 637//637 473//473
f 473//473 637//637 638//638
f 473//473 638//638 471//471
f 471//471 638//638 510//510
f 510//510 638//638 639//639
f 510//510 639//639 189//189
f 189//189 639//639 187//187
f 187//187 639//639 640//640
f 187//187 640//640 185//185
f 185//185 640//640 183//183
f 183//183 640//640 641//641
f 183//183 641//641 181//181
f 181//181 641//641 642//642
f 181//181 642//642 179//179
f 179//179 642//642 177//177
f 177//177 642//642 643//643
f 177//177 643//643 175//175
f 175//175 643//643 644//644
f 175//175 644//644 173//173
f 173//173 644//644 217//217
f 217//217 644//644 216//216
f 216//216 644//644 645//645
f 216//216 645//645 233//233
f 233//233 645//645 646//646
f 233//233 646//646 231//231
f 231//231 646//646 229//229
f 229//229 646//646 647//647
f 229//229 647//647 227//227
f 227//227 647//647 648//648
f 227//227 648//648 225//225
f 225//225 648//648 223//223
f 223//223 648//648 649//649
f 223//223 649//649 221//221
f 221//221 649//649 650//650
f 221//221 650//650 219//219
f 219//219 650//650 259//259
f 259//259 650//650 258//258
f 258//258 650//650 651//651
f 258//258 651//651 275//275
f 275//275 651//651 273//273
f 273//273 651//651 652//652
f 273//273 652//652 271//271
f 271//271 652//652 653//653
f 271//271 653//653 269//269
f 269//269 653//653 654//654
f 269//269 654//654 267//267
f 267//267 654//654 265//265
f 265//265 654//654 655//655
f 265//265 655//655 263//263
f 263//263 655//655 656//656
f 263//263 656//656 261//261
f 261//261 656//656 301//301
f 301//301 656//656 300//300
f 300//300 656//656 657//657
f 300//300 657//657 317//317
f 317//317 657//657 315//315
f 315//315 657//657 658//658
f 315//315 658//658 313//313
f 313//313 658//658 659//659
f 313//313 659//659 311//311
f 311//311 659//659 309//309
f 309//309 659//659 660//660
f 309//309 660//660 307//307
f 307//307 660//660 661//661
f 307//307 661//661 305//305
f 305//305 661//661 303//303
f 303//303 661//661 616//616
f 303//303 616//616 343//343
f 662//662 209//209 663//663
f 663//663 209//209 236//236
f 663//663 236//236 664//664
f 664//664 236//236 665//665
f 665//665 236//236 666//666
f 666//666 236//236 667//667
f 667//667 236//236 237//237
f 667//667 237//237 668//668
f 668//668 237//237 669//669
f 669//669 237//237 670//670
f 670//670 237//237 671//671
f 671//671 237//237 239//239
f 671//671 239//239 672//672
f 672//672 239//239 673//673
f 673//673 239//239 241//241
f 673//673 241//241 674//674
f 674//674 241//241 675//675
f 675//675 241//241 243//243
f 675//675 243//243 676//676
f 676//676 243//243 677//677
f 677//677 243//243 245//245
f 677//677 245//245 678//678
f 678//678 245//245 679//679
f 679//679 245//245 680//680
f 680//680 245//245 681//681
f 681//681 245//245 247//247
f 681//681 247//247 682//682
f 682//682 247//247 683//683
f 683//683 247//247 684//684
f 684//684 247//247 685//685
f 685//685 247//247 249//249
f 685//685 249//249 565//565
f 252//252 251//251 686//686
f 686//686 251//251 687//687
f 687//687 251//251 278//278
f 687//687 278//278 688//688
f 688//688 278//278 689//689
f 689//689 278//278 690//690
f 690//690 278//278 691//691
f 691//691 278//278 279//279
f 691//691 279//279 692//692
f 692//692 279//279 693//693
f 693//693 279//279 694//694
f 694//694 279//279 695//695
f 695//695 279//279 281//281
f 695//695 281//281 696//696
f 696//696 281//281 697//697
f 697//697 281//281 283//283
f 697//697 283//283 698//698
f 698//698 283//283 699//699
f 699//699 283//283 285//285
f 699//699 285//285 700//700
f 700//700 285//285 701//701
f 701//701 285//285 287//287
f 701//701 287//287 702//702
f 702//702 287//287 703//703
f 703//703 287//287 704//704
f 704//704 287//287 705//705
f 705//705 287//287 289//289
f 705//705 289//289 706//706
f 706//706 289//289 707//707
f 707//707 289//289 708//708
f 708//708 289//289 709//709
f 709//709 289//289 291//291
f 709//709 291//291 539//539
f 294//294 293//293 710//710
f 710//710 293//293 711//711
f 711//711 293//293 320//320
f 711//711 320//320 712//712
f 712//712 320//320 713//713
f 713//713 320//320 714//714
f 714//714 320//320 715//715
f 715//715 320//320 321//321
f 715//715 321//321 716//716
f 716//716 321//321 717//717
f 717//717 321//321 718//718
f 718//718 321//321 719//719
f 719//719 321//321 323//323
f 719//719 323//323 720//720
f 720//720 323//323 721//721
f 721//721 323//323 325//325
f 721//721 325//325 722//722
f 722//722 325//325 723//723
f 723//723 325//325 327//327
f 723//723 327//327 724//724
f 724//724 327//327 725//725
f 725//725 327//327 329//329
f 725//725 329//329 726//726
f 726//726 329//329 727//727
f 727//727 329//329 728//728
f 728//728 329//329 331//331
f 728//728 331//331 729//729
f 729//729 331//331 730//730
f 730//730 331//331 731//731
f 731//731 331//331 732//732
f 732//732 331//331 733//733
f 733//733 331//331 333//333
f 733//733 333//333 513//513
f 336//336 335//335 734//734
f 734//734 335//335 735//735
f 735//735 335//335 362//362
f 735//735 362//362 736//736
f 736//736 362//362 737//737
f 737//737 362//362 738//738
f 738//738 362//362 739//739
f 739//739 362//362 363//363
f 739//739 363//363 740//740
f 740//740 363//363 741//741
f 741//741 363//363 742//742
f 742//742 363//363 743//743
f 743//743 363//363 365//365
f 743//743 365//365 744//744
f 744//744 365//365 745//745
f 745//745 365//365 367//367
f 745//745 367//367 746//746
f 746//746 367//367 747//747
f 747//747 367//367 369//369
f 747//747 369//369 748//748
f 748//748 369//369 749//749
f 749//749 369//369 371//371
f 749//749 371//371 750//750
f 750//750 371//371 751//751
f 751//751 371//371 752//752
f 752//752 371//371 753//753
f 753//753 371//371 373//373
f 753//753 373//373 754//754
f 754//754 373//373 755//755
f 755//755 373//373 756//756
f 756//756 373//373 757//757
f 757//757 373//373 375//375
f 757//757 375//375 512//512
f 85//85 615//615 83//83
f 83//83 615//615 616//616
f 83//83 616//616 661//661
f 615//615 85//85 617//617
f 617//617 85//85 87//87
f 617//617 87//87 618//618
f 618//618 87//87 89//89
f 618//618 89//89 619//619
f 619//619 89//89 91//91
f 619//619 91//91 620//620
f 620//620 91//91 93//93
f 620//620 93//93 621//621
f 621//621 93//93 95//95
f 621//621 95//95 622//622
f 622//622 95//95 97//97
f 622//622 97//97 623//623
f 623//623 97//97 99//99
f 623//623 99//99 624//624
f 624//624 99//99 101//101
f 624//624 101//101 625//625
f 625//625 101//101 103//103
f 625//625 103//103 626//626
f 626//626 103//103 105//105
f 626//626 105//105 627//627
f 627//627 105//105 107//107
f 627//627 107//107 628//628
f 628//628 107//107 109//109
f 628//628 109//109 629//629
f 629//629 109//109 111//111
f 629//629 111//111 630//630
f 630//630 111//111 113//113
f 630//630 113//113 631//631
f 631//631 113//113 115//115
f 631//631 115//115 632//632
f 632//632 115//115 117//117
f 632//632 117//117 633//633
f 633//633 117//117 119//119
f 633//633 119//119 634//634
f 634//634 119//119 121//121
f 634//634 121//121 635//635
f 635//635 121//121 123//123
f 635//635 123//123 636//636
f 636//636 123//123 125//125
f 636//636 125//125 637//637
f 637//637 125//125 127//127
f 637//637 127//127 638//638
f 638//638 127//127 129//129
f 638//638 129//129 639//639
f 639//639 129//129 131//131
f 639//639 131//131 640//640
f 640//640 131//131 133//133
f 640//640 133//133 641//641
f 641//641 133//133 135//135
f 641//641 135//135 642//642
f 642//642 135//135 137//137
f 642//642 137//137 643//643
f 643//643 137//137 139//139
f 643//643 139//139 644//644
f 644//644 139//139 141//141
f 644//644 141//141 645//645
f 645//645 141//141 143//143
f 645//645 143//143 646//646
f 646//646 143//143 145//145
f 646//646 145//145 647//647
f 647//647 145//145 147//147
f 647//647 147//147 648//648
f 648//648 147//147 149//149
f 648//648 149//149 649//649
f 649//649 149//149 151//151
f 649//649 151//151 650//650
f 650//650 151//151 153//153
f 650//650 153//153 651//651
f 651//651 153//153 155//155
f 651//651 155//155 652//652
f 652//652 155//155 157//157
f 652//652 157//157 653//653
f 653//653 157//157 159//159
f 653//653 159//159 654//654
f 654//654 159//159 161//161
f 654//654 161//161 655//655
f 655//655 161//161 163//163
f 655//655 163//163 656//656
f 656//656 163//163 165//165
f 656//656 165//165 657//657
f 657//657 165//165 167//167
f 657//657 167//167 658//658
f 658//658 167//167 169//169
f 658//658 169//169 659//659
f 659//659 169//169 171//171
f 659//659 171//171 660//660
f 660//660 171//171 81//81
f 660//660 81//81 661//661
f 661//661 81//81 83//83
f 734//734 735//735 336//336
f 336//336 735//735 736//736
f 336//336 736//736 737//737
f 336//336 737//737 338//338
f 338//338 737//737 738//738
f 338//338 738//738 739//739
f 740//740 728//728 739//739
f 739//739 728//728 729//729
f 739//739 729//729 338//338
f 338//338 729//729 730//730
f 338//338 730//730 731//731
f 728//728 740//740 727//727
f 727//727 740//740 741//741
f 727//727 741//741 726//726
f 726//726 741//741 742//742
f 726//726 742//742 725//725
f 725//725 742//742 743//743
f 725//725 743//743 724//724
f 724//724 743//743 744//744
f 724//724 744//744 723//723
f 723//723 744//744 745//745
f 723//723 745//745 722//722
f 722//722 745//745 746//746
f 722//722 746//746 51//51
f 51//51 746//746 66//66
f 338//338 731//731 339//339
f 339//339 731//731 732//732
f 339//339 732//732 733//733
f 733//733 513//513 339//339
f 526//526 550//550 525//525
f 525//525 550//550 551//551
f 525//525 551//551 65//65
f 65//65 551//551 63//63
f 550//550 526//526 549//549
f 549//549 526//526 527//527
f 549//549 527//527 548//548
f 548//548 527//527 528//528
f 548//548 528//528 547//547
f 547//547 528//528 529//529
f 547//547 529//529 546//546
f 546//546 529//529 530//530
f 546//546 530//530 545//545
f 545//545 530//530 531//531
f 545//545 531//531 544//544
f 544//544 531//531 532//532
f 544//544 532//532 422//422
f 422//422 532//532 533//533
f 422//422 533//533 534//534
f 422//422 534//534 423//423
f 423//423 534//534 535//535
f 423//423 535//535 536//536
f 536//536 537//537 423//423
f 420//420 542//542 422//422
f 422//422 542//542 543//543
f 422//422 543//543 544//544
f 538//538 540//540 420//420
f 420//420 540//540 541//541
f 420//420 541//541 542//542
f 552//552 576//576 551//551
f 551//551 576//576 577//577
f 551//551 577//577 63//63
f 63//63 577//577 60//60
f 576//576 552//552 575//575
f 575//575 552//552 553//553
f 575//575 553//553 574//574
f 574//574 553//553 554//554
f 574//574 554//554 573//573
f 573//573 554//554 555//555
f 573//573 555//555 572//572
f 572//572 555//555 556//556
f 572//572 556//556 571//571
f 571//571 556//556 557//557
f 571//571 557//557 570//570
f 570//570 557//557 558//558
f 570//570 558//558 464//464
f 464//464 558//558 559//559
f 464//464 559//559 560//560
f 464//464 560//560 465//465
f 465//465 560//560 561//561
f 465//465 561//561 562//562
f 562//562 563//563 465//465
f 462//462 568//568 464//464
f 464//464 568//568 569//569
f 464//464 569//569 570//570
f 564//564 566//566 462//462
f 462//462 566//566 567//567
f 462//462 567//567 568//568
f 578//578 602//602 577//577
f 577//577 602//602 603//603
f 577//577 603//603 60//60
f 60//60 603//603 54//54
f 602//602 578//578 601//601
f 601//601 578//578 579//579
f 601//601 579//579 600//600
f 600//600 579//579 580//580
f 600//600 580//580 599//599
f 599//599 580//580 581//581
f 599//599 581//581 598//598
f 598//598 581//581 582//582
f 598//598 582//582 597//597
f 597//597 582//582 583//583
f 597//597 583//583 596//596
f 596//596 583//583 584//584
f 596//596 584//584 506//506
f 506//506 584//584 507//507
f 507//507 584//584 585//585
f 507//507 585//585 508//508
f 508//508 585//585 586//586
f 508//508 586//586 587//587
f 587//587 588//588 508//508
f 508//508 588//588 589//589
f 506//506 505//505 596//596
f 596//596 505//505 595//595
f 595//595 505//505 503//503
f 595//595 503//503 594//594
f 594//594 503//503 593//593
f 593//593 503//503 592//592
f 592//592 503//503 590//590
f 604//604 673//673 603//603
f 603//603 673//673 674//674
f 603//603 674//674 54//54
f 54//54 674//674 53//53
f 673//673 604//604 672//672
f 672//672 604//604 605//605
f 672//672 605//605 671//671
f 671//671 605//605 606//606
f 671//671 606//606 670//670
f 670//670 606//606 607//607
f 670//670 607//607 669//669
f 669//669 607//607 608//608
f 669//669 608//608 668//668
f 668//668 608//608 609//609
f 668//668 609//609 667//667
f 667//667 609//609 610//610
f 667//667 610//610 212//212
f 212//212 610//610 611//611
f 212//212 611//611 612//612
f 212//212 612//612 213//213
f 213//213 612//612 613//613
f 213//213 613//613 614//614
f 614//614 591//591 213//213
f 210//210 665//665 212//212
f 212//212 665//665 666//666
f 212//212 666//666 667//667
f 662//662 663//663 210//210
f 210//210 663//663 664//664
f 210//210 664//664 665//665
f 210//210 209//209 662//662
f 52//52 53//53 698//698
f 698//698 53//53 674//674
f 698//698 674//674 697//697
f 697//697 674//674 675//675
f 697//697 675//675 696//696
f 696//696 675//675 676//676
f 696//696 676//676 695//695
f 695//695 676//676 677//677
f 695//695 677//677 694//694
f 694//694 677//677 678//678
f 694//694 678//678 693//693
f 693//693 678//678 679//679
f 693//693 679//679 692//692
f 692//692 679//679 680//680
f 692//692 680//680 691//691
f 691//691 680//680 681//681
f 691//691 681//681 254//254
f 254//254 681//681 682//682
f 254//254 682//682 683//683
f 254//254 683//683 255//255
f 255//255 683//683 684//684
f 255//255 684//684 685//685
f 685//685 565//565 255//255
f 252//252 689//689 254//254
f 254//254 689//689 690//690
f 254//254 690//690 691//691
f 686//686 687//687 252//252
f 252//252 687//687 688//688
f 252//252 688//688 689//689
f 699//699 721//721 698//698
f 698//698 721//721 722//722
f 698//698 722//722 52//52
f 52//52 722//722 51//51
f 721//721 699//699 720//720
f 720//720 699//699 700//700
f 720//720 700//700 719//719
f 719//719 700//700 701//701
f 719//719 701//701 718//718
f 718//718 701//701 702//702
f 718//718 702//702 717//717
f 717//717 702//702 703//703
f 717//717 703//703 716//716
f 716//716 703//703 704//704
f 716//716 704//704 715//715
f 715//715 704//704 705//705
f 715//715 705//705 296//296
f 296//296 705//705 706//706
f 296//296 706//706 707//707
f 296//296 707//707 297//297
f 297//297 707//707 708//708
f 297//297 708//708 709//709
f 709//709 539//539 297//297
f 294//294 713//713 296//296
f 296//296 713//713 714//714
f 296//296 714//714 715//715
f 710//710 711//711 294//294
f 294//294 711//711 712//712
f 294//294 712//712 713//713
f 747//747 524//524 746//746
f 746//746 524//524 525//525
f 746//746 525//525 66//66
f 66//66 525//525 65//65
f 524//524 747//747 523//523
f 523//523 747//747 748//748
f 523//523 748//748 522//522
f 522//522 748//748 749//749
f 522//522 749//749 521//521
f 521//521 749//749 750//750
f 521//521 750//750 520//520
f 520//520 750//750 751//751
f 520//520 751//751 519//519
f 519//519 751//751 752//752
f 519//519 752//752 518//518
f 518//518 752//752 753//753
f 518//518 753//753 380//380
f 380//380 753//753 754//754
f 380//380 754//754 755//755
f 380//380 755//755 381//381
f 381//381 755//755 756//756
f 381//381 756//756 757//757
f 757//757 512//512 381//381
f 378//378 516//516 380//380
f 380//380 516//516 517//517
f 380//380 517//517 518//518
f 511//511 514//514 378//378
f 378//378 514//514 515//515
f 378//378 515//515 516//516
f 82//82 132//132 84//84
f 84//84 132//132 130//130
f 84//84 130//130 86//86
f 86//86 130//130 128//128
f 86//86 128//128 88//88
f 88//88 128//128 126//126
f 88//88 126//126 90//90
f 90//90 126//126 124//124
f 90//90 124//124 92//92
f 92//92 124//124 122//122
f 92//92 122//122 94//94
f 94//94 122//122 120//120
f 94//94 120//120 96//96
f 96//96 120//120 118//118
f 96//96 118//118 98//98
f 98//98 118//118 116//116
f 98//98 116//116 100//100
f 100//100 116//116 114//114
f 100//100 114//114 102//102
f 102//102 114//114 112//112
f 102//102 112//112 104//104
f 104//104 112//112 110//110
f 104//104 110//110 106//106
f 106//106 110//110 108//108
f 132//132 82//82 134//134
f 134//134 82//82 172//172
f 134//134 172//172 136//136
f 136//136 172//172 170//170
f 136//136 170//170 138//138
f 138//138 170//170 168//168
f 138//138 168//168 140//140
f 140//140 168//168 166//166
f 140//140 166//166 142//142
f 142//142 166//166 164//164
f 142//142 164//164 144//144
f 144//144 164//164 162//162
f 144//144 162//162 146//146
f 146//146 162//162 160//160
f 146//146 160//160 148//148
f 148//148 160//160 158//158
f 148//148 158//158 150//150
f 150//150 158//158 156//156
f 150//150 156//156 152//152
f 152//152 156//156 154//154
f 69//69 70//70 71//71
f 71//71 70//70 80//80
f 71//71 80//80 78//78
f 78//78 80//80 79//79
f 77//77 76//76 78//78
f 78//78 76//76 75//75
f 78//78 75//75 74//74
f 78//78 74//74 71//71
f 71//71 74//74 73//73
f 71//71 73//73 72//72
# 1510 faces, 0 coords texture

# End of File
