####
#
# OBJ File Generated by Meshlab
#
####
# Object wx200_9_gripper_finger.obj
#
# Vertices: 222
# Faces: 444
#
####
mtllib ./wx200_9_gripper_finger.obj.mtl

vn -2.8559937 0.8760797 -2.9836547
v -8.0000000 4.2626433 2.3507571
vn 2.8559930 0.8760797 -2.9836547
v -9.5499992 4.2626433 2.3507571
vn -2.8559933 0.0000000 -3.1096158
v -8.0000000 4.9528880 2.4499993
vn 2.8559933 0.0000000 -3.1096158
v -9.5499992 4.9528880 2.4499993
vn -2.8559933 -0.8760794 -2.9836547
v -8.0000000 5.6431327 2.3507571
vn 2.8559937 -0.8760794 -2.9836545
v -9.5499992 5.6431327 2.3507571
vn -2.8559923 -1.6811851 -2.6159751
v -8.0000000 6.2774582 2.0610707
vn 2.8559923 -1.6811850 -2.6159751
v -9.5499992 6.2774582 2.0610707
vn -2.8559937 -2.3500910 -2.0363655
v -8.0000000 6.8044744 1.6044083
vn 2.8559940 -2.3500910 -2.0363655
v -9.5499992 6.8044744 1.6044083
vn -2.8559928 -2.8286057 -1.2917814
v -8.0000000 7.1814866 1.0177662
vn 2.8559926 -2.8286057 -1.2917814
v -9.5499992 7.1814866 1.0177662
vn -2.8559935 -3.0779643 -0.4425443
v -8.0000000 7.3779507 0.3486708
vn 2.8559935 -3.0779643 -0.4425443
v -9.5499992 7.3779507 0.3486708
vn -2.8559935 -3.0779643 0.4425443
v -8.0000000 7.3779507 -0.3486719
vn 2.8559935 -3.0779643 0.4425443
v -9.5499992 7.3779507 -0.3486719
vn -2.8559926 -2.8286057 1.2917814
v -8.0000000 7.1814866 -1.0177673
vn 2.8559928 -2.8286057 1.2917814
v -9.5499992 7.1814866 -1.0177673
vn -2.8559937 -2.3500907 2.0363655
v -8.0000000 6.8044744 -1.6044093
vn 2.8559937 -2.3500905 2.0363655
v -9.5499992 6.8044744 -1.6044093
vn -2.8559926 -1.6811852 2.6159751
v -8.0000000 6.2774582 -2.0610716
vn 2.8559930 -1.6811852 2.6159751
v -9.5499992 6.2774582 -2.0610716
vn -2.8559935 -0.8760799 2.9836545
v -8.0000000 5.6431327 -2.3507583
vn 2.8559928 -0.8760799 2.9836545
v -9.5499992 5.6431327 -2.3507583
vn -2.8559933 0.0000000 3.1096158
v -8.0000000 4.9528880 -2.4500005
vn 2.8559933 0.0000000 3.1096158
v -9.5499992 4.9528880 -2.4500005
vn -2.8559928 0.8760801 2.9836545
v -8.0000000 4.2626433 -2.3507583
vn 2.8559933 0.8760800 2.9836545
v -9.5499992 4.2626433 -2.3507583
vn -2.8559933 1.6811852 2.6159751
v -8.0000000 3.6283181 -2.0610716
vn 2.8559930 1.6811852 2.6159754
v -9.5499992 3.6283181 -2.0610716
vn -2.8559930 2.3500907 2.0363655
v -8.0000000 3.1013017 -1.6044093
vn 2.8559930 2.3500907 2.0363655
v -9.5499992 3.1013017 -1.6044093
vn -2.8559933 2.8286059 1.2917809
v -8.0000000 2.7242897 -1.0177673
vn 2.8559928 2.8286057 1.2917809
v -9.5499992 2.7242897 -1.0177673
vn -2.8559935 3.0779643 0.4425443
v -8.0000000 2.5278256 -0.3486719
vn 2.8559935 3.0779643 0.4425443
v -9.5499992 2.5278256 -0.3486719
vn -2.8559935 3.0779643 -0.4425443
v -8.0000000 2.5278256 0.3486708
vn 2.8559935 3.0779643 -0.4425443
v -9.5499992 2.5278256 0.3486708
vn -2.8559928 2.8286057 -1.2917809
v -8.0000000 2.7242897 1.0177662
vn 2.8559933 2.8286059 -1.2917809
v -9.5499992 2.7242897 1.0177662
vn -2.8559935 2.3500907 -2.0363655
v -8.0000000 3.1013017 1.6044083
vn 2.8559933 2.3500907 -2.0363653
v -9.5499992 3.1013017 1.6044083
vn -2.8559926 1.6811850 -2.6159754
v -8.0000000 3.6283181 2.0610707
vn 2.8559926 1.6811850 -2.6159754
v -9.5499992 3.6283181 2.0610707
vn -2.6500707 -2.3282692 -1.1413008
v -12.0000000 8.9528885 6.9999995
vn -4.7123890 -1.5707964 -1.5707964
v -12.0000000 8.9528885 4.9999995
vn -5.6938457 -0.7105915 -1.5648627
v -12.0000000 0.9629265 6.9999995
vn -4.7123890 -1.5707964 1.5707964
v -12.0000000 8.9528885 -5.0000005
vn -5.6939011 -0.7105914 1.5648625
v -12.0000000 0.9629265 -7.0000005
vn -2.6500707 -2.3282692 1.1413008
v -12.0000000 8.9528885 -7.0000005
vn -1.5707964 4.7123876 -1.5707964
v -12.0000000 13.9528885 4.9999995
vn -1.5707964 4.7123876 1.5707964
v -12.0000000 13.9528885 -5.0000005
vn -4.2664485 -3.9145536 2.0237317
v -12.0000000 0.9528881 -7.0135598
vn -4.2665043 -3.9145544 -2.0237317
v -12.0000000 0.9528881 7.0135589
vn 1.5707964 1.5707929 -1.5707964
v 5.0000000 13.9528885 -14.5000010
vn 3.1029148 3.4557517 -0.0000001
v 1.9000000 13.9528885 -10.0000000
vn 1.5707963 1.5707982 1.5707964
v 5.0000000 13.9528885 -5.0000000
vn 2.9510474 3.4557524 0.9588538
v 1.8070074 13.9528885 -9.4128675
vn 2.5103106 3.4557512 1.8238478
v 1.5371323 13.9528885 -8.8832083
vn -0.0881081 3.0854757 -3.1391191
v -12.0000000 13.9528885 -14.5000010
vn -0.9588522 3.4557540 -2.9510469
v -0.5871323 13.9528885 -11.8070078
vn 0.0000000 3.4557495 -3.1029153
v -0.0000000 13.9528885 -11.8999996
vn 0.9588523 3.4557538 -2.9510469
v 0.5871323 13.9528885 -11.8070078
vn -1.2578410 1.5776811 -2.3368104
v -42.3107948 13.9528885 -12.7971468
vn 1.5707964 4.7123871 1.5707964
v -16.0000000 13.9528885 -5.0000005
vn -3.1029148 3.4557514 -0.0000001
v -1.9000000 13.9528885 -10.0000000
vn -2.9510472 3.4557528 0.9588537
v -1.8070074 13.9528885 -9.4128675
vn 1.5707964 4.7123895 1.5707964
v -5.0000000 13.9528885 -5.0000000
vn -2.5103106 3.4557512 1.8238479
v -1.5371323 13.9528885 -8.8832083
vn -1.8238487 3.4557514 2.5103099
v -1.1167920 13.9528885 -8.4628677
vn -0.9588523 3.4557540 2.9510469
v -0.5871323 13.9528885 -8.1929922
vn 0.0000000 3.4557493 3.1029153
v -0.0000000 13.9528885 -8.1000004
vn 0.9588522 3.4557540 2.9510469
v 0.5871323 13.9528885 -8.1929922
vn 1.8238487 3.4557514 2.5103102
v 1.1167920 13.9528885 -8.4628677
vn -2.1049099 1.4179567 -1.3275931
v -43.1500015 13.9528885 -12.1011400
vn 1.5707964 4.7123871 -1.5707964
v -16.0000000 13.9528885 4.9999995
vn -2.1049099 1.4179566 1.3275932
v -43.1500015 13.9528885 12.1011391
vn -1.2578409 1.5776811 2.3368104
v -42.3107948 13.9528885 12.7971458
vn -0.0881080 3.0854630 3.1391191
v -12.0000000 13.9528885 14.4999990
vn -3.1029148 3.4557514 -0.0000001
v -1.9000000 13.9528885 10.0000000
vn -2.9510469 3.4557528 -0.9588537
v -1.8070074 13.9528885 9.4128675
vn 1.5707963 1.5707922 1.5707964
v 5.0000000 13.9528885 14.4999990
vn -0.9588523 3.4557540 2.9510469
v -0.5871323 13.9528885 11.8070078
vn -1.8238487 3.4557514 2.5103099
v -1.1167920 13.9528885 11.5371323
vn -2.5103106 3.4557512 1.8238479
v -1.5371323 13.9528885 11.1167917
vn 1.5707964 1.5707979 -1.5707964
v 5.0000000 13.9528885 5.0000000
vn 3.1029148 3.4557517 -0.0000001
v 1.9000000 13.9528885 10.0000000
vn 2.9510474 3.4557524 0.9588538
v 1.8070074 13.9528885 10.5871325
vn 2.5103106 3.4557512 1.8238478
v 1.5371323 13.9528885 11.1167917
vn 1.5707963 4.7123895 -1.5707964
v -5.0000000 13.9528885 5.0000000
vn 0.0000000 3.4557493 -3.1029153
v -0.0000000 13.9528885 8.1000004
vn 0.9588523 3.4557540 -2.9510469
v 0.5871323 13.9528885 8.1929922
vn 1.8238487 3.4557514 -2.5103099
v 1.1167920 13.9528885 8.4628677
vn -2.5103106 3.4557512 -1.8238478
v -1.5371323 13.9528885 8.8832083
vn 1.8238487 3.4557514 2.5103102
v 1.1167920 13.9528885 11.5371323
vn 0.9588522 3.4557538 2.9510469
v 0.5871323 13.9528885 11.8070078
vn 0.0000000 3.4557493 3.1029153
v -0.0000000 13.9528885 11.8999996
vn -2.9510472 3.4557524 0.9588537
v -1.8070074 13.9528885 10.5871325
vn -1.8238487 3.4557514 -2.5103102
v -1.1167920 13.9528885 8.4628677
vn -0.9588522 3.4557540 -2.9510469
v -0.5871323 13.9528885 8.1929922
vn 2.5103106 3.4557512 -1.8238478
v 1.5371323 13.9528885 8.8832083
vn 2.9510469 3.4557524 -0.9588537
v 1.8070074 13.9528885 9.4128675
vn -2.9510469 3.4557524 -0.9588537
v -1.8070074 13.9528885 -10.5871325
vn -2.5103106 3.4557512 -1.8238478
v -1.5371323 13.9528885 -11.1167917
vn -1.8238487 3.4557514 -2.5103102
v -1.1167920 13.9528885 -11.5371323
vn 1.8238487 3.4557514 -2.5103099
v 1.1167920 13.9528885 -11.5371323
vn 2.5103106 3.4557512 -1.8238478
v 1.5371323 13.9528885 -11.1167917
vn 2.9510469 3.4557526 -0.9588537
v 1.8070074 13.9528885 -10.5871325
vn 0.0000000 3.1415930 3.1415927
v 5.0000000 9.9528885 -5.0000000
vn 1.5707985 1.5707946 -4.7123890
v 5.0000000 9.9528885 -14.5000010
vn 1.1107234 2.3561959 -2.6815169
v 6.2500000 9.9528885 -14.4999990
vn 2.6654613 2.4990988 -1.3343862
v 8.1499996 9.9528885 -12.5999985
vn 0.7723217 5.7519011 -1.2935424
v 9.2938852 9.9528885 -4.6500006
vn 0.7723217 5.7519011 1.2935424
v 9.2938852 9.9528885 4.6499996
vn 2.3561940 2.6815169 1.1107206
v 12.1499996 9.9528885 4.6499996
vn -0.0000001 3.1415930 -3.1415927
v 5.0000000 9.9528885 5.0000000
vn 2.6654611 2.4990988 1.3343862
v 8.1499996 9.9528885 12.5999985
vn 1.1107210 2.3561945 2.6815169
v 6.2500000 9.9528885 14.4999990
vn 1.5707964 1.5707964 4.7123890
v 5.0000000 9.9528885 14.4999990
vn 2.3561945 2.6815171 -1.1107206
v 12.1499996 9.9528885 -4.6500006
vn -1.5707964 -4.7123380 -1.5707964
v 5.0000000 -0.0471119 5.0000000
vn 1.5707964 -4.7123890 -1.5707964
v -5.0000000 -0.0471119 5.0000000
vn 1.5707963 -4.7123890 1.5707964
v -5.0000000 -0.0471119 -5.0000000
vn -1.5707964 -4.7123380 1.5707964
v 5.0000000 -0.0471119 -5.0000000
vn 2.9510469 2.8274331 0.9588537
v 1.8070074 16.0000000 -9.4128675
vn 3.1029148 2.8274341 0.0000000
v 1.9000000 16.0000000 -10.0000000
vn 2.9510474 2.8274329 -0.9588538
v 1.8070074 16.0000000 -10.5871325
vn 2.5103106 2.8274341 1.8238478
v 1.5371323 16.0000000 -8.8832083
vn 1.8238487 2.8274341 2.5103099
v 1.1167920 16.0000000 -8.4628677
vn 0.9588523 2.8274310 2.9510469
v 0.5871323 16.0000000 -8.1929922
vn 0.0000000 2.8274360 3.1029153
v -0.0000000 16.0000000 -8.1000004
vn -0.9588522 2.8274312 2.9510469
v -0.5871323 16.0000000 -8.1929922
vn -1.8238486 2.8274336 2.5103102
v -1.1167920 16.0000000 -8.4628677
vn -2.5103106 2.8274343 1.8238479
v -1.5371323 16.0000000 -8.8832083
vn -2.9510469 2.8274329 0.9588537
v -1.8070074 16.0000000 -9.4128675
vn -3.1029148 2.8274341 0.0000000
v -1.9000000 16.0000000 -10.0000000
vn -2.9510472 2.8274331 -0.9588537
v -1.8070074 16.0000000 -10.5871325
vn -2.5103106 2.8274341 -1.8238478
v -1.5371323 16.0000000 -11.1167917
vn -1.8238487 2.8274341 -2.5103099
v -1.1167920 16.0000000 -11.5371323
vn -0.9588523 2.8274310 -2.9510469
v -0.5871323 16.0000000 -11.8070078
vn 0.0000000 2.8274360 -3.1029153
v -0.0000000 16.0000000 -11.8999996
vn 0.9588522 2.8274312 -2.9510469
v 0.5871323 16.0000000 -11.8070078
vn 1.8238486 2.8274336 -2.5103102
v 1.1167920 16.0000000 -11.5371323
vn 2.5103106 2.8274343 -1.8238479
v 1.5371323 16.0000000 -11.1167917
vn 2.9510469 2.8274331 0.9588537
v 1.8070074 16.0000000 10.5871325
vn 3.1029148 2.8274341 0.0000000
v 1.9000000 16.0000000 10.0000000
vn 2.9510474 2.8274329 -0.9588538
v 1.8070074 16.0000000 9.4128675
vn 2.5103106 2.8274341 1.8238478
v 1.5371323 16.0000000 11.1167917
vn 1.8238487 2.8274341 2.5103099
v 1.1167920 16.0000000 11.5371323
vn 0.9588523 2.8274310 2.9510469
v 0.5871323 16.0000000 11.8070078
vn 0.0000000 2.8274360 3.1029153
v -0.0000000 16.0000000 11.8999996
vn -0.9588522 2.8274312 2.9510469
v -0.5871323 16.0000000 11.8070078
vn -1.8238486 2.8274336 2.5103102
v -1.1167920 16.0000000 11.5371323
vn -2.5103106 2.8274343 1.8238479
v -1.5371323 16.0000000 11.1167917
vn -2.9510469 2.8274329 0.9588537
v -1.8070074 16.0000000 10.5871325
vn -3.1029148 2.8274341 0.0000000
v -1.9000000 16.0000000 10.0000000
vn -2.9510472 2.8274331 -0.9588537
v -1.8070074 16.0000000 9.4128675
vn -2.5103106 2.8274341 -1.8238478
v -1.5371323 16.0000000 8.8832083
vn -1.8238487 2.8274341 -2.5103099
v -1.1167920 16.0000000 8.4628677
vn -0.9588523 2.8274310 -2.9510469
v -0.5871323 16.0000000 8.1929922
vn 0.0000000 2.8274360 -3.1029153
v -0.0000000 16.0000000 8.1000004
vn 0.9588522 2.8274312 -2.9510469
v 0.5871323 16.0000000 8.1929922
vn 1.8238486 2.8274336 -2.5103102
v 1.1167920 16.0000000 8.4628677
vn 2.5103106 2.8274343 -1.8238479
v 1.5371323 16.0000000 8.8832083
vn -0.9919414 -2.0937068 5.0491123
v -37.7003479 5.9962668 -8.0631285
vn -1.0323318 -4.7796330 2.3876293
v -40.1349106 8.9528885 -7.9270148
vn -2.8780007 -3.7681296 2.4918065
v -38.2437782 5.0845246 -9.0333767
vn -4.1551814 -4.4050307 0.7595289
v -41.4290962 8.9528885 -8.8552904
vn -1.6817009 -5.5812550 1.4879764
v -14.1338634 0.3700657 -10.3822031
vn -1.8821017 -3.9767668 4.2239676
v -14.5047731 1.4526181 -9.3686466
vn -2.1851101 -4.4688911 1.6356014
v -38.2429085 5.0834661 -9.0342989
vn -2.8939359 -0.7464149 5.1673675
v -14.4961023 1.4597577 -9.3604469
vn -1.8841423 -5.1857491 1.4270087
v -12.0000000 -0.0471119 -8.3643093
vn -1.7355423 -5.6489339 0.5745909
v -11.0000000 -0.0471119 -7.1545801
vn -2.3366249 -4.4936500 -1.5833762
v -38.2429085 5.0834661 -10.5218830
vn -3.1344061 -3.7248743 -2.4608221
v -38.2451057 5.0861378 -10.5239630
vn -4.6702447 -2.0132506 -1.5582315
v -43.1500015 11.0428209 -10.2484064
vn -4.1551814 -4.4050317 -0.7595292
v -41.4290962 8.9528885 8.8552885
vn -4.6702442 -2.0132504 1.5582316
v -43.1500015 11.0428209 10.2484055
vn -3.1344059 -3.7248745 2.4608221
v -38.2451057 5.0861378 10.5239620
vn -2.8793788 -3.7678857 -2.4918580
v -38.2437782 5.0845246 9.0333757
vn -2.1852088 -4.4685984 -1.6358759
v -38.2429085 5.0834661 9.0342970
vn -2.3366246 -4.4936500 1.5833760
v -38.2429085 5.0834661 10.5218821
vn -0.9915903 -2.3282692 2.7096486
v -14.4961023 8.9528885 -9.3604469
vn -1.7355423 -5.6489334 -0.5745909
v -11.0000000 -0.0471119 7.1545792
vn -1.0323317 -4.7796321 -2.3876300
v -40.1349106 8.9528885 7.9270139
vn -0.9919489 -2.0937536 -5.0491600
v -37.7003479 5.9962668 8.0631266
vn -1.8821006 -3.9766486 -4.2240944
v -14.5047731 1.4526181 9.3686447
vn -1.6817005 -5.5812559 -1.4879756
v -14.1338634 0.3700657 10.3822021
vn -1.8841423 -5.1857491 -1.4270087
v -12.0000000 -0.0471119 8.3643084
vn -2.8938892 -0.7461640 -5.1673908
v -14.4961023 1.4597577 9.3604460
vn -0.7919810 -5.2853374 2.0179291
v -12.0000000 -0.0471119 11.9962025
vn 1.5707964 -4.7123895 1.5707964
v -16.0000000 8.9528885 -5.0000005
vn 1.5707964 -4.7123890 -1.5707964
v -16.0000000 8.9528885 4.9999995
vn -0.9915903 -2.3282692 -2.7096481
v -14.4961023 8.9528885 9.3604460
vn -0.6116894 -2.1151006 5.3458791
v -12.0000000 2.5000696 14.4999990
vn -1.4870129 -2.0678182 4.9888000
v -36.8865395 7.3654728 13.1018791
vn -0.3035557 -5.2007613 2.3424950
v -9.5499992 -0.0471118 12.6046677
vn -0.3045702 -2.3066111 5.2406950
v -9.5499992 1.8810608 14.4999990
vn -1.4870129 -2.0678182 -4.9888005
v -36.8865395 7.3654728 -13.1018801
vn -0.6116895 -2.1151009 -5.3458786
v -12.0000000 2.5000696 -14.5000010
vn -0.7919812 -5.2853374 -2.0179286
v -12.0000000 -0.0471119 -11.9962034
vn -0.3045703 -2.3066113 -5.2406945
v -9.5499992 1.8810608 -14.5000010
vn -0.3035562 -5.2007623 -2.3424950
v -9.5499992 -0.0471118 -12.6046696
vn 0.7723217 -5.7519011 1.2935424
v 9.2938852 -0.0471119 4.6499996
vn 2.6656184 -2.4992008 1.3343173
v 8.1499996 -0.0471119 12.5999985
vn 1.7806026 -3.0286348 2.4645715
v 8.1453314 -0.0471119 12.6046677
vn 1.7804893 -3.0287373 -2.4646850
v 8.1453295 -0.0471119 -12.6046686
vn 2.6655049 -2.4990985 -1.3344308
v 8.1499996 -0.0471119 -12.5999985
vn 0.7723217 -5.7519011 -1.2935424
v 9.2938852 -0.0471119 -4.6500006
vn 2.3561940 -2.6815169 -1.1107206
v 12.1499996 -0.0471119 -4.6500006
vn 2.3561945 -2.6815171 1.1107206
v 12.1499996 -0.0471119 4.6499996
vn 2.3561938 1.1107209 -2.6815171
v 12.1499996 8.9528885 -5.6500006
vn 3.8920321 1.0390234 -3.1698258
v 9.1499996 8.9528885 -5.6500006
vn 2.3561945 1.1107209 2.6815171
v 12.1499996 8.9528885 5.6499996
vn 2.3561945 -1.1107209 -2.6815171
v 12.1499996 0.9528881 -5.6500006
vn 2.3561938 -1.1107209 2.6815171
v 12.1499996 0.9528881 5.6499996
vn 3.8920321 1.0390234 3.1698260
v 9.1499996 8.9528885 5.6499996
vn 3.8920324 -1.0390234 -3.1698260
v 9.1499996 0.9528881 -5.6500006
vn 3.8920319 -1.0390234 3.1698258
v 9.1499996 0.9528881 5.6499996
vn 1.5516731 -1.5297368 4.6787114
v 6.2500000 1.8810602 14.4999990
vn 1.5516739 -1.5297374 -4.6787114
v 6.2500000 1.8810591 -14.4999990
# 222 vertices, 0 vertices normals


usemtl material_0
f 1//1 2//2 3//3
f 3//3 2//2 4//4
f 3//3 4//4 5//5
f 5//5 4//4 6//6
f 5//5 6//6 7//7
f 7//7 6//6 8//8
f 7//7 8//8 9//9
f 9//9 8//8 10//10
f 9//9 10//10 11//11
f 11//11 10//10 12//12
f 11//11 12//12 13//13
f 13//13 12//12 14//14
f 13//13 14//14 15//15
f 15//15 14//14 16//16
f 15//15 16//16 17//17
f 17//17 16//16 18//18
f 17//17 18//18 19//19
f 19//19 18//18 20//20
f 19//19 20//20 21//21
f 21//21 20//20 22//22
f 21//21 22//22 23//23
f 23//23 22//22 24//24
f 23//23 24//24 25//25
f 25//25 24//24 26//26
f 25//25 26//26 27//27
f 27//27 26//26 28//28
f 27//27 28//28 29//29
f 29//29 28//28 30//30
f 29//29 30//30 31//31
f 31//31 30//30 32//32
f 31//31 32//32 33//33
f 33//33 32//32 34//34
f 33//33 34//34 35//35
f 35//35 34//34 36//36
f 35//35 36//36 37//37
f 37//37 36//36 38//38
f 37//37 38//38 39//39
f 39//39 38//38 40//40
f 39//39 40//40 41//41
f 41//41 40//40 42//42
f 41//41 42//42 43//43
f 43//43 42//42 44//44
f 43//43 44//44 1//1
f 1//1 44//44 2//2
f 2//2 28//28 4//4
f 4//4 28//28 26//26
f 4//4 26//26 6//6
f 6//6 26//26 24//24
f 6//6 24//24 8//8
f 8//8 24//24 22//22
f 8//8 22//22 10//10
f 10//10 22//22 20//20
f 10//10 20//20 12//12
f 12//12 20//20 18//18
f 12//12 18//18 14//14
f 14//14 18//18 16//16
f 28//28 2//2 30//30
f 30//30 2//2 44//44
f 30//30 44//44 32//32
f 32//32 44//44 42//42
f 32//32 42//42 34//34
f 34//34 42//42 40//40
f 34//34 40//40 36//36
f 36//36 40//40 38//38
f 5//5 23//23 3//3
f 3//3 23//23 25//25
f 3//3 25//25 1//1
f 1//1 25//25 27//27
f 1//1 27//27 43//43
f 43//43 27//27 29//29
f 43//43 29//29 41//41
f 41//41 29//29 31//31
f 41//41 31//31 39//39
f 39//39 31//31 33//33
f 39//39 33//33 37//37
f 37//37 33//33 35//35
f 23//23 5//5 21//21
f 21//21 5//5 7//7
f 21//21 7//7 19//19
f 19//19 7//7 9//9
f 19//19 9//9 17//17
f 17//17 9//9 11//11
f 17//17 11//11 15//15
f 15//15 11//11 13//13
f 45//45 46//46 47//47
f 47//47 46//46 48//48
f 47//47 48//48 49//49
f 49//49 48//48 50//50
f 51//51 52//52 46//46
f 46//46 52//52 48//48
f 53//53 54//54 49//49
f 49//49 54//54 47//47
f 55//55 56//56 57//57
f 57//57 56//56 58//58
f 57//57 58//58 59//59
f 60//60 61//61 55//55
f 55//55 61//61 62//62
f 55//55 62//62 63//63
f 64//64 65//65 60//60
f 60//60 65//65 52//52
f 60//60 52//52 66//66
f 66//66 52//52 67//67
f 67//67 52//52 68//68
f 67//67 68//68 69//69
f 69//69 68//68 70//70
f 70//70 68//68 71//71
f 71//71 68//68 72//72
f 72//72 68//68 57//57
f 72//72 57//57 73//73
f 73//73 57//57 74//74
f 74//74 57//57 59//59
f 64//64 75//75 65//65
f 65//65 75//75 76//76
f 76//76 75//75 77//77
f 76//76 77//77 78//78
f 78//78 79//79 76//76
f 76//76 79//79 51//51
f 51//51 79//79 80//80
f 51//51 80//80 81//81
f 82//82 83//83 79//79
f 79//79 83//83 84//84
f 79//79 84//84 85//85
f 86//86 87//87 82//82
f 82//82 87//87 88//88
f 82//82 88//88 89//89
f 90//90 91//91 86//86
f 86//86 91//91 92//92
f 86//86 92//92 93//93
f 68//68 51//51 90//90
f 90//90 51//51 81//81
f 90//90 81//81 94//94
f 89//89 95//95 82//82
f 82//82 95//95 96//96
f 82//82 96//96 97//97
f 97//97 83//83 82//82
f 85//85 98//98 79//79
f 79//79 98//98 80//80
f 94//94 99//99 90//90
f 90//90 99//99 100//100
f 90//90 100//100 91//91
f 93//93 101//101 86//86
f 86//86 101//101 102//102
f 86//86 102//102 87//87
f 66//66 103//103 60//60
f 60//60 103//103 104//104
f 60//60 104//104 105//105
f 105//105 61//61 60//60
f 63//63 106//106 55//55
f 55//55 106//106 107//107
f 55//55 107//107 108//108
f 108//108 56//56 55//55
f 52//52 51//51 68//68
f 109//109 110//110 57//57
f 57//57 110//110 55//55
f 110//110 109//109 111//111
f 111//111 109//109 112//112
f 112//112 109//109 113//113
f 113//113 109//109 114//114
f 113//113 114//114 115//115
f 109//109 116//116 114//114
f 114//114 116//116 117//117
f 117//117 116//116 118//118
f 118//118 116//116 119//119
f 115//115 120//120 113//113
f 121//121 122//122 116//116
f 116//116 122//122 90//90
f 116//116 90//90 86//86
f 122//122 123//123 90//90
f 90//90 123//123 68//68
f 57//57 68//68 109//109
f 109//109 68//68 123//123
f 109//109 123//123 124//124
f 116//116 109//109 121//121
f 121//121 109//109 124//124
f 125//125 58//58 126//126
f 126//126 58//58 56//56
f 126//126 56//56 127//127
f 127//127 56//56 108//108
f 127//127 108//108 107//107
f 125//125 128//128 58//58
f 58//58 128//128 59//59
f 59//59 128//128 129//129
f 59//59 129//129 74//74
f 74//74 129//129 130//130
f 74//74 130//130 73//73
f 73//73 130//130 131//131
f 73//73 131//131 72//72
f 72//72 131//131 132//132
f 72//72 132//132 71//71
f 71//71 132//132 133//133
f 71//71 133//133 70//70
f 70//70 133//133 134//134
f 70//70 134//134 69//69
f 69//69 134//134 135//135
f 69//69 135//135 67//67
f 67//67 135//135 136//136
f 67//67 136//136 66//66
f 66//66 136//136 137//137
f 66//66 137//137 103//103
f 103//103 137//137 138//138
f 103//103 138//138 104//104
f 104//104 138//138 139//139
f 104//104 139//139 105//105
f 105//105 139//139 140//140
f 105//105 140//140 61//61
f 61//61 140//140 141//141
f 61//61 141//141 62//62
f 62//62 141//141 142//142
f 62//62 142//142 63//63
f 63//63 142//142 143//143
f 63//63 143//143 106//106
f 106//106 143//143 144//144
f 106//106 144//144 107//107
f 107//107 144//144 127//127
f 127//127 137//137 126//126
f 126//126 137//137 136//136
f 126//126 136//136 125//125
f 125//125 136//136 135//135
f 125//125 135//135 128//128
f 128//128 135//135 134//134
f 128//128 134//134 129//129
f 129//129 134//134 133//133
f 129//129 133//133 130//130
f 130//130 133//133 132//132
f 130//130 132//132 131//131
f 137//137 127//127 138//138
f 138//138 127//127 144//144
f 138//138 144//144 139//139
f 139//139 144//144 143//143
f 139//139 143//143 140//140
f 140//140 143//143 142//142
f 140//140 142//142 141//141
f 145//145 88//88 146//146
f 146//146 88//88 87//87
f 146//146 87//87 147//147
f 147//147 87//87 102//102
f 147//147 102//102 101//101
f 145//145 148//148 88//88
f 88//88 148//148 89//89
f 89//89 148//148 149//149
f 89//89 149//149 95//95
f 95//95 149//149 150//150
f 95//95 150//150 96//96
f 96//96 150//150 151//151
f 96//96 151//151 97//97
f 97//97 151//151 152//152
f 97//97 152//152 83//83
f 83//83 152//152 153//153
f 83//83 153//153 84//84
f 84//84 153//153 154//154
f 84//84 154//154 85//85
f 85//85 154//154 155//155
f 85//85 155//155 98//98
f 98//98 155//155 156//156
f 98//98 156//156 80//80
f 80//80 156//156 157//157
f 80//80 157//157 81//81
f 81//81 157//157 158//158
f 81//81 158//158 94//94
f 94//94 158//158 159//159
f 94//94 159//159 99//99
f 99//99 159//159 160//160
f 99//99 160//160 100//100
f 100//100 160//160 161//161
f 100//100 161//161 91//91
f 91//91 161//161 162//162
f 91//91 162//162 92//92
f 92//92 162//162 163//163
f 92//92 163//163 93//93
f 93//93 163//163 164//164
f 93//93 164//164 101//101
f 101//101 164//164 147//147
f 147//147 157//157 146//146
f 146//146 157//157 156//156
f 146//146 156//156 145//145
f 145//145 156//156 155//155
f 145//145 155//155 148//148
f 148//148 155//155 154//154
f 148//148 154//154 149//149
f 149//149 154//154 153//153
f 149//149 153//153 150//150
f 150//150 153//153 152//152
f 150//150 152//152 151//151
f 157//157 147//147 158//158
f 158//158 147//147 164//164
f 158//158 164//164 159//159
f 159//159 164//164 163//163
f 159//159 163//163 160//160
f 160//160 163//163 162//162
f 160//160 162//162 161//161
f 165//165 166//166 167//167
f 167//167 166//166 168//168
f 169//169 170//170 171//171
f 171//171 170//170 172//172
f 171//171 172//172 165//165
f 165//165 167//167 171//171
f 170//170 169//169 53//53
f 53//53 169//169 173//173
f 53//53 173//173 174//174
f 53//53 49//49 170//170
f 175//175 171//171 176//176
f 176//176 171//171 167//167
f 176//176 167//167 168//168
f 176//176 168//168 177//177
f 177//177 168//168 178//178
f 177//177 178//178 179//179
f 179//179 178//178 180//180
f 180//180 178//178 181//181
f 180//180 181//181 182//182
f 182//182 183//183 180//180
f 166//166 165//165 184//184
f 184//184 165//165 172//172
f 170//170 49//49 172//172
f 172//172 49//49 50//50
f 172//172 50//50 184//184
f 174//174 185//185 53//53
f 53//53 185//185 54//54
f 178//178 186//186 181//181
f 181//181 186//186 187//187
f 47//47 54//54 188//188
f 188//188 54//54 189//189
f 189//189 54//54 190//190
f 190//190 54//54 185//185
f 181//181 187//187 182//182
f 182//182 187//187 191//191
f 182//182 191//191 188//188
f 188//188 189//189 182//182
f 182//182 189//189 183//183
f 183//183 189//189 192//192
f 192//192 189//189 190//190
f 193//193 48//48 65//65
f 65//65 48//48 52//52
f 46//46 45//45 194//194
f 194//194 45//45 195//195
f 194//194 195//195 186//186
f 178//178 168//168 186//186
f 186//186 168//168 166//166
f 186//186 166//166 194//194
f 194//194 166//166 193//193
f 193//193 166//166 184//184
f 193//193 184//184 50//50
f 50//50 48//48 193//193
f 46//46 194//194 51//51
f 51//51 194//194 76//76
f 194//194 193//193 76//76
f 76//76 193//193 65//65
f 188//188 191//191 47//47
f 47//47 191//191 45//45
f 45//45 191//191 195//195
f 192//192 196//196 183//183
f 183//183 196//196 197//197
f 183//183 197//197 180//180
f 198//198 199//199 192//192
f 192//192 199//199 196//196
f 197//197 78//78 180//180
f 180//180 78//78 179//179
f 179//179 78//78 77//77
f 77//77 75//75 179//179
f 179//179 75//75 177//177
f 78//78 197//197 79//79
f 79//79 197//197 196//196
f 200//200 176//176 64//64
f 64//64 176//176 177//177
f 64//64 177//177 75//75
f 176//176 200//200 175//175
f 175//175 200//200 201//201
f 175//175 201//201 202//202
f 202//202 201//201 203//203
f 202//202 203//203 204//204
f 201//201 200//200 60//60
f 60//60 200//200 64//64
f 186//186 195//195 187//187
f 187//187 195//195 191//191
f 171//171 175//175 169//169
f 169//169 175//175 202//202
f 169//169 202//202 173//173
f 86//86 82//82 116//116
f 116//116 82//82 119//119
f 124//124 205//205 121//121
f 121//121 205//205 206//206
f 121//121 206//206 207//207
f 123//123 208//208 124//124
f 124//124 208//208 209//209
f 124//124 209//209 210//210
f 122//122 185//185 123//123
f 123//123 185//185 174//174
f 123//123 174//174 204//204
f 204//204 174//174 173//173
f 204//204 173//173 202//202
f 121//121 207//207 122//122
f 122//122 207//207 198//198
f 122//122 198//198 185//185
f 185//185 198//198 190//190
f 190//190 198//198 192//192
f 124//124 210//210 205//205
f 205//205 210//210 211//211
f 205//205 211//211 212//212
f 204//204 208//208 123//123
f 120//120 213//213 113//113
f 113//113 213//213 214//214
f 120//120 115//115 213//213
f 213//213 115//115 215//215
f 213//213 215//215 216//216
f 216//216 215//215 217//217
f 216//216 217//217 211//211
f 211//211 217//217 212//212
f 115//115 114//114 215//215
f 215//215 114//114 218//218
f 211//211 210//210 216//216
f 216//216 210//210 219//219
f 212//212 217//217 205//205
f 205//205 217//217 220//220
f 210//210 209//209 219//219
f 219//219 209//209 112//112
f 219//219 112//112 214//214
f 214//214 112//112 113//113
f 114//114 117//117 218//218
f 218//218 117//117 220//220
f 220//220 117//117 206//206
f 220//220 206//206 205//205
f 118//118 221//221 117//117
f 117//117 221//221 207//207
f 117//117 207//207 206//206
f 207//207 221//221 198//198
f 198//198 221//221 199//199
f 209//209 208//208 112//112
f 112//112 208//208 222//222
f 112//112 222//222 111//111
f 111//111 222//222 110//110
f 110//110 222//222 203//203
f 110//110 203//203 60//60
f 60//60 203//203 201//201
f 60//60 55//55 110//110
f 208//208 204//204 222//222
f 222//222 204//204 203//203
f 118//118 119//119 221//221
f 221//221 119//119 199//199
f 199//199 119//119 79//79
f 199//199 79//79 196//196
f 119//119 82//82 79//79
f 213//213 216//216 214//214
f 214//214 216//216 219//219
f 218//218 220//220 215//215
f 215//215 220//220 217//217
# 444 faces, 0 coords texture

# End of File
