####
#
# OBJ File Generated by Meshlab
#
####
# Object wx200_8_gripper_bar.obj
#
# Vertices: 430
# Faces: 732
#
####
vn 1.5707964 -1.5707965 0.0000012
v 49.9982529 -91.0000076 -4.9983692
vn 1.5707990 1.5707879 -0.0000017
v 49.9982529 -81.0000076 -4.9983692
vn 1.5707947 -1.5707954 1.5707976
v 49.9982452 -91.0000076 5.0016403
vn 1.5707976 1.5708688 1.5708003
v 49.9982452 -81.0000076 5.0016403
vn -1.5707991 1.5707930 -0.0000047
v -50.0017433 -81.0000076 -4.9984646
vn -1.5707963 -1.5707958 -0.0000018
v -50.0017433 -91.0000076 -4.9984646
vn -1.5708005 1.5708581 1.5707974
v -50.0017548 -81.0000076 5.0015450
vn -1.5707979 -1.5707961 1.5707945
v -50.0017548 -91.0000076 5.0015450
vn 3.1186099 3.2499185 0.3391748
v 48.3815346 -81.0000000 0.3405749
vn 3.0636554 3.2499251 0.6743616
v 48.3263550 -81.0000000 0.6771569
vn 2.9727750 3.2499189 1.0016400
v -42.2648926 -81.0000000 1.0057999
vn 3.0636456 3.2499249 0.6743598
v -42.1736450 -81.0000000 0.6771569
vn 3.1185980 3.2498631 0.3391565
v -42.1184654 -81.0000000 0.3405749
vn 0.5075159 3.2499254 3.0956941
v -44.7403870 -81.0000000 3.1085036
vn 0.1698340 3.2499232 3.1324041
v -45.0794640 -81.0000000 3.1453803
vn 2.8470526 3.2499290 1.3171846
v -42.3911362 -81.0000000 1.3226507
vn 2.6879413 3.2499287 1.6172987
v -42.5508995 -81.0000000 1.6239947
vn 2.4973385 3.2499042 1.8984201
v -42.7423096 -81.0000000 1.9062988
vn 2.2774396 3.2499440 2.1573002
v -42.9631119 -81.0000000 2.1662533
vn 2.0308435 3.2499053 2.3908939
v -43.2107353 -81.0000000 2.4008105
vn 1.7604419 3.2499368 2.5964444
v -43.4822578 -81.0000000 2.6072204
vn -2.4973431 3.2499223 1.8984220
v -47.7576942 -81.0000000 1.9062988
vn -2.6879628 3.2499297 1.6172762
v -47.9491005 -81.0000000 1.6239947
vn 2.9727793 3.2499294 1.0016584
v 48.2351074 -81.0000000 1.0057999
vn 2.8470607 3.2499087 1.3171890
v 48.1088600 -81.0000000 1.3226507
vn 2.6879628 3.2499294 1.6172764
v 47.9491005 -81.0000000 1.6239947
vn 2.4973431 3.2499223 1.8984220
v 47.7576942 -81.0000000 1.9062988
vn 2.2774444 3.2499275 2.1573067
v 47.5368881 -81.0000000 2.1662533
vn 2.0308392 3.2499266 2.3909030
v 47.2892685 -81.0000000 2.4008105
vn 1.4693859 3.2499187 2.7715695
v -43.7745132 -81.0000000 2.7830629
vn 1.1611160 3.2499268 2.9141998
v -44.0840645 -81.0000000 2.9262767
vn 0.8393304 3.2499235 3.0229387
v -44.4072876 -81.0000000 3.0351825
vn -0.1698344 3.2499242 3.1323988
v -45.4205399 -81.0000000 3.1453803
vn -0.5075084 3.2499216 3.0956717
v -45.7596130 -81.0000000 3.1085036
vn -0.8392352 3.2499261 3.0226514
v -46.0927162 -81.0000000 3.0351825
vn -1.1611238 3.2499223 2.9141941
v -46.4159355 -81.0000000 2.9262767
vn -1.4693954 3.2499247 2.7715685
v -46.7254868 -81.0000000 2.7830629
vn -1.7604365 3.2499175 2.5964580
v -47.0177383 -81.0000000 2.6072204
vn -3.0636554 3.2499249 -0.6743616
v -48.3263550 -81.0000000 -0.6771569
vn -2.9727793 3.2499294 -1.0016584
v -48.2351074 -81.0000000 -1.0057999
vn -2.8470607 3.2499087 -1.3171890
v -48.1088600 -81.0000000 -1.3226507
vn -2.2774444 3.2499275 -2.1573067
v -47.5368881 -81.0000000 -2.1662533
vn -2.0308392 3.2499266 -2.3909030
v -47.2892685 -81.0000000 -2.4008105
vn 2.6879411 3.2499290 -1.6172985
v -42.5508995 -81.0000000 -1.6239947
vn 2.8470502 3.2499290 -1.3171834
v -42.3911362 -81.0000000 -1.3226507
vn -2.4973383 3.2498958 -1.8984199
v 42.7423096 -81.0000000 -1.9062988
vn 2.9727771 3.2499161 -1.0016407
v -42.2648926 -81.0000000 -1.0057999
vn -2.6879411 3.2499290 -1.6172986
v 42.5508995 -81.0000000 -1.6239947
vn 1.7604351 3.2499175 2.5964561
v 47.0177383 -81.0000000 2.6072204
vn 1.4693966 3.2499247 2.7715707
v 46.7254868 -81.0000000 2.7830629
vn 1.1611236 3.2499223 2.9141941
v 46.4159355 -81.0000000 2.9262767
vn 0.8392349 3.2499261 3.0226512
v 46.0927162 -81.0000000 3.0351825
vn 0.5075083 3.2499216 3.0956721
v 45.7596130 -81.0000000 3.1085036
vn 0.1698343 3.2499242 3.1323986
v 45.4205399 -81.0000000 3.1453803
vn -2.0308394 3.2499266 2.3909030
v -47.2892685 -81.0000000 2.4008105
vn -2.2774448 3.2499275 2.1573067
v -47.5368881 -81.0000000 2.1662533
vn -2.8470607 3.2499089 1.3171887
v -48.1088600 -81.0000000 1.3226507
vn -2.9727793 3.2499294 1.0016583
v -48.2351074 -81.0000000 1.0057999
vn -3.0636554 3.2499249 0.6743615
v -48.3263550 -81.0000000 0.6771569
vn -2.6879628 3.2499294 -1.6172764
v -47.9491005 -81.0000000 -1.6239947
vn -2.4973431 3.2499223 -1.8984220
v -47.7576942 -81.0000000 -1.9062988
vn -1.7604351 3.2499175 -2.5964561
v -47.0177383 -81.0000000 -2.6072204
vn -1.4693966 3.2499247 -2.7715707
v -46.7254868 -81.0000000 -2.7830629
vn -1.1611236 3.2499220 -2.9141941
v -46.4159355 -81.0000000 -2.9262767
vn 3.1370008 3.2499321 0.0000001
v 48.4000015 -81.0000000 -0.0000000
vn 3.1186099 3.2499185 -0.3391747
v 48.3815346 -81.0000000 -0.3405749
vn 2.4973383 3.2498770 -1.8984199
v -42.7423096 -81.0000000 -1.9062988
vn 2.2774398 3.2499437 -2.1573005
v -42.9631119 -81.0000000 -2.1662533
vn 2.0308433 3.2499056 -2.3908935
v -43.2107353 -81.0000000 -2.4008105
vn -2.0308433 3.2499053 -2.3908935
v 43.2107353 -81.0000000 -2.4008105
vn -1.7604417 3.2499368 -2.5964441
v 43.4822578 -81.0000000 -2.6072204
vn -0.5075159 3.2499254 -3.0956941
v 44.7403870 -81.0000000 -3.1085036
vn -0.1698340 3.2499232 -3.1324043
v 45.0794640 -81.0000000 -3.1453803
vn 2.4973431 3.2499220 -1.8984220
v 47.7576942 -81.0000000 -1.9062988
vn 2.6879628 3.2499297 -1.6172762
v 47.9491005 -81.0000000 -1.6239947
vn 2.8470607 3.2499089 -1.3171887
v 48.1088600 -81.0000000 -1.3226507
vn -3.1186099 3.2499182 0.3391747
v -48.3815346 -81.0000000 0.3405749
vn -3.1370008 3.2499318 -0.0000001
v -48.4000015 -81.0000000 -0.0000000
vn -3.1186099 3.2499182 -0.3391748
v -48.3815346 -81.0000000 -0.3405749
vn -0.8392349 3.2499263 -3.0226512
v -46.0927162 -81.0000000 -3.0351825
vn -0.5075083 3.2499213 -3.0956721
v -45.7596130 -81.0000000 -3.1085036
vn -0.1698343 3.2499242 -3.1323986
v -45.4205399 -81.0000000 -3.1453803
vn 0.1698342 3.2499232 -3.1324043
v -45.0794640 -81.0000000 -3.1453803
vn 0.5075092 3.2499244 -3.0956740
v -44.7403870 -81.0000000 -3.1085036
vn 0.8392317 3.2499204 -3.0226450
v -44.4072876 -81.0000000 -3.0351825
vn 1.1611161 3.2499259 -2.9141893
v -44.0840645 -81.0000000 -2.9262767
vn 1.4693859 3.2499189 -2.7715693
v -43.7745132 -81.0000000 -2.7830629
vn 1.7604423 3.2499366 -2.5964446
v -43.4822578 -81.0000000 -2.6072204
vn 2.9727793 3.2499294 -1.0016583
v 48.2351074 -81.0000000 -1.0057999
vn 3.0636554 3.2499251 -0.6743615
v 48.3263550 -81.0000000 -0.6771569
vn -1.1611159 3.2499256 2.9141884
v 44.0840645 -81.0000000 2.9262767
vn -1.4693856 3.2499189 2.7715688
v 43.7745132 -81.0000000 2.7830629
vn 3.1369877 3.2499425 0.0000001
v -42.1000023 -81.0000000 -0.0000000
vn -3.1369877 3.2499471 -0.0000001
v 42.1000023 -81.0000000 -0.0000000
vn 3.1185982 3.2499294 -0.3391563
v -42.1184654 -81.0000000 -0.3405749
vn 3.0636454 3.2499251 -0.6743596
v -42.1736450 -81.0000000 -0.6771569
vn -2.2774394 3.2499437 -2.1573000
v 42.9631119 -81.0000000 -2.1662533
vn 0.8392352 3.2499261 -3.0226514
v 46.0927162 -81.0000000 -3.0351825
vn 1.1611238 3.2499220 -2.9141941
v 46.4159355 -81.0000000 -2.9262767
vn 1.4693954 3.2499247 -2.7715685
v 46.7254868 -81.0000000 -2.7830629
vn 1.7604365 3.2499175 -2.5964580
v 47.0177383 -81.0000000 -2.6072204
vn -0.1698342 3.2499232 3.1324041
v 45.0794640 -81.0000000 3.1453803
vn -0.5075096 3.2499247 3.0956752
v 44.7403870 -81.0000000 3.1085036
vn -0.8392315 3.2499204 3.0226440
v 44.4072876 -81.0000000 3.0351825
vn -1.7604420 3.2499368 2.5964444
v 43.4822578 -81.0000000 2.6072204
vn -2.0308430 3.2499056 2.3908930
v 43.2107353 -81.0000000 2.4008105
vn -2.2774396 3.2499440 2.1573000
v 42.9631119 -81.0000000 2.1662533
vn -2.4973383 3.2499046 1.8984196
v 42.7423096 -81.0000000 1.9062988
vn -2.6879411 3.2499290 1.6172985
v 42.5508995 -81.0000000 1.6239947
vn -2.8470502 3.2499292 1.3171834
v 42.3911362 -81.0000000 1.3226507
vn -2.9727771 3.2499192 1.0016407
v 42.2648926 -81.0000000 1.0057999
vn -3.0636454 3.2499390 0.6743596
v 42.1736450 -81.0000000 0.6771569
vn -3.1185982 3.2499294 0.3391563
v 42.1184654 -81.0000000 0.3405749
vn -3.0636454 3.2499249 -0.6743597
v 42.1736450 -81.0000000 -0.6771569
vn -2.9727745 3.2499189 -1.0016398
v 42.2648926 -81.0000000 -1.0057999
vn -2.8470526 3.2499292 -1.3171844
v 42.3911362 -81.0000000 -1.3226507
vn -1.4693856 3.2499189 -2.7715690
v 43.7745132 -81.0000000 -2.7830629
vn -1.1611161 3.2499213 -2.9142003
v 44.0840645 -81.0000000 -2.9262767
vn -0.8393329 3.2499199 -3.0229461
v 44.4072876 -81.0000000 -3.0351825
vn 2.0308394 3.2499266 -2.3909030
v 47.2892685 -81.0000000 -2.4008105
vn 2.2774448 3.2499275 -2.1573067
v 47.5368881 -81.0000000 -2.1662533
vn -3.1185980 3.2499294 -0.3391564
v 42.1184654 -81.0000000 -0.3405749
vn 0.1698344 3.2499242 -3.1323991
v 45.4205399 -81.0000000 -3.1453803
vn 0.5075084 3.2499213 -3.0956719
v 45.7596130 -81.0000000 -3.1085036
vn 3.1185970 0.0000000 0.3391738
v 48.3815346 -66.0000000 0.3405749
vn 3.0636454 0.0000000 0.6743596
v 48.3263550 -66.0000000 0.6771569
vn 2.9727709 0.0000000 1.0016558
v 48.2351074 -66.0000000 1.0057999
vn 2.8470535 0.0000000 1.3171856
v 48.1088600 -66.0000000 1.3226507
vn 2.6879566 0.0000000 1.6172726
v 47.9491005 -66.0000000 1.6239947
vn 2.4973378 0.0000000 1.8984179
v 47.7576942 -66.0000000 1.9062988
vn 2.2774398 0.0000000 2.1573019
v 47.5368881 -66.0000000 2.1662533
vn 2.0308352 0.0000000 2.3908978
v 47.2892685 -66.0000000 2.4008105
vn 1.7604327 0.0000000 2.5964522
v 47.0177383 -66.0000000 2.6072204
vn 1.4693922 0.0000000 2.7715621
v 46.7254868 -66.0000000 2.7830629
vn 1.1611211 0.0000000 2.9141867
v 46.4159355 -66.0000000 2.9262767
vn 0.8392330 0.0000000 3.0226431
v 46.0927162 -66.0000000 3.0351825
vn 0.5075071 0.0000000 3.0956616
v 45.7596130 -66.0000000 3.1085036
vn 0.1698342 0.0000000 3.1323860
v 45.4205399 -66.0000000 3.1453803
vn -0.1698322 0.0000000 3.1323860
v 45.0794640 -66.0000000 3.1453803
vn -0.5075089 0.0000000 3.0956612
v 44.7403870 -66.0000000 3.1085036
vn -0.8392314 0.0000000 3.0226440
v 44.4072876 -66.0000000 3.0351825
vn -1.1611156 0.0000000 2.9141884
v 44.0840645 -66.0000000 2.9262767
vn -1.4693856 0.0000000 2.7715690
v 43.7745132 -66.0000000 2.7830629
vn -1.7604417 0.0000000 2.5964441
v 43.4822578 -66.0000000 2.6072204
vn -2.0308433 0.0000000 2.3908935
v 43.2107353 -66.0000000 2.4008105
vn -2.2774394 0.0000000 2.1573000
v 42.9631119 -66.0000000 2.1662533
vn -2.4973383 0.0000000 1.8984199
v 42.7423096 -66.0000000 1.9062988
vn -2.6879411 0.0000000 1.6172986
v 42.5508995 -66.0000000 1.6239947
vn -2.8470526 0.0000000 1.3171844
v 42.3911362 -66.0000000 1.3226507
vn -2.9727745 0.0000000 1.0016398
v 42.2648926 -66.0000000 1.0057999
vn -3.0636454 0.0000000 0.6743597
v 42.1736450 -66.0000000 0.6771569
vn -3.1185980 0.0000000 0.3391564
v 42.1184654 -66.0000000 0.3405749
vn -3.1369877 0.0000000 0.0000001
v 42.1000023 -66.0000000 -0.0000000
vn -3.1185982 0.0000000 -0.3391563
v 42.1184654 -66.0000000 -0.3405749
vn -3.0636454 0.0000000 -0.6743596
v 42.1736450 -66.0000000 -0.6771569
vn -2.9727771 0.0000000 -1.0016407
v 42.2648926 -66.0000000 -1.0057999
vn -2.8470502 0.0000000 -1.3171834
v 42.3911362 -66.0000000 -1.3226507
vn -2.6879411 0.0000000 -1.6172985
v 42.5508995 -66.0000000 -1.6239947
vn -2.4973383 0.0000000 -1.8984196
v 42.7423096 -66.0000000 -1.9062988
vn -2.2774396 0.0000000 -2.1573000
v 42.9631119 -66.0000000 -2.1662533
vn -2.0308430 0.0000000 -2.3908930
v 43.2107353 -66.0000000 -2.4008105
vn -1.7604420 0.0000000 -2.5964444
v 43.4822578 -66.0000000 -2.6072204
vn -1.4693856 0.0000000 -2.7715688
v 43.7745132 -66.0000000 -2.7830629
vn -1.1611159 0.0000000 -2.9141884
v 44.0840645 -66.0000000 -2.9262767
vn -0.8392314 0.0000000 -3.0226440
v 44.4072876 -66.0000000 -3.0351825
vn -0.5075090 0.0000000 -3.0956614
v 44.7403870 -66.0000000 -3.1085036
vn -0.1698323 0.0000000 -3.1323860
v 45.0794640 -66.0000000 -3.1453803
vn 0.1698341 0.0000000 -3.1323857
v 45.4205399 -66.0000000 -3.1453803
vn 0.5075070 0.0000000 -3.0956621
v 45.7596130 -66.0000000 -3.1085036
vn 0.8392329 0.0000000 -3.0226429
v 46.0927162 -66.0000000 -3.0351825
vn 1.1611209 0.0000000 -2.9141867
v 46.4159355 -66.0000000 -2.9262767
vn 1.4693935 0.0000000 -2.7715645
v 46.7254868 -66.0000000 -2.7830629
vn 1.7604314 0.0000000 -2.5964503
v 47.0177383 -66.0000000 -2.6072204
vn 2.0308349 0.0000000 -2.3908978
v 47.2892685 -66.0000000 -2.4008105
vn 2.2774396 0.0000000 -2.1573021
v 47.5368881 -66.0000000 -2.1662533
vn 2.4973378 0.0000000 -1.8984179
v 47.7576942 -66.0000000 -1.9062988
vn 2.6879566 0.0000000 -1.6172729
v 47.9491005 -66.0000000 -1.6239947
vn 2.8470535 0.0000000 -1.3171859
v 48.1088600 -66.0000000 -1.3226507
vn 2.9727707 0.0000000 -1.0016559
v 48.2351074 -66.0000000 -1.0057999
vn 3.0636454 0.0000000 -0.6743597
v 48.3263550 -66.0000000 -0.6771569
vn 3.1185970 0.0000000 -0.3391739
v 48.3815346 -66.0000000 -0.3405749
vn 3.1369858 0.0000000 -0.0000001
v 48.4000015 -66.0000000 -0.0000000
vn 3.1185982 0.0000000 0.3391563
v -42.1184654 -66.0000000 0.3405749
vn 3.0636454 0.0000000 0.6743596
v -42.1736450 -66.0000000 0.6771569
vn 2.9727771 0.0000000 1.0016407
v -42.2648926 -66.0000000 1.0057999
vn 2.8470502 0.0000000 1.3171834
v -42.3911362 -66.0000000 1.3226507
vn 2.6879411 0.0000000 1.6172985
v -42.5508995 -66.0000000 1.6239947
vn 2.4973383 0.0000000 1.8984196
v -42.7423096 -66.0000000 1.9062988
vn 2.2774396 0.0000000 2.1573000
v -42.9631119 -66.0000000 2.1662533
vn 2.0308430 0.0000000 2.3908930
v -43.2107353 -66.0000000 2.4008105
vn 1.7604420 0.0000000 2.5964444
v -43.4822578 -66.0000000 2.6072204
vn 1.4693856 0.0000000 2.7715688
v -43.7745132 -66.0000000 2.7830629
vn 1.1611159 0.0000000 2.9141884
v -44.0840645 -66.0000000 2.9262767
vn 0.8392314 0.0000000 3.0226440
v -44.4072876 -66.0000000 3.0351825
vn 0.5075090 0.0000000 3.0956614
v -44.7403870 -66.0000000 3.1085036
vn 0.1698323 0.0000000 3.1323860
v -45.0794640 -66.0000000 3.1453803
vn -0.1698341 0.0000000 3.1323857
v -45.4205399 -66.0000000 3.1453803
vn -0.5075070 0.0000000 3.0956621
v -45.7596130 -66.0000000 3.1085036
vn -0.8392329 0.0000000 3.0226429
v -46.0927162 -66.0000000 3.0351825
vn -1.1611209 0.0000000 2.9141867
v -46.4159355 -66.0000000 2.9262767
vn -1.4693935 0.0000000 2.7715645
v -46.7254868 -66.0000000 2.7830629
vn -1.7604314 0.0000000 2.5964503
v -47.0177383 -66.0000000 2.6072204
vn -2.0308349 0.0000000 2.3908978
v -47.2892685 -66.0000000 2.4008105
vn -2.2774396 0.0000000 2.1573021
v -47.5368881 -66.0000000 2.1662533
vn -2.4973378 0.0000000 1.8984179
v -47.7576942 -66.0000000 1.9062988
vn -2.6879566 0.0000000 1.6172729
v -47.9491005 -66.0000000 1.6239947
vn -2.8470535 0.0000000 1.3171859
v -48.1088600 -66.0000000 1.3226507
vn -2.9727707 0.0000000 1.0016559
v -48.2351074 -66.0000000 1.0057999
vn -3.0636454 0.0000000 0.6743597
v -48.3263550 -66.0000000 0.6771569
vn -3.1185970 0.0000000 0.3391739
v -48.3815346 -66.0000000 0.3405749
vn -3.1369858 0.0000000 0.0000001
v -48.4000015 -66.0000000 -0.0000000
vn -3.1185970 0.0000000 -0.3391738
v -48.3815346 -66.0000000 -0.3405749
vn -3.0636454 0.0000000 -0.6743596
v -48.3263550 -66.0000000 -0.6771569
vn -2.9727709 0.0000000 -1.0016558
v -48.2351074 -66.0000000 -1.0057999
vn -2.8470535 0.0000000 -1.3171856
v -48.1088600 -66.0000000 -1.3226507
vn -2.6879566 0.0000000 -1.6172726
v -47.9491005 -66.0000000 -1.6239947
vn -2.4973378 0.0000000 -1.8984179
v -47.7576942 -66.0000000 -1.9062988
vn -2.2774398 0.0000000 -2.1573019
v -47.5368881 -66.0000000 -2.1662533
vn -2.0308352 0.0000000 -2.3908978
v -47.2892685 -66.0000000 -2.4008105
vn -1.7604327 0.0000000 -2.5964522
v -47.0177383 -66.0000000 -2.6072204
vn -1.4693922 0.0000000 -2.7715621
v -46.7254868 -66.0000000 -2.7830629
vn -1.1611211 0.0000000 -2.9141867
v -46.4159355 -66.0000000 -2.9262767
vn -0.8392330 0.0000000 -3.0226431
v -46.0927162 -66.0000000 -3.0351825
vn -0.5075071 0.0000000 -3.0956616
v -45.7596130 -66.0000000 -3.1085036
vn -0.1698342 0.0000000 -3.1323860
v -45.4205399 -66.0000000 -3.1453803
vn 0.1698322 0.0000000 -3.1323860
v -45.0794640 -66.0000000 -3.1453803
vn 0.5075089 0.0000000 -3.0956612
v -44.7403870 -66.0000000 -3.1085036
vn 0.8392314 0.0000000 -3.0226440
v -44.4072876 -66.0000000 -3.0351825
vn 1.1611156 0.0000000 -2.9141884
v -44.0840645 -66.0000000 -2.9262767
vn 1.4693856 0.0000000 -2.7715690
v -43.7745132 -66.0000000 -2.7830629
vn 1.7604417 0.0000000 -2.5964441
v -43.4822578 -66.0000000 -2.6072204
vn 2.0308433 0.0000000 -2.3908935
v -43.2107353 -66.0000000 -2.4008105
vn 2.2774394 0.0000000 -2.1573000
v -42.9631119 -66.0000000 -2.1662533
vn 2.4973383 0.0000000 -1.8984199
v -42.7423096 -66.0000000 -1.9062988
vn 2.6879411 0.0000000 -1.6172986
v -42.5508995 -66.0000000 -1.6239947
vn 2.8470526 0.0000000 -1.3171844
v -42.3911362 -66.0000000 -1.3226507
vn 2.9727745 0.0000000 -1.0016398
v -42.2648926 -66.0000000 -1.0057999
vn 3.0636454 0.0000000 -0.6743597
v -42.1736450 -66.0000000 -0.6771569
vn 3.1185980 0.0000000 -0.3391564
v -42.1184654 -66.0000000 -0.3405749
vn 3.1369877 0.0000000 -0.0000001
v -42.1000023 -66.0000000 -0.0000000
vn 0.0000015 0.0000000 -1.5707964
v -50.0017433 -91.0000076 -4.9984550
vn 0.0000015 0.0000000 -1.5707963
v -50.0017433 -81.0000076 -4.9984550
vn 0.0000015 0.0000000 -1.5707963
v 49.9982529 -91.0000076 -4.9983592
vn 0.0000015 0.0000000 -1.5707964
v 49.9982529 -81.0000076 -4.9983592
vn -1.0095353 -3.2423382 -2.9707608
v -7.3592052 -66.0000000 -12.1221113
vn -1.1546795 -3.1384234 -2.9216938
v -5.8148804 -66.0000000 -12.7352724
vn -1.7573022 -3.2423418 2.5993209
v -25.5245819 -66.0000000 15.7875996
vn 1.1546795 -3.1384244 -2.9216938
v 5.8148804 -66.0000000 -12.7352724
vn 1.0095353 -3.2423384 -2.9707611
v 7.3592052 -66.0000000 -12.1221113
vn -2.2419817 -3.2423439 2.1950166
v -21.4310226 -66.0000000 19.2023163
vn -0.6667244 -3.0345116 -3.0654230
v -2.9754145 -66.0000000 -13.6801643
vn -0.3352832 -3.0345113 -3.1191225
v -1.4962776 -66.0000000 -13.9198112
vn -2.0098338 -3.2423487 2.4093871
v -23.3917198 -66.0000000 17.3917618
vn 0.7056314 -3.2423382 -3.0572319
v 8.9573679 -66.0000000 -11.6673803
vn 0.3945717 -3.2423375 -3.1126990
v 10.5931625 -66.0000000 -11.3756905
vn -2.4513900 -3.2423413 1.9583839
v -19.6623764 -66.0000000 21.2008991
vn 0.3487165 -3.0704265 -3.1201775
v 12.2500000 -66.0000000 -11.2500000
vn -2.6359353 -3.2423444 1.7018883
v -18.1037197 -66.0000000 23.3672390
vn 0.5248007 -3.0996094 -3.0967469
v 47.3111458 -66.0000000 -6.0627503
vn -2.7937458 -3.2423434 1.4281330
v -16.7708607 -66.0000000 25.6793652
vn -0.9905287 -3.0345109 -2.9766078
v -4.4204669 -66.0000000 -13.2838049
vn 2.9229617 -3.2422538 1.1405785
v 15.6777039 -66.0000000 28.1188927
vn -3.0230494 -3.2423398 0.8400894
v -14.8341789 -66.0000000 30.6459312
vn 2.7935474 -3.2422543 1.4285370
v 16.7707233 -66.0000000 25.6868267
vn 2.6358504 -3.2422535 1.7020332
v 18.1026134 -66.0000000 23.3769093
vn 1.7581117 -3.2422550 2.5987816
v 25.5159206 -66.0000000 15.8030443
vn 2.0103662 -3.2422519 2.4089525
v 23.3854008 -66.0000000 17.4063301
vn -2.9232216 -3.2423961 1.1398922
v -15.6773157 -66.0000000 28.1138248
vn 2.2422671 -3.2422545 2.1947351
v 21.4267788 -66.0000000 19.2155952
vn 2.4514687 -3.2422535 1.9582967
v 19.6598873 -66.0000000 21.2125282
vn 0.7181679 -3.0576272 -3.0555615
v 47.5584831 -66.0000000 -6.0154738
vn 0.9718809 -3.0576386 -2.9845722
v 47.8009796 -66.0000000 -5.9476218
vn 0.9905287 -3.0345125 -2.9766076
v 4.4204669 -66.0000000 -13.2838049
vn 0.6667244 -3.0345116 -3.0654230
v 2.9754145 -66.0000000 -13.6801643
vn 0.0000000 -3.0345109 -3.1370907
v 0.0000000 -66.0000000 -14.0000000
vn 0.3352832 -3.0345111 -3.1191225
v 1.4962776 -66.0000000 -13.9198112
vn -0.3487166 -3.0704279 -3.1201777
v -12.2500000 -66.0000000 -11.2500000
vn -0.3945717 -3.2423382 -3.1126990
v -10.5931625 -66.0000000 -11.3756905
vn -0.7056314 -3.2423382 -3.0572319
v -8.9573679 -66.0000000 -11.6673803
vn -1.2800294 -3.0879135 2.8677552
v -47.7352829 -66.0000000 6.0000000
vn -1.2187536 -3.0576224 -2.8925519
v -48.0369377 -66.0000000 -5.8596721
vn -0.9718810 -3.0576386 -2.9845726
v -47.8009796 -66.0000000 -5.9476218
vn 2.6432962 -2.5772448 1.4551245
v 14.2500000 -66.0000000 33.2500000
vn 1.1107208 -2.3561945 2.6815171
v 12.2500000 -66.0000000 35.2500000
vn -1.1107209 -2.3561945 2.6815171
v -12.2500000 -66.0000000 35.2500000
vn 2.9650230 -3.0336754 -1.0244687
v 51.3882790 -66.0000000 -2.1208913
vn 3.0581155 -3.0336847 -0.6991669
v 51.5809975 -66.0000000 -1.4474425
vn 3.1156282 -3.0336747 -0.3657295
v 51.7000656 -66.0000000 -0.7571545
vn 3.1368966 -3.0336924 -0.0280495
v 51.7440910 -66.0000000 -0.0580580
vn -1.4869486 -3.2423437 2.7628903
v -27.8079777 -66.0000000 14.4060974
vn -1.2753437 -3.1919689 2.8699901
v -30.2187462 -66.0000000 13.2612667
vn -0.5248006 -3.0996118 -3.0967464
v -47.3111458 -66.0000000 -6.0627503
vn -0.7181678 -3.0576274 -3.0555615
v -47.5584831 -66.0000000 -6.0154738
vn 3.0227833 -3.2422533 0.8410738
v 14.8346176 -66.0000000 30.6484871
vn -2.6434236 -2.5768743 1.4545568
v -14.2500000 -66.0000000 33.2500000
vn 1.2187536 -3.0576224 -2.8925524
v 48.0369377 -66.0000000 -5.8596721
vn 1.4732727 -3.0456567 -2.7706275
v 48.2646828 -66.0000000 -5.7522445
vn 1.7469943 -3.0336838 -2.6055536
v 48.8666801 -66.0000000 -5.3940930
vn 3.1216691 -3.0336699 0.3099641
v 51.7125740 -66.0000000 0.6417141
vn 3.0701251 -3.0336838 0.6443850
v 51.6058655 -66.0000000 1.3340205
vn 2.9828622 -3.0336738 0.9713026
v 51.4252167 -66.0000000 2.0108073
vn 1.5056560 -3.0336802 2.7520719
v 48.3670425 -66.0000000 5.6974258
vn 1.2807417 -3.0884020 2.8674603
v 47.7352829 -66.0000000 6.0000000
vn 1.2766865 -3.1919241 2.8693948
v 30.2048683 -66.0000000 13.2771015
vn 1.4880562 -3.2422533 2.7623024
v 27.7967758 -66.0000000 14.4219742
vn 2.0174561 -3.0336788 -2.4022427
v 49.4266052 -66.0000000 -4.9731884
vn 2.2644525 -3.0336795 -2.1709805
v 49.9379387 -66.0000000 -4.4944267
vn 2.4851055 -3.0336764 -1.9144574
v 50.3947334 -66.0000000 -3.9633772
vn 2.6768408 -3.0336876 -1.6356725
v 50.7916718 -66.0000000 -3.3862190
vn 2.8374331 -3.0336783 -1.3378613
v 51.1241455 -66.0000000 -2.7696660
vn -1.7932982 -3.0336850 2.5739040
v -48.9625397 -66.0000000 5.3285689
vn -2.0600810 -3.0336783 2.3657906
v -49.5148506 -66.0000000 4.8977213
vn -1.4732729 -3.0456650 -2.7706285
v -48.2646828 -66.0000000 -5.7522445
vn -2.3029082 -3.0336752 2.1301436
v -50.0175438 -66.0000000 4.4098935
vn -2.5189338 -3.0336876 1.8697259
v -50.4647675 -66.0000000 3.8707621
vn -2.7056551 -3.0336738 1.5875530
v -50.8513298 -66.0000000 3.2865992
vn 1.7932984 -3.0336835 2.5739040
v 48.9625397 -66.0000000 5.3285689
vn 2.8609014 -3.0336883 1.2869139
v 51.1727219 -66.0000000 2.6642008
vn 2.7056553 -3.0336728 1.5875530
v 50.8513298 -66.0000000 3.2865992
vn -1.5056560 -3.0336804 2.7520719
v -48.3670425 -66.0000000 5.6974258
vn -2.8609014 -3.0336885 1.2869139
v -51.1727219 -66.0000000 2.6642008
vn -2.9828622 -3.0336740 0.9713026
v -51.4252167 -66.0000000 2.0108073
vn -3.0701256 -3.0336838 0.6443850
v -51.6058655 -66.0000000 1.3340205
vn -3.1216693 -3.0336699 0.3099641
v -51.7125740 -66.0000000 0.6417141
vn -3.1368964 -3.0336921 -0.0280495
v -51.7440910 -66.0000000 -0.0580580
vn -3.1156282 -3.0336747 -0.3657295
v -51.7000656 -66.0000000 -0.7571545
vn -2.8374329 -3.0336781 -1.3378611
v -51.1241455 -66.0000000 -2.7696660
vn -2.6768413 -3.0336876 -1.6356726
v -50.7916718 -66.0000000 -3.3862190
vn -2.4851058 -3.0336790 -1.9144574
v -50.3947334 -66.0000000 -3.9633772
vn -3.0581155 -3.0336845 -0.6991669
v -51.5809975 -66.0000000 -1.4474425
vn -2.9650230 -3.0336738 -1.0244687
v -51.3882790 -66.0000000 -2.1208913
vn -1.7469944 -3.0336835 -2.6055536
v -48.8666801 -66.0000000 -5.3940930
vn -2.0174561 -3.0336790 -2.4022424
v -49.4266052 -66.0000000 -4.9731884
vn -2.2644522 -3.0336792 -2.1709805
v -49.9379387 -66.0000000 -4.4944267
vn 2.5189342 -3.0336864 1.8697261
v 50.4647675 -66.0000000 3.8707621
vn 2.3029079 -3.0336757 2.1301436
v 50.0175438 -66.0000000 4.4098935
vn 2.0600808 -3.0336790 2.3657904
v 49.5148506 -66.0000000 4.8977213
vn -1.2753437 3.1919689 2.8699899
v -30.2187462 -63.0000000 13.2612667
vn -1.4869485 3.2423429 2.7628903
v -27.8079777 -63.0000000 14.4060974
vn -1.7573022 3.2423410 2.5993209
v -25.5245819 -63.0000000 15.7875996
vn -2.0098341 3.2423465 2.4093871
v -23.3917198 -63.0000000 17.3917618
vn -2.2419815 3.2423444 2.1950166
v -21.4310226 -63.0000000 19.2023163
vn -2.4513898 3.2423444 1.9583838
v -19.6623764 -63.0000000 21.2008991
vn -2.6359355 3.2423444 1.7018883
v -18.1037197 -63.0000000 23.3672390
vn -2.7937460 3.2423220 1.4281330
v -16.7708607 -63.0000000 25.6793652
vn -2.9232216 3.2423532 1.1398922
v -15.6773157 -63.0000000 28.1138248
vn -3.0230494 3.2423406 0.8400893
v -14.8341789 -63.0000000 30.6459312
vn -2.6434236 2.5768740 1.4545569
v -14.2500000 -63.0000000 33.2500000
vn -1.1107208 2.3561945 2.6815171
v -12.2500000 -63.0000000 35.2500000
vn 1.1107209 2.3561945 2.6815171
v 12.2500000 -63.0000000 35.2500000
vn 2.6432962 2.5772448 1.4551244
v 14.2500000 -63.0000000 33.2500000
vn 3.0227833 3.2422533 0.8410738
v 14.8346176 -63.0000000 30.6484871
vn 2.9229617 3.2422538 1.1405785
v 15.6777039 -63.0000000 28.1188927
vn 2.7935472 3.2422543 1.4285371
v 16.7707233 -63.0000000 25.6868267
vn 2.6358504 3.2422535 1.7020332
v 18.1026134 -63.0000000 23.3769093
vn 2.4514687 3.2422533 1.9582968
v 19.6598873 -63.0000000 21.2125282
vn 2.2422671 3.2422545 2.1947351
v 21.4267788 -63.0000000 19.2155952
vn 2.0103662 3.2422519 2.4089522
v 23.3854008 -63.0000000 17.4063301
vn 1.7581117 3.2422550 2.5987816
v 25.5159206 -63.0000000 15.8030443
vn 1.4880561 3.2422533 2.7623022
v 27.7967758 -63.0000000 14.4219742
vn 1.2766867 3.1919241 2.8693950
v 30.2048683 -63.0000000 13.2771015
vn -1.1546795 3.1384244 -2.9216938
v -5.8148804 -63.0000000 -12.7352724
vn -1.0095353 3.2423382 -2.9707611
v -7.3592052 -63.0000000 -12.1221113
vn -0.7056314 3.2423382 -3.0572319
v -8.9573679 -63.0000000 -11.6673803
vn -0.3945717 3.2423375 -3.1126990
v -10.5931625 -63.0000000 -11.3756905
vn -0.3487165 3.0704267 -3.1201777
v -12.2500000 -63.0000000 -11.2500000
vn 1.1546795 3.1384244 -2.9216938
v 5.8148804 -63.0000000 -12.7352724
vn 0.9905287 3.0345125 -2.9766078
v 4.4204669 -63.0000000 -13.2838049
vn 0.6667244 3.0345116 -3.0654230
v 2.9754145 -63.0000000 -13.6801643
vn 0.3352832 3.0345111 -3.1191225
v 1.4962776 -63.0000000 -13.9198112
vn 0.0000000 3.0345109 -3.1370907
v 0.0000000 -63.0000000 -14.0000000
vn -0.3352832 3.0345113 -3.1191225
v -1.4962776 -63.0000000 -13.9198112
vn -0.6667244 3.0345116 -3.0654230
v -2.9754145 -63.0000000 -13.6801643
vn -0.9905287 3.0345120 -2.9766078
v -4.4204669 -63.0000000 -13.2838049
vn 1.2807415 3.0883992 2.8674598
v 47.7352829 -63.0000000 6.0000000
vn 1.5056560 3.0336809 2.7520719
v 48.3670425 -63.0000000 5.6974258
vn 1.7932982 3.0336835 2.5739040
v 48.9625397 -63.0000000 5.3285689
vn 2.0600810 3.0336771 2.3657906
v 49.5148506 -63.0000000 4.8977213
vn 2.3029082 3.0336754 2.1301436
v 50.0175438 -63.0000000 4.4098935
vn 2.5189338 3.0336876 1.8697258
v 50.4647675 -63.0000000 3.8707621
vn 2.7056551 3.0336738 1.5875530
v 50.8513298 -63.0000000 3.2865992
vn 2.8609014 3.0336885 1.2869139
v 51.1727219 -63.0000000 2.6642008
vn 2.9828622 3.0336738 0.9713026
v 51.4252167 -63.0000000 2.0108073
vn 3.0701256 3.0336838 0.6443850
v 51.6058655 -63.0000000 1.3340205
vn 3.1216693 3.0336699 0.3099641
v 51.7125740 -63.0000000 0.6417141
vn 3.1368964 3.0336924 -0.0280495
v 51.7440910 -63.0000000 -0.0580580
vn 3.1156282 3.0336747 -0.3657295
v 51.7000656 -63.0000000 -0.7571545
vn 3.0581155 3.0336847 -0.6991669
v 51.5809975 -63.0000000 -1.4474425
vn 2.9650230 3.0336754 -1.0244687
v 51.3882790 -63.0000000 -2.1208913
vn 2.8374329 3.0336783 -1.3378611
v 51.1241455 -63.0000000 -2.7696660
vn 2.6768413 3.0336876 -1.6356726
v 50.7916718 -63.0000000 -3.3862190
vn 2.4851058 3.0336764 -1.9144576
v 50.3947334 -63.0000000 -3.9633772
vn 2.2644522 3.0336795 -2.1709805
v 49.9379387 -63.0000000 -4.4944267
vn 2.0174561 3.0336788 -2.4022424
v 49.4266052 -63.0000000 -4.9731884
vn 1.7469944 3.0336838 -2.6055536
v 48.8666801 -63.0000000 -5.3940930
vn 1.4732729 3.0456567 -2.7706285
v 48.2646828 -63.0000000 -5.7522445
vn 1.2187536 3.0576224 -2.8925519
v 48.0369377 -63.0000000 -5.8596721
vn 0.7056314 3.2423382 -3.0572319
v 8.9573679 -63.0000000 -11.6673803
vn 1.0095353 3.2423384 -2.9707608
v 7.3592052 -63.0000000 -12.1221113
vn 0.9718810 3.0576386 -2.9845726
v 47.8009796 -63.0000000 -5.9476218
vn 0.7181678 3.0576284 -3.0555615
v 47.5584831 -63.0000000 -6.0154738
vn 0.5248006 3.0996101 -3.0967464
v 47.3111458 -63.0000000 -6.0627503
vn 0.3487166 3.0704265 -3.1201777
v 12.2500000 -63.0000000 -11.2500000
vn 0.3945717 3.2423382 -3.1126990
v 10.5931625 -63.0000000 -11.3756905
vn -0.7181679 3.0576274 -3.0555615
v -47.5584831 -63.0000000 -6.0154738
vn -0.9718809 3.0576386 -2.9845719
v -47.8009796 -63.0000000 -5.9476218
vn -1.2800295 3.0879135 2.8677557
v -47.7352829 -63.0000000 6.0000000
vn -0.5248007 3.0996120 -3.0967469
v -47.3111458 -63.0000000 -6.0627503
vn -1.4732727 3.0456600 -2.7706275
v -48.2646828 -63.0000000 -5.7522445
vn -2.0600808 3.0336809 2.3657904
v -49.5148506 -63.0000000 4.8977213
vn -1.7932982 3.0336850 2.5739040
v -48.9625397 -63.0000000 5.3285689
vn -1.2187536 3.0576224 -2.8925524
v -48.0369377 -63.0000000 -5.8596721
vn -1.5056560 3.0336804 2.7520719
v -48.3670425 -63.0000000 5.6974258
vn -1.7469943 3.0336838 -2.6055536
v -48.8666801 -63.0000000 -5.3940930
vn -2.0174561 3.0336788 -2.4022427
v -49.4266052 -63.0000000 -4.9731884
vn -2.2644525 3.0336795 -2.1709805
v -49.9379387 -63.0000000 -4.4944267
vn -2.4851055 3.0336764 -1.9144576
v -50.3947334 -63.0000000 -3.9633772
vn -2.6768408 3.0336862 -1.6356725
v -50.7916718 -63.0000000 -3.3862190
vn -2.3029079 3.0336752 2.1301436
v -50.0175438 -63.0000000 4.4098935
vn -2.5189340 3.0336878 1.8697259
v -50.4647675 -63.0000000 3.8707621
vn -2.8374331 3.0336783 -1.3378613
v -51.1241455 -63.0000000 -2.7696660
vn -2.9650230 3.0336726 -1.0244687
v -51.3882790 -63.0000000 -2.1208913
vn -2.9828622 3.0336740 0.9713025
v -51.4252167 -63.0000000 2.0108073
vn -3.0701251 3.0336838 0.6443850
v -51.6058655 -63.0000000 1.3340205
vn -3.1216691 3.0336697 0.3099641
v -51.7125740 -63.0000000 0.6417141
vn -2.8609014 3.0336885 1.2869139
v -51.1727219 -63.0000000 2.6642008
vn -2.7056553 3.0336735 1.5875530
v -50.8513298 -63.0000000 3.2865992
vn -3.1368966 3.0336912 -0.0280495
v -51.7440910 -63.0000000 -0.0580580
vn -3.0581155 3.0336847 -0.6991669
v -51.5809975 -63.0000000 -1.4474425
vn -3.1156282 3.0336742 -0.3657295
v -51.7000656 -63.0000000 -0.7571545
# 430 vertices, 0 vertices normals

f 1//1 2//2 3//3
f 2//2 4//4 3//3
f 5//5 6//6 7//7
f 6//6 8//8 7//7
f 8//8 6//6 3//3
f 6//6 1//1 3//3
f 7//7 8//8 4//4
f 8//8 3//3 4//4
f 4//4 9//9 10//10
f 11//11 4//4 12//12
f 4//4 13//13 12//12
f 14//14 15//15 7//7
f 11//11 16//16 4//4
f 16//16 17//17 4//4
f 4//4 17//17 18//18
f 18//18 19//19 4//4
f 19//19 20//20 4//4
f 4//4 20//20 21//21
f 7//7 22//22 23//23
f 10//10 24//24 4//4
f 24//24 25//25 4//4
f 4//4 25//25 26//26
f 26//26 27//27 4//4
f 27//27 28//28 4//4
f 4//4 28//28 29//29
f 21//21 30//30 4//4
f 30//30 31//31 4//4
f 4//4 31//31 7//7
f 31//31 32//32 7//7
f 7//7 32//32 14//14
f 15//15 33//33 7//7
f 33//33 34//34 7//7
f 7//7 34//34 35//35
f 35//35 36//36 7//7
f 36//36 37//37 7//7
f 7//7 37//37 38//38
f 39//39 40//40 5//5
f 40//40 41//41 5//5
f 5//5 42//42 43//43
f 44//44 45//45 46//46
f 45//45 47//47 46//46
f 46//46 47//47 48//48
f 29//29 49//49 4//4
f 49//49 50//50 4//4
f 4//4 50//50 51//51
f 51//51 52//52 4//4
f 52//52 53//53 4//4
f 4//4 53//53 54//54
f 38//38 55//55 7//7
f 55//55 56//56 7//7
f 7//7 56//56 22//22
f 23//23 57//57 7//7
f 57//57 58//58 7//7
f 7//7 58//58 59//59
f 41//41 60//60 5//5
f 60//60 61//61 5//5
f 5//5 61//61 42//42
f 43//43 62//62 5//5
f 62//62 63//63 5//5
f 5//5 63//63 64//64
f 9//9 4//4 65//65
f 4//4 2//2 65//65
f 65//65 2//2 66//66
f 67//67 2//2 68//68
f 2//2 69//69 68//68
f 70//70 71//71 67//67
f 2//2 72//72 73//73
f 74//74 75//75 2//2
f 75//75 76//76 2//2
f 59//59 77//77 7//7
f 77//77 78//78 7//7
f 7//7 78//78 5//5
f 78//78 79//79 5//5
f 5//5 79//79 39//39
f 64//64 80//80 5//5
f 80//80 81//81 5//5
f 5//5 81//81 82//82
f 82//82 83//83 5//5
f 83//83 84//84 5//5
f 5//5 84//84 2//2
f 84//84 85//85 2//2
f 2//2 85//85 86//86
f 86//86 87//87 2//2
f 87//87 88//88 2//2
f 2//2 88//88 69//69
f 76//76 89//89 2//2
f 89//89 90//90 2//2
f 2//2 90//90 66//66
f 13//13 91//91 92//92
f 93//93 94//94 95//95
f 94//94 96//96 95//95
f 44//44 46//46 67//67
f 46//46 97//97 67//67
f 67//67 97//97 70//70
f 98//98 99//99 2//2
f 99//99 100//100 2//2
f 2//2 100//100 101//101
f 54//54 102//102 4//4
f 102//102 103//103 4//4
f 4//4 103//103 13//13
f 103//103 104//104 13//13
f 13//13 104//104 91//91
f 92//92 105//105 13//13
f 105//105 106//106 13//13
f 13//13 106//106 107//107
f 107//107 108//108 13//13
f 108//108 109//109 13//13
f 13//13 109//109 110//110
f 110//110 111//111 13//13
f 111//111 112//112 13//13
f 13//13 112//112 93//93
f 112//112 113//113 93//93
f 93//93 113//113 94//94
f 114//114 115//115 47//47
f 115//115 116//116 47//47
f 47//47 116//116 48//48
f 71//71 117//117 67//67
f 117//117 118//118 67//67
f 67//67 118//118 2//2
f 118//118 119//119 2//2
f 2//2 119//119 72//72
f 101//101 120//120 2//2
f 120//120 121//121 2//2
f 2//2 121//121 74//74
f 96//96 94//94 47//47
f 94//94 122//122 47//47
f 47//47 122//122 114//114
f 73//73 123//123 2//2
f 123//123 124//124 2//2
f 2//2 124//124 98//98
f 65//65 125//125 9//9
f 125//125 126//126 9//9
f 9//9 126//126 10//10
f 126//126 127//127 10//10
f 10//10 127//127 24//24
f 127//127 128//128 24//24
f 24//24 128//128 25//25
f 128//128 129//129 25//25
f 25//25 129//129 26//26
f 129//129 130//130 26//26
f 26//26 130//130 27//27
f 130//130 131//131 27//27
f 27//27 131//131 28//28
f 131//131 132//132 28//28
f 28//28 132//132 29//29
f 132//132 133//133 29//29
f 29//29 133//133 49//49
f 133//133 134//134 49//49
f 49//49 134//134 50//50
f 134//134 135//135 50//50
f 50//50 135//135 51//51
f 135//135 136//136 51//51
f 51//51 136//136 52//52
f 136//136 137//137 52//52
f 52//52 137//137 53//53
f 137//137 138//138 53//53
f 53//53 138//138 54//54
f 138//138 139//139 54//54
f 54//54 139//139 102//102
f 139//139 140//140 102//102
f 102//102 140//140 103//103
f 140//140 141//141 103//103
f 103//103 141//141 104//104
f 141//141 142//142 104//104
f 104//104 142//142 91//91
f 142//142 143//143 91//91
f 91//91 143//143 92//92
f 143//143 144//144 92//92
f 92//92 144//144 105//105
f 144//144 145//145 105//105
f 105//105 145//145 106//106
f 145//145 146//146 106//106
f 106//106 146//146 107//107
f 146//146 147//147 107//107
f 107//107 147//147 108//108
f 147//147 148//148 108//108
f 108//108 148//148 109//109
f 148//148 149//149 109//109
f 109//109 149//149 110//110
f 149//149 150//150 110//110
f 110//110 150//150 111//111
f 150//150 151//151 111//111
f 111//111 151//151 112//112
f 151//151 152//152 112//112
f 112//112 152//152 113//113
f 152//152 153//153 113//113
f 113//113 153//153 94//94
f 153//153 154//154 94//94
f 94//94 154//154 122//122
f 154//154 155//155 122//122
f 122//122 155//155 114//114
f 155//155 156//156 114//114
f 114//114 156//156 115//115
f 156//156 157//157 115//115
f 115//115 157//157 116//116
f 157//157 158//158 116//116
f 116//116 158//158 48//48
f 158//158 159//159 48//48
f 48//48 159//159 46//46
f 159//159 160//160 46//46
f 46//46 160//160 97//97
f 160//160 161//161 97//97
f 97//97 161//161 70//70
f 161//161 162//162 70//70
f 70//70 162//162 71//71
f 162//162 163//163 71//71
f 71//71 163//163 117//117
f 163//163 164//164 117//117
f 117//117 164//164 118//118
f 164//164 165//165 118//118
f 118//118 165//165 119//119
f 165//165 166//166 119//119
f 119//119 166//166 72//72
f 166//166 167//167 72//72
f 72//72 167//167 73//73
f 167//167 168//168 73//73
f 73//73 168//168 123//123
f 168//168 169//169 123//123
f 123//123 169//169 124//124
f 169//169 170//170 124//124
f 124//124 170//170 98//98
f 170//170 171//171 98//98
f 98//98 171//171 99//99
f 171//171 172//172 99//99
f 99//99 172//172 100//100
f 172//172 173//173 100//100
f 100//100 173//173 101//101
f 173//173 174//174 101//101
f 101//101 174//174 120//120
f 174//174 175//175 120//120
f 120//120 175//175 121//121
f 175//175 176//176 121//121
f 121//121 176//176 74//74
f 176//176 177//177 74//74
f 74//74 177//177 75//75
f 177//177 178//178 75//75
f 75//75 178//178 76//76
f 178//178 179//179 76//76
f 76//76 179//179 89//89
f 179//179 180//180 89//89
f 89//89 180//180 90//90
f 180//180 181//181 90//90
f 90//90 181//181 66//66
f 181//181 182//182 66//66
f 66//66 182//182 65//65
f 182//182 125//125 65//65
f 93//93 183//183 13//13
f 183//183 184//184 13//13
f 13//13 184//184 12//12
f 184//184 185//185 12//12
f 12//12 185//185 11//11
f 185//185 186//186 11//11
f 11//11 186//186 16//16
f 186//186 187//187 16//16
f 16//16 187//187 17//17
f 187//187 188//188 17//17
f 17//17 188//188 18//18
f 188//188 189//189 18//18
f 18//18 189//189 19//19
f 189//189 190//190 19//19
f 19//19 190//190 20//20
f 190//190 191//191 20//20
f 20//20 191//191 21//21
f 191//191 192//192 21//21
f 21//21 192//192 30//30
f 192//192 193//193 30//30
f 30//30 193//193 31//31
f 193//193 194//194 31//31
f 31//31 194//194 32//32
f 194//194 195//195 32//32
f 32//32 195//195 14//14
f 195//195 196//196 14//14
f 14//14 196//196 15//15
f 196//196 197//197 15//15
f 15//15 197//197 33//33
f 197//197 198//198 33//33
f 33//33 198//198 34//34
f 198//198 199//199 34//34
f 34//34 199//199 35//35
f 199//199 200//200 35//35
f 35//35 200//200 36//36
f 200//200 201//201 36//36
f 36//36 201//201 37//37
f 201//201 202//202 37//37
f 37//37 202//202 38//38
f 202//202 203//203 38//38
f 38//38 203//203 55//55
f 203//203 204//204 55//55
f 55//55 204//204 56//56
f 204//204 205//205 56//56
f 56//56 205//205 22//22
f 205//205 206//206 22//22
f 22//22 206//206 23//23
f 206//206 207//207 23//23
f 23//23 207//207 57//57
f 207//207 208//208 57//57
f 57//57 208//208 58//58
f 208//208 209//209 58//58
f 58//58 209//209 59//59
f 209//209 210//210 59//59
f 59//59 210//210 77//77
f 210//210 211//211 77//77
f 77//77 211//211 78//78
f 211//211 212//212 78//78
f 78//78 212//212 79//79
f 212//212 213//213 79//79
f 79//79 213//213 39//39
f 213//213 214//214 39//39
f 39//39 214//214 40//40
f 214//214 215//215 40//40
f 40//40 215//215 41//41
f 215//215 216//216 41//41
f 41//41 216//216 60//60
f 216//216 217//217 60//60
f 60//60 217//217 61//61
f 217//217 218//218 61//61
f 61//61 218//218 42//42
f 218//218 219//219 42//42
f 42//42 219//219 43//43
f 219//219 220//220 43//43
f 43//43 220//220 62//62
f 220//220 221//221 62//62
f 62//62 221//221 63//63
f 221//221 222//222 63//63
f 63//63 222//222 64//64
f 222//222 223//223 64//64
f 64//64 223//223 80//80
f 223//223 224//224 80//80
f 80//80 224//224 81//81
f 224//224 225//225 81//81
f 81//81 225//225 82//82
f 225//225 226//226 82//82
f 82//82 226//226 83//83
f 226//226 227//227 83//83
f 83//83 227//227 84//84
f 227//227 228//228 84//84
f 84//84 228//228 85//85
f 228//228 229//229 85//85
f 85//85 229//229 86//86
f 229//229 230//230 86//86
f 86//86 230//230 87//87
f 230//230 231//231 87//87
f 87//87 231//231 88//88
f 231//231 232//232 88//88
f 88//88 232//232 69//69
f 232//232 233//233 69//69
f 69//69 233//233 68//68
f 233//233 234//234 68//68
f 68//68 234//234 67//67
f 234//234 235//235 67//67
f 67//67 235//235 44//44
f 235//235 236//236 44//44
f 44//44 236//236 45//45
f 236//236 237//237 45//45
f 45//45 237//237 47//47
f 237//237 238//238 47//47
f 47//47 238//238 96//96
f 238//238 239//239 96//96
f 96//96 239//239 95//95
f 239//239 240//240 95//95
f 95//95 240//240 93//93
f 240//240 183//183 93//93
f 241//241 242//242 243//243
f 242//242 244//244 243//243
f 245//245 246//246 247//247
f 248//248 249//249 250//250
f 251//251 252//252 253//253
f 249//249 254//254 250//250
f 254//254 255//255 250//250
f 250//250 255//255 256//256
f 255//255 257//257 256//256
f 256//256 257//257 258//258
f 257//257 259//259 258//258
f 258//258 259//259 260//260
f 247//247 246//246 253//253
f 246//246 261//261 253//253
f 253//253 261//261 251//251
f 262//262 263//263 264//264
f 263//263 265//265 264//264
f 266//266 267//267 268//268
f 267//267 269//269 268//268
f 268//268 269//269 263//263
f 269//269 270//270 263//263
f 263//263 270//270 265//265
f 260//260 259//259 268//268
f 259//259 271//271 268//268
f 268//268 271//271 272//272
f 248//248 250//250 273//273
f 250//250 253//253 273//273
f 273//273 253//253 274//274
f 252//252 275//275 253//253
f 275//275 276//276 253//253
f 253//253 276//276 274//274
f 277//277 278//278 247//247
f 278//278 279//279 247//247
f 247//247 279//279 245//245
f 280//280 281//281 282//282
f 283//283 284//284 285//285
f 286//286 287//287 268//268
f 287//287 288//288 268//268
f 268//268 288//288 289//289
f 247//247 290//290 277//277
f 290//290 291//291 277//277
f 277//277 291//291 292//292
f 291//291 280//280 292//292
f 292//292 280//280 293//293
f 280//280 282//282 293//293
f 262//262 294//294 263//263
f 294//294 283//283 263//263
f 263//263 283//283 295//295
f 283//283 285//285 295//295
f 272//272 296//296 268//268
f 296//296 297//297 268//268
f 268//268 297//297 298//298
f 289//289 299//299 268//268
f 299//299 300//300 268//268
f 268//268 300//300 301//301
f 302//302 303//303 301//301
f 303//303 304//304 301//301
f 301//301 304//304 268//268
f 304//304 305//305 268//268
f 268//268 305//305 266//266
f 298//298 306//306 268//268
f 306//306 307//307 268//268
f 268//268 307//307 308//308
f 308//308 309//309 268//268
f 309//309 310//310 268//268
f 268//268 310//310 286//286
f 311//311 312//312 313//313
f 312//312 314//314 313//313
f 314//314 315//315 313//313
f 313//313 315//315 316//316
f 302//302 301//301 317//317
f 301//301 318//318 317//317
f 317//317 318//318 319//319
f 281//281 280//280 313//313
f 280//280 320//320 313//313
f 313//313 320//320 311//311
f 316//316 321//321 313//313
f 321//321 322//322 313//313
f 313//313 322//322 323//323
f 323//323 324//324 313//313
f 324//324 325//325 313//313
f 313//313 325//325 326//326
f 327//327 328//328 329//329
f 326//326 330//330 313//313
f 330//330 331//331 313//313
f 313//313 331//331 332//332
f 331//331 333//333 332//332
f 327//327 329//329 331//331
f 329//329 334//334 331//331
f 331//331 334//334 333//333
f 335//335 336//336 319//319
f 336//336 337//337 319//319
f 319//319 337//337 317//317
f 338//338 291//291 339//339
f 291//291 290//290 339//339
f 339//339 290//290 340//340
f 290//290 247//247 340//340
f 340//340 247//247 341//341
f 247//247 253//253 341//341
f 341//341 253//253 342//342
f 253//253 250//250 342//342
f 342//342 250//250 343//343
f 250//250 256//256 343//343
f 343//343 256//256 344//344
f 256//256 258//258 344//344
f 344//344 258//258 345//345
f 258//258 260//260 345//345
f 345//345 260//260 346//346
f 260//260 268//268 346//346
f 346//346 268//268 347//347
f 268//268 263//263 347//347
f 347//347 263//263 348//348
f 263//263 295//295 348//348
f 349//349 285//285 350//350
f 285//285 284//284 350//350
f 351//351 283//283 352//352
f 283//283 294//294 352//352
f 352//352 294//294 353//353
f 294//294 262//262 353//353
f 353//353 262//262 354//354
f 262//262 264//264 354//354
f 354//354 264//264 355//355
f 264//264 265//265 355//355
f 355//355 265//265 356//356
f 265//265 270//270 356//356
f 356//356 270//270 357//357
f 270//270 269//269 357//357
f 357//357 269//269 358//358
f 269//269 267//267 358//358
f 358//358 267//267 359//359
f 267//267 266//266 359//359
f 359//359 266//266 360//360
f 266//266 305//305 360//360
f 360//360 305//305 361//361
f 305//305 304//304 361//361
f 348//348 295//295 349//349
f 295//295 285//285 349//349
f 362//362 246//246 363//363
f 246//246 245//245 363//363
f 363//363 245//245 364//364
f 245//245 279//279 364//364
f 364//364 279//279 365//365
f 279//279 278//278 365//365
f 365//365 278//278 366//366
f 278//278 277//277 366//366
f 350//350 284//284 351//351
f 284//284 283//283 351//351
f 367//367 248//248 273//273
f 367//367 273//273 368//368
f 273//273 274//274 368//368
f 368//368 274//274 369//369
f 274//274 276//276 369//369
f 369//369 276//276 370//370
f 276//276 275//275 370//370
f 370//370 275//275 371//371
f 275//275 252//252 371//371
f 371//371 252//252 372//372
f 252//252 251//251 372//372
f 372//372 251//251 373//373
f 251//251 261//261 373//373
f 373//373 261//261 374//374
f 261//261 246//246 374//374
f 374//374 246//246 362//362
f 304//304 303//303 361//361
f 303//303 375//375 361//361
f 375//375 303//303 302//302
f 375//375 302//302 376//376
f 302//302 317//317 376//376
f 376//376 317//317 377//377
f 317//317 337//337 377//377
f 377//377 337//337 378//378
f 337//337 336//336 378//378
f 378//378 336//336 379//379
f 336//336 335//335 379//379
f 379//379 335//335 380//380
f 335//335 319//319 380//380
f 380//380 319//319 381//381
f 319//319 318//318 381//381
f 381//381 318//318 382//382
f 318//318 301//301 382//382
f 382//382 301//301 383//383
f 301//301 300//300 383//383
f 383//383 300//300 384//384
f 300//300 299//299 384//384
f 384//384 299//299 385//385
f 299//299 289//289 385//385
f 385//385 289//289 386//386
f 289//289 288//288 386//386
f 386//386 288//288 387//387
f 288//288 287//287 387//387
f 387//387 287//287 388//388
f 287//287 286//286 388//388
f 388//388 286//286 389//389
f 286//286 310//310 389//389
f 389//389 310//310 390//390
f 310//310 309//309 390//390
f 390//390 309//309 391//391
f 309//309 308//308 391//391
f 391//391 308//308 392//392
f 308//308 307//307 392//392
f 392//392 307//307 393//393
f 307//307 306//306 393//393
f 393//393 306//306 394//394
f 306//306 298//298 394//394
f 394//394 298//298 395//395
f 298//298 297//297 395//395
f 395//395 297//297 396//396
f 396//396 397//397 346//346
f 396//396 346//346 395//395
f 340//340 362//362 363//363
f 346//346 358//358 359//359
f 347//347 353//353 354//354
f 362//362 340//340 374//374
f 340//340 341//341 374//374
f 374//374 341//341 373//373
f 398//398 399//399 342//342
f 397//397 400//400 346//346
f 400//400 401//401 346//346
f 346//346 401//401 345//345
f 401//401 402//402 345//345
f 345//345 402//402 344//344
f 354//354 355//355 347//347
f 355//355 356//356 347//347
f 347//347 356//356 346//346
f 356//356 357//357 346//346
f 346//346 357//357 358//358
f 344//344 402//402 343//343
f 402//402 403//403 343//343
f 343//343 403//403 342//342
f 403//403 404//404 342//342
f 342//342 404//404 398//398
f 405//405 406//406 407//407
f 363//363 364//364 340//340
f 364//364 365//365 340//340
f 340//340 365//365 339//339
f 365//365 366//366 339//339
f 339//339 366//366 338//338
f 370//370 371//371 341//341
f 371//371 372//372 341//341
f 341//341 372//372 373//373
f 383//383 384//384 346//346
f 384//384 385//385 346//346
f 346//346 385//385 386//386
f 386//386 387//387 346//346
f 387//387 388//388 346//346
f 346//346 388//388 389//389
f 349//349 350//350 348//348
f 350//350 351//351 348//348
f 348//348 351//351 347//347
f 351//351 352//352 347//347
f 347//347 352//352 353//353
f 338//338 366//366 407//407
f 366//366 408//408 407//407
f 407//407 408//408 405//405
f 399//399 367//367 342//342
f 367//367 368//368 342//342
f 342//342 368//368 341//341
f 368//368 369//369 341//341
f 341//341 369//369 370//370
f 389//389 390//390 346//346
f 390//390 391//391 346//346
f 346//346 391//391 392//392
f 392//392 393//393 346//346
f 393//393 394//394 346//346
f 346//346 394//394 395//395
f 359//359 360//360 346//346
f 360//360 361//361 346//346
f 346//346 361//361 383//383
f 361//361 375//375 383//383
f 383//383 375//375 382//382
f 409//409 410//410 411//411
f 406//406 412//412 407//407
f 412//412 409//409 407//407
f 407//407 409//409 413//413
f 409//409 411//411 413//413
f 409//409 414//414 410//410
f 414//414 415//415 410//410
f 410//410 415//415 416//416
f 376//376 377//377 375//375
f 377//377 378//378 375//375
f 375//375 378//378 379//379
f 379//379 380//380 375//375
f 380//380 381//381 375//375
f 375//375 381//381 382//382
f 416//416 417//417 410//410
f 417//417 418//418 410//410
f 410//410 418//418 419//419
f 419//419 418//418 420//420
f 418//418 421//421 420//420
f 420//420 421//421 422//422
f 423//423 422//422 424//424
f 422//422 425//425 424//424
f 423//423 426//426 422//422
f 426//426 427//427 422//422
f 422//422 427//427 420//420
f 425//425 422//422 428//428
f 422//422 429//429 428//428
f 428//428 429//429 430//430
f 396//396 297//297 296//296
f 396//396 296//296 397//397
f 296//296 272//272 397//397
f 397//397 272//272 400//400
f 272//272 271//271 400//400
f 400//400 271//271 401//401
f 271//271 259//259 401//401
f 401//401 259//259 402//402
f 259//259 257//257 402//402
f 257//257 403//403 402//402
f 403//403 257//257 404//404
f 257//257 255//255 404//404
f 404//404 255//255 398//398
f 255//255 254//254 398//398
f 398//398 254//254 399//399
f 254//254 249//249 399//399
f 399//399 249//249 367//367
f 249//249 248//248 367//367
f 277//277 292//292 366//366
f 292//292 408//408 366//366
f 408//408 292//292 293//293
f 408//408 293//293 405//405
f 293//293 282//282 405//405
f 405//405 282//282 406//406
f 282//282 281//281 406//406
f 406//406 281//281 412//412
f 281//281 313//313 412//412
f 412//412 313//313 409//409
f 409//409 313//313 332//332
f 409//409 332//332 414//414
f 332//332 333//333 414//414
f 414//414 333//333 415//415
f 333//333 334//334 415//415
f 415//415 334//334 416//416
f 334//334 329//329 416//416
f 416//416 329//329 417//417
f 329//329 328//328 417//417
f 417//417 328//328 418//418
f 328//328 327//327 418//418
f 418//418 327//327 421//421
f 327//327 331//331 421//421
f 421//421 331//331 422//422
f 331//331 330//330 422//422
f 422//422 330//330 429//429
f 330//330 326//326 429//429
f 429//429 326//326 430//430
f 326//326 325//325 430//430
f 430//430 325//325 428//428
f 325//325 324//324 428//428
f 428//428 324//324 425//425
f 324//324 323//323 425//425
f 425//425 323//323 424//424
f 323//323 322//322 424//424
f 424//424 322//322 423//423
f 322//322 321//321 423//423
f 423//423 321//321 426//426
f 321//321 316//316 426//426
f 426//426 316//316 427//427
f 316//316 315//315 427//427
f 427//427 315//315 420//420
f 315//315 314//314 420//420
f 420//420 314//314 419//419
f 314//314 312//312 419//419
f 419//419 312//312 410//410
f 312//312 311//311 410//410
f 410//410 311//311 411//411
f 311//311 320//320 411//411
f 411//411 320//320 413//413
f 320//320 280//280 413//413
f 413//413 280//280 407//407
f 280//280 291//291 407//407
f 291//291 338//338 407//407
# 732 faces, 0 coords texture

# End of File
