####
#
# OBJ File Generated by Meshlab
#
####
# Object wx200_7_gripper_prop.obj
#
# Vertices: 228
# Faces: 452
#
####
vn -2.8552461 3.0325742 1.2991836
v -9.3296013 -66.0000000 4.2451200
vn -2.6969421 3.0325754 1.6021276
v -8.8123369 -66.0000000 5.2349992
vn 1.9612195 4.7351513 0.9879754
v 2.5640967 -66.0000000 9.9241076
vn -2.7370279 3.3090062 1.5196346
v -8.1904430 -66.0000000 6.1627226
vn 2.9226425 3.2277071 -1.1443236
v 2.6757228 -66.0000000 10.2498589
vn -2.8273630 3.0872247 1.3668685
v -3.8751850 -66.0000000 15.7451181
vn 2.8133926 3.2277050 -1.3914514
v 2.8149521 -66.0000000 10.5648012
vn 1.4233346 3.0325370 2.7954261
v 4.6507936 -66.0000000 9.1341457
vn 1.7191333 3.0325360 2.6239030
v 5.6173248 -66.0000000 8.5736904
vn -2.9796498 3.0325780 0.9808140
v -9.7360935 -66.0000000 3.2048378
vn 2.8553419 3.0325365 -1.2989650
v 9.3299246 -66.0000000 -4.2444100
vn 2.6970000 3.0325372 -1.6020235
v 8.8125362 -66.0000000 -5.2346640
vn -1.9635515 4.7318535 -0.9915727
v -2.5708961 -66.0000000 -9.9223480
vn 2.7370443 3.3089888 -1.5196099
v 8.1904430 -66.0000000 -6.1627226
vn -2.9230103 3.2318611 1.1425941
v -2.6870070 -66.0000000 -10.2641182
vn 2.8273630 3.0872281 -1.3668685
v 3.8751850 -66.0000000 -15.7451181
vn -2.8081074 3.2318640 1.4014435
v -2.8334544 -66.0000000 -10.5940304
vn -1.4250398 3.0325751 -2.7945611
v -4.6563559 -66.0000000 -9.1313114
vn -1.7206326 3.0325751 -2.6229248
v -5.6222191 -66.0000000 -8.5704813
vn 2.9797592 3.0325375 -0.9804707
v 9.7364597 -66.0000000 -3.2037258
vn -1.9957979 3.0325737 -2.4201446
v -6.5213299 -66.0000000 -7.9078927
vn -1.1125245 3.0325732 -2.9330187
v -3.6352067 -66.0000000 -9.5837250
vn 1.1106255 3.0325367 2.9337351
v 3.6290040 -66.0000000 9.5860748
vn 2.4711685 3.0325372 1.9322563
v 8.0746241 -66.0000000 6.3137107
vn 2.6667950 3.0325358 1.6518149
v 8.7138395 -66.0000000 5.3973608
vn -2.2472672 3.0325751 -2.1886294
v -7.3430109 -66.0000000 -7.1514120
vn -2.4720538 3.0325747 -1.9311293
v -8.0775080 -66.0000000 -6.3100214
vn -2.6674895 3.0325747 -1.6507001
v -8.7160988 -66.0000000 -5.3937116
vn -2.8312535 3.0325747 -1.3506718
v -9.2512026 -66.0000000 -4.4133606
vn -2.9614015 3.0325747 -1.0346067
v -9.6764650 -66.0000000 -3.3806098
vn -3.0563881 3.0325749 -0.7062580
v -9.9868374 -66.0000000 -2.3077199
vn 1.9945064 3.0325370 2.4212048
v 6.5171142 -66.0000000 7.9113665
vn 2.2461815 3.0325360 2.1897392
v 7.3394709 -66.0000000 7.1550450
vn 2.8307362 3.0325375 1.3517482
v 9.2495213 -66.0000000 4.4168820
vn 2.9610434 3.0325365 1.0356215
v 9.6753063 -66.0000000 3.3839247
vn 3.0561695 3.0325360 0.7071877
v 9.9861345 -66.0000000 2.3107615
vn 3.1392686 3.0872283 0.0853603
v 4.2500000 -66.0000000 14.0000000
vn 3.1397214 3.0927906 -0.0766278
v 4.2500000 -66.0000000 13.9117460
vn -2.5150013 3.0328503 1.8748956
v -3.4073660 -66.0000000 16.5401497
vn 3.1229162 3.0439873 -0.3057832
v 4.2309618 -66.0000000 13.5219460
vn -3.1150858 3.0325756 -0.3695253
v -10.1786346 -66.0000000 -1.2074307
vn -3.1367979 3.0325732 -0.0284025
v -10.2495804 -66.0000000 -0.0928052
vn -3.1212664 3.0325761 0.3130569
v -10.1988297 -66.0000000 1.0229222
vn 3.1213226 3.0325360 -0.3124636
v 10.1990242 -66.0000000 -1.0209808
vn 3.0687716 3.0325384 -0.6503302
v 10.0273104 -66.0000000 -2.1249774
vn -3.0686755 3.0325737 0.6507983
v -10.0269880 -66.0000000 2.1265042
vn 3.1149840 3.0325379 0.3703538
v 10.1783123 -66.0000000 1.2101430
vn 3.1367881 3.0325358 0.0291193
v 10.2495584 -66.0000000 0.0951463
vn 2.9017262 3.0439861 -1.1941926
v 3.9489977 -66.0000000 12.3894396
vn 2.7715425 3.0439892 -1.4712830
v 3.7830429 -66.0000000 12.0362177
vn 3.0782537 3.0439868 -0.6086581
v 4.1740279 -66.0000000 13.1358557
vn 3.0042894 3.0439892 -0.9057357
v 4.0797405 -66.0000000 12.7571526
vn 2.6149738 3.0439854 -1.7343681
v 3.5834568 -66.0000000 11.7008486
vn 2.5085661 3.1186452 -1.8908731
v 3.3521390 -66.0000000 11.3865271
vn -2.7036169 3.0328569 1.5908840
v -3.6629095 -66.0000000 16.1553631
vn 2.5500073 3.2105041 -1.8317615
v 3.1718960 -66.0000000 11.1530266
vn 2.6832952 3.2277043 -1.6282632
v 2.9807529 -66.0000000 10.8666029
vn -1.4580629 3.0328567 -2.7775011
v -1.9754093 -66.0000000 -17.7630119
vn -1.7508764 3.0328519 -2.6028616
v -2.3721206 -66.0000000 -17.5264072
vn 2.5150013 3.0328529 -1.8748956
v 3.4073660 -66.0000000 -16.5401497
vn -2.7715425 3.0439892 1.4712830
v -3.7830429 -66.0000000 -12.0362177
vn -2.6149738 3.0439854 1.7343681
v -3.5834568 -66.0000000 -11.7008486
vn -2.5028281 3.1126900 1.8982611
v -3.3521390 -66.0000000 -11.3865271
vn 2.7036169 3.0328600 -1.5908840
v 3.6629095 -66.0000000 -16.1553631
vn -2.5356297 3.2066212 1.8519613
v -3.2123523 -66.0000000 -11.2076492
vn -2.6703370 3.2318621 1.6488819
v -3.0090461 -66.0000000 -10.9093962
vn -2.2966690 3.0328496 2.1367660
v -3.1115737 -66.0000000 16.8949299
vn -2.0512116 3.0328574 2.3733921
v -2.7790258 -66.0000000 17.2155113
vn -1.7815309 3.0328546 2.5819771
v -2.4136510 -66.0000000 17.4981117
vn -0.8601506 3.0328538 3.0167198
v -1.1653528 -66.0000000 18.0871086
vn -0.5276864 3.0328567 3.0922492
v -0.7149193 -66.0000000 18.1894379
vn -3.1397216 3.0927906 0.0766278
v -4.2500000 -66.0000000 -13.9117460
vn -3.1229162 3.0439873 0.3057832
v -4.2309618 -66.0000000 -13.5219460
vn -3.0782537 3.0439868 0.6086581
v -4.1740279 -66.0000000 -13.1358557
vn 3.0630596 3.0328560 0.6768492
v 4.1498909 -66.0000000 14.9170084
vn 3.1184227 3.0328531 0.3404358
v 4.2248988 -66.0000000 14.4612284
vn 0.1519526 3.0328500 3.1332676
v 0.2058622 -66.0000000 18.2450123
vn -0.1889890 3.0328536 3.1312521
v -0.2560408 -66.0000000 18.2422810
vn 2.9715128 3.0328529 1.0052698
v 4.0258632 -66.0000000 15.3619576
vn 0.4910911 3.0328586 3.0982721
v 0.6653334 -66.0000000 18.1975975
vn 0.8244183 3.0328560 3.0266802
v 1.1169454 -66.0000000 18.1006012
vn 2.0512116 3.0328572 -2.3733921
v 2.7790258 -66.0000000 -17.2155113
vn 1.7815309 3.0328546 -2.5819771
v 2.4136510 -66.0000000 -17.4981117
vn -1.1480216 3.0328455 -2.9193323
v -1.5553637 -66.0000000 -17.9551678
vn -3.0042894 3.0439892 0.9057357
v -4.0797405 -66.0000000 -12.7571526
vn -2.9017262 3.0439861 1.1941926
v -3.9489977 -66.0000000 -12.3894396
vn -1.4908050 3.0328557 2.7600660
v -2.0197651 -66.0000000 17.7393913
vn -1.1824629 3.0328510 2.9055529
v -1.6020209 -66.0000000 17.9365005
vn 1.1480216 3.0328496 2.9193323
v 1.5553637 -66.0000000 17.9551678
vn 1.4580629 3.0328572 2.7775011
v 1.9754093 -66.0000000 17.7630119
vn 1.7508764 3.0328522 2.6028616
v 2.3721206 -66.0000000 17.5264072
vn 2.2966690 3.0328496 -2.1367660
v 3.1115737 -66.0000000 -16.8949299
vn -0.4910911 3.0328612 -3.0982721
v -0.6653334 -66.0000000 -18.1975975
vn -0.8244183 3.0328562 -3.0266802
v -1.1169454 -66.0000000 -18.1006012
vn 1.1824629 3.0328526 -2.9055529
v 1.6020209 -66.0000000 -17.9365005
vn 1.4908050 3.0328560 -2.7600660
v 2.0197651 -66.0000000 -17.7393913
vn 0.8601506 3.0328538 -3.0167198
v 1.1653528 -66.0000000 -18.0871086
vn 0.5276864 3.0328574 -3.0922492
v 0.7149193 -66.0000000 -18.1894379
vn -0.1519526 3.0328481 -3.1332676
v -0.2058622 -66.0000000 -18.2450123
vn 0.1889890 3.0328541 -3.1312521
v 0.2560408 -66.0000000 -18.2422810
vn -2.0230117 3.0328543 -2.3974738
v -2.7408113 -66.0000000 -17.2481461
vn -2.2712471 3.0328555 -2.1637707
v -3.0771263 -66.0000000 -16.9315166
vn -2.4926524 3.0328536 -1.9045053
v -3.3770933 -66.0000000 -16.5802593
vn -2.9715128 3.0328515 -1.0052698
v -4.0258632 -66.0000000 -15.3619576
vn -3.0630596 3.0328557 -0.6768492
v -4.1498909 -66.0000000 -14.9170084
vn 2.0230117 3.0328546 2.3974738
v 2.7408113 -66.0000000 17.2481461
vn 2.2712471 3.0328548 2.1637707
v 3.0771263 -66.0000000 16.9315166
vn 2.8448668 3.0328579 1.3218147
v 3.8542798 -66.0000000 15.7908163
vn 2.4926524 3.0328546 1.9045053
v 3.3770933 -66.0000000 16.5802593
vn 2.6846161 3.0328541 1.6227422
v 3.6371686 -66.0000000 16.1985226
vn -3.1184227 3.0328531 -0.3404358
v -4.2248988 -66.0000000 -14.4612284
vn -3.1392686 3.0872238 -0.0853603
v -4.2500000 -66.0000000 -14.0000000
vn -2.6846161 3.0328536 -1.6227422
v -3.6371686 -66.0000000 -16.1985226
vn -2.8448668 3.0328567 -1.3218147
v -3.8542798 -66.0000000 -15.7908163
vn 3.1397195 -3.0927906 -0.0766278
v 4.2500000 -71.0000000 13.9117460
vn 3.1392713 -3.0872240 0.0853603
v 4.2500000 -71.0000000 14.0000000
vn 2.5085659 -3.1186450 -1.8908730
v 3.3521390 -71.0000000 11.3865271
vn 2.6149735 -3.0439854 -1.7343678
v 3.5834568 -71.0000000 11.7008486
vn 2.7715411 -3.0439892 -1.4712825
v 3.7830429 -71.0000000 12.0362177
vn 2.9017262 -3.0439861 -1.1941928
v 3.9489977 -71.0000000 12.3894396
vn 3.0042896 -3.0439892 -0.9057359
v 4.0797405 -71.0000000 12.7571526
vn 3.0782535 -3.0439868 -0.6086581
v 4.1740279 -71.0000000 13.1358557
vn 3.1229167 -3.0439873 -0.3057834
v 4.2309618 -71.0000000 13.5219460
vn 2.5500073 -3.2105031 -1.8317616
v 3.1718960 -71.0000000 11.1530266
vn -2.5356290 -3.2066195 1.8519608
v -3.2123523 -71.0000000 -11.2076492
vn -2.5028291 -3.1126900 1.8982618
v -3.3521390 -71.0000000 -11.3865271
vn -1.9635520 -4.7318535 -0.9915726
v -2.5708961 -71.0000000 -9.9223480
vn -2.9230103 -3.2318611 1.1425941
v -2.6870070 -71.0000000 -10.2641182
vn -2.8081069 -3.2318640 1.4014434
v -2.8334544 -71.0000000 -10.5940304
vn -2.6703370 -3.2318630 1.6488819
v -3.0090461 -71.0000000 -10.9093962
vn -2.8273633 -3.0872231 1.3668685
v -3.8751850 -71.0000000 15.7451181
vn -2.7370279 -3.3090069 1.5196345
v -8.1904430 -71.0000000 6.1627226
vn -2.6969419 -3.0325754 1.6021276
v -8.8123369 -71.0000000 5.2349992
vn -2.8552461 -3.0325747 1.2991836
v -9.3296013 -71.0000000 4.2451200
vn -2.9796498 -3.0325773 0.9808141
v -9.7360935 -71.0000000 3.2048378
vn -3.0686755 -3.0325737 0.6507983
v -10.0269880 -71.0000000 2.1265042
vn -3.1212664 -3.0325761 0.3130569
v -10.1988297 -71.0000000 1.0229222
vn -3.1367979 -3.0325732 -0.0284025
v -10.2495804 -71.0000000 -0.0928052
vn -3.1150861 -3.0325756 -0.3695253
v -10.1786346 -71.0000000 -1.2074307
vn -3.0563879 -3.0325749 -0.7062580
v -9.9868374 -71.0000000 -2.3077199
vn -2.9614015 -3.0325747 -1.0346067
v -9.6764650 -71.0000000 -3.3806098
vn -2.8312535 -3.0325747 -1.3506720
v -9.2512026 -71.0000000 -4.4133606
vn -2.6674895 -3.0325747 -1.6507001
v -8.7160988 -71.0000000 -5.3937116
vn -2.4720535 -3.0325747 -1.9311292
v -8.0775080 -71.0000000 -6.3100214
vn -2.2472672 -3.0325751 -2.1886296
v -7.3430109 -71.0000000 -7.1514120
vn -1.9957981 -3.0325737 -2.4201446
v -6.5213299 -71.0000000 -7.9078927
vn -1.7206326 -3.0325751 -2.6229248
v -5.6222191 -71.0000000 -8.5704813
vn -1.4250396 -3.0325751 -2.7945611
v -4.6563559 -71.0000000 -9.1313114
vn -1.1125245 -3.0325747 -2.9330187
v -3.6352067 -71.0000000 -9.5837250
vn 3.1184227 -3.0328531 0.3404358
v 4.2248988 -71.0000000 14.4612284
vn 3.0630593 -3.0328557 0.6768491
v 4.1498909 -71.0000000 14.9170084
vn 2.9715133 -3.0328515 1.0052699
v 4.0258632 -71.0000000 15.3619576
vn 2.8448663 -3.0328565 1.3218145
v 3.8542798 -71.0000000 15.7908163
vn 2.6846161 -3.0328536 1.6227419
v 3.6371686 -71.0000000 16.1985226
vn 2.4926534 -3.0328538 1.9045062
v 3.3770933 -71.0000000 16.5802593
vn 2.2712460 -3.0328555 2.1637697
v 3.0771263 -71.0000000 16.9315166
vn 2.0230117 -3.0328541 2.3974738
v 2.7408113 -71.0000000 17.2481461
vn 1.7508765 -3.0328522 2.6028616
v 2.3721206 -71.0000000 17.5264072
vn 1.4580629 -3.0328569 2.7775011
v 1.9754093 -71.0000000 17.7630119
vn 1.1480217 -3.0328496 2.9193325
v 1.5553637 -71.0000000 17.9551678
vn 0.8244184 -3.0328562 3.0266800
v 1.1169454 -71.0000000 18.1006012
vn 0.4910911 -3.0328591 3.0982721
v 0.6653334 -71.0000000 18.1975975
vn 0.1519526 -3.0328491 3.1332674
v 0.2058622 -71.0000000 18.2450123
vn -0.1889889 -3.0328536 3.1312523
v -0.2560408 -71.0000000 18.2422810
vn -0.5276864 -3.0328569 3.0922494
v -0.7149193 -71.0000000 18.1894379
vn -0.8601506 -3.0328541 3.0167198
v -1.1653528 -71.0000000 18.0871086
vn -1.1824634 -3.0328500 2.9055538
v -1.6020209 -71.0000000 17.9365005
vn -1.4908044 -3.0328557 2.7600651
v -2.0197651 -71.0000000 17.7393913
vn -1.7815307 -3.0328546 2.5819769
v -2.4136510 -71.0000000 17.4981117
vn -2.0512118 -3.0328574 2.3733923
v -2.7790258 -71.0000000 17.2155113
vn -2.2966695 -3.0328496 2.1367667
v -3.1115737 -71.0000000 16.8949299
vn -2.5150001 -3.0328526 1.8748946
v -3.4073660 -71.0000000 16.5401497
vn -2.7036171 -3.0328536 1.5908842
v -3.6629095 -71.0000000 16.1553631
vn -3.1392713 -3.0872309 -0.0853603
v -4.2500000 -71.0000000 -14.0000000
vn -3.1184227 -3.0328531 -0.3404358
v -4.2248988 -71.0000000 -14.4612284
vn -3.0630593 -3.0328557 -0.6768491
v -4.1498909 -71.0000000 -14.9170084
vn -2.9715133 -3.0328512 -1.0052699
v -4.0258632 -71.0000000 -15.3619576
vn -2.8448663 -3.0328569 -1.3218145
v -3.8542798 -71.0000000 -15.7908163
vn -2.6846161 -3.0328536 -1.6227419
v -3.6371686 -71.0000000 -16.1985226
vn -2.4926534 -3.0328534 -1.9045062
v -3.3770933 -71.0000000 -16.5802593
vn -2.2712460 -3.0328562 -2.1637697
v -3.0771263 -71.0000000 -16.9315166
vn -2.0230117 -3.0328538 -2.3974738
v -2.7408113 -71.0000000 -17.2481461
vn -1.7508765 -3.0328524 -2.6028616
v -2.3721206 -71.0000000 -17.5264072
vn -1.4580629 -3.0328522 -2.7775011
v -1.9754093 -71.0000000 -17.7630119
vn -1.1480217 -3.0328493 -2.9193325
v -1.5553637 -71.0000000 -17.9551678
vn -0.8244184 -3.0328560 -3.0266800
v -1.1169454 -71.0000000 -18.1006012
vn -0.4910911 -3.0328588 -3.0982721
v -0.6653334 -71.0000000 -18.1975975
vn -0.1519526 -3.0328493 -3.1332674
v -0.2058622 -71.0000000 -18.2450123
vn 0.1889889 -3.0328536 -3.1312523
v 0.2560408 -71.0000000 -18.2422810
vn 0.5276864 -3.0328567 -3.0922494
v 0.7149193 -71.0000000 -18.1894379
vn 0.8601506 -3.0328538 -3.0167198
v 1.1653528 -71.0000000 -18.0871086
vn 1.1824634 -3.0328510 -2.9055538
v 1.6020209 -71.0000000 -17.9365005
vn 1.4908044 -3.0328557 -2.7600651
v 2.0197651 -71.0000000 -17.7393913
vn 1.7815307 -3.0328546 -2.5819769
v 2.4136510 -71.0000000 -17.4981117
vn 2.0512118 -3.0328574 -2.3733923
v 2.7790258 -71.0000000 -17.2155113
vn 2.2966695 -3.0328496 -2.1367667
v 3.1115737 -71.0000000 -16.8949299
vn 2.5150001 -3.0328472 -1.8748946
v 3.4073660 -71.0000000 -16.5401497
vn 2.7036171 -3.0328541 -1.5908842
v 3.6629095 -71.0000000 -16.1553631
vn 2.8273633 -3.0872273 -1.3668685
v 3.8751850 -71.0000000 -15.7451181
vn 2.7370443 -3.3089881 -1.5196098
v 8.1904430 -71.0000000 -6.1627226
vn 2.6970000 -3.0325372 -1.6020236
v 8.8125362 -71.0000000 -5.2346640
vn 2.8553421 -3.0325370 -1.2989651
v 9.3299246 -71.0000000 -4.2444100
vn 2.9797592 -3.0325363 -0.9804707
v 9.7364597 -71.0000000 -3.2037258
vn 3.0687718 -3.0325384 -0.6503302
v 10.0273104 -71.0000000 -2.1249774
vn 3.1213226 -3.0325360 -0.3124636
v 10.1990242 -71.0000000 -1.0209808
vn 3.1367881 -3.0325358 0.0291193
v 10.2495584 -71.0000000 0.0951463
vn 3.1149840 -3.0325379 0.3703537
v 10.1783123 -71.0000000 1.2101430
vn 3.0561697 -3.0325360 0.7071877
v 9.9861345 -71.0000000 2.3107615
vn 2.9610434 -3.0325365 1.0356215
v 9.6753063 -71.0000000 3.3839247
vn 2.8307359 -3.0325375 1.3517482
v 9.2495213 -71.0000000 4.4168820
vn 2.6667950 -3.0325358 1.6518148
v 8.7138395 -71.0000000 5.3973608
vn 2.4711688 -3.0325372 1.9322565
v 8.0746241 -71.0000000 6.3137107
vn 2.2461812 -3.0325360 2.1897392
v 7.3394709 -71.0000000 7.1550450
vn 1.9945061 -3.0325370 2.4212046
v 6.5171142 -71.0000000 7.9113665
vn 1.7191334 -3.0325360 2.6239030
v 5.6173248 -71.0000000 8.5736904
vn 1.4233347 -3.0325370 2.7954264
v 4.6507936 -71.0000000 9.1341457
vn 1.1106254 -3.0325365 2.9337349
v 3.6290040 -71.0000000 9.5860748
vn 1.9612205 -4.7351503 0.9879751
v 2.5640967 -71.0000000 9.9241076
vn -2.6149735 -3.0439854 1.7343678
v -3.5834568 -71.0000000 -11.7008486
vn -2.7715411 -3.0439892 1.4712825
v -3.7830429 -71.0000000 -12.0362177
vn -2.9017262 -3.0439861 1.1941928
v -3.9489977 -71.0000000 -12.3894396
vn -3.0042896 -3.0439892 0.9057359
v -4.0797405 -71.0000000 -12.7571526
vn -3.0782535 -3.0439868 0.6086581
v -4.1740279 -71.0000000 -13.1358557
vn -3.1229167 -3.0439873 0.3057834
v -4.2309618 -71.0000000 -13.5219460
vn -3.1397195 -3.0927906 0.0766278
v -4.2500000 -71.0000000 -13.9117460
vn 2.9226422 -3.2277074 -1.1443236
v 2.6757228 -71.0000000 10.2498589
vn 2.8133926 -3.2277050 -1.3914514
v 2.8149521 -71.0000000 10.5648012
vn 2.6832952 -3.2277036 -1.6282634
v 2.9807529 -71.0000000 10.8666029
# 228 vertices, 0 vertices normals

f 1//1 2//2 3//3
f 2//2 4//4 3//3
f 3//3 4//4 5//5
f 4//4 6//6 5//5
f 5//5 6//6 7//7
f 8//8 9//9 10//10
f 11//11 12//12 13//13
f 12//12 14//14 13//13
f 13//13 14//14 15//15
f 14//14 16//16 15//15
f 15//15 16//16 17//17
f 18//18 19//19 20//20
f 19//19 21//21 20//20
f 11//11 13//13 20//20
f 13//13 22//22 20//20
f 20//20 22//22 18//18
f 1//1 3//3 10//10
f 3//3 23//23 10//10
f 10//10 23//23 8//8
f 10//10 24//24 25//25
f 21//21 26//26 20//20
f 26//26 27//27 20//20
f 20//20 27//27 28//28
f 28//28 29//29 20//20
f 29//29 30//30 20//20
f 20//20 30//30 31//31
f 9//9 32//32 10//10
f 32//32 33//33 10//10
f 10//10 33//33 24//24
f 25//25 34//34 10//10
f 34//34 35//35 10//10
f 10//10 35//35 36//36
f 37//37 38//38 39//39
f 38//38 40//40 39//39
f 31//31 41//41 20//20
f 41//41 42//42 20//20
f 20//20 42//42 43//43
f 44//44 45//45 10//10
f 45//45 20//20 10//10
f 10//10 20//20 46//46
f 20//20 43//43 46//46
f 36//36 47//47 10//10
f 47//47 48//48 10//10
f 10//10 48//48 44//44
f 39//39 49//49 50//50
f 40//40 51//51 39//39
f 51//51 52//52 39//39
f 39//39 52//52 49//49
f 50//50 53//53 39//39
f 53//53 54//54 39//39
f 39//39 54//54 55//55
f 54//54 56//56 55//55
f 55//55 56//56 6//6
f 56//56 57//57 6//6
f 6//6 57//57 7//7
f 58//58 59//59 60//60
f 61//61 62//62 60//60
f 62//62 63//63 60//60
f 60//60 63//63 64//64
f 63//63 65//65 64//64
f 64//64 65//65 16//16
f 65//65 66//66 16//16
f 16//16 66//66 17//17
f 39//39 67//67 37//37
f 67//67 68//68 37//37
f 37//37 68//68 69//69
f 37//37 70//70 71//71
f 72//72 73//73 60//60
f 73//73 74//74 60//60
f 75//75 76//76 77//77
f 76//76 37//37 77//77
f 77//77 37//37 78//78
f 37//37 71//71 78//78
f 75//75 77//77 79//79
f 77//77 80//80 79//79
f 79//79 80//80 81//81
f 82//82 83//83 84//84
f 74//74 85//85 60//60
f 85//85 86//86 60//60
f 60//60 86//86 61//61
f 69//69 87//87 37//37
f 87//87 88//88 37//37
f 37//37 88//88 70//70
f 81//81 89//89 79//79
f 89//89 90//90 79//79
f 79//79 90//90 91//91
f 58//58 60//60 84//84
f 60//60 92//92 84//84
f 84//84 92//92 82//82
f 93//93 94//94 95//95
f 94//94 84//84 95//95
f 95//95 84//84 96//96
f 84//84 83//83 96//96
f 95//95 97//97 93//93
f 97//97 98//98 93//93
f 93//93 98//98 99//99
f 98//98 100//100 99//99
f 59//59 101//101 60//60
f 101//101 102//102 60//60
f 60//60 102//102 103//103
f 60//60 104//104 105//105
f 91//91 106//106 79//79
f 106//106 107//107 79//79
f 79//79 107//107 108//108
f 107//107 109//109 108//108
f 108//108 109//109 110//110
f 105//105 111//111 60//60
f 111//111 112//112 60//60
f 60//60 112//112 72//72
f 103//103 113//113 60//60
f 113//113 114//114 60//60
f 60//60 114//114 104//104
f 38//38 37//37 115//115
f 37//37 116//116 115//115
f 117//117 54//54 53//53
f 117//117 53//53 118//118
f 53//53 50//50 118//118
f 118//118 50//50 119//119
f 50//50 49//49 119//119
f 119//119 49//49 120//120
f 49//49 52//52 120//120
f 120//120 52//52 121//121
f 52//52 51//51 121//121
f 121//121 51//51 122//122
f 51//51 40//40 122//122
f 122//122 40//40 123//123
f 40//40 38//38 123//123
f 123//123 38//38 115//115
f 124//124 56//56 117//117
f 56//56 54//54 117//117
f 125//125 65//65 126//126
f 65//65 63//63 126//126
f 127//127 13//13 128//128
f 13//13 15//15 128//128
f 128//128 15//15 129//129
f 15//15 17//17 129//129
f 129//129 17//17 130//130
f 17//17 66//66 130//130
f 130//130 66//66 125//125
f 66//66 65//65 125//125
f 131//131 6//6 132//132
f 6//6 4//4 132//132
f 132//132 4//4 2//2
f 132//132 2//2 133//133
f 2//2 1//1 133//133
f 133//133 1//1 134//134
f 1//1 10//10 134//134
f 134//134 10//10 135//135
f 10//10 46//46 135//135
f 135//135 46//46 136//136
f 46//46 43//43 136//136
f 136//136 43//43 137//137
f 43//43 42//42 137//137
f 137//137 42//42 138//138
f 42//42 41//41 138//138
f 138//138 41//41 139//139
f 41//41 31//31 139//139
f 139//139 31//31 140//140
f 31//31 30//30 140//140
f 140//140 30//30 141//141
f 30//30 29//29 141//141
f 141//141 29//29 142//142
f 29//29 28//28 142//142
f 142//142 28//28 143//143
f 28//28 27//27 143//143
f 143//143 27//27 144//144
f 27//27 26//26 144//144
f 144//144 26//26 145//145
f 26//26 21//21 145//145
f 145//145 21//21 146//146
f 21//21 19//19 146//146
f 146//146 19//19 147//147
f 19//19 18//18 147//147
f 147//147 18//18 148//148
f 18//18 22//22 148//148
f 148//148 22//22 149//149
f 22//22 13//13 149//149
f 149//149 13//13 127//127
f 116//116 37//37 76//76
f 116//116 76//76 150//150
f 76//76 75//75 150//150
f 150//150 75//75 151//151
f 75//75 79//79 151//151
f 151//151 79//79 152//152
f 79//79 108//108 152//152
f 152//152 108//108 153//153
f 108//108 110//110 153//153
f 153//153 110//110 154//154
f 110//110 109//109 154//154
f 154//154 109//109 155//155
f 109//109 107//107 155//155
f 155//155 107//107 156//156
f 107//107 106//106 156//156
f 156//156 106//106 157//157
f 106//106 91//91 157//157
f 157//157 91//91 158//158
f 91//91 90//90 158//158
f 158//158 90//90 159//159
f 90//90 89//89 159//159
f 159//159 89//89 160//160
f 89//89 81//81 160//160
f 160//160 81//81 161//161
f 81//81 80//80 161//161
f 161//161 80//80 162//162
f 80//80 77//77 162//162
f 162//162 77//77 163//163
f 77//77 78//78 163//163
f 163//163 78//78 164//164
f 78//78 71//71 164//164
f 164//164 71//71 165//165
f 71//71 70//70 165//165
f 165//165 70//70 166//166
f 70//70 88//88 166//166
f 166//166 88//88 167//167
f 88//88 87//87 167//167
f 167//167 87//87 168//168
f 87//87 69//69 168//168
f 168//168 69//69 169//169
f 69//69 68//68 169//169
f 169//169 68//68 170//170
f 68//68 67//67 170//170
f 170//170 67//67 171//171
f 67//67 39//39 171//171
f 171//171 39//39 172//172
f 39//39 55//55 172//172
f 172//172 55//55 173//173
f 55//55 6//6 173//173
f 173//173 6//6 131//131
f 174//174 112//112 111//111
f 174//174 111//111 175//175
f 111//111 105//105 175//175
f 175//175 105//105 176//176
f 105//105 104//104 176//176
f 176//176 104//104 177//177
f 104//104 114//114 177//177
f 177//177 114//114 178//178
f 114//114 113//113 178//178
f 178//178 113//113 179//179
f 113//113 103//103 179//179
f 179//179 103//103 180//180
f 103//103 102//102 180//180
f 180//180 102//102 181//181
f 102//102 101//101 181//181
f 181//181 101//101 182//182
f 101//101 59//59 182//182
f 182//182 59//59 183//183
f 59//59 58//58 183//183
f 183//183 58//58 184//184
f 58//58 84//84 184//184
f 184//184 84//84 185//185
f 84//84 94//94 185//185
f 185//185 94//94 186//186
f 94//94 93//93 186//186
f 186//186 93//93 187//187
f 93//93 99//99 187//187
f 187//187 99//99 188//188
f 99//99 100//100 188//188
f 188//188 100//100 189//189
f 100//100 98//98 189//189
f 189//189 98//98 190//190
f 98//98 97//97 190//190
f 190//190 97//97 191//191
f 97//97 95//95 191//191
f 191//191 95//95 192//192
f 95//95 96//96 192//192
f 192//192 96//96 193//193
f 96//96 83//83 193//193
f 193//193 83//83 194//194
f 83//83 82//82 194//194
f 194//194 82//82 195//195
f 82//82 92//92 195//195
f 195//195 92//92 196//196
f 92//92 60//60 196//196
f 196//196 60//60 197//197
f 60//60 64//64 197//197
f 197//197 64//64 198//198
f 64//64 16//16 198//198
f 198//198 16//16 199//199
f 200//200 14//14 12//12
f 200//200 12//12 201//201
f 12//12 11//11 201//201
f 201//201 11//11 202//202
f 11//11 20//20 202//202
f 202//202 20//20 203//203
f 20//20 45//45 203//203
f 203//203 45//45 204//204
f 45//45 44//44 204//204
f 204//204 44//44 205//205
f 44//44 48//48 205//205
f 205//205 48//48 206//206
f 48//48 47//47 206//206
f 206//206 47//47 207//207
f 47//47 36//36 207//207
f 207//207 36//36 208//208
f 36//36 35//35 208//208
f 208//208 35//35 209//209
f 35//35 34//34 209//209
f 209//209 34//34 210//210
f 34//34 25//25 210//210
f 210//210 25//25 211//211
f 25//25 24//24 211//211
f 211//211 24//24 212//212
f 24//24 33//33 212//212
f 212//212 33//33 213//213
f 33//33 32//32 213//213
f 213//213 32//32 214//214
f 32//32 9//9 214//214
f 214//214 9//9 215//215
f 9//9 8//8 215//215
f 215//215 8//8 216//216
f 8//8 23//23 216//216
f 216//216 23//23 217//217
f 23//23 3//3 217//217
f 217//217 3//3 218//218
f 126//126 63//63 62//62
f 126//126 62//62 219//219
f 62//62 61//61 219//219
f 219//219 61//61 220//220
f 61//61 86//86 220//220
f 220//220 86//86 221//221
f 86//86 85//85 221//221
f 221//221 85//85 222//222
f 85//85 74//74 222//222
f 222//222 74//74 223//223
f 74//74 73//73 223//223
f 223//223 73//73 224//224
f 73//73 72//72 224//224
f 224//224 72//72 225//225
f 199//199 16//16 200//200
f 16//16 14//14 200//200
f 132//132 218//218 131//131
f 218//218 226//226 131//131
f 200//200 127//127 199//199
f 127//127 128//128 199//199
f 205//205 135//135 204//204
f 135//135 203//203 204//204
f 135//135 136//136 203//203
f 136//136 137//137 203//203
f 203//203 137//137 138//138
f 211//211 212//212 135//135
f 132//132 133//133 218//218
f 133//133 134//134 218//218
f 218//218 134//134 217//217
f 134//134 135//135 217//217
f 217//217 135//135 216//216
f 135//135 215//215 216//216
f 138//138 139//139 203//203
f 139//139 140//140 203//203
f 203//203 140//140 141//141
f 205//205 206//206 135//135
f 206//206 207//207 135//135
f 135//135 207//207 208//208
f 208//208 209//209 135//135
f 209//209 210//210 135//135
f 135//135 210//210 211//211
f 212//212 213//213 135//135
f 213//213 214//214 135//135
f 135//135 214//214 215//215
f 141//141 142//142 203//203
f 142//142 143//143 203//203
f 203//203 143//143 144//144
f 123//123 115//115 172//172
f 115//115 116//116 172//172
f 172//172 116//116 171//171
f 144//144 145//145 203//203
f 145//145 146//146 203//203
f 203//203 146//146 147//147
f 119//119 120//120 172//172
f 220//220 221//221 197//197
f 119//119 172//172 118//118
f 200//200 201//201 127//127
f 201//201 202//202 127//127
f 127//127 202//202 149//149
f 202//202 203//203 149//149
f 149//149 203//203 148//148
f 203//203 147//147 148//148
f 220//220 197//197 219//219
f 188//188 189//189 174//174
f 226//226 227//227 131//131
f 227//227 228//228 131//131
f 131//131 228//228 173//173
f 228//228 124//124 173//173
f 173//173 124//124 172//172
f 124//124 117//117 172//172
f 172//172 117//117 118//118
f 120//120 121//121 172//172
f 121//121 122//122 172//172
f 172//172 122//122 123//123
f 128//128 129//129 199//199
f 129//129 130//130 199//199
f 199//199 130//130 198//198
f 130//130 125//125 198//198
f 198//198 125//125 197//197
f 125//125 126//126 197//197
f 197//197 126//126 219//219
f 221//221 222//222 197//197
f 222//222 223//223 197//197
f 197//197 223//223 224//224
f 189//189 190//190 174//174
f 190//190 191//191 174//174
f 174//174 191//191 192//192
f 168//168 116//116 167//167
f 116//116 150//150 167//167
f 162//162 163//163 167//167
f 192//192 193//193 174//174
f 193//193 194//194 174//174
f 174//174 194//194 195//195
f 224//224 225//225 197//197
f 225//225 174//174 197//197
f 197//197 174//174 196//196
f 174//174 195//195 196//196
f 168//168 169//169 116//116
f 169//169 170//170 116//116
f 116//116 170//170 171//171
f 176//176 177//177 184//184
f 185//185 186//186 174//174
f 186//186 187//187 174//174
f 174//174 187//187 188//188
f 150//150 151//151 167//167
f 151//151 152//152 167//167
f 167//167 152//152 153//153
f 153//153 154//154 167//167
f 154//154 155//155 167//167
f 167//167 155//155 156//156
f 156//156 157//157 167//167
f 157//157 158//158 167//167
f 167//167 158//158 159//159
f 163//163 164//164 167//167
f 164//164 165//165 167//167
f 167//167 165//165 166//166
f 159//159 160//160 167//167
f 160//160 161//161 167//167
f 167//167 161//161 162//162
f 185//185 174//174 184//184
f 174//174 175//175 184//184
f 184//184 175//175 176//176
f 177//177 178//178 184//184
f 178//178 179//179 184//184
f 184//184 179//179 180//180
f 180//180 181//181 184//184
f 181//181 182//182 184//184
f 184//184 182//182 183//183
f 72//72 112//112 225//225
f 112//112 174//174 225//225
f 218//218 3//3 226//226
f 3//3 5//5 226//226
f 226//226 5//5 227//227
f 5//5 7//7 227//227
f 227//227 7//7 228//228
f 7//7 57//57 228//228
f 228//228 57//57 124//124
f 57//57 56//56 124//124
# 452 faces, 0 coords texture

# End of File
